<?xml version="1.0" standalone="no"?>
<!DOCTYPE svg PUBLIC "-//W3C//DTD SVG 1.1//EN" "http://www.w3.org/Graphics/SVG/1.1/DTD/svg11.dtd" >
<svg>
<metadata>
Created by FontForge 20120731 at Tue Jul  2 04:51:58 2019
 By www
Copyright (c) 2014 by Rene' Bieder. All rights reserved.
</metadata>
<defs>
<font id="GalanoClassicAltW00-Black" horiz-adv-x="670" >
  <font-face 
    font-family="GalanoClassicAltW00-Black"
    font-weight="900"
    font-stretch="normal"
    units-per-em="1000"
    panose-1="1 0 0 0 0 0 0 0 0 0"
    ascent="800"
    descent="-200"
    x-height="508"
    cap-height="760"
    bbox="-160 -310 2901 1067"
    underline-thickness="50"
    underline-position="-75"
    unicode-range="U+0020-FB02"
  />
<missing-glyph horiz-adv-x="855" 
d="M428 765q77 0 148 -29t124.5 -81.5t84 -124t30.5 -152.5q0 -82 -30.5 -153.5t-84 -123.5t-124.5 -80.5t-148 -28.5t-148 28.5t-125 80.5t-84.5 124t-30.5 153t30.5 152.5t84.5 124t125 81.5t148 29zM428 708q-65 0 -125 -24.5t-105 -69t-70.5 -106t-25.5 -130.5
t25.5 -130t70.5 -106t105 -69.5t125 -24.5t124.5 24.5t104.5 69.5t70.5 106t25.5 130t-25.5 130.5t-70.5 106t-104.5 69t-124.5 24.5zM587 453q0 -43 -29 -73.5t-78 -43.5v-29h-120v103h50q23 0 38 9.5t15 25.5q0 15 -10.5 24.5t-28.5 9.5t-30 -11.5t-13 -29.5l-122 24
q9 39 33.5 67t59.5 42t82 14q67 0 110 -38.5t43 -93.5zM418 288q27 0 46.5 -19.5t19.5 -44.5q0 -26 -19 -45t-47 -19t-47 19t-19 45q0 25 19.5 44.5t46.5 19.5z" />
    <glyph glyph-name="uniFB01" unicode="fi" horiz-adv-x="668" 
d="M633 508v-508h-215v343h-135v-343h-215v343h-68v165h68v66q0 39 14 80.5t53 81.5t98 59.5t119 19.5q51 0 98.5 -14t101.5 -45l-77 -157q-46 39 -103 39q-38 0 -63.5 -22t-25.5 -57v-51h350z" />
    <glyph glyph-name="uniFB02" unicode="fl" horiz-adv-x="751" 
d="M721 176l30 -151q-44 -25 -72.5 -32.5t-64.5 -7.5q-84 0 -136 53t-52 140v165h-143v-343h-215v343h-68v165h68v66q0 39 14 80.5t53 81.5t98 59.5t119 19.5q57 0 103 -15h186v-603q0 -14 9 -23.5t22 -9.5q12 0 49 12zM426 508v120q-25 10 -54 10q-38 0 -63.5 -22
t-25.5 -57v-51h143z" />
    <glyph glyph-name="f_f.liga" unicode="ff" horiz-adv-x="771" 
d="M631 508h140v-165h-140v-343h-215v343h-133v-343h-215v343h-68v165h68v66q0 39 14 80.5t53 81.5t98 59.5t119 19.5q82 0 157 -36q26 16 60.5 26t68.5 10q83 0 145 -55l-71 -135q-17 13 -37 13t-32 -12t-12 -31v-87zM416 508v86q0 19 3 37q-24 7 -47 7q-38 0 -63.5 -22
t-25.5 -57v-51h133z" />
    <glyph glyph-name="f_f_i.liga" unicode="ffi" horiz-adv-x="1021" 
d="M986 508v-508h-215v343h-135v-343h-215v343h-138v-343h-215v343h-68v165h68v66q0 39 14 80.5t53 81.5t98 59.5t119 19.5q89 0 177 -46q75 46 176 46q51 0 98.5 -14t101.5 -45l-77 -157q-46 39 -103 39q-38 0 -63.5 -22t-25.5 -57v-51h350zM421 508v66q0 29 6 54
q-25 10 -55 10q-38 0 -63.5 -22t-25.5 -57v-51h138z" />
    <glyph glyph-name="f_f_l.liga" unicode="ffl" horiz-adv-x="1099" 
d="M1069 176l30 -151q-44 -25 -72.5 -32.5t-64.5 -7.5q-84 0 -136 53t-52 140v165h-143v-343h-215v343h-133v-343h-215v343h-68v165h68v66q0 39 14 80.5t53 81.5t98 59.5t119 19.5q45 0 87 -10.5t87 -34.5q73 45 174 45q57 0 103 -15h186v-603q0 -14 9 -23.5t22 -9.5
q12 0 49 12zM416 508v66q0 29 6 56q-24 8 -50 8q-38 0 -63.5 -22t-25.5 -57v-51h133zM774 508v120q-25 10 -54 10q-38 0 -63.5 -22t-25.5 -57v-51h143z" />
    <glyph glyph-name=".notdef" horiz-adv-x="855" 
d="M428 765q77 0 148 -29t124.5 -81.5t84 -124t30.5 -152.5q0 -82 -30.5 -153.5t-84 -123.5t-124.5 -80.5t-148 -28.5t-148 28.5t-125 80.5t-84.5 124t-30.5 153t30.5 152.5t84.5 124t125 81.5t148 29zM428 708q-65 0 -125 -24.5t-105 -69t-70.5 -106t-25.5 -130.5
t25.5 -130t70.5 -106t105 -69.5t125 -24.5t124.5 24.5t104.5 69.5t70.5 106t25.5 130t-25.5 130.5t-70.5 106t-104.5 69t-124.5 24.5zM587 453q0 -43 -29 -73.5t-78 -43.5v-29h-120v103h50q23 0 38 9.5t15 25.5q0 15 -10.5 24.5t-28.5 9.5t-30 -11.5t-13 -29.5l-122 24
q9 39 33.5 67t59.5 42t82 14q67 0 110 -38.5t43 -93.5zM418 288q27 0 46.5 -19.5t19.5 -44.5q0 -26 -19 -45t-47 -19t-47 19t-19 45q0 25 19.5 44.5t46.5 19.5z" />
    <glyph glyph-name=".null" horiz-adv-x="0" 
 />
    <glyph glyph-name="nonmarkingreturn" horiz-adv-x="333" 
 />
    <glyph glyph-name="space" unicode=" " horiz-adv-x="210" 
 />
    <glyph glyph-name="exclam" unicode="!" horiz-adv-x="315" 
d="M280 760v-31l-20 -459h-205l-20 459v31h245zM164 216q23 0 50.5 -11.5t47 -39.5t19.5 -60q0 -22 -11 -48t-40 -44.5t-66 -18.5t-65.5 18.5t-39.5 44.5t-11 48q0 21 11 46.5t40 45t65 19.5z" />
    <glyph glyph-name="quotedbl" unicode="&#x22;" horiz-adv-x="495" 
d="M40 412v348h185v-348h-185zM270 412v348h185v-348h-185z" />
    <glyph glyph-name="numbersign" unicode="#" horiz-adv-x="748" 
d="M599 441l-29 -133h98l-40 -149h-90l-35 -159h-164l35 159h-93l-35 -159h-164l35 159h-97l40 149h89l29 133h-97l39 148h91l37 171h164l-37 -171h93l37 171h164l-37 -171h96l-39 -148h-90zM435 441h-93l-29 -133h93z" />
    <glyph glyph-name="dollar" unicode="$" horiz-adv-x="676" 
d="M656 235q0 -60 -23 -106t-65.5 -79t-104.5 -50v-156h-197v148q-99 19 -165.5 80.5t-78.5 148.5l223 46q21 -95 105 -95q31 0 50.5 13t19.5 34q0 36 -42 49l-137 41q-100 30 -147.5 81.5t-47.5 135.5q0 35 9.5 71.5t33.5 69t62.5 58t94.5 38.5v131h197v-130
q84 -19 139 -72.5t69 -136.5l-213 -43q-19 86 -95 86q-27 0 -44.5 -13t-17.5 -34q0 -18 10 -30t24 -17l134 -45q107 -36 157 -86.5t50 -137.5z" />
    <glyph glyph-name="percent" unicode="%" horiz-adv-x="928" 
d="M226 775q27 0 58 -8.5t63 -32.5t49 -61.5t17 -76.5q0 -29 -10 -60t-34 -57t-60.5 -43.5t-82.5 -17.5q-47 0 -92.5 22t-71 64.5t-25.5 91.5t25.5 92t71 65t92.5 22zM174 0l471 760h107l-471 -760h-107zM225 659q-24 0 -43.5 -17.5t-19.5 -44.5t19.5 -45t43.5 -18
t43.5 17.5t19.5 45.5q0 27 -19.5 44.5t-43.5 17.5zM704 342q27 0 58 -8.5t63 -32.5t49 -61.5t17 -76.5q0 -29 -10 -60t-34 -57t-60.5 -43.5t-82.5 -17.5q-47 0 -92.5 22t-71 64.5t-25.5 91.5t25.5 92t71 65t92.5 22zM703 226q-24 0 -43.5 -17.5t-19.5 -44.5t19.5 -45
t43.5 -18t43.5 17.5t19.5 45.5q0 27 -19.5 44.5t-43.5 17.5z" />
    <glyph glyph-name="ampersand" unicode="&#x26;" horiz-adv-x="764" 
d="M642 -27l-93 80q-50 -33 -111.5 -50.5t-124.5 -17.5q-62 0 -116.5 16t-94 46.5t-61 73t-21.5 93.5q0 31 11.5 68t43 72t76.5 60q-55 72 -55 146q0 47 18.5 87t53 68.5t82.5 44t103 15.5q74 0 128 -24.5t88.5 -70.5t44.5 -114l-194 -36q-5 43 -21.5 62t-44.5 19
q-23 0 -37.5 -15.5t-14.5 -38.5q0 -27 18.5 -55t60.5 -67l126 -109q5 30 5 59v36h200v-36q0 -112 -44 -198l96 -82zM331 150q18 0 39 6t39 17l-140 122q-16 -13 -25.5 -30t-9.5 -33q0 -35 25.5 -58.5t71.5 -23.5z" />
    <glyph glyph-name="quotesingle" unicode="'" horiz-adv-x="265" 
d="M40 412v348h185v-348h-185z" />
    <glyph glyph-name="parenleft" unicode="(" horiz-adv-x="407" 
d="M247 376q0 -40 8.5 -89t34.5 -103t92 -142l-151 -134q-67 75 -111 144.5t-69.5 150.5t-25.5 173q0 126 48 235t158 232l143 -135q-65 -96 -85.5 -141.5t-31 -91t-10.5 -99.5z" />
    <glyph glyph-name="parenright" unicode=")" horiz-adv-x="407" 
d="M33 708l143 135q110 -123 158 -232t48 -235q0 -74 -18.5 -148t-61 -149.5t-126.5 -170.5l-151 134q50 67 79.5 118t42.5 106.5t13 109.5q0 40 -8 87t-31 98t-88 147z" />
    <glyph glyph-name="asterisk" unicode="*" horiz-adv-x="447" 
d="M328 577l89 -51l-52 -90l-86 49v-92h-111v93l-86 -49l-52 89l89 51l-89 50l52 90l86 -49v92h111v-92l86 49l52 -89z" />
    <glyph glyph-name="plus" unicode="+" horiz-adv-x="560" 
d="M530 220h-170v-170h-160v170h-170v160h170v170h160v-170h170v-160z" />
    <glyph glyph-name="comma" unicode="," horiz-adv-x="289" 
d="M155 -132h-165l57 328h227v-5z" />
    <glyph glyph-name="hyphen" unicode="-" horiz-adv-x="458" 
d="M398 190h-338v176h338v-176z" />
    <glyph glyph-name="period" unicode="." horiz-adv-x="263" 
d="M131 227q23 0 50.5 -12t47 -41.5t19.5 -63.5q0 -50 -33 -83t-84 -33q-50 0 -83 33t-33 83q0 22 11 49t40 47.5t65 20.5z" />
    <glyph glyph-name="slash" unicode="/" horiz-adv-x="468" 
d="M443 829l-288 -910h-130l288 910h130z" />
    <glyph glyph-name="zero" unicode="0" horiz-adv-x="848" 
d="M424 774q81 0 154.5 -30.5t128.5 -84.5t85.5 -127t30.5 -153q0 -81 -30.5 -153.5t-85.5 -126.5t-128.5 -84t-154.5 -30t-154.5 30t-128.5 84t-85.5 126.5t-30.5 153.5q0 80 30.5 153t85.5 127t128.5 84.5t154.5 30.5zM424 180q38 0 70.5 15t56.5 42.5t37 64t13 77.5
q0 30 -8.5 64t-30 63.5t-56.5 50.5t-82 21q-38 0 -70.5 -15t-56.5 -42.5t-37 -64t-13 -77.5q0 -30 8.5 -64t30 -63.5t56.5 -50.5t82 -21z" />
    <glyph glyph-name="one" unicode="1" horiz-adv-x="476" 
d="M421 760v-760h-228v491l-163 -48v207l350 110h41z" />
    <glyph glyph-name="two" unicode="2" horiz-adv-x="654" 
d="M624 195v-195h-601v64l306 338q59 64 59 116q0 30 -19 49t-49 19q-73 0 -83 -101l-212 39q2 26 10.5 58.5t29 65t55.5 61.5t89 47.5t117 18.5t116.5 -18.5t92 -52.5t59 -82t20.5 -104q0 -37 -9 -65t-20.5 -47.5t-25 -37t-36 -43t-28.5 -33.5l-81 -97h210z" />
    <glyph glyph-name="three" unicode="3" horiz-adv-x="651" 
d="M633 686l-164 -217q78 -23 117.5 -78.5t39.5 -137.5q0 -60 -21 -110.5t-60.5 -85.5t-94.5 -54t-120 -19q-62 0 -117 17t-97 50.5t-67 82t-30 107.5l217 41q2 -57 31 -84t67 -27q36 0 61 21t25 56q0 34 -25 55t-66 21h-156l-11 24l151 220h-250l5 192h565v-74z" />
    <glyph glyph-name="four" unicode="4" horiz-adv-x="751" 
d="M751 111h-115v-111h-211v111h-405v130l468 519h148v-479h115v-170zM425 281v163l-148 -163h148z" />
    <glyph glyph-name="five" unicode="5" horiz-adv-x="646" 
d="M263 494h86q136 0 206.5 -65.5t70.5 -178.5q0 -59 -21.5 -108.5t-60.5 -84.5t-94.5 -54t-120.5 -19q-61 0 -115.5 17t-96.5 50t-67.5 81.5t-30.5 108.5l217 41q2 -57 30 -85t66 -28q37 0 62.5 22t25.5 57q0 34 -25 55t-66 21h-285l58 436h487v-195h-316z" />
    <glyph glyph-name="six" unicode="6" horiz-adv-x="662" 
d="M540 760l-145 -221q37 -7 78 -24.5t82 -55t61.5 -90t20.5 -105.5q0 -60 -24 -112t-66.5 -89.5t-99 -57.5t-117.5 -20t-116.5 20t-98 57.5t-66.5 89.5t-24 112q0 91 51 161l226 335h238zM330 173q19 0 42 9t39.5 31.5t16.5 50.5q0 18 -9.5 39.5t-34 37.5t-54.5 16
q-18 0 -40.5 -9.5t-39 -32.5t-16.5 -51q0 -18 9.5 -39t33.5 -36.5t53 -15.5z" />
    <glyph glyph-name="seven" unicode="7" horiz-adv-x="643" 
d="M623 760v-67l-299 -693h-247l252 565h-299v195h593z" />
    <glyph glyph-name="eight" unicode="8" horiz-adv-x="667" 
d="M513 397q59 -26 91.5 -73.5t32.5 -112.5q0 -47 -22 -89t-62 -72.5t-97 -47.5t-124 -17q-66 0 -122 17t-96.5 48t-62 72.5t-21.5 89.5q0 65 32.5 112t91.5 73q-34 17 -57.5 44t-32 58t-8.5 58q0 44 21 84t59 70t89 47t108 17t108.5 -17t89.5 -47t59 -70t21 -84
q0 -27 -8.5 -58t-32 -58t-57.5 -44zM333 608q-30 0 -52 -20.5t-22 -50.5t22 -51t52 -21t52.5 21t22.5 51q0 31 -22.5 51t-52.5 20zM333 161q32 0 55 21t23 53t-23 53t-55 21q-14 0 -32 -7t-31.5 -25.5t-13.5 -41.5q0 -32 23 -53t54 -21z" />
    <glyph glyph-name="nine" unicode="9" horiz-adv-x="667" 
d="M637 496q0 -91 -51 -161l-226 -335h-238l145 221q-37 7 -78 24.5t-82 55t-61.5 90t-20.5 105.5q0 60 24 112t66.5 89.5t99 57.5t117.5 20t116.5 -20t98 -57.5t66.5 -89.5t24 -112zM234 496q0 -18 9.5 -39.5t34 -37.5t54.5 -16q18 0 40.5 9.5t39 32.5t16.5 51
q0 18 -9.5 39t-33.5 36.5t-53 15.5q-19 0 -42 -9t-39.5 -31.5t-16.5 -50.5z" />
    <glyph glyph-name="colon" unicode=":" horiz-adv-x="263" 
d="M131 518q23 0 50.5 -12t47 -41.5t19.5 -63.5q0 -50 -33 -83t-84 -33q-50 0 -83 33t-33 83q0 22 11 49t40 47.5t65 20.5zM131 227q23 0 50.5 -12t47 -41.5t19.5 -63.5q0 -50 -33 -83t-84 -33q-50 0 -83 33t-33 83q0 22 11 49t40 47.5t65 20.5z" />
    <glyph glyph-name="semicolon" unicode=";" horiz-adv-x="300" 
d="M168 518q23 0 50.5 -12t47 -41.5t19.5 -63.5q0 -50 -33 -83t-84 -33q-50 0 -83 33t-33 83q0 22 11 49t40 47.5t65 20.5zM155 -132h-165l57 328h227v-5z" />
    <glyph glyph-name="less" unicode="&#x3c;" horiz-adv-x="504" 
d="M464 89l-434 143v185l434 143v-182l-233 -53l233 -54v-182z" />
    <glyph glyph-name="equal" unicode="=" horiz-adv-x="560" 
d="M530 328h-500v150h500v-150zM530 130h-500v150h500v-150z" />
    <glyph glyph-name="greater" unicode="&#x3e;" horiz-adv-x="504" 
d="M273 325l-233 53v182l434 -143v-185l-434 -143v182z" />
    <glyph glyph-name="question" unicode="?" horiz-adv-x="560" 
d="M291 775q58 0 106 -16.5t81 -45.5t50 -68t17 -82q0 -69 -42.5 -117.5t-117.5 -70.5v-105h-215l1 234h88q31 0 49.5 12t18.5 33q0 17 -12 29t-30 12q-19 0 -32.5 -14.5t-15.5 -38.5l-217 44q9 40 31.5 75.5t56.5 62t81 41.5t102 15zM274 216q23 0 50.5 -11.5t47 -39.5
t19.5 -60q0 -22 -11 -48t-40 -44.5t-66 -18.5t-65.5 18.5t-39.5 44.5t-11 48q0 21 11 46.5t40 45t65 19.5z" />
    <glyph glyph-name="at" unicode="@" horiz-adv-x="999" 
d="M741 524v-311q0 -21 12.5 -32t32.5 -11q14 0 26 8.5t22 25.5t20 54.5t10 89.5q0 74 -27 137.5t-75 107.5t-112.5 68t-136.5 24q-78 0 -147.5 -28t-121 -79t-80 -121t-28.5 -150q0 -79 28 -147.5t78.5 -117.5t120 -76t148.5 -27q72 0 133 22.5t123 70.5l48 -76
q-124 -105 -303 -105q-129 0 -237 54t-171.5 159t-63.5 239q0 47 12 108t44.5 121.5t80.5 108t109 79t121 43t106 11.5q127 0 231.5 -57.5t159.5 -155t55 -213.5q0 -48 -11 -95t-36 -86t-69 -63t-106 -24q-49 0 -87 18t-56 57q-23 -35 -60 -53.5t-84 -18.5q-42 0 -79.5 15.5
t-65.5 45t-43.5 72t-15.5 94.5q0 38 10.5 77.5t39 76.5t71 54.5t84.5 17.5q81 0 129 -53v41h161zM504 224q32 0 54 25t22 63q0 18 -7.5 38.5t-26.5 34t-42 13.5q-15 0 -33 -8t-31 -29t-13 -49q0 -38 22.5 -63t54.5 -25z" />
    <glyph glyph-name="A" unicode="A" horiz-adv-x="844" 
d="M844 0h-236l-40 88h-292l-40 -88h-236l365 760h114zM487 268l-64 143l-65 -143h129z" />
    <glyph glyph-name="B" unicode="B" horiz-adv-x="743" 
d="M603 409q63 -30 91.5 -79.5t28.5 -110.5q0 -49 -17.5 -90t-50.5 -69.5t-80.5 -44t-105.5 -15.5h-419v760h379q117 0 180.5 -53.5t63.5 -147.5q0 -45 -18.5 -84t-51.5 -66zM271 589v-123h107q30 0 49.5 18.5t19.5 47.5q0 25 -19.5 41t-49.5 16h-107zM271 171h146
q35 0 57.5 20.5t22.5 53.5q0 30 -22.5 49.5t-57.5 19.5h-146v-143z" />
    <glyph glyph-name="C" unicode="C" horiz-adv-x="843" 
d="M429 180q68 0 116.5 43.5t61.5 111.5l211 -64q-13 -45 -41 -94t-82.5 -97t-126 -72t-139.5 -24q-82 0 -156.5 30.5t-130 84.5t-86.5 127t-31 153t31 153t86.5 127t130 84.5t156.5 30.5q33 0 75.5 -7t88 -26t90 -53t81.5 -87t54 -114l-211 -64q-13 68 -61.5 111.5
t-116.5 43.5q-39 0 -72.5 -15t-58 -42.5t-38 -64t-13.5 -77.5t13.5 -77.5t38 -64t58 -42.5t72.5 -15z" />
    <glyph glyph-name="D" unicode="D" horiz-adv-x="830" 
d="M50 760h354q88 0 162.5 -27t128 -77.5t82 -121.5t28.5 -154t-28.5 -154t-82 -121.5t-128 -77.5t-162.5 -27h-354v760zM271 186h125q88 0 138 53t50 141t-50 141t-138 53h-125v-388z" />
    <glyph glyph-name="E" unicode="E" horiz-adv-x="648" 
d="M621 186v-186h-586v760h579v-186h-358v-98h352v-186h-352v-104h365z" />
    <glyph glyph-name="F" unicode="F" horiz-adv-x="648" 
d="M271 574v-98h333v-186h-333v-290h-221v760h583v-186h-362z" />
    <glyph glyph-name="G" unicode="G" horiz-adv-x="885" 
d="M835 408v-408h-151l-13 74q-82 -90 -236 -90q-84 0 -159.5 30.5t-131.5 84.5t-87.5 127t-31.5 153t31.5 153t87.5 127t131.5 84.5t158.5 30.5q136 0 237 -63t138 -170l-232 -52q-39 89 -143 89q-40 0 -74.5 -15t-60 -42.5t-39 -64t-13.5 -77.5t13.5 -77.5t39 -64
t60.5 -42.5t75 -15q86 0 135 52h-189v176h454z" />
    <glyph glyph-name="H" unicode="H" horiz-adv-x="799" 
d="M749 760v-760h-221v290h-257v-290h-221v760h221v-284h257v284h221z" />
    <glyph glyph-name="I" unicode="I" horiz-adv-x="601" 
d="M411 573v-387h150v-186h-521v186h150v387h-150v187h521v-187h-150z" />
    <glyph glyph-name="J" unicode="J" horiz-adv-x="724" 
d="M682 760v-417q0 -81 -24 -148.5t-69 -114t-107.5 -71.5t-136.5 -25q-128 0 -216.5 66.5t-116.5 183.5l213 73q9 -56 41 -86.5t79 -30.5q52 0 83 43t31 120v220h-306v187h529z" />
    <glyph glyph-name="K" unicode="K" horiz-adv-x="853" 
d="M863 0h-287l-156 213l-149 -213h-221v760h221v-362l270 362h261l-247 -354z" />
    <glyph glyph-name="L" unicode="L" horiz-adv-x="651" 
d="M631 186v-186h-581v760h221v-574h360z" />
    <glyph glyph-name="M" unicode="M" horiz-adv-x="1006" 
d="M956 760v-760h-216v322l-204 -272h-66l-204 272v-322h-216v760h146l307 -419l307 419h146z" />
    <glyph glyph-name="N" unicode="N" horiz-adv-x="858" 
d="M808 760v-760h-221v216l-316 195v-411h-221v760h122l415 -279v279h221z" />
    <glyph glyph-name="O" unicode="O" horiz-adv-x="878" 
d="M439 774q83 0 159 -30.5t133 -84.5t89.5 -127t32.5 -153t-32.5 -153t-89.5 -127t-133 -84t-159 -30t-159 30t-133 84t-89.5 127t-32.5 153t32.5 153t89.5 127t133 84.5t159 30.5zM439 180q29 0 61 10t61 34.5t49.5 64t20.5 90.5q0 30 -10 63.5t-37 67.5t-66.5 51
t-78.5 17q-29 0 -61 -10t-61 -34.5t-49.5 -64t-20.5 -90.5q0 -30 10 -63.5t37 -67.5t66.5 -51t78.5 -17z" />
    <glyph glyph-name="P" unicode="P" horiz-adv-x="763" 
d="M50 760h369q75 0 135 -21t101 -60.5t62 -94.5t21 -121t-22.5 -122.5t-64 -97.5t-101.5 -63.5t-131 -22.5h-148v-157h-221v760zM271 343h138q23 0 51.5 11t50 41t21.5 68q0 50 -36.5 80.5t-86.5 30.5h-138v-231z" />
    <glyph glyph-name="Q" unicode="Q" horiz-adv-x="878" 
d="M735 -138l-134 154q-36 -14 -79 -22.5t-83 -8.5q-83 0 -159 30t-133 84t-89.5 127t-32.5 153t32.5 153t89.5 127t133 84.5t159 30.5t159 -30.5t133 -84.5t89.5 -127t32.5 -153q0 -72 -26 -138.5t-72 -117.5l121 -141zM439 180l19 1l-119 137l149 114l123 -143
q20 42 20 90q0 30 -10 63.5t-37 67.5t-66.5 51t-78.5 17q-29 0 -61 -10t-61 -34.5t-49.5 -64t-20.5 -90.5q0 -30 10 -63.5t37 -67.5t66.5 -51t78.5 -17z" />
    <glyph glyph-name="R" unicode="R" horiz-adv-x="803" 
d="M783 0h-273l-122 157h-117v-157h-221v760h369q75 0 135 -21t101 -60.5t62 -94.5t21 -121q0 -38 -11 -86t-42 -93.5t-75 -74.5zM271 574v-231h138q23 0 51.5 11t50 41t21.5 68q0 50 -36.5 80.5t-86.5 30.5h-138z" />
    <glyph glyph-name="S" unicode="S" horiz-adv-x="676" 
d="M346 774q59 0 111 -14t92.5 -41.5t66.5 -69t35 -94.5l-213 -43q-19 86 -95 86q-27 0 -44.5 -13t-17.5 -34q0 -18 10 -30t24 -17l134 -45q107 -36 157 -86.5t50 -137.5q0 -49 -16 -89.5t-43.5 -69.5t-63.5 -48t-83.5 -31t-102.5 -12q-62 0 -119 17t-100.5 48.5t-71 75.5
t-34.5 95l223 46q21 -95 105 -95q31 0 50.5 13t19.5 34q0 36 -42 49l-137 41q-100 30 -147.5 81.5t-47.5 135.5q0 59 22.5 106t63.5 78.5t96 47.5t118 16z" />
    <glyph glyph-name="T" unicode="T" horiz-adv-x="699" 
d="M679 574h-219v-574h-221v574h-219v186h659v-186z" />
    <glyph glyph-name="U" unicode="U" horiz-adv-x="787" 
d="M745 760v-417q0 -81 -25 -148.5t-71 -114t-110.5 -71.5t-140.5 -25q-79 0 -145 25t-113 71.5t-72.5 114t-25.5 148.5v417h222v-407q0 -77 36.5 -120t97.5 -43q56 0 90.5 43t34.5 120v407h222z" />
    <glyph glyph-name="V" unicode="V" horiz-adv-x="841" 
d="M841 760l-342 -760h-157l-342 760h246l175 -396l174 396h246z" />
    <glyph glyph-name="W" unicode="W" horiz-adv-x="1123" 
d="M1123 760l-243 -760h-186l-132 372l-133 -372h-186l-243 760h234l108 -364l142 364h155l142 -364l108 364h234z" />
    <glyph glyph-name="X" unicode="X" horiz-adv-x="835" 
d="M582 0l-165 248l-164 -248h-253l251 380l-241 380h254l153 -243l154 243h254l-241 -380l251 -380h-253z" />
    <glyph glyph-name="Y" unicode="Y" horiz-adv-x="816" 
d="M816 760l-297 -529v-231h-232v231l-287 529h241l168 -310l166 310h241z" />
    <glyph glyph-name="Z" unicode="Z" horiz-adv-x="714" 
d="M686 185v-185h-656v63l324 511h-314v186h634v-63l-307 -512h319z" />
    <glyph glyph-name="bracketleft" unicode="[" horiz-adv-x="435" 
d="M241 662v-587h164v-167h-355v921h355v-167h-164z" />
    <glyph glyph-name="backslash" unicode="\" horiz-adv-x="468" 
d="M443 -81h-130l-288 910h130z" />
    <glyph glyph-name="bracketright" unicode="]" horiz-adv-x="420" 
d="M370 829v-921h-355v167h164v587h-164v167h355z" />
    <glyph glyph-name="asciicircum" unicode="^" horiz-adv-x="504" 
d="M190 491h-180l160 269h164l160 -269h-180l-62 113z" />
    <glyph glyph-name="underscore" unicode="_" horiz-adv-x="540" 
d="M520 -195h-500v139h500v-139z" />
    <glyph glyph-name="grave" unicode="`" horiz-adv-x="600" 
d="M363 735l80 -168h-203l-137 168h260z" />
    <glyph glyph-name="a" unicode="a" horiz-adv-x="663" 
d="M613 508v-508h-215v42q-54 -57 -139 -57q-53 0 -98.5 19.5t-78 55t-50 85.5t-17.5 109t17.5 109t50 85.5t78 55t98.5 19.5q85 0 139 -57v42h215zM314 162q17 0 37 9.5t33.5 32.5t13.5 50q0 17 -7.5 38.5t-28.5 37.5t-48 16t-47.5 -16t-28 -37.5t-7.5 -38.5
q0 -38 22.5 -65t60.5 -27z" />
    <glyph glyph-name="b" unicode="b" horiz-adv-x="663" 
d="M404 523q53 0 98.5 -19.5t78 -55t50 -85.5t17.5 -109t-17.5 -109t-50 -85.5t-78 -55t-98.5 -19.5q-85 0 -139 57v-42h-215v800h215v-334q54 57 139 57zM349 162q27 0 47.5 16t28 37.5t7.5 38.5q0 38 -22.5 65t-60.5 27q-17 0 -37 -9.5t-33.5 -32.5t-13.5 -50
q0 -17 7.5 -38.5t28.5 -37.5t48 -16z" />
    <glyph glyph-name="c" unicode="c" horiz-adv-x="586" 
d="M375 233l196 -34q-5 -35 -22 -72t-50.5 -68.5t-83.5 -52.5t-113 -21q-58 0 -110.5 19.5t-92 55.5t-62 86t-22.5 108t22.5 108t62 86t92 55.5t110.5 19.5q37 0 79 -10t86 -38t70 -72t33 -91l-195 -36q-5 32 -25 51t-48 19q-17 0 -36 -9.5t-32 -32.5t-13 -50
q0 -17 7.5 -38.5t27.5 -37.5t46 -16q28 0 48 19t25 52z" />
    <glyph glyph-name="d" unicode="d" horiz-adv-x="663" 
d="M613 800v-800h-215v42q-54 -57 -139 -57q-53 0 -98.5 19.5t-78 55t-50 85.5t-17.5 109t17.5 109t50 85.5t78 55t98.5 19.5q85 0 139 -57v334h215zM314 162q17 0 37 9.5t33.5 32.5t13.5 50q0 17 -7.5 38.5t-28.5 37.5t-48 16t-47.5 -16t-28 -37.5t-7.5 -38.5
q0 -38 22.5 -65t60.5 -27z" />
    <glyph glyph-name="e" unicode="e" horiz-adv-x="582" 
d="M567 203h-343q18 -59 75 -59q25 0 45 11.5t27 29.5l191 -37q-19 -50 -53.5 -85.5t-86.5 -56.5t-123 -21q-57 0 -109 19.5t-91.5 55.5t-61.5 86t-22 108t22 108t61.5 86t91 55.5t108.5 19.5q59 0 109 -18.5t85.5 -55t55 -91.5t19.5 -124v-31zM298 362q-19 0 -40 -10.5
t-33 -40.5h138q-7 24 -25 37.5t-40 13.5z" />
    <glyph glyph-name="f" unicode="f" horiz-adv-x="423" 
d="M283 508h140v-165h-140v-343h-215v343h-68v165h68v86q0 36 11 74t41.5 74.5t76.5 54.5t93 18q83 0 145 -55l-71 -135q-17 13 -37 13t-32 -12t-12 -31v-87z" />
    <glyph glyph-name="g" unicode="g" horiz-adv-x="663" 
d="M613 508v-555q0 -42 -17.5 -85t-63.5 -82t-112 -57.5t-128 -18.5q-186 0 -268 144l135 107q32 -47 66 -66t71 -19q30 0 55 11.5t36 31.5t11 44v79q-54 -57 -139 -57q-53 0 -98.5 19.5t-78 55t-50 85.5t-17.5 109t17.5 109t50 85.5t78 55t98.5 19.5q85 0 139 -57v42h215z
M314 162q17 0 37 9.5t33.5 32.5t13.5 50q0 17 -7.5 38.5t-28.5 37.5t-48 16t-47.5 -16t-28 -37.5t-7.5 -38.5q0 -38 22.5 -65t60.5 -27z" />
    <glyph glyph-name="h" unicode="h" horiz-adv-x="637" 
d="M415 523q83 0 133.5 -55t50.5 -151v-317h-215v271q0 27 -16 44.5t-41 17.5q-27 0 -44.5 -21t-17.5 -55v-257h-215v800h215v-347q29 33 68 51.5t82 18.5z" />
    <glyph glyph-name="i" unicode="i" horiz-adv-x="305" 
d="M152 769q24 0 51.5 -11.5t47 -40.5t19.5 -62q0 -23 -11 -49.5t-40.5 -45.5t-66.5 -19q-24 0 -51.5 11t-46.5 39.5t-19 63.5q0 33 19 62t46.5 40.5t51.5 11.5zM260 0h-215v508h215v-508z" />
    <glyph glyph-name="j" unicode="j" horiz-adv-x="305" 
d="M152 769q24 0 51.5 -11.5t47 -40.5t19.5 -62q0 -23 -11 -49.5t-40.5 -45.5t-66.5 -19q-24 0 -51.5 11t-46.5 39.5t-19 63.5q0 33 19 62t46.5 40.5t51.5 11.5zM260 -280h-215v788h215v-788z" />
    <glyph glyph-name="k" unicode="k" horiz-adv-x="682" 
d="M686 0h-280l-71 89l-70 -89h-215v800h215v-460l147 168h253l-195 -248z" />
    <glyph glyph-name="l" unicode="l" horiz-adv-x="358" 
d="M248 800v-603q0 -14 9 -23.5t22 -9.5q12 0 49 12l30 -151q-44 -25 -72.5 -32.5t-64.5 -7.5q-84 0 -136 53t-52 140v622h215z" />
    <glyph glyph-name="m" unicode="m" horiz-adv-x="956" 
d="M731 523q51 0 96 -25t68 -74.5t23 -106.5v-317h-215v271q0 27 -16 44.5t-40 17.5q-27 0 -45 -22t-18 -54v-257h-215v271q0 27 -16.5 44.5t-41.5 17.5q-26 0 -43.5 -22t-17.5 -54v-257h-215v508h215v-56q52 71 147 71q54 0 97 -24t66 -67q28 43 72 67t99 24z" />
    <glyph glyph-name="n" unicode="n" horiz-adv-x="637" 
d="M414 523q84 0 134.5 -55t50.5 -151v-317h-215v271q0 27 -16 44.5t-40 17.5q-28 0 -45.5 -21t-17.5 -55v-257h-215v508h215v-55q29 33 68 51.5t81 18.5z" />
    <glyph glyph-name="o" unicode="o" horiz-adv-x="618" 
d="M309 523q59 0 112.5 -19.5t94.5 -55.5t64 -86t23 -108t-23 -108t-64 -86t-94.5 -55.5t-112.5 -19.5t-112.5 19.5t-94.5 55.5t-64 86t-23 108t23 108t64 86t94.5 55.5t112.5 19.5zM309 162q18 0 38.5 9.5t35 32.5t14.5 50t-14.5 50t-35 32.5t-38.5 9.5t-38.5 -9.5
t-35 -32.5t-14.5 -50t14.5 -50t35 -32.5t38.5 -9.5z" />
    <glyph glyph-name="p" unicode="p" horiz-adv-x="663" 
d="M404 523q53 0 98.5 -19.5t78 -55t50 -85.5t17.5 -109t-17.5 -109t-50 -85.5t-78 -55t-98.5 -19.5q-85 0 -139 57v-322h-215v788h215v-42q54 57 139 57zM349 162q27 0 47.5 16t28 37.5t7.5 38.5q0 38 -22.5 65t-60.5 27q-17 0 -37 -9.5t-33.5 -32.5t-13.5 -50
q0 -17 7.5 -38.5t28.5 -37.5t48 -16z" />
    <glyph glyph-name="q" unicode="q" horiz-adv-x="663" 
d="M613 508v-788h-215v322q-54 -57 -139 -57q-53 0 -98.5 19.5t-78 55t-50 85.5t-17.5 109t17.5 109t50 85.5t78 55t98.5 19.5q85 0 139 -57v42h215zM314 162q17 0 37 9.5t33.5 32.5t13.5 50q0 17 -7.5 38.5t-28.5 37.5t-48 16t-47.5 -16t-28 -37.5t-7.5 -38.5
q0 -38 22.5 -65t60.5 -27z" />
    <glyph glyph-name="r" unicode="r" horiz-adv-x="467" 
d="M427 514q18 0 37 -3l-7 -226h-30q-88 0 -125 -33.5t-37 -102.5v-149h-215v508h215v-87q27 43 68 68t94 25z" />
    <glyph glyph-name="s" unicode="s" horiz-adv-x="518" 
d="M15 130l202 40q7 -19 21 -29.5t32 -10.5q13 0 20.5 6.5t7.5 14.5q0 16 -28 20l-103 17q-147 24 -147 151q0 33 11.5 65.5t40 59t75 43t110.5 16.5q93 0 155 -36.5t79 -100.5l-188 -37q-3 13 -16.5 26.5t-34.5 13.5q-13 0 -20 -6t-7 -14q0 -16 18 -20l111 -21
q75 -14 112 -58.5t37 -106.5q0 -44 -18.5 -78t-51 -56t-77 -33t-95.5 -11q-56 0 -110 15t-89.5 49.5t-46.5 80.5z" />
    <glyph glyph-name="t" unicode="t" horiz-adv-x="430" 
d="M281 343v-138q0 -17 12.5 -27.5t31.5 -10.5q14 0 30 3.5t24 8.5l36 -157q-69 -37 -151 -37q-43 0 -75.5 12t-58 32t-45 58t-19.5 91v165h-71v165h71v152l215 60v-212h149v-165h-149z" />
    <glyph glyph-name="u" unicode="u" horiz-adv-x="637" 
d="M587 508v-508h-215v55q-29 -33 -68 -51.5t-81 -18.5q-84 0 -134.5 55t-50.5 151v317h215v-271q0 -27 16 -44.5t40 -17.5q28 0 45.5 21t17.5 55v257h215z" />
    <glyph glyph-name="v" unicode="v" horiz-adv-x="617" 
d="M617 508l-233 -508h-151l-233 508h223l86 -214l85 214h223z" />
    <glyph glyph-name="w" unicode="w" horiz-adv-x="841" 
d="M841 508l-200 -508h-140l-80 187l-81 -187h-140l-200 508h210l69 -216l85 216h113l85 -216l69 216h210z" />
    <glyph glyph-name="x" unicode="x" horiz-adv-x="629" 
d="M463 243l161 -243h-237l-72 115l-73 -115h-237l161 243l-161 265h237l73 -126l72 126h237z" />
    <glyph glyph-name="y" unicode="y" horiz-adv-x="637" 
d="M587 508v-555q0 -53 -22 -98.5t-63 -77.5t-98 -49.5t-123 -17.5q-91 0 -160.5 34.5t-112.5 109.5l135 107q58 -85 139 -85q41 0 65.5 21.5t24.5 55.5v102q-29 -33 -68 -51.5t-81 -18.5q-84 0 -134.5 55t-50.5 151v317h215v-271q0 -27 16 -44.5t40 -17.5q28 0 45.5 21
t17.5 55v257h215z" />
    <glyph glyph-name="z" unicode="z" horiz-adv-x="538" 
d="M524 438l-200 -273h184v-165h-478v77l193 266h-190v165h491v-70z" />
    <glyph glyph-name="braceleft" unicode="{" horiz-adv-x="414" 
d="M290 635v-150q0 -40 -13.5 -71.5t-39.5 -45.5q26 -14 39.5 -45t13.5 -71v-144q0 -14 9.5 -23.5t23.5 -9.5h61v-167h-135q-67 0 -108.5 41t-41.5 107v166q0 46 -40 56l-39 10v161l39 9q18 5 29 19t11 38v166q0 66 41.5 107t108.5 41h135v-167h-64q-13 0 -21.5 -8t-8.5 -19
z" />
    <glyph glyph-name="bar" unicode="|" horiz-adv-x="291" 
d="M241 -81h-191v910h191v-910z" />
    <glyph glyph-name="braceright" unicode="}" horiz-adv-x="414" 
d="M394 449v-161l-39 -10q-40 -10 -40 -56v-166q0 -66 -41.5 -107t-108.5 -41h-135v167h61q14 0 23.5 9.5t9.5 23.5v144q0 40 13.5 71t39.5 45q-26 14 -39.5 45.5t-13.5 71.5v150q0 11 -8.5 19t-21.5 8h-64v167h135q67 0 108.5 -41t41.5 -107v-166q0 -18 8.5 -34.5
t31.5 -22.5z" />
    <glyph glyph-name="asciitilde" unicode="~" horiz-adv-x="520" 
d="M179 224h-151q0 38 9 74.5t28 63.5t46.5 43t57.5 16q23 0 46 -6.5t52.5 -21t40.5 -14.5q14 0 23.5 9.5t9.5 22.5h151q0 -38 -9 -75t-29 -64t-47 -42.5t-58 -15.5q-22 0 -44.5 5.5t-51.5 18.5t-41 13q-10 0 -19.5 -8t-13.5 -19z" />
    <glyph glyph-name="exclamdown" unicode="&#xa1;" horiz-adv-x="315" 
d="M164 301q-23 0 -50.5 11.5t-46.5 39.5t-19 60q0 22 11 48t39.5 44.5t65.5 18.5t66 -18.5t40 -44.5t11 -48q0 -21 -11 -46.5t-40.5 -45t-65.5 -19.5zM35 -212l20 459h205l20 -459v-31h-245v31z" />
    <glyph glyph-name="cent" unicode="&#xa2;" horiz-adv-x="586" 
d="M375 233l196 -34q-9 -70 -55.5 -122.5t-114.5 -75.5v-121h-196v120q-84 26 -137 94t-53 160t53 160t137 94v122h196v-123q67 -22 113.5 -74t55.5 -121l-195 -36q-5 32 -25 51t-48 19q-17 0 -36 -9.5t-32 -32.5t-13 -50q0 -17 7.5 -38.5t27.5 -37.5t46 -16q28 0 48 19
t25 52z" />
    <glyph glyph-name="sterling" unicode="&#xa3;" horiz-adv-x="648" 
d="M635 182v-182h-605v142l64 20v101h-64v167h64v100q0 54 19.5 99.5t55 77.5t85.5 49.5t108 17.5q55 0 103 -17t84 -48t57.5 -74t25.5 -92l-207 -35q-6 79 -63 79q-25 0 -40.5 -15.5t-15.5 -41.5v-100h200v-167h-200v-81h329z" />
    <glyph glyph-name="yen" unicode="&#xa5;" horiz-adv-x="761" 
d="M539 356h134v-111h-187v-45h187v-111h-187v-89h-221v89h-176v111h176v45h-176v111h125l-204 404h226l140 -299l139 299h236z" />
    <glyph glyph-name="section" unicode="&#xa7;" horiz-adv-x="635" 
d="M615 300q0 -106 -91 -164q30 -44 30 -104t-28 -102t-81.5 -66.5t-130.5 -24.5q-44 0 -88.5 9.5t-84.5 36.5t-61 69t-25 86l175 33q5 -82 74 -82q23 0 39 13t16 33q0 15 -11.5 28t-39.5 23l-139 51q-79 28 -114 72t-35 102q0 106 91 164q-30 44 -30 104t28 102t81.5 66.5
t130.5 24.5q113 0 179 -53.5t73 -141.5l-177 -32q-2 40 -20.5 57.5t-44.5 17.5q-24 0 -39.5 -12.5t-15.5 -33.5q0 -15 11 -27.5t40 -23.5l139 -50q149 -53 149 -175zM394 229l13 -6q26 20 26 48q0 13 -8 27t-40 27l-144 60l-13 5q-26 -19 -26 -48q0 -13 8 -27t40 -27z" />
    <glyph glyph-name="dieresis" unicode="&#xa8;" horiz-adv-x="600" 
d="M175 756q34 0 61.5 -18.5t38 -43t10.5 -44.5q0 -22 -10.5 -47t-37.5 -42.5t-62 -17.5q-48 0 -78.5 30.5t-30.5 76.5q0 20 10.5 45t37.5 43t61 18zM425 756q34 0 61.5 -18.5t38 -43t10.5 -44.5q0 -22 -10.5 -47t-37.5 -42.5t-62 -17.5q-48 0 -78.5 30.5t-30.5 76.5
q0 20 10.5 45t37.5 43t61 18z" />
    <glyph glyph-name="copyright" unicode="&#xa9;" horiz-adv-x="835" 
d="M418 774q77 0 148.5 -29.5t125.5 -83t84.5 -127.5t30.5 -157t-30.5 -156t-84.5 -126t-125 -81.5t-149 -28.5t-149.5 29t-125.5 81.5t-84.5 125.5t-30.5 156t30.5 156.5t84.5 127.5t125.5 83.5t149.5 29.5zM418 716q-65 0 -125 -25t-105 -71t-70.5 -108.5t-25.5 -133.5
q0 -70 25.5 -132t70.5 -107.5t105 -70t125 -24.5t124.5 24.5t104.5 70t70.5 107.5t25.5 132q0 71 -25.5 133.5t-70.5 108.5t-104.5 71t-124.5 25zM426 590q49 0 91 -19t71.5 -56.5t31.5 -87.5l-115 -20q-6 30 -29 47.5t-54 17.5q-26 0 -48 -15t-31 -37.5t-9 -41.5
q0 -40 26 -67.5t62 -27.5q31 0 54 18.5t29 52.5l117 -21q-5 -71 -60.5 -119.5t-135.5 -48.5q-43 0 -82.5 15.5t-69 43.5t-46.5 68t-17 86t17 85.5t46.5 67.5t69 43.5t82.5 15.5z" />
    <glyph glyph-name="ordfeminine" unicode="&#xaa;" horiz-adv-x="457" 
d="M441 493l11 -103q-38 -26 -84 -26q-27 0 -53.5 10t-42.5 34q-43 -45 -117 -45q-30 0 -64.5 10t-56.5 38t-22 70q0 56 45 89.5t128 41.5l68 7v1q0 12 -9 22.5t-25 10.5q-29 0 -41 -28l-144 26q16 54 62.5 84t118.5 30q41 0 76.5 -9.5t61.5 -29.5t40.5 -51.5t14.5 -72.5
v-95q0 -15 12 -15zM207 464q21 0 33.5 12.5t12.5 34.5v21l-46 -5q-15 -2 -26 -10t-11 -22t10.5 -22.5t26.5 -8.5z" />
    <glyph glyph-name="guillemotleft" unicode="&#xab;" horiz-adv-x="572" 
d="M25 262l92 178h190l-92 -178l92 -178h-190zM265 262l92 178h190l-92 -178l92 -178h-190z" />
    <glyph glyph-name="registered" unicode="&#xae;" horiz-adv-x="460" 
d="M230 775q30 0 63.5 -10t67.5 -37.5t51.5 -69.5t17.5 -84q0 -53 -26.5 -101t-74.5 -73.5t-99 -25.5t-99 25.5t-74.5 73.5t-26.5 101q0 31 10.5 65.5t38.5 68t69.5 50.5t81.5 17zM230 422q63 0 107 44t44 108q0 40 -20 77.5t-56.5 57t-74.5 19.5t-74 -19.5t-56 -57
t-20 -77.5q0 -64 44 -108t106 -44zM318 607q0 -17 -9.5 -33t-24.5 -24l43 -58h-67l-35 49h-14v-49h-57v177h94q33 0 51.5 -17.5t18.5 -44.5zM211 586h32q10 0 16.5 6t6.5 14q0 7 -6.5 12.5t-16.5 5.5h-32v-38z" />
    <glyph glyph-name="macron" unicode="&#xaf;" horiz-adv-x="600" 
d="M479 567h-358v156h358v-156z" />
    <glyph glyph-name="degree" unicode="&#xb0;" horiz-adv-x="451" 
d="M226 775q42 0 82.5 -20t63 -59t22.5 -84q0 -71 -49.5 -116.5t-118.5 -45.5q-42 0 -83 20t-63.5 59t-22.5 83q0 45 22.5 84t63.5 59t83 20zM226 556q21 0 37.5 15.5t16.5 40.5t-16.5 41t-37.5 16q-22 0 -38.5 -16t-16.5 -41t16.5 -40.5t38.5 -15.5z" />
    <glyph glyph-name="plusminus" unicode="&#xb1;" horiz-adv-x="560" 
d="M530 500v-160h-170v-130h-160v130h-170v160h170v150h160v-150h170zM30 160h500v-160h-500v160z" />
    <glyph glyph-name="uni00B2" unicode="&#xb2;" horiz-adv-x="368" 
d="M264 583h74v-112h-306v20l126 158q50 64 50 84q0 10 -6.5 16.5t-16.5 6.5q-12 0 -20.5 -10t-8.5 -33l-127 23q0 59 43 96.5t113 37.5q69 0 112 -36.5t43 -100.5q0 -19 -6 -36.5t-14.5 -33t-54.5 -78.5z" />
    <glyph glyph-name="uni00B3" unicode="&#xb3;" horiz-adv-x="358" 
d="M344 830l-76 -113q39 -13 59.5 -43.5t20.5 -72.5q0 -63 -44 -101.5t-117 -38.5q-71 0 -117.5 37t-52.5 95l125 20q2 -10 7.5 -20t15 -15.5t20.5 -5.5q17 0 26 9t9 20q0 12 -9 20t-27 8h-91l-4 12l65 104h-119l3 115h306v-30z" />
    <glyph glyph-name="acute" unicode="&#xb4;" horiz-adv-x="600" 
d="M350 567h-203l80 168h260z" />
    <glyph glyph-name="paragraph" unicode="&#xb6;" horiz-adv-x="640" 
d="M411 0h-132v389h-50q-32 0 -67.5 8.5t-70.5 33.5t-53 65t-18 82q0 88 53 135t142 47h196v-760zM590 0h-132v760h132v-760z" />
    <glyph glyph-name="periodcentered" unicode="&#xb7;" horiz-adv-x="263" 
d="M131 383q23 0 50.5 -12t47 -41.5t19.5 -63.5q0 -50 -33 -83t-84 -33q-50 0 -83 33t-33 83q0 22 11 49t40 47.5t65 20.5z" />
    <glyph glyph-name="cedilla" unicode="&#xb8;" horiz-adv-x="600" 
d="M252 0h151l-39 -160h-219z" />
    <glyph glyph-name="uni00B9" unicode="&#xb9;" horiz-adv-x="254" 
d="M219 470h-135v214l-79 -26v134l184 68h30v-390z" />
    <glyph glyph-name="ordmasculine" unicode="&#xba;" horiz-adv-x="447" 
d="M223 766q44 0 83.5 -14.5t68 -41.5t44.5 -64t16 -81q0 -32 -10.5 -66.5t-40 -67.5t-73.5 -49.5t-88 -16.5t-83 14.5t-67.5 41t-44.5 64t-16 80.5q0 44 16 81t44.5 64t67.5 41.5t83 14.5zM223 488q17 0 35.5 7.5t31.5 27t13 42.5q0 33 -22.5 56t-57.5 23q-34 0 -56.5 -23
t-22.5 -56q0 -32 22.5 -54.5t56.5 -22.5z" />
    <glyph glyph-name="guillemotright" unicode="&#xbb;" horiz-adv-x="572" 
d="M25 84l92 178l-92 178h190l92 -178l-92 -178h-190zM265 84l92 178l-92 178h190l92 -178l-92 -178h-190z" />
    <glyph glyph-name="onequarter" unicode="&#xbc;" horiz-adv-x="732" 
d="M84 584l-79 -26v134l184 68h30v-390h-135v214zM649 760l-471 -760h-107l471 760h107zM723 53h-45v-53h-126v53h-198v74l236 263h88v-235h45v-102zM552 155v71l-60 -71h60z" />
    <glyph glyph-name="onehalf" unicode="&#xbd;" horiz-adv-x="757" 
d="M84 584l-79 -26v134l184 68h30v-390h-135v214zM639 760l-471 -760h-107l471 760h107zM653 112h74v-112h-306v20l126 158q50 64 50 84q0 10 -6.5 16.5t-16.5 6.5q-12 0 -20.5 -10t-8.5 -33l-127 23q0 59 43 96.5t113 37.5q69 0 112 -36.5t43 -100.5q0 -19 -6 -36.5
t-14.5 -33t-54.5 -78.5z" />
    <glyph glyph-name="threequarters" unicode="&#xbe;" horiz-adv-x="803" 
d="M348 501q0 -63 -44 -101.5t-117 -38.5q-71 0 -117.5 37t-52.5 95l125 20q2 -10 7.5 -20t15 -15.5t20.5 -5.5q17 0 26 9t9 20q0 12 -9 20t-27 8h-91l-4 12l65 104h-119l3 115h306v-30l-76 -113q39 -13 59.5 -43.5t20.5 -72.5zM720 760l-471 -760h-107l471 760h107zM794 53
h-45v-53h-126v53h-198v74l236 263h88v-235h45v-102zM623 155v71l-60 -71h60z" />
    <glyph glyph-name="questiondown" unicode="&#xbf;" horiz-adv-x="560" 
d="M291 302q-23 0 -50.5 11.5t-47 39.5t-19.5 60q0 22 11 48t40 44.5t66 18.5t65.5 -18.5t39.5 -44.5t11 -48q0 -21 -11 -46.5t-40 -45t-65 -19.5zM328 -19l217 -44q-9 -40 -31.5 -75.5t-56.5 -62t-81 -41.5t-102 -15q-58 0 -106 16.5t-81 45.5t-50 68t-17 82
q0 69 42.5 117.5t117.5 70.5v105h215l-1 -234h-88q-31 0 -49.5 -12t-18.5 -33q0 -17 12 -29t30 -12q19 0 32.5 14.5t15.5 38.5z" />
    <glyph glyph-name="Agrave" unicode="&#xc0;" horiz-adv-x="844" 
d="M331 819l-137 168h260l80 -168h-203zM844 0h-236l-40 88h-292l-40 -88h-236l365 760h114zM487 268l-64 143l-65 -143h129z" />
    <glyph glyph-name="Aacute" unicode="&#xc1;" horiz-adv-x="844" 
d="M521 819h-203l80 168h260zM844 0h-236l-40 88h-292l-40 -88h-236l365 760h114zM487 268l-64 143l-65 -143h129z" />
    <glyph glyph-name="Acircumflex" unicode="&#xc2;" horiz-adv-x="844" 
d="M392 819h-201l119 168h225l119 -168h-201l-30 44zM844 0h-236l-40 88h-292l-40 -88h-236l365 760h114zM487 268l-64 143l-65 -143h129z" />
    <glyph glyph-name="Atilde" unicode="&#xc3;" horiz-adv-x="844" 
d="M382 846q-15 0 -22.5 -5.5t-14.5 -21.5h-115q0 87 36.5 141t94.5 54q33 0 64.5 -15.5t40.5 -17.5t14 -2q8 0 17.5 3t19.5 27h115q0 -87 -37 -141t-95 -54q-32 0 -62.5 14t-40.5 16t-15 2zM844 0h-236l-40 88h-292l-40 -88h-236l365 760h114zM487 268l-64 143l-65 -143
h129z" />
    <glyph glyph-name="Adieresis" unicode="&#xc4;" horiz-adv-x="844" 
d="M298 795q-48 0 -78.5 30.5t-30.5 76.5q0 20 10.5 45t37.5 43t61 18t61.5 -18.5t38 -43t10.5 -44.5q0 -22 -10.5 -47t-37.5 -42.5t-62 -17.5zM548 795q-48 0 -78.5 30.5t-30.5 76.5q0 20 10.5 45t37.5 43t61 18t61.5 -18.5t38 -43t10.5 -44.5q0 -22 -10.5 -47t-37.5 -42.5
t-62 -17.5zM844 0h-236l-40 88h-292l-40 -88h-236l365 760h114zM487 268l-64 143l-65 -143h129z" />
    <glyph glyph-name="Aring" unicode="&#xc5;" horiz-adv-x="844" 
d="M423 794q-58 0 -99.5 40t-41.5 96q0 57 41.5 97t99.5 40t99.5 -40t41.5 -97q0 -56 -41.5 -96t-99.5 -40zM423 969q-16 0 -28 -11.5t-12 -27.5q0 -15 12 -26.5t28 -11.5t28 11.5t12 26.5q0 16 -12 27.5t-28 11.5zM844 0h-236l-40 88h-292l-40 -88h-236l365 760h114z
M487 268l-64 143l-65 -143h129z" />
    <glyph glyph-name="AE" unicode="&#xc6;" horiz-adv-x="1166" 
d="M1154 186v-186h-576v88h-259l-58 -88h-261l528 760h619v-186h-348v-111h323v-171h-323v-106h355zM578 268v209l-139 -209h139z" />
    <glyph glyph-name="Ccedilla" unicode="&#xc7;" horiz-adv-x="843" 
d="M429 180q68 0 116.5 43.5t61.5 111.5l211 -64q-31 -110 -118 -186.5t-205 -95.5l-36 -149h-219l102 153q-67 14 -126 49t-101.5 86.5t-66 116t-23.5 134.5q0 80 31 153t86.5 127t130 84.5t156.5 30.5q33 0 75.5 -7t88 -26t90 -53t81.5 -87t54 -114l-211 -64
q-13 68 -61.5 111.5t-116.5 43.5q-39 0 -72.5 -15t-58 -42.5t-38 -64t-13.5 -77.5t13.5 -77.5t38 -64t58 -42.5t72.5 -15z" />
    <glyph glyph-name="Egrave" unicode="&#xc8;" horiz-adv-x="648" 
d="M243 819l-137 168h260l80 -168h-203zM621 186v-186h-586v760h579v-186h-358v-98h352v-186h-352v-104h365z" />
    <glyph glyph-name="Eacute" unicode="&#xc9;" horiz-adv-x="648" 
d="M433 819h-203l80 168h260zM621 186v-186h-586v760h579v-186h-358v-98h352v-186h-352v-104h365z" />
    <glyph glyph-name="Ecircumflex" unicode="&#xca;" horiz-adv-x="648" 
d="M304 819h-201l119 168h225l119 -168h-201l-30 44zM621 186v-186h-586v760h579v-186h-358v-98h352v-186h-352v-104h365z" />
    <glyph glyph-name="Edieresis" unicode="&#xcb;" horiz-adv-x="648" 
d="M210 795q-48 0 -78.5 30.5t-30.5 76.5q0 20 10.5 45t37.5 43t61 18t61.5 -18.5t38 -43t10.5 -44.5q0 -22 -10.5 -47t-37.5 -42.5t-62 -17.5zM460 795q-48 0 -78.5 30.5t-30.5 76.5q0 20 10.5 45t37.5 43t61 18t61.5 -18.5t38 -43t10.5 -44.5q0 -22 -10.5 -47t-37.5 -42.5
t-62 -17.5zM621 186v-186h-586v760h579v-186h-358v-98h352v-186h-352v-104h365z" />
    <glyph glyph-name="Igrave" unicode="&#xcc;" horiz-adv-x="601" 
d="M205 819l-137 168h260l80 -168h-203zM411 573v-387h150v-186h-521v186h150v387h-150v187h521v-187h-150z" />
    <glyph glyph-name="Iacute" unicode="&#xcd;" horiz-adv-x="601" 
d="M395 819h-203l80 168h260zM411 573v-387h150v-186h-521v186h150v387h-150v187h521v-187h-150z" />
    <glyph glyph-name="Icircumflex" unicode="&#xce;" horiz-adv-x="601" 
d="M266 819h-201l119 168h225l119 -168h-201l-30 44zM411 573v-387h150v-186h-521v186h150v387h-150v187h521v-187h-150z" />
    <glyph glyph-name="Idieresis" unicode="&#xcf;" horiz-adv-x="601" 
d="M172 795q-48 0 -78.5 30.5t-30.5 76.5q0 20 10.5 45t37.5 43t61 18t61.5 -18.5t38 -43t10.5 -44.5q0 -22 -10.5 -47t-37.5 -42.5t-62 -17.5zM422 795q-48 0 -78.5 30.5t-30.5 76.5q0 20 10.5 45t37.5 43t61 18t61.5 -18.5t38 -43t10.5 -44.5q0 -22 -10.5 -47t-37.5 -42.5
t-62 -17.5zM411 573v-387h150v-186h-521v186h150v387h-150v187h521v-187h-150z" />
    <glyph glyph-name="Eth" unicode="&#xd0;" horiz-adv-x="850" 
d="M70 760h354q88 0 162.5 -27t128 -77.5t82 -121.5t28.5 -154t-28.5 -154t-82 -121.5t-128 -77.5t-162.5 -27h-354v285h-60v186h60v289zM291 186h125q88 0 138 53t50 141t-50 141t-138 53h-125v-103h104v-186h-104v-99z" />
    <glyph glyph-name="Ntilde" unicode="&#xd1;" horiz-adv-x="858" 
d="M373 846q-15 0 -22.5 -5.5t-14.5 -21.5h-115q0 87 36.5 141t94.5 54q33 0 64.5 -15.5t40.5 -17.5t14 -2q8 0 17.5 3t19.5 27h115q0 -87 -37 -141t-95 -54q-32 0 -62.5 14t-40.5 16t-15 2zM808 760v-760h-221v216l-316 195v-411h-221v760h122l415 -279v279h221z" />
    <glyph glyph-name="Ograve" unicode="&#xd2;" horiz-adv-x="878" 
d="M347 819l-137 168h260l80 -168h-203zM439 774q83 0 159 -30.5t133 -84.5t89.5 -127t32.5 -153t-32.5 -153t-89.5 -127t-133 -84t-159 -30t-159 30t-133 84t-89.5 127t-32.5 153t32.5 153t89.5 127t133 84.5t159 30.5zM439 180q29 0 61 10t61 34.5t49.5 64t20.5 90.5
q0 30 -10 63.5t-37 67.5t-66.5 51t-78.5 17q-29 0 -61 -10t-61 -34.5t-49.5 -64t-20.5 -90.5q0 -30 10 -63.5t37 -67.5t66.5 -51t78.5 -17z" />
    <glyph glyph-name="Oacute" unicode="&#xd3;" horiz-adv-x="878" 
d="M537 819h-203l80 168h260zM439 774q83 0 159 -30.5t133 -84.5t89.5 -127t32.5 -153t-32.5 -153t-89.5 -127t-133 -84t-159 -30t-159 30t-133 84t-89.5 127t-32.5 153t32.5 153t89.5 127t133 84.5t159 30.5zM439 180q29 0 61 10t61 34.5t49.5 64t20.5 90.5q0 30 -10 63.5
t-37 67.5t-66.5 51t-78.5 17q-29 0 -61 -10t-61 -34.5t-49.5 -64t-20.5 -90.5q0 -30 10 -63.5t37 -67.5t66.5 -51t78.5 -17z" />
    <glyph glyph-name="Ocircumflex" unicode="&#xd4;" horiz-adv-x="878" 
d="M408 819h-201l119 168h225l119 -168h-201l-30 44zM439 774q83 0 159 -30.5t133 -84.5t89.5 -127t32.5 -153t-32.5 -153t-89.5 -127t-133 -84t-159 -30t-159 30t-133 84t-89.5 127t-32.5 153t32.5 153t89.5 127t133 84.5t159 30.5zM439 180q29 0 61 10t61 34.5t49.5 64
t20.5 90.5q0 30 -10 63.5t-37 67.5t-66.5 51t-78.5 17q-29 0 -61 -10t-61 -34.5t-49.5 -64t-20.5 -90.5q0 -30 10 -63.5t37 -67.5t66.5 -51t78.5 -17z" />
    <glyph glyph-name="Otilde" unicode="&#xd5;" horiz-adv-x="878" 
d="M398 846q-15 0 -22.5 -5.5t-14.5 -21.5h-115q0 87 36.5 141t94.5 54q33 0 64.5 -15.5t40.5 -17.5t14 -2q8 0 17.5 3t19.5 27h115q0 -87 -37 -141t-95 -54q-32 0 -62.5 14t-40.5 16t-15 2zM439 774q83 0 159 -30.5t133 -84.5t89.5 -127t32.5 -153t-32.5 -153t-89.5 -127
t-133 -84t-159 -30t-159 30t-133 84t-89.5 127t-32.5 153t32.5 153t89.5 127t133 84.5t159 30.5zM439 180q29 0 61 10t61 34.5t49.5 64t20.5 90.5q0 30 -10 63.5t-37 67.5t-66.5 51t-78.5 17q-29 0 -61 -10t-61 -34.5t-49.5 -64t-20.5 -90.5q0 -30 10 -63.5t37 -67.5
t66.5 -51t78.5 -17z" />
    <glyph glyph-name="Odieresis" unicode="&#xd6;" horiz-adv-x="878" 
d="M314 795q-48 0 -78.5 30.5t-30.5 76.5q0 20 10.5 45t37.5 43t61 18t61.5 -18.5t38 -43t10.5 -44.5q0 -22 -10.5 -47t-37.5 -42.5t-62 -17.5zM564 795q-48 0 -78.5 30.5t-30.5 76.5q0 20 10.5 45t37.5 43t61 18t61.5 -18.5t38 -43t10.5 -44.5q0 -22 -10.5 -47t-37.5 -42.5
t-62 -17.5zM439 774q83 0 159 -30.5t133 -84.5t89.5 -127t32.5 -153t-32.5 -153t-89.5 -127t-133 -84t-159 -30t-159 30t-133 84t-89.5 127t-32.5 153t32.5 153t89.5 127t133 84.5t159 30.5zM439 180q29 0 61 10t61 34.5t49.5 64t20.5 90.5q0 30 -10 63.5t-37 67.5t-66.5 51
t-78.5 17q-29 0 -61 -10t-61 -34.5t-49.5 -64t-20.5 -90.5q0 -30 10 -63.5t37 -67.5t66.5 -51t78.5 -17z" />
    <glyph glyph-name="multiply" unicode="&#xd7;" horiz-adv-x="538" 
d="M380 300l128 -127l-111 -111l-128 127l-128 -127l-111 111l128 127l-128 127l111 111l128 -127l128 127l111 -111z" />
    <glyph glyph-name="Oslash" unicode="&#xd8;" horiz-adv-x="858" 
d="M808 725l-67 -75q52 -54 82 -124.5t30 -146.5q0 -80 -32.5 -153t-89.5 -127t-133 -84t-159 -30q-62 0 -122 17.5t-109 48.5l-66 -74l-90 83l64 72q-43 50 -67 114t-24 133q0 80 32.5 153t89.5 127t133 84.5t159 30.5q110 0 204 -51l75 85zM247 379q0 -42 16 -82l240 270
q-31 11 -64 11q-29 0 -61 -10t-61 -34.5t-49.5 -64t-20.5 -90.5zM439 180q29 0 61 10t61 34.5t49.5 64t20.5 90.5q0 29 -9 59t-23 52l-254 -285q44 -25 94 -25z" />
    <glyph glyph-name="Ugrave" unicode="&#xd9;" horiz-adv-x="787" 
d="M301 819l-137 168h260l80 -168h-203zM745 760v-417q0 -81 -25 -148.5t-71 -114t-110.5 -71.5t-140.5 -25q-79 0 -145 25t-113 71.5t-72.5 114t-25.5 148.5v417h222v-407q0 -77 36.5 -120t97.5 -43q56 0 90.5 43t34.5 120v407h222z" />
    <glyph glyph-name="Uacute" unicode="&#xda;" horiz-adv-x="787" 
d="M491 819h-203l80 168h260zM745 760v-417q0 -81 -25 -148.5t-71 -114t-110.5 -71.5t-140.5 -25q-79 0 -145 25t-113 71.5t-72.5 114t-25.5 148.5v417h222v-407q0 -77 36.5 -120t97.5 -43q56 0 90.5 43t34.5 120v407h222z" />
    <glyph glyph-name="Ucircumflex" unicode="&#xdb;" horiz-adv-x="787" 
d="M362 819h-201l119 168h225l119 -168h-201l-30 44zM745 760v-417q0 -81 -25 -148.5t-71 -114t-110.5 -71.5t-140.5 -25q-79 0 -145 25t-113 71.5t-72.5 114t-25.5 148.5v417h222v-407q0 -77 36.5 -120t97.5 -43q56 0 90.5 43t34.5 120v407h222z" />
    <glyph glyph-name="Udieresis" unicode="&#xdc;" horiz-adv-x="787" 
d="M268 795q-48 0 -78.5 30.5t-30.5 76.5q0 20 10.5 45t37.5 43t61 18t61.5 -18.5t38 -43t10.5 -44.5q0 -22 -10.5 -47t-37.5 -42.5t-62 -17.5zM518 795q-48 0 -78.5 30.5t-30.5 76.5q0 20 10.5 45t37.5 43t61 18t61.5 -18.5t38 -43t10.5 -44.5q0 -22 -10.5 -47t-37.5 -42.5
t-62 -17.5zM745 760v-417q0 -81 -25 -148.5t-71 -114t-110.5 -71.5t-140.5 -25q-79 0 -145 25t-113 71.5t-72.5 114t-25.5 148.5v417h222v-407q0 -77 36.5 -120t97.5 -43q56 0 90.5 43t34.5 120v407h222z" />
    <glyph glyph-name="Yacute" unicode="&#xdd;" horiz-adv-x="816" 
d="M506 819h-203l80 168h260zM816 760l-297 -529v-231h-232v231l-287 529h241l168 -310l166 310h241z" />
    <glyph glyph-name="Thorn" unicode="&#xde;" horiz-adv-x="673" 
d="M271 622h134q113 0 183 -64.5t70 -168.5q0 -53 -19.5 -98t-55.5 -77t-87 -49t-111 -17h-114v-148h-221v760h221v-138zM271 315h99q32 0 52 18.5t20 48.5q0 28 -20 45.5t-52 17.5h-99v-130z" />
    <glyph glyph-name="germandbls" unicode="&#xdf;" horiz-adv-x="746" 
d="M696 468l-135 -269q85 -20 128 -77t43 -143q0 -60 -21 -110.5t-59.5 -85.5t-92.5 -54t-118 -19q-96 0 -170 46.5t-101 122.5l188 86q10 -34 34.5 -51t52.5 -17q16 0 35 7t32.5 25.5t13.5 44.5q0 34 -24 55t-62 21h-112l-14 57l118 236h-167v-343h-215v594q0 99 58.5 160
t153.5 61q11 0 44 -3.5t75 -19.5l-41 -158q-13 4 -28 4q-21 0 -34 -12t-13 -31v-87h431v-40z" />
    <glyph glyph-name="agrave" unicode="&#xe0;" horiz-adv-x="663" 
d="M250 577l-137 168h260l80 -168h-203zM613 508v-508h-215v42q-54 -57 -139 -57q-53 0 -98.5 19.5t-78 55t-50 85.5t-17.5 109t17.5 109t50 85.5t78 55t98.5 19.5q85 0 139 -57v42h215zM314 162q17 0 37 9.5t33.5 32.5t13.5 50q0 17 -7.5 38.5t-28.5 37.5t-48 16t-47.5 -16
t-28 -37.5t-7.5 -38.5q0 -38 22.5 -65t60.5 -27z" />
    <glyph glyph-name="aacute" unicode="&#xe1;" horiz-adv-x="663" 
d="M440 577h-203l80 168h260zM613 508v-508h-215v42q-54 -57 -139 -57q-53 0 -98.5 19.5t-78 55t-50 85.5t-17.5 109t17.5 109t50 85.5t78 55t98.5 19.5q85 0 139 -57v42h215zM314 162q17 0 37 9.5t33.5 32.5t13.5 50q0 17 -7.5 38.5t-28.5 37.5t-48 16t-47.5 -16t-28 -37.5
t-7.5 -38.5q0 -38 22.5 -65t60.5 -27z" />
    <glyph glyph-name="acircumflex" unicode="&#xe2;" horiz-adv-x="663" 
d="M311 577h-201l119 168h225l119 -168h-201l-30 44zM613 508v-508h-215v42q-54 -57 -139 -57q-53 0 -98.5 19.5t-78 55t-50 85.5t-17.5 109t17.5 109t50 85.5t78 55t98.5 19.5q85 0 139 -57v42h215zM314 162q17 0 37 9.5t33.5 32.5t13.5 50q0 17 -7.5 38.5t-28.5 37.5
t-48 16t-47.5 -16t-28 -37.5t-7.5 -38.5q0 -38 22.5 -65t60.5 -27z" />
    <glyph glyph-name="atilde" unicode="&#xe3;" horiz-adv-x="663" 
d="M301 604q-15 0 -22.5 -5.5t-14.5 -21.5h-115q0 87 36.5 141t94.5 54q33 0 64.5 -15.5t40.5 -17.5t14 -2q8 0 17.5 3t19.5 27h115q0 -87 -37 -141t-95 -54q-32 0 -62.5 14t-40.5 16t-15 2zM613 508v-508h-215v42q-54 -57 -139 -57q-53 0 -98.5 19.5t-78 55t-50 85.5
t-17.5 109t17.5 109t50 85.5t78 55t98.5 19.5q85 0 139 -57v42h215zM314 162q17 0 37 9.5t33.5 32.5t13.5 50q0 17 -7.5 38.5t-28.5 37.5t-48 16t-47.5 -16t-28 -37.5t-7.5 -38.5q0 -38 22.5 -65t60.5 -27z" />
    <glyph glyph-name="adieresis" unicode="&#xe4;" horiz-adv-x="663" 
d="M217 553q-48 0 -78.5 30.5t-30.5 76.5q0 20 10.5 45t37.5 43t61 18t61.5 -18.5t38 -43t10.5 -44.5q0 -22 -10.5 -47t-37.5 -42.5t-62 -17.5zM467 553q-48 0 -78.5 30.5t-30.5 76.5q0 20 10.5 45t37.5 43t61 18t61.5 -18.5t38 -43t10.5 -44.5q0 -22 -10.5 -47t-37.5 -42.5
t-62 -17.5zM613 508v-508h-215v42q-54 -57 -139 -57q-53 0 -98.5 19.5t-78 55t-50 85.5t-17.5 109t17.5 109t50 85.5t78 55t98.5 19.5q85 0 139 -57v42h215zM314 162q17 0 37 9.5t33.5 32.5t13.5 50q0 17 -7.5 38.5t-28.5 37.5t-48 16t-47.5 -16t-28 -37.5t-7.5 -38.5
q0 -38 22.5 -65t60.5 -27z" />
    <glyph glyph-name="aring" unicode="&#xe5;" horiz-adv-x="663" 
d="M342 552q-58 0 -99.5 40t-41.5 96q0 57 41.5 97t99.5 40t99.5 -40t41.5 -97q0 -56 -41.5 -96t-99.5 -40zM342 727q-16 0 -28 -11.5t-12 -27.5q0 -15 12 -26.5t28 -11.5t28 11.5t12 26.5q0 16 -12 27.5t-28 11.5zM613 508v-508h-215v42q-54 -57 -139 -57q-53 0 -98.5 19.5
t-78 55t-50 85.5t-17.5 109t17.5 109t50 85.5t78 55t98.5 19.5q85 0 139 -57v42h215zM314 162q17 0 37 9.5t33.5 32.5t13.5 50q0 17 -7.5 38.5t-28.5 37.5t-48 16t-47.5 -16t-28 -37.5t-7.5 -38.5q0 -38 22.5 -65t60.5 -27z" />
    <glyph glyph-name="ae" unicode="&#xe6;" horiz-adv-x="885" 
d="M870 203h-343q18 -59 75 -59q25 0 41.5 9t27.5 34l184 -38q-19 -73 -89.5 -118.5t-163.5 -45.5q-94 0 -171 51q-74 -51 -194 -51q-109 0 -168 42t-59 121q0 76 57 114.5t167 38.5h102v30q0 18 -12 30t-30 12q-39 0 -46 -42l-200 41q7 31 25.5 58.5t49.5 48.5t74.5 32.5
t96.5 11.5q97 0 159 -38q30 18 70.5 28t78.5 10q59 0 108.5 -18.5t85 -55t55 -91.5t19.5 -124v-31zM527 301h138q-13 60 -66 60q-56 0 -72 -60zM335 199h-49q-26 0 -40.5 -9t-14.5 -26t13 -27t34 -10q23 0 40 13.5t17 37.5v21z" />
    <glyph glyph-name="ccedilla" unicode="&#xe7;" horiz-adv-x="586" 
d="M375 233l196 -34q-11 -79 -66 -134t-136 -73l-37 -152h-219l104 156q-89 24 -145.5 93.5t-56.5 164.5q0 58 22.5 108t62 86t92 55.5t110.5 19.5q37 0 79 -10t86 -38t70 -72t33 -91l-195 -36q-5 32 -25 51t-48 19q-17 0 -36 -9.5t-32 -32.5t-13 -50q0 -17 7.5 -38.5
t27.5 -37.5t46 -16q28 0 48 19t25 52z" />
    <glyph glyph-name="egrave" unicode="&#xe8;" horiz-adv-x="582" 
d="M207 577l-137 168h260l80 -168h-203zM567 203h-343q18 -59 75 -59q25 0 45 11.5t27 29.5l191 -37q-19 -50 -53.5 -85.5t-86.5 -56.5t-123 -21q-57 0 -109 19.5t-91.5 55.5t-61.5 86t-22 108t22 108t61.5 86t91 55.5t108.5 19.5q59 0 109 -18.5t85.5 -55t55 -91.5
t19.5 -124v-31zM298 362q-19 0 -40 -10.5t-33 -40.5h138q-7 24 -25 37.5t-40 13.5z" />
    <glyph glyph-name="eacute" unicode="&#xe9;" horiz-adv-x="582" 
d="M397 577h-203l80 168h260zM567 203h-343q18 -59 75 -59q25 0 45 11.5t27 29.5l191 -37q-19 -50 -53.5 -85.5t-86.5 -56.5t-123 -21q-57 0 -109 19.5t-91.5 55.5t-61.5 86t-22 108t22 108t61.5 86t91 55.5t108.5 19.5q59 0 109 -18.5t85.5 -55t55 -91.5t19.5 -124v-31z
M298 362q-19 0 -40 -10.5t-33 -40.5h138q-7 24 -25 37.5t-40 13.5z" />
    <glyph glyph-name="ecircumflex" unicode="&#xea;" horiz-adv-x="582" 
d="M268 577h-201l119 168h225l119 -168h-201l-30 44zM567 203h-343q18 -59 75 -59q25 0 45 11.5t27 29.5l191 -37q-19 -50 -53.5 -85.5t-86.5 -56.5t-123 -21q-57 0 -109 19.5t-91.5 55.5t-61.5 86t-22 108t22 108t61.5 86t91 55.5t108.5 19.5q59 0 109 -18.5t85.5 -55
t55 -91.5t19.5 -124v-31zM298 362q-19 0 -40 -10.5t-33 -40.5h138q-7 24 -25 37.5t-40 13.5z" />
    <glyph glyph-name="edieresis" unicode="&#xeb;" horiz-adv-x="582" 
d="M174 553q-48 0 -78.5 30.5t-30.5 76.5q0 20 10.5 45t37.5 43t61 18t61.5 -18.5t38 -43t10.5 -44.5q0 -22 -10.5 -47t-37.5 -42.5t-62 -17.5zM424 553q-48 0 -78.5 30.5t-30.5 76.5q0 20 10.5 45t37.5 43t61 18t61.5 -18.5t38 -43t10.5 -44.5q0 -22 -10.5 -47t-37.5 -42.5
t-62 -17.5zM567 203h-343q18 -59 75 -59q25 0 45 11.5t27 29.5l191 -37q-19 -50 -53.5 -85.5t-86.5 -56.5t-123 -21q-57 0 -109 19.5t-91.5 55.5t-61.5 86t-22 108t22 108t61.5 86t91 55.5t108.5 19.5q59 0 109 -18.5t85.5 -55t55 -91.5t19.5 -124v-31zM298 362
q-19 0 -40 -10.5t-33 -40.5h138q-7 24 -25 37.5t-40 13.5z" />
    <glyph glyph-name="igrave" unicode="&#xec;" horiz-adv-x="299" 
d="M181 745l80 -168h-203l-137 168h260zM257 0h-215v508h215v-508z" />
    <glyph glyph-name="iacute" unicode="&#xed;" horiz-adv-x="299" 
d="M248 577h-203l80 168h260zM257 0h-215v508h215v-508z" />
    <glyph glyph-name="icircumflex" unicode="&#xee;" horiz-adv-x="299" 
d="M119 577h-201l119 168h225l119 -168h-201l-30 44zM42 508h215v-508h-215v508z" />
    <glyph glyph-name="idieresis" unicode="&#xef;" horiz-adv-x="299" 
d="M25 766q34 0 61.5 -18.5t38 -43t10.5 -44.5q0 -22 -10.5 -47t-37.5 -42.5t-62 -17.5q-48 0 -78.5 30.5t-30.5 76.5q0 20 10.5 45t37.5 43t61 18zM275 766q34 0 61.5 -18.5t38 -43t10.5 -44.5q0 -22 -10.5 -47t-37.5 -42.5t-62 -17.5q-48 0 -78.5 30.5t-30.5 76.5
q0 20 10.5 45t37.5 43t61 18zM257 0h-215v508h215v-508z" />
    <glyph glyph-name="eth" unicode="&#xf0;" horiz-adv-x="607" 
d="M498 691l-48 -18q42 -59 74 -124t50 -131.5t18 -134.5q0 -79 -25 -137.5t-67 -93.5t-92.5 -51t-102.5 -16q-58 0 -111 19t-93 55t-63 87t-23 112q0 56 19 105t53.5 84.5t81 55.5t98.5 20q37 0 64 -12q-32 45 -72 89l-127 -48l-35 80l89 34q-70 55 -158 94v40h313
q33 -32 52 -55l70 27zM304 162q17 0 36.5 9.5t33 33t13.5 50.5q0 37 -24 64t-59 27q-17 0 -36.5 -9.5t-33 -32.5t-13.5 -50q0 -17 8 -38.5t28.5 -37.5t46.5 -16z" />
    <glyph glyph-name="ntilde" unicode="&#xf1;" horiz-adv-x="637" 
d="M285 604q-15 0 -22.5 -5.5t-14.5 -21.5h-115q0 87 36.5 141t94.5 54q33 0 64.5 -15.5t40.5 -17.5t14 -2q8 0 17.5 3t19.5 27h115q0 -87 -37 -141t-95 -54q-32 0 -62.5 14t-40.5 16t-15 2zM414 523q84 0 134.5 -55t50.5 -151v-317h-215v271q0 27 -16 44.5t-40 17.5
q-28 0 -45.5 -21t-17.5 -55v-257h-215v508h215v-55q29 33 68 51.5t81 18.5z" />
    <glyph glyph-name="ograve" unicode="&#xf2;" horiz-adv-x="618" 
d="M217 577l-137 168h260l80 -168h-203zM309 523q59 0 112.5 -19.5t94.5 -55.5t64 -86t23 -108t-23 -108t-64 -86t-94.5 -55.5t-112.5 -19.5t-112.5 19.5t-94.5 55.5t-64 86t-23 108t23 108t64 86t94.5 55.5t112.5 19.5zM309 162q18 0 38.5 9.5t35 32.5t14.5 50t-14.5 50
t-35 32.5t-38.5 9.5t-38.5 -9.5t-35 -32.5t-14.5 -50t14.5 -50t35 -32.5t38.5 -9.5z" />
    <glyph glyph-name="oacute" unicode="&#xf3;" horiz-adv-x="618" 
d="M407 577h-203l80 168h260zM309 523q59 0 112.5 -19.5t94.5 -55.5t64 -86t23 -108t-23 -108t-64 -86t-94.5 -55.5t-112.5 -19.5t-112.5 19.5t-94.5 55.5t-64 86t-23 108t23 108t64 86t94.5 55.5t112.5 19.5zM309 162q18 0 38.5 9.5t35 32.5t14.5 50t-14.5 50t-35 32.5
t-38.5 9.5t-38.5 -9.5t-35 -32.5t-14.5 -50t14.5 -50t35 -32.5t38.5 -9.5z" />
    <glyph glyph-name="ocircumflex" unicode="&#xf4;" horiz-adv-x="618" 
d="M278 577h-201l119 168h225l119 -168h-201l-30 44zM309 523q59 0 112.5 -19.5t94.5 -55.5t64 -86t23 -108t-23 -108t-64 -86t-94.5 -55.5t-112.5 -19.5t-112.5 19.5t-94.5 55.5t-64 86t-23 108t23 108t64 86t94.5 55.5t112.5 19.5zM309 162q18 0 38.5 9.5t35 32.5t14.5 50
t-14.5 50t-35 32.5t-38.5 9.5t-38.5 -9.5t-35 -32.5t-14.5 -50t14.5 -50t35 -32.5t38.5 -9.5z" />
    <glyph glyph-name="otilde" unicode="&#xf5;" horiz-adv-x="618" 
d="M268 604q-15 0 -22.5 -5.5t-14.5 -21.5h-115q0 87 36.5 141t94.5 54q33 0 64.5 -15.5t40.5 -17.5t14 -2q8 0 17.5 3t19.5 27h115q0 -87 -37 -141t-95 -54q-32 0 -62.5 14t-40.5 16t-15 2zM309 523q59 0 112.5 -19.5t94.5 -55.5t64 -86t23 -108t-23 -108t-64 -86
t-94.5 -55.5t-112.5 -19.5t-112.5 19.5t-94.5 55.5t-64 86t-23 108t23 108t64 86t94.5 55.5t112.5 19.5zM309 162q18 0 38.5 9.5t35 32.5t14.5 50t-14.5 50t-35 32.5t-38.5 9.5t-38.5 -9.5t-35 -32.5t-14.5 -50t14.5 -50t35 -32.5t38.5 -9.5z" />
    <glyph glyph-name="odieresis" unicode="&#xf6;" horiz-adv-x="618" 
d="M184 553q-48 0 -78.5 30.5t-30.5 76.5q0 20 10.5 45t37.5 43t61 18t61.5 -18.5t38 -43t10.5 -44.5q0 -22 -10.5 -47t-37.5 -42.5t-62 -17.5zM434 553q-48 0 -78.5 30.5t-30.5 76.5q0 20 10.5 45t37.5 43t61 18t61.5 -18.5t38 -43t10.5 -44.5q0 -22 -10.5 -47t-37.5 -42.5
t-62 -17.5zM309 523q59 0 112.5 -19.5t94.5 -55.5t64 -86t23 -108t-23 -108t-64 -86t-94.5 -55.5t-112.5 -19.5t-112.5 19.5t-94.5 55.5t-64 86t-23 108t23 108t64 86t94.5 55.5t112.5 19.5zM309 162q18 0 38.5 9.5t35 32.5t14.5 50t-14.5 50t-35 32.5t-38.5 9.5t-38.5 -9.5
t-35 -32.5t-14.5 -50t14.5 -50t35 -32.5t38.5 -9.5z" />
    <glyph glyph-name="divide" unicode="&#xf7;" horiz-adv-x="560" 
d="M280 625q19 0 41 -9.5t37.5 -33.5t15.5 -51q0 -39 -27 -66.5t-67 -27.5t-67 27.5t-27 66.5q0 17 9 39t32.5 38.5t52.5 16.5zM530 250h-500v160h500v-160zM280 221q19 0 41 -9.5t37.5 -33.5t15.5 -51q0 -39 -27 -66.5t-67 -27.5t-67 27.5t-27 66.5q0 17 9 39t32.5 38.5
t52.5 16.5z" />
    <glyph glyph-name="oslash" unicode="&#xf8;" horiz-adv-x="618" 
d="M582 467l-42 -42q63 -73 63 -171q0 -58 -23 -108t-64 -86t-94.5 -55.5t-112.5 -19.5q-91 0 -165 44l-60 -60l-64 64l54 54q-59 72 -59 167q0 58 23 108t64 86t94.5 55.5t112.5 19.5q87 0 160 -41l49 49zM221 254l2 -18l107 107q-9 3 -21 3q-18 0 -38.5 -9.5t-35 -32.5
t-14.5 -50zM309 162q18 0 38.5 9.5t35 32.5t14.5 50q0 14 -4 25l-112 -113q18 -4 28 -4z" />
    <glyph glyph-name="ugrave" unicode="&#xf9;" horiz-adv-x="637" 
d="M220 577l-137 168h260l80 -168h-203zM587 508v-508h-215v55q-29 -33 -68 -51.5t-81 -18.5q-84 0 -134.5 55t-50.5 151v317h215v-271q0 -27 16 -44.5t40 -17.5q28 0 45.5 21t17.5 55v257h215z" />
    <glyph glyph-name="uacute" unicode="&#xfa;" horiz-adv-x="637" 
d="M410 577h-203l80 168h260zM587 508v-508h-215v55q-29 -33 -68 -51.5t-81 -18.5q-84 0 -134.5 55t-50.5 151v317h215v-271q0 -27 16 -44.5t40 -17.5q28 0 45.5 21t17.5 55v257h215z" />
    <glyph glyph-name="ucircumflex" unicode="&#xfb;" horiz-adv-x="637" 
d="M281 577h-201l119 168h225l119 -168h-201l-30 44zM587 508v-508h-215v55q-29 -33 -68 -51.5t-81 -18.5q-84 0 -134.5 55t-50.5 151v317h215v-271q0 -27 16 -44.5t40 -17.5q28 0 45.5 21t17.5 55v257h215z" />
    <glyph glyph-name="udieresis" unicode="&#xfc;" horiz-adv-x="637" 
d="M187 553q-48 0 -78.5 30.5t-30.5 76.5q0 20 10.5 45t37.5 43t61 18t61.5 -18.5t38 -43t10.5 -44.5q0 -22 -10.5 -47t-37.5 -42.5t-62 -17.5zM437 553q-48 0 -78.5 30.5t-30.5 76.5q0 20 10.5 45t37.5 43t61 18t61.5 -18.5t38 -43t10.5 -44.5q0 -22 -10.5 -47t-37.5 -42.5
t-62 -17.5zM587 508v-508h-215v55q-29 -33 -68 -51.5t-81 -18.5q-84 0 -134.5 55t-50.5 151v317h215v-271q0 -27 16 -44.5t40 -17.5q28 0 45.5 21t17.5 55v257h215z" />
    <glyph glyph-name="yacute" unicode="&#xfd;" horiz-adv-x="637" 
d="M406 577h-203l80 168h260zM587 508v-555q0 -53 -22 -98.5t-63 -77.5t-98 -49.5t-123 -17.5q-91 0 -160.5 34.5t-112.5 109.5l135 107q58 -85 139 -85q41 0 65.5 21.5t24.5 55.5v102q-29 -33 -68 -51.5t-81 -18.5q-84 0 -134.5 55t-50.5 151v317h215v-271q0 -27 16 -44.5
t40 -17.5q28 0 45.5 21t17.5 55v257h215z" />
    <glyph glyph-name="thorn" unicode="&#xfe;" horiz-adv-x="663" 
d="M404 523q53 0 98.5 -19.5t78 -55t50 -85.5t17.5 -109t-17.5 -109t-50 -85.5t-78 -55t-98.5 -19.5q-85 0 -139 57v-322h-215v1080h215v-334q54 57 139 57zM349 162q27 0 47.5 16t28 37.5t7.5 38.5q0 38 -22.5 65t-60.5 27q-17 0 -37 -9.5t-33.5 -32.5t-13.5 -50
q0 -17 7.5 -38.5t28.5 -37.5t48 -16z" />
    <glyph glyph-name="ydieresis" unicode="&#xff;" horiz-adv-x="637" 
d="M183 553q-48 0 -78.5 30.5t-30.5 76.5q0 20 10.5 45t37.5 43t61 18t61.5 -18.5t38 -43t10.5 -44.5q0 -22 -10.5 -47t-37.5 -42.5t-62 -17.5zM433 553q-48 0 -78.5 30.5t-30.5 76.5q0 20 10.5 45t37.5 43t61 18t61.5 -18.5t38 -43t10.5 -44.5q0 -22 -10.5 -47t-37.5 -42.5
t-62 -17.5zM587 508v-555q0 -53 -22 -98.5t-63 -77.5t-98 -49.5t-123 -17.5q-91 0 -160.5 34.5t-112.5 109.5l135 107q58 -85 139 -85q41 0 65.5 21.5t24.5 55.5v102q-29 -33 -68 -51.5t-81 -18.5q-84 0 -134.5 55t-50.5 151v317h215v-271q0 -27 16 -44.5t40 -17.5
q28 0 45.5 21t17.5 55v257h215z" />
    <glyph glyph-name="Amacron" unicode="&#x100;" horiz-adv-x="844" 
d="M602 819h-358v156h358v-156zM844 0h-236l-40 88h-292l-40 -88h-236l365 760h114zM487 268l-64 143l-65 -143h129z" />
    <glyph glyph-name="amacron" unicode="&#x101;" horiz-adv-x="663" 
d="M521 577h-358v156h358v-156zM613 508v-508h-215v42q-54 -57 -139 -57q-53 0 -98.5 19.5t-78 55t-50 85.5t-17.5 109t17.5 109t50 85.5t78 55t98.5 19.5q85 0 139 -57v42h215zM314 162q17 0 37 9.5t33.5 32.5t13.5 50q0 17 -7.5 38.5t-28.5 37.5t-48 16t-47.5 -16
t-28 -37.5t-7.5 -38.5q0 -38 22.5 -65t60.5 -27z" />
    <glyph glyph-name="Abreve" unicode="&#x102;" horiz-adv-x="844" 
d="M423 804q-88 0 -143.5 49t-55.5 127h159q0 -13 10.5 -24t29.5 -11t30 11t11 24h158q0 -78 -55.5 -127t-143.5 -49zM844 0h-236l-40 88h-292l-40 -88h-236l365 760h114zM487 268l-64 143l-65 -143h129z" />
    <glyph glyph-name="abreve" unicode="&#x103;" horiz-adv-x="663" 
d="M342 562q-88 0 -143.5 49t-55.5 127h159q0 -13 10.5 -24t29.5 -11t30 11t11 24h158q0 -78 -55.5 -127t-143.5 -49zM613 508v-508h-215v42q-54 -57 -139 -57q-53 0 -98.5 19.5t-78 55t-50 85.5t-17.5 109t17.5 109t50 85.5t78 55t98.5 19.5q85 0 139 -57v42h215zM314 162
q17 0 37 9.5t33.5 32.5t13.5 50q0 17 -7.5 38.5t-28.5 37.5t-48 16t-47.5 -16t-28 -37.5t-7.5 -38.5q0 -38 22.5 -65t60.5 -27z" />
    <glyph glyph-name="Aogonek" unicode="&#x104;" horiz-adv-x="844" 
d="M873 -81l7 -113q-22 -11 -53 -18t-56 -7q-39 0 -68.5 16t-40.5 39.5t-11 44.5q0 30 16.5 62.5t43.5 56.5h-103l-40 88h-292l-40 -88h-236l365 760h114l365 -760q-32 -32 -42 -44t-10 -23q0 -10 7 -16.5t21 -6.5q21 0 53 9zM487 268l-64 143l-65 -143h129z" />
    <glyph glyph-name="aogonek" unicode="&#x105;" horiz-adv-x="663" 
d="M642 -81l7 -113q-22 -11 -53 -18t-56 -7q-39 0 -68.5 16t-40.5 39.5t-11 44.5q0 30 16.5 62.5t43.5 56.5h-82v42q-54 -57 -139 -57q-53 0 -98.5 19.5t-78 55t-50 85.5t-17.5 109t17.5 109t50 85.5t78 55t98.5 19.5q85 0 139 -57v42h215v-508q-32 -32 -42 -44t-10 -23
q0 -10 7 -16.5t21 -6.5q21 0 53 9zM314 162q17 0 37 9.5t33.5 32.5t13.5 50q0 17 -7.5 38.5t-28.5 37.5t-48 16t-47.5 -16t-28 -37.5t-7.5 -38.5q0 -38 22.5 -65t60.5 -27z" />
    <glyph glyph-name="Cacute" unicode="&#x106;" horiz-adv-x="843" 
d="M530 819h-203l80 168h260zM429 180q68 0 116.5 43.5t61.5 111.5l211 -64q-13 -45 -41 -94t-82.5 -97t-126 -72t-139.5 -24q-82 0 -156.5 30.5t-130 84.5t-86.5 127t-31 153t31 153t86.5 127t130 84.5t156.5 30.5q33 0 75.5 -7t88 -26t90 -53t81.5 -87t54 -114l-211 -64
q-13 68 -61.5 111.5t-116.5 43.5q-39 0 -72.5 -15t-58 -42.5t-38 -64t-13.5 -77.5t13.5 -77.5t38 -64t58 -42.5t72.5 -15z" />
    <glyph glyph-name="cacute" unicode="&#x107;" horiz-adv-x="586" 
d="M400 577h-203l80 168h260zM375 233l196 -34q-5 -35 -22 -72t-50.5 -68.5t-83.5 -52.5t-113 -21q-58 0 -110.5 19.5t-92 55.5t-62 86t-22.5 108t22.5 108t62 86t92 55.5t110.5 19.5q37 0 79 -10t86 -38t70 -72t33 -91l-195 -36q-5 32 -25 51t-48 19q-17 0 -36 -9.5
t-32 -32.5t-13 -50q0 -17 7.5 -38.5t27.5 -37.5t46 -16q28 0 48 19t25 52z" />
    <glyph glyph-name="Cdotaccent" unicode="&#x10a;" horiz-adv-x="843" 
d="M431 795q-48 0 -78.5 30.5t-30.5 76.5q0 20 10.5 45t37.5 43.5t61 18.5q22 0 48 -11t44 -38t18 -58q0 -22 -10.5 -47t-37.5 -42.5t-62 -17.5zM429 180q68 0 116.5 43.5t61.5 111.5l211 -64q-13 -45 -41 -94t-82.5 -97t-126 -72t-139.5 -24q-82 0 -156.5 30.5t-130 84.5
t-86.5 127t-31 153t31 153t86.5 127t130 84.5t156.5 30.5q33 0 75.5 -7t88 -26t90 -53t81.5 -87t54 -114l-211 -64q-13 68 -61.5 111.5t-116.5 43.5q-39 0 -72.5 -15t-58 -42.5t-38 -64t-13.5 -77.5t13.5 -77.5t38 -64t58 -42.5t72.5 -15z" />
    <glyph glyph-name="cdotaccent" unicode="&#x10b;" horiz-adv-x="586" 
d="M301 553q-48 0 -78.5 30.5t-30.5 76.5q0 20 10.5 45t37.5 43.5t61 18.5q22 0 48 -11t44 -38t18 -58q0 -22 -10.5 -47t-37.5 -42.5t-62 -17.5zM375 233l196 -34q-5 -35 -22 -72t-50.5 -68.5t-83.5 -52.5t-113 -21q-58 0 -110.5 19.5t-92 55.5t-62 86t-22.5 108t22.5 108
t62 86t92 55.5t110.5 19.5q37 0 79 -10t86 -38t70 -72t33 -91l-195 -36q-5 32 -25 51t-48 19q-17 0 -36 -9.5t-32 -32.5t-13 -50q0 -17 7.5 -38.5t27.5 -37.5t46 -16q28 0 48 19t25 52z" />
    <glyph glyph-name="Ccaron" unicode="&#x10c;" horiz-adv-x="843" 
d="M319 819l-119 168h201l31 -44l30 44h201l-119 -168h-225zM429 180q68 0 116.5 43.5t61.5 111.5l211 -64q-13 -45 -41 -94t-82.5 -97t-126 -72t-139.5 -24q-82 0 -156.5 30.5t-130 84.5t-86.5 127t-31 153t31 153t86.5 127t130 84.5t156.5 30.5q33 0 75.5 -7t88 -26
t90 -53t81.5 -87t54 -114l-211 -64q-13 68 -61.5 111.5t-116.5 43.5q-39 0 -72.5 -15t-58 -42.5t-38 -64t-13.5 -77.5t13.5 -77.5t38 -64t58 -42.5t72.5 -15z" />
    <glyph glyph-name="ccaron" unicode="&#x10d;" horiz-adv-x="586" 
d="M189 577l-119 168h201l31 -44l30 44h201l-119 -168h-225zM375 233l196 -34q-5 -35 -22 -72t-50.5 -68.5t-83.5 -52.5t-113 -21q-58 0 -110.5 19.5t-92 55.5t-62 86t-22.5 108t22.5 108t62 86t92 55.5t110.5 19.5q37 0 79 -10t86 -38t70 -72t33 -91l-195 -36q-5 32 -25 51
t-48 19q-17 0 -36 -9.5t-32 -32.5t-13 -50q0 -17 7.5 -38.5t27.5 -37.5t46 -16q28 0 48 19t25 52z" />
    <glyph glyph-name="Dcaron" unicode="&#x10e;" horiz-adv-x="830" 
d="M275 819l-119 168h201l31 -44l30 44h201l-119 -168h-225zM50 760h354q88 0 162.5 -27t128 -77.5t82 -121.5t28.5 -154t-28.5 -154t-82 -121.5t-128 -77.5t-162.5 -27h-354v760zM271 186h125q88 0 138 53t50 141t-50 141t-138 53h-125v-388z" />
    <glyph glyph-name="dcaron" unicode="&#x10f;" horiz-adv-x="648" 
d="M398 800h215v-800h-215v42q-54 -57 -139 -57q-53 0 -98.5 19.5t-78 55t-50 85.5t-17.5 109t17.5 109t50 85.5t78 55t98.5 19.5q85 0 139 -57v334zM842 800l-47 -200h-138v200h185zM314 162q17 0 37 9.5t33.5 32.5t13.5 50q0 17 -7.5 38.5t-28.5 37.5t-48 16t-47.5 -16
t-28 -37.5t-7.5 -38.5q0 -38 22.5 -65t60.5 -27z" />
    <glyph glyph-name="Dcroat" unicode="&#x110;" horiz-adv-x="850" 
d="M70 760h354q88 0 162.5 -27t128 -77.5t82 -121.5t28.5 -154t-28.5 -154t-82 -121.5t-128 -77.5t-162.5 -27h-354v285h-60v186h60v289zM291 186h125q88 0 138 53t50 141t-50 141t-138 53h-125v-103h104v-186h-104v-99z" />
    <glyph glyph-name="dcroat" unicode="&#x111;" horiz-adv-x="673" 
d="M663 573h-50v-573h-215v42q-54 -57 -139 -57q-53 0 -98.5 19.5t-78 55t-50 85.5t-17.5 109t17.5 109t50 85.5t78 55t98.5 19.5q85 0 139 -57v107h-113v146h113v81h215v-81h50v-146zM314 162q17 0 37 9.5t33.5 32.5t13.5 50q0 17 -7.5 38.5t-28.5 37.5t-48 16t-47.5 -16
t-28 -37.5t-7.5 -38.5q0 -38 22.5 -65t60.5 -27z" />
    <glyph glyph-name="Emacron" unicode="&#x112;" horiz-adv-x="648" 
d="M514 819h-358v156h358v-156zM621 186v-186h-586v760h579v-186h-358v-98h352v-186h-352v-104h365z" />
    <glyph glyph-name="emacron" unicode="&#x113;" horiz-adv-x="582" 
d="M478 577h-358v156h358v-156zM567 203h-343q18 -59 75 -59q25 0 45 11.5t27 29.5l191 -37q-19 -50 -53.5 -85.5t-86.5 -56.5t-123 -21q-57 0 -109 19.5t-91.5 55.5t-61.5 86t-22 108t22 108t61.5 86t91 55.5t108.5 19.5q59 0 109 -18.5t85.5 -55t55 -91.5t19.5 -124v-31z
M298 362q-19 0 -40 -10.5t-33 -40.5h138q-7 24 -25 37.5t-40 13.5z" />
    <glyph glyph-name="Edotaccent" unicode="&#x116;" horiz-adv-x="648" 
d="M334 795q-48 0 -78.5 30.5t-30.5 76.5q0 20 10.5 45t37.5 43.5t61 18.5q22 0 48 -11t44 -38t18 -58q0 -22 -10.5 -47t-37.5 -42.5t-62 -17.5zM621 186v-186h-586v760h579v-186h-358v-98h352v-186h-352v-104h365z" />
    <glyph glyph-name="edotaccent" unicode="&#x117;" horiz-adv-x="582" 
d="M298 553q-48 0 -78.5 30.5t-30.5 76.5q0 20 10.5 45t37.5 43.5t61 18.5q22 0 48 -11t44 -38t18 -58q0 -22 -10.5 -47t-37.5 -42.5t-62 -17.5zM567 203h-343q18 -59 75 -59q25 0 45 11.5t27 29.5l191 -37q-19 -50 -53.5 -85.5t-86.5 -56.5t-123 -21q-57 0 -109 19.5
t-91.5 55.5t-61.5 86t-22 108t22 108t61.5 86t91 55.5t108.5 19.5q59 0 109 -18.5t85.5 -55t55 -91.5t19.5 -124v-31zM298 362q-19 0 -40 -10.5t-33 -40.5h138q-7 24 -25 37.5t-40 13.5z" />
    <glyph glyph-name="Eogonek" unicode="&#x118;" horiz-adv-x="648" 
d="M621 0h-45q-32 -32 -42 -44t-10 -23q0 -10 7 -16.5t21 -6.5q21 0 53 9l7 -113q-22 -11 -53 -18t-56 -7q-39 0 -68.5 16t-40.5 39.5t-11 44.5q0 30 16.5 62.5t43.5 56.5h-408v760h579v-186h-358v-98h352v-186h-352v-104h365v-186z" />
    <glyph glyph-name="eogonek" unicode="&#x119;" horiz-adv-x="582" 
d="M567 203h-344q16 -59 76 -59q50 0 72 41l191 -37q-19 -43 -74 -99q-35 -36 -45 -49t-15.5 -28t-5.5 -31q0 -31 29 -31q20 0 52 9l7 -113q-22 -11 -53 -18t-56 -7q-54 0 -88.5 26.5t-34.5 73.5q0 51 48 105l-27 -1q-57 0 -109 19.5t-91.5 55.5t-61.5 86t-22 108t22 108
t61.5 86t91.5 55.5t109 19.5q59 0 108.5 -18.5t85 -55t55 -91.5t19.5 -124v-31zM222 311h140q-7 27 -23.5 39t-44.5 12q-23 0 -43 -14.5t-29 -36.5z" />
    <glyph glyph-name="Ecaron" unicode="&#x11a;" horiz-adv-x="648" 
d="M222 819l-119 168h201l31 -44l30 44h201l-119 -168h-225zM621 186v-186h-586v760h579v-186h-358v-98h352v-186h-352v-104h365z" />
    <glyph glyph-name="ecaron" unicode="&#x11b;" horiz-adv-x="582" 
d="M186 577l-119 168h201l31 -44l30 44h201l-119 -168h-225zM567 203h-343q18 -59 75 -59q25 0 45 11.5t27 29.5l191 -37q-19 -50 -53.5 -85.5t-86.5 -56.5t-123 -21q-57 0 -109 19.5t-91.5 55.5t-61.5 86t-22 108t22 108t61.5 86t91 55.5t108.5 19.5q59 0 109 -18.5
t85.5 -55t55 -91.5t19.5 -124v-31zM298 362q-19 0 -40 -10.5t-33 -40.5h138q-7 24 -25 37.5t-40 13.5z" />
    <glyph glyph-name="Gbreve" unicode="&#x11e;" horiz-adv-x="885" 
d="M435 804q-88 0 -143.5 49t-55.5 127h159q0 -13 10.5 -24t29.5 -11t30 11t11 24h158q0 -78 -55.5 -127t-143.5 -49zM835 408v-408h-151l-13 74q-82 -90 -236 -90q-84 0 -159.5 30.5t-131.5 84.5t-87.5 127t-31.5 153t31.5 153t87.5 127t131.5 84.5t158.5 30.5
q136 0 237 -63t138 -170l-232 -52q-39 89 -143 89q-40 0 -74.5 -15t-60 -42.5t-39 -64t-13.5 -77.5t13.5 -77.5t39 -64t60.5 -42.5t75 -15q86 0 135 52h-189v176h454z" />
    <glyph glyph-name="gbreve" unicode="&#x11f;" horiz-adv-x="663" 
d="M334 562q-88 0 -143.5 49t-55.5 127h159q0 -13 10.5 -24t29.5 -11t30 11t11 24h158q0 -78 -55.5 -127t-143.5 -49zM613 508v-555q0 -42 -17.5 -85t-63.5 -82t-112 -57.5t-128 -18.5q-186 0 -268 144l135 107q32 -47 66 -66t71 -19q30 0 55 11.5t36 31.5t11 44v79
q-54 -57 -139 -57q-53 0 -98.5 19.5t-78 55t-50 85.5t-17.5 109t17.5 109t50 85.5t78 55t98.5 19.5q85 0 139 -57v42h215zM314 162q17 0 37 9.5t33.5 32.5t13.5 50q0 17 -7.5 38.5t-28.5 37.5t-48 16t-47.5 -16t-28 -37.5t-7.5 -38.5q0 -38 22.5 -65t60.5 -27z" />
    <glyph glyph-name="Gdotaccent" unicode="&#x120;" horiz-adv-x="885" 
d="M434 795q-48 0 -78.5 30.5t-30.5 76.5q0 20 10.5 45t37.5 43.5t61 18.5q22 0 48 -11t44 -38t18 -58q0 -22 -10.5 -47t-37.5 -42.5t-62 -17.5zM835 408v-408h-151l-13 74q-82 -90 -236 -90q-84 0 -159.5 30.5t-131.5 84.5t-87.5 127t-31.5 153t31.5 153t87.5 127
t131.5 84.5t158.5 30.5q136 0 237 -63t138 -170l-232 -52q-39 89 -143 89q-40 0 -74.5 -15t-60 -42.5t-39 -64t-13.5 -77.5t13.5 -77.5t39 -64t60.5 -42.5t75 -15q86 0 135 52h-189v176h454z" />
    <glyph glyph-name="gdotaccent" unicode="&#x121;" horiz-adv-x="663" 
d="M333 553q-48 0 -78.5 30.5t-30.5 76.5q0 20 10.5 45t37.5 43.5t61 18.5q22 0 48 -11t44 -38t18 -58q0 -22 -10.5 -47t-37.5 -42.5t-62 -17.5zM613 508v-555q0 -42 -17.5 -85t-63.5 -82t-112 -57.5t-128 -18.5q-186 0 -268 144l135 107q32 -47 66 -66t71 -19q30 0 55 11.5
t36 31.5t11 44v79q-54 -57 -139 -57q-53 0 -98.5 19.5t-78 55t-50 85.5t-17.5 109t17.5 109t50 85.5t78 55t98.5 19.5q85 0 139 -57v42h215zM314 162q17 0 37 9.5t33.5 32.5t13.5 50q0 17 -7.5 38.5t-28.5 37.5t-48 16t-47.5 -16t-28 -37.5t-7.5 -38.5q0 -38 22.5 -65
t60.5 -27z" />
    <glyph glyph-name="Gcommaaccent" unicode="&#x122;" horiz-adv-x="885" 
d="M835 408v-408h-151l-13 74q-82 -90 -236 -90q-84 0 -159.5 30.5t-131.5 84.5t-87.5 127t-31.5 153t31.5 153t87.5 127t131.5 84.5t158.5 30.5q136 0 237 -63t138 -170l-232 -52q-39 89 -143 89q-40 0 -74.5 -15t-60 -42.5t-39 -64t-13.5 -77.5t13.5 -77.5t39 -64
t60.5 -42.5t75 -15q86 0 135 52h-189v176h454zM331 -45h201l-103 -170h-145z" />
    <glyph glyph-name="gcommaaccent" unicode="&#x123;" horiz-adv-x="663" 
d="M405 574h-201l103 170h145zM613 508v-555q0 -42 -17.5 -85t-63.5 -82t-112 -57.5t-128 -18.5q-186 0 -268 144l135 107q32 -47 66 -66t71 -19q30 0 55 11.5t36 31.5t11 44v79q-54 -57 -139 -57q-53 0 -98.5 19.5t-78 55t-50 85.5t-17.5 109t17.5 109t50 85.5t78 55
t98.5 19.5q85 0 139 -57v42h215zM314 162q17 0 37 9.5t33.5 32.5t13.5 50q0 17 -7.5 38.5t-28.5 37.5t-48 16t-47.5 -16t-28 -37.5t-7.5 -38.5q0 -38 22.5 -65t60.5 -27z" />
    <glyph glyph-name="Hbar" unicode="&#x126;" horiz-adv-x="829" 
d="M819 477h-55v-477h-221v250h-257v-250h-221v477h-55v156h55v127h221v-127h257v127h221v-127h55v-156zM543 477h-257v-61h257v61z" />
    <glyph glyph-name="hbar" unicode="&#x127;" horiz-adv-x="652" 
d="M430 523q83 0 133.5 -55t50.5 -151v-317h-215v271q0 27 -16 44.5t-41 17.5q-27 0 -44.5 -21t-17.5 -55v-257h-215v573h-55v146h55v81h215v-81h88v-146h-88v-120q29 33 68 51.5t82 18.5z" />
    <glyph glyph-name="Imacron" unicode="&#x12a;" horiz-adv-x="601" 
d="M476 819h-358v156h358v-156zM411 573v-387h150v-186h-521v186h150v387h-150v187h521v-187h-150z" />
    <glyph glyph-name="imacron" unicode="&#x12b;" horiz-adv-x="299" 
d="M329 577h-358v156h358v-156zM257 0h-215v508h215v-508z" />
    <glyph glyph-name="Iogonek" unicode="&#x12e;" horiz-adv-x="601" 
d="M411 573v-387h150v-186h-150q-32 -32 -42 -44t-10 -23q0 -10 7 -16.5t21 -6.5q21 0 53 9l7 -113q-22 -11 -53 -18t-56 -7q-39 0 -68.5 16t-40.5 39.5t-11 44.5q0 30 16.5 62.5t43.5 56.5h-238v186h150v387h-150v187h521v-187h-150z" />
    <glyph glyph-name="iogonek" unicode="&#x12f;" horiz-adv-x="299" 
d="M149 553q-48 0 -78.5 30.5t-30.5 76.5q0 20 10.5 45t37.5 43.5t61 18.5q22 0 48 -11t44 -38t18 -58q0 -22 -10.5 -47t-37.5 -42.5t-62 -17.5zM286 -81l7 -113q-22 -11 -53 -18t-56 -7q-39 0 -68.5 16t-40.5 39.5t-11 44.5q0 30 16.5 62.5t43.5 56.5h-82v508h215v-508
q-32 -32 -42 -44t-10 -23q0 -10 7 -16.5t21 -6.5q21 0 53 9z" />
    <glyph glyph-name="Idotaccent" unicode="&#x130;" horiz-adv-x="601" 
d="M296 795q-48 0 -78.5 30.5t-30.5 76.5q0 20 10.5 45t37.5 43.5t61 18.5q22 0 48 -11t44 -38t18 -58q0 -22 -10.5 -47t-37.5 -42.5t-62 -17.5zM411 573v-387h150v-186h-521v186h150v387h-150v187h521v-187h-150z" />
    <glyph glyph-name="dotlessi" unicode="&#x131;" horiz-adv-x="299" 
d="M257 0h-215v508h215v-508z" />
    <glyph glyph-name="IJ" unicode="&#x132;" horiz-adv-x="1325" 
d="M561 760v-187h-150v-387h150v-186h-521v186h150v387h-150v187h521zM1283 760v-417q0 -81 -24 -148.5t-69 -114t-107.5 -71.5t-136.5 -25q-128 0 -216.5 66.5t-116.5 183.5l213 73q9 -56 41 -86.5t79 -30.5q52 0 83 43t31 120v220h-306v187h529z" />
    <glyph glyph-name="ij" unicode="&#x133;" horiz-adv-x="610" 
d="M152 769q24 0 51.5 -11.5t47 -40.5t19.5 -62q0 -23 -11 -49.5t-40.5 -45.5t-66.5 -19q-24 0 -51.5 11t-46.5 39.5t-19 63.5q0 33 19 62t46.5 40.5t51.5 11.5zM457 769q24 0 51.5 -11.5t47 -40.5t19.5 -62q0 -23 -11 -49.5t-40.5 -45.5t-66.5 -19q-24 0 -51.5 11
t-46.5 39.5t-19 63.5q0 33 19 62t46.5 40.5t51.5 11.5zM260 0h-215v508h215v-508zM565 -280h-215v788h215v-788z" />
    <glyph glyph-name="Kcommaaccent" unicode="&#x136;" horiz-adv-x="853" 
d="M863 0h-287l-156 213l-149 -213h-221v760h221v-362l270 362h261l-247 -354zM323 -45h201l-103 -170h-145z" />
    <glyph glyph-name="kcommaaccent" unicode="&#x137;" horiz-adv-x="682" 
d="M686 0h-280l-71 89l-70 -89h-215v800h215v-460l147 168h253l-195 -248zM250 -45h201l-103 -170h-145z" />
    <glyph glyph-name="Lacute" unicode="&#x139;" horiz-adv-x="651" 
d="M266 819h-203l80 168h260zM631 186v-186h-581v760h221v-574h360z" />
    <glyph glyph-name="lacute" unicode="&#x13a;" horiz-adv-x="358" 
d="M247 859h-203l80 168h260zM248 800v-603q0 -14 9 -23.5t22 -9.5q12 0 49 12l30 -151q-44 -25 -72.5 -32.5t-64.5 -7.5q-84 0 -136 53t-52 140v622h215z" />
    <glyph glyph-name="Lcommaaccent" unicode="&#x13b;" horiz-adv-x="651" 
d="M631 186v-186h-581v760h221v-574h360zM259 -45h201l-103 -170h-145z" />
    <glyph glyph-name="lcommaaccent" unicode="&#x13c;" horiz-adv-x="358" 
d="M248 800v-603q0 -14 9 -23.5t22 -9.5q12 0 49 12l30 -151q-44 -25 -72.5 -32.5t-64.5 -7.5q-84 0 -136 53t-52 140v622h215zM47 -215l47 170h201l-103 -170h-145z" />
    <glyph glyph-name="Lcaron" unicode="&#x13d;" horiz-adv-x="651" 
d="M631 186v-186h-581v760h221v-574h360zM507 560h-138v200h185z" />
    <glyph glyph-name="lcaron" unicode="&#x13e;" horiz-adv-x="358" 
d="M248 800v-603q0 -14 9 -23.5t22 -9.5q12 0 49 12l30 -151q-44 -25 -72.5 -32.5t-64.5 -7.5q-84 0 -136 53t-52 140v622h215zM431 600h-138v200h185z" />
    <glyph glyph-name="Ldot" unicode="&#x13f;" horiz-adv-x="656" 
d="M631 186v-186h-581v760h221v-574h360zM428 257q-48 0 -78.5 30.5t-30.5 76.5q0 20 10.5 45t37.5 43.5t61 18.5q22 0 48 -11t44 -38t18 -58q0 -22 -10.5 -47t-37.5 -42.5t-62 -17.5z" />
    <glyph glyph-name="ldot" unicode="&#x140;" horiz-adv-x="520" 
d="M265 800v-603q0 -14 9 -23.5t22 -9.5q12 0 49 12l30 -151q-44 -25 -72.5 -32.5t-64.5 -7.5q-84 0 -136 53t-52 140v622h215zM405 471q22 0 48 -11t44 -38t18 -58q0 -22 -10.5 -47t-37.5 -42.5t-62 -17.5q-48 0 -78.5 30.5t-30.5 76.5q0 20 10.5 45t37.5 43.5t61 18.5z
" />
    <glyph glyph-name="Lslash" unicode="&#x141;" horiz-adv-x="671" 
d="M651 186v-186h-581v262l-60 -26v177l60 26v321h221v-224l106 46v-177l-106 -46v-173h360z" />
    <glyph glyph-name="lslash" unicode="&#x142;" horiz-adv-x="425" 
d="M345 176l30 -151q-44 -25 -72.5 -32.5t-64.5 -7.5q-84 0 -136 53t-52 140v48l-40 -20v197l40 20v377h215v-272l50 25v-197l-50 -25v-134q0 -14 9 -23.5t22 -9.5q12 0 49 12z" />
    <glyph glyph-name="Nacute" unicode="&#x143;" horiz-adv-x="858" 
d="M512 819h-203l80 168h260zM808 760v-760h-221v216l-316 195v-411h-221v760h122l415 -279v279h221z" />
    <glyph glyph-name="nacute" unicode="&#x144;" horiz-adv-x="637" 
d="M424 577h-203l80 168h260zM414 523q84 0 134.5 -55t50.5 -151v-317h-215v271q0 27 -16 44.5t-40 17.5q-28 0 -45.5 -21t-17.5 -55v-257h-215v508h215v-55q29 33 68 51.5t81 18.5z" />
    <glyph glyph-name="Ncommaaccent" unicode="&#x145;" horiz-adv-x="858" 
d="M808 760v-760h-221v216l-316 195v-411h-221v760h122l415 -279v279h221zM362 -45h201l-103 -170h-145z" />
    <glyph glyph-name="ncommaaccent" unicode="&#x146;" horiz-adv-x="637" 
d="M414 523q84 0 134.5 -55t50.5 -151v-317h-215v271q0 27 -16 44.5t-40 17.5q-28 0 -45.5 -21t-17.5 -55v-257h-215v508h215v-55q29 33 68 51.5t81 18.5zM221 -45h201l-103 -170h-145z" />
    <glyph glyph-name="Ncaron" unicode="&#x147;" horiz-adv-x="858" 
d="M301 819l-119 168h201l31 -44l30 44h201l-119 -168h-225zM808 760v-760h-221v216l-316 195v-411h-221v760h122l415 -279v279h221z" />
    <glyph glyph-name="ncaron" unicode="&#x148;" horiz-adv-x="637" 
d="M213 577l-119 168h201l31 -44l30 44h201l-119 -168h-225zM414 523q84 0 134.5 -55t50.5 -151v-317h-215v271q0 27 -16 44.5t-40 17.5q-28 0 -45.5 -21t-17.5 -55v-257h-215v508h215v-55q29 33 68 51.5t81 18.5z" />
    <glyph glyph-name="Eng" unicode="&#x14a;" horiz-adv-x="838" 
d="M808 760v-890q0 -77 -50.5 -118.5t-137.5 -41.5q-24 0 -54 2.5t-89 17.5l20 166q49 -7 59 -7q15 0 23 7t8 24v296l-316 195v-411h-221v760h122l415 -279v279h221z" />
    <glyph glyph-name="eng" unicode="&#x14b;" horiz-adv-x="637" 
d="M414 523q84 0 134.5 -55t50.5 -151v-337q0 -77 -50.5 -118.5t-137.5 -41.5q-22 0 -42.5 1.5t-38 5t-35.5 8t-21 5.5l20 136q49 -7 59 -7q15 0 23 7t8 24v271q0 27 -16 44.5t-40 17.5q-28 0 -45.5 -21t-17.5 -55v-257h-215v508h215v-55q29 33 68 51.5t81 18.5z" />
    <glyph glyph-name="Omacron" unicode="&#x14c;" horiz-adv-x="878" 
d="M618 819h-358v156h358v-156zM439 774q83 0 159 -30.5t133 -84.5t89.5 -127t32.5 -153t-32.5 -153t-89.5 -127t-133 -84t-159 -30t-159 30t-133 84t-89.5 127t-32.5 153t32.5 153t89.5 127t133 84.5t159 30.5zM439 180q29 0 61 10t61 34.5t49.5 64t20.5 90.5
q0 30 -10 63.5t-37 67.5t-66.5 51t-78.5 17q-29 0 -61 -10t-61 -34.5t-49.5 -64t-20.5 -90.5q0 -30 10 -63.5t37 -67.5t66.5 -51t78.5 -17z" />
    <glyph glyph-name="omacron" unicode="&#x14d;" horiz-adv-x="618" 
d="M488 577h-358v156h358v-156zM309 523q59 0 112.5 -19.5t94.5 -55.5t64 -86t23 -108t-23 -108t-64 -86t-94.5 -55.5t-112.5 -19.5t-112.5 19.5t-94.5 55.5t-64 86t-23 108t23 108t64 86t94.5 55.5t112.5 19.5zM309 162q18 0 38.5 9.5t35 32.5t14.5 50t-14.5 50t-35 32.5
t-38.5 9.5t-38.5 -9.5t-35 -32.5t-14.5 -50t14.5 -50t35 -32.5t38.5 -9.5z" />
    <glyph glyph-name="Ohungarumlaut" unicode="&#x150;" horiz-adv-x="878" 
d="M404 819h-173l90 168h214zM461 819l90 168h224l-141 -168h-173zM439 774q83 0 159 -30.5t133 -84.5t89.5 -127t32.5 -153t-32.5 -153t-89.5 -127t-133 -84t-159 -30t-159 30t-133 84t-89.5 127t-32.5 153t32.5 153t89.5 127t133 84.5t159 30.5zM439 180q29 0 61 10
t61 34.5t49.5 64t20.5 90.5q0 30 -10 63.5t-37 67.5t-66.5 51t-78.5 17q-29 0 -61 -10t-61 -34.5t-49.5 -64t-20.5 -90.5q0 -30 10 -63.5t37 -67.5t66.5 -51t78.5 -17z" />
    <glyph glyph-name="ohungarumlaut" unicode="&#x151;" horiz-adv-x="618" 
d="M274 577h-173l90 168h214zM331 577l90 168h224l-141 -168h-173zM309 523q59 0 112.5 -19.5t94.5 -55.5t64 -86t23 -108t-23 -108t-64 -86t-94.5 -55.5t-112.5 -19.5t-112.5 19.5t-94.5 55.5t-64 86t-23 108t23 108t64 86t94.5 55.5t112.5 19.5zM309 162q18 0 38.5 9.5
t35 32.5t14.5 50t-14.5 50t-35 32.5t-38.5 9.5t-38.5 -9.5t-35 -32.5t-14.5 -50t14.5 -50t35 -32.5t38.5 -9.5z" />
    <glyph glyph-name="OE" unicode="&#x152;" horiz-adv-x="1103" 
d="M1076 186v-186h-626q-93 0 -172 27t-135.5 77.5t-87 121.5t-30.5 154t30.5 154t87 121.5t135.5 77.5t172 27h619v-186h-348v-111h323v-171h-323v-106h355zM500 181v398h-50q-91 0 -147 -55t-56 -144t56 -144t147 -55h50z" />
    <glyph glyph-name="oe" unicode="&#x153;" horiz-adv-x="965" 
d="M950 203h-343q18 -59 75 -59q25 0 45 11.5t27 29.5l191 -37q-19 -50 -53.5 -85.5t-86.5 -56.5t-123 -21q-51 0 -99 16t-84 44q-39 -28 -88 -44t-102 -16q-59 0 -112.5 19.5t-94.5 55.5t-64 86t-23 108t23 108t64 86t94.5 55.5t112.5 19.5q53 0 102 -16t88 -44
q37 28 84.5 44t97.5 16q59 0 109 -18.5t85.5 -55t55 -91.5t19.5 -124v-31zM681 362q-19 0 -40 -10.5t-33 -40.5h138q-7 24 -25 37.5t-40 13.5zM309 162q18 0 38.5 9.5t35 32.5t14.5 50t-14.5 50t-35 32.5t-38.5 9.5t-38.5 -9.5t-35 -32.5t-14.5 -50t14.5 -50t35 -32.5
t38.5 -9.5z" />
    <glyph glyph-name="Racute" unicode="&#x154;" horiz-adv-x="803" 
d="M465 819h-203l80 168h260zM783 0h-273l-122 157h-117v-157h-221v760h369q75 0 135 -21t101 -60.5t62 -94.5t21 -121q0 -38 -11 -86t-42 -93.5t-75 -74.5zM271 574v-231h138q23 0 51.5 11t50 41t21.5 68q0 50 -36.5 80.5t-86.5 30.5h-138z" />
    <glyph glyph-name="racute" unicode="&#x155;" horiz-adv-x="467" 
d="M359 577h-203l80 168h260zM265 508v-87q27 43 68 68t94 25q18 0 37 -3l-7 -226h-30q-88 0 -125 -33.5t-37 -102.5v-149h-215v508h215z" />
    <glyph glyph-name="Rcommaaccent" unicode="&#x156;" horiz-adv-x="803" 
d="M783 0h-273l-122 157h-117v-157h-221v760h369q75 0 135 -21t101 -60.5t62 -94.5t21 -121q0 -38 -11 -86t-42 -93.5t-75 -74.5zM271 574v-231h138q23 0 51.5 11t50 41t21.5 68q0 50 -36.5 80.5t-86.5 30.5h-138zM290 -45h201l-103 -170h-145z" />
    <glyph glyph-name="rcommaaccent" unicode="&#x157;" horiz-adv-x="467" 
d="M427 514q18 0 37 -3l-7 -226h-30q-88 0 -125 -33.5t-37 -102.5v-149h-215v508h215v-87q27 43 68 68t94 25zM60 -45h201l-103 -170h-145z" />
    <glyph glyph-name="Rcaron" unicode="&#x158;" horiz-adv-x="803" 
d="M254 819l-119 168h201l31 -44l30 44h201l-119 -168h-225zM783 0h-273l-122 157h-117v-157h-221v760h369q75 0 135 -21t101 -60.5t62 -94.5t21 -121q0 -38 -11 -86t-42 -93.5t-75 -74.5zM271 574v-231h138q23 0 51.5 11t50 41t21.5 68q0 50 -36.5 80.5t-86.5 30.5h-138z
" />
    <glyph glyph-name="rcaron" unicode="&#x159;" horiz-adv-x="467" 
d="M148 577l-119 168h201l31 -44l30 44h201l-119 -168h-225zM265 508v-87q27 43 68 68t94 25q18 0 37 -3l-7 -226h-30q-88 0 -125 -33.5t-37 -102.5v-149h-215v508h215z" />
    <glyph glyph-name="Sacute" unicode="&#x15a;" horiz-adv-x="676" 
d="M447 819h-203l80 168h260zM346 774q59 0 111 -14t92.5 -41.5t66.5 -69t35 -94.5l-213 -43q-19 86 -95 86q-27 0 -44.5 -13t-17.5 -34q0 -18 10 -30t24 -17l134 -45q107 -36 157 -86.5t50 -137.5q0 -49 -16 -89.5t-43.5 -69.5t-63.5 -48t-83.5 -31t-102.5 -12
q-62 0 -119 17t-100.5 48.5t-71 75.5t-34.5 95l223 46q21 -95 105 -95q31 0 50.5 13t19.5 34q0 36 -42 49l-137 41q-100 30 -147.5 81.5t-47.5 135.5q0 59 22.5 106t63.5 78.5t96 47.5t118 16z" />
    <glyph glyph-name="sacute" unicode="&#x15b;" horiz-adv-x="518" 
d="M360 577h-203l80 168h260zM15 130l202 40q7 -19 21 -29.5t32 -10.5q13 0 20.5 6.5t7.5 14.5q0 16 -28 20l-103 17q-147 24 -147 151q0 33 11.5 65.5t40 59t75 43t110.5 16.5q93 0 155 -36.5t79 -100.5l-188 -37q-3 13 -16.5 26.5t-34.5 13.5q-13 0 -20 -6t-7 -14
q0 -16 18 -20l111 -21q75 -14 112 -58.5t37 -106.5q0 -44 -18.5 -78t-51 -56t-77 -33t-95.5 -11q-56 0 -110 15t-89.5 49.5t-46.5 80.5z" />
    <glyph glyph-name="Scedilla" unicode="&#x15e;" horiz-adv-x="676" 
d="M656 235q0 -66 -28 -115.5t-79 -82t-122 -45.5l-37 -152h-219l101 151q-102 18 -170 80t-80 150l223 46q21 -95 105 -95q31 0 50.5 13t19.5 34q0 36 -42 49l-137 41q-100 30 -147.5 81.5t-47.5 135.5q0 59 22.5 106t63.5 78.5t96 47.5t118 16q59 0 111 -14t92.5 -41.5
t66.5 -69t35 -94.5l-213 -43q-19 86 -95 86q-27 0 -44.5 -13t-17.5 -34q0 -18 10 -30t24 -17l134 -45q107 -36 157 -86.5t50 -137.5z" />
    <glyph glyph-name="scedilla" unicode="&#x15f;" horiz-adv-x="518" 
d="M503 163q0 -36 -15.5 -72.5t-56.5 -63t-99 -36.5l-37 -151h-219l102 153q-63 13 -106 47t-57 90l202 40q7 -19 21 -29.5t32 -10.5q13 0 20.5 6.5t7.5 14.5q0 16 -28 20l-103 17q-147 24 -147 151q0 33 11.5 65.5t40 59t75 43t110.5 16.5q93 0 155 -36.5t79 -100.5
l-188 -37q-3 13 -16.5 26.5t-34.5 13.5q-13 0 -20 -6t-7 -14q0 -16 18 -20l111 -21q75 -14 112 -58.5t37 -106.5z" />
    <glyph glyph-name="Scaron" unicode="&#x160;" horiz-adv-x="676" 
d="M236 819l-119 168h201l31 -44l30 44h201l-119 -168h-225zM315 504l134 -45q107 -36 157 -86.5t50 -137.5q0 -49 -16 -89.5t-43.5 -69.5t-63.5 -48t-83.5 -31t-102.5 -12q-62 0 -119 17t-100.5 48.5t-71 75.5t-34.5 95l223 46q21 -95 105 -95q31 0 50.5 13t19.5 34
q0 36 -42 49l-137 41q-100 30 -147.5 81.5t-47.5 135.5q0 59 22.5 106t63.5 78.5t96 47.5t118 16q59 0 111 -14t92.5 -41.5t66.5 -69t35 -94.5l-213 -43q-19 86 -95 86q-27 0 -44.5 -13t-17.5 -34q0 -18 10 -30t24 -17z" />
    <glyph glyph-name="scaron" unicode="&#x161;" horiz-adv-x="518" 
d="M149 577l-119 168h201l31 -44l30 44h201l-119 -168h-225zM243 349l111 -21q75 -14 112 -58.5t37 -106.5q0 -44 -18.5 -78t-51 -56t-77 -33t-95.5 -11q-56 0 -110 15t-89.5 49.5t-46.5 80.5l202 40q7 -19 21 -29.5t32 -10.5q13 0 20.5 6.5t7.5 14.5q0 16 -28 20l-103 17
q-147 24 -147 151q0 33 11.5 65.5t40 59t75 43t110.5 16.5q93 0 155 -36.5t79 -100.5l-188 -37q-3 13 -16.5 26.5t-34.5 13.5q-13 0 -20 -6t-7 -14q0 -16 18 -20z" />
    <glyph glyph-name="tcommaaccent" unicode="&#x163;" horiz-adv-x="430" 
d="M281 343v-138q0 -17 12.5 -27.5t31.5 -10.5q14 0 30 3.5t24 8.5l36 -157q-38 -21 -84 -30l-36 -150h-219l105 157q-53 21 -84 68.5t-31 110.5v165h-71v165h71v152l215 60v-212h149v-165h-149z" />
    <glyph glyph-name="Tcaron" unicode="&#x164;" horiz-adv-x="699" 
d="M237 819l-119 168h201l31 -44l30 44h201l-119 -168h-225zM679 574h-219v-574h-221v574h-219v186h659v-186z" />
    <glyph glyph-name="tcaron" unicode="&#x165;" horiz-adv-x="430" 
d="M510 760l-47 -200h-138v200h185zM281 508h149v-165h-149v-138q0 -17 12.5 -27.5t31.5 -10.5q14 0 30 3.5t24 8.5l36 -157q-69 -37 -151 -37q-43 0 -75.5 12t-58 32t-45 58t-19.5 91v165h-71v165h71v152l215 60v-212z" />
    <glyph glyph-name="Tbar" unicode="&#x166;" horiz-adv-x="699" 
d="M460 574v-184h99v-166h-99v-224h-221v224h-98v166h98v184h-219v186h659v-186h-219z" />
    <glyph glyph-name="tbar" unicode="&#x167;" horiz-adv-x="430" 
d="M281 383v-36h125v-125h-125v-17q0 -17 12.5 -27.5t31.5 -10.5q14 0 30 3.5t24 8.5l36 -157q-69 -37 -151 -37q-43 0 -75.5 12t-58 32t-45 58t-19.5 91v44h-58v125h58v36h-71v125h71v152l215 60v-212h149v-125h-149z" />
    <glyph glyph-name="Umacron" unicode="&#x16a;" horiz-adv-x="787" 
d="M572 819h-358v156h358v-156zM745 760v-417q0 -81 -25 -148.5t-71 -114t-110.5 -71.5t-140.5 -25q-79 0 -145 25t-113 71.5t-72.5 114t-25.5 148.5v417h222v-407q0 -77 36.5 -120t97.5 -43q56 0 90.5 43t34.5 120v407h222z" />
    <glyph glyph-name="umacron" unicode="&#x16b;" horiz-adv-x="637" 
d="M491 577h-358v156h358v-156zM587 508v-508h-215v55q-29 -33 -68 -51.5t-81 -18.5q-84 0 -134.5 55t-50.5 151v317h215v-271q0 -27 16 -44.5t40 -17.5q28 0 45.5 21t17.5 55v257h215z" />
    <glyph glyph-name="Uring" unicode="&#x16e;" horiz-adv-x="787" 
d="M393 794q-58 0 -99.5 40t-41.5 96q0 57 41.5 97t99.5 40t99.5 -40t41.5 -97q0 -56 -41.5 -96t-99.5 -40zM393 969q-16 0 -28 -11.5t-12 -27.5q0 -15 12 -26.5t28 -11.5t28 11.5t12 26.5q0 16 -12 27.5t-28 11.5zM745 760v-417q0 -81 -25 -148.5t-71 -114t-110.5 -71.5
t-140.5 -25q-79 0 -145 25t-113 71.5t-72.5 114t-25.5 148.5v417h222v-407q0 -77 36.5 -120t97.5 -43q56 0 90.5 43t34.5 120v407h222z" />
    <glyph glyph-name="uring" unicode="&#x16f;" horiz-adv-x="637" 
d="M312 552q-58 0 -99.5 40t-41.5 96q0 57 41.5 97t99.5 40t99.5 -40t41.5 -97q0 -56 -41.5 -96t-99.5 -40zM312 727q-16 0 -28 -11.5t-12 -27.5q0 -15 12 -26.5t28 -11.5t28 11.5t12 26.5q0 16 -12 27.5t-28 11.5zM587 508v-508h-215v55q-29 -33 -68 -51.5t-81 -18.5
q-84 0 -134.5 55t-50.5 151v317h215v-271q0 -27 16 -44.5t40 -17.5q28 0 45.5 21t17.5 55v257h215z" />
    <glyph glyph-name="Uhungarumlaut" unicode="&#x170;" horiz-adv-x="787" 
d="M358 819h-173l90 168h214zM415 819l90 168h224l-141 -168h-173zM745 760v-417q0 -81 -25 -148.5t-71 -114t-110.5 -71.5t-140.5 -25q-79 0 -145 25t-113 71.5t-72.5 114t-25.5 148.5v417h222v-407q0 -77 36.5 -120t97.5 -43q56 0 90.5 43t34.5 120v407h222z" />
    <glyph glyph-name="uhungarumlaut" unicode="&#x171;" horiz-adv-x="637" 
d="M277 577h-173l90 168h214zM334 577l90 168h224l-141 -168h-173zM372 508h215v-508h-215v55q-29 -33 -68 -51.5t-81 -18.5q-84 0 -134.5 55t-50.5 151v317h215v-271q0 -27 16 -44.5t40 -17.5q28 0 45.5 21t17.5 55v257z" />
    <glyph glyph-name="Uogonek" unicode="&#x172;" horiz-adv-x="791" 
d="M749 760v-424q0 -69 -16.5 -128t-44 -95.5t-53.5 -55.5q-54 -39 -71 -63.5t-17 -49.5q0 -34 35 -34q13 0 69 12l7 -125q-55 -26 -115 -26q-25 0 -50 5.5t-47 20.5t-32.5 40t-10.5 49q0 50 43 101l-47 -2q-78 0 -144.5 25t-114 71t-73 111.5t-25.5 143.5v424h222v-419
q0 -70 37 -110t97 -40t94.5 40t34.5 110v419h222z" />
    <glyph glyph-name="uogonek" unicode="&#x173;" horiz-adv-x="637" 
d="M616 -81l7 -113q-22 -11 -53 -18t-56 -7q-39 0 -68.5 16t-40.5 39.5t-11 44.5q0 30 16.5 62.5t43.5 56.5h-82v55q-29 -33 -68 -51.5t-81 -18.5q-84 0 -134.5 55t-50.5 151v317h215v-271q0 -27 16 -44.5t40 -17.5q28 0 45.5 21t17.5 55v257h215v-508q-32 -32 -42 -44
t-10 -23q0 -10 7 -16.5t21 -6.5q21 0 53 9z" />
    <glyph glyph-name="Wcircumflex" unicode="&#x174;" horiz-adv-x="1123" 
d="M531 819h-201l119 168h225l119 -168h-201l-30 44zM1123 760l-243 -760h-186l-132 372l-133 -372h-186l-243 760h234l108 -364l142 364h155l142 -364l108 364h234z" />
    <glyph glyph-name="wcircumflex" unicode="&#x175;" horiz-adv-x="841" 
d="M390 577h-201l119 168h225l119 -168h-201l-30 44zM841 508l-200 -508h-140l-80 187l-81 -187h-140l-200 508h210l69 -216l85 216h113l85 -216l69 216h210z" />
    <glyph glyph-name="Ycircumflex" unicode="&#x176;" horiz-adv-x="816" 
d="M377 819h-201l119 168h225l119 -168h-201l-30 44zM816 760l-297 -529v-231h-232v231l-287 529h241l168 -310l166 310h241z" />
    <glyph glyph-name="ycircumflex" unicode="&#x177;" horiz-adv-x="637" 
d="M277 577h-201l119 168h225l119 -168h-201l-30 44zM587 508v-555q0 -53 -22 -98.5t-63 -77.5t-98 -49.5t-123 -17.5q-91 0 -160.5 34.5t-112.5 109.5l135 107q58 -85 139 -85q41 0 65.5 21.5t24.5 55.5v102q-29 -33 -68 -51.5t-81 -18.5q-84 0 -134.5 55t-50.5 151v317
h215v-271q0 -27 16 -44.5t40 -17.5q28 0 45.5 21t17.5 55v257h215z" />
    <glyph glyph-name="Ydieresis" unicode="&#x178;" horiz-adv-x="816" 
d="M283 795q-48 0 -78.5 30.5t-30.5 76.5q0 20 10.5 45t37.5 43t61 18t61.5 -18.5t38 -43t10.5 -44.5q0 -22 -10.5 -47t-37.5 -42.5t-62 -17.5zM533 795q-48 0 -78.5 30.5t-30.5 76.5q0 20 10.5 45t37.5 43t61 18t61.5 -18.5t38 -43t10.5 -44.5q0 -22 -10.5 -47t-37.5 -42.5
t-62 -17.5zM816 760l-297 -529v-231h-232v231l-287 529h241l168 -310l166 310h241z" />
    <glyph glyph-name="Zacute" unicode="&#x179;" horiz-adv-x="714" 
d="M456 819h-203l80 168h260zM686 185v-185h-656v63l324 511h-314v186h634v-63l-307 -512h319z" />
    <glyph glyph-name="zacute" unicode="&#x17a;" horiz-adv-x="538" 
d="M386 577h-203l80 168h260zM524 438l-200 -273h184v-165h-478v77l193 266h-190v165h491v-70z" />
    <glyph glyph-name="Zdotaccent" unicode="&#x17b;" horiz-adv-x="714" 
d="M357 795q-48 0 -78.5 30.5t-30.5 76.5q0 20 10.5 45t37.5 43.5t61 18.5q22 0 48 -11t44 -38t18 -58q0 -22 -10.5 -47t-37.5 -42.5t-62 -17.5zM686 185v-185h-656v63l324 511h-314v186h634v-63l-307 -512h319z" />
    <glyph glyph-name="zdotaccent" unicode="&#x17c;" horiz-adv-x="538" 
d="M287 553q-48 0 -78.5 30.5t-30.5 76.5q0 20 10.5 45t37.5 43.5t61 18.5q22 0 48 -11t44 -38t18 -58q0 -22 -10.5 -47t-37.5 -42.5t-62 -17.5zM524 438l-200 -273h184v-165h-478v77l193 266h-190v165h491v-70z" />
    <glyph glyph-name="Zcaron" unicode="&#x17d;" horiz-adv-x="714" 
d="M245 819l-119 168h201l31 -44l30 44h201l-119 -168h-225zM686 185v-185h-656v63l324 511h-314v186h634v-63l-307 -512h319z" />
    <glyph glyph-name="zcaron" unicode="&#x17e;" horiz-adv-x="538" 
d="M175 577l-119 168h201l31 -44l30 44h201l-119 -168h-225zM524 438l-200 -273h184v-165h-478v77l193 266h-190v165h491v-70z" />
    <glyph glyph-name="florin" unicode="&#x192;" horiz-adv-x="593" 
d="M485 598q-22 0 -37 -13t-19 -34l-23 -121h98v-167h-129l-43 -232q-17 -90 -77 -143t-148 -53q-35 0 -63 8.5t-64 32.5l57 151q33 -13 47 -13q13 0 23 10t13 26l40 213h-84v167h115l26 140q6 34 23 69.5t47 65.5t75 50t102 20q34 0 72 -9.5t66 -24.5l-63 -158
q-31 15 -54 15z" />
    <glyph glyph-name="AEacute" unicode="&#x1fc;" horiz-adv-x="1166" 
d="M840 819h-203l80 168h260zM1154 186v-186h-576v88h-259l-58 -88h-261l528 760h619v-186h-348v-111h323v-171h-323v-106h355zM578 268v209l-139 -209h139z" />
    <glyph glyph-name="aeacute" unicode="&#x1fd;" horiz-adv-x="885" 
d="M545 577h-203l80 168h260zM870 203h-343q18 -59 75 -59q25 0 41.5 9t27.5 34l184 -38q-19 -73 -89.5 -118.5t-163.5 -45.5q-94 0 -171 51q-74 -51 -194 -51q-109 0 -168 42t-59 121q0 76 57 114.5t167 38.5h102v30q0 18 -12 30t-30 12q-39 0 -46 -42l-200 41
q7 31 25.5 58.5t49.5 48.5t74.5 32.5t96.5 11.5q97 0 159 -38q30 18 70.5 28t78.5 10q59 0 108.5 -18.5t85 -55t55 -91.5t19.5 -124v-31zM527 301h138q-13 60 -66 60q-56 0 -72 -60zM335 199h-49q-26 0 -40.5 -9t-14.5 -26t13 -27t34 -10q23 0 40 13.5t17 37.5v21z" />
    <glyph glyph-name="Scommaaccent" unicode="&#x218;" horiz-adv-x="676" 
d="M346 774q59 0 111 -14t92.5 -41.5t66.5 -69t35 -94.5l-213 -43q-19 86 -95 86q-27 0 -44.5 -13t-17.5 -34q0 -18 10 -30t24 -17l134 -45q107 -36 157 -86.5t50 -137.5q0 -49 -16 -89.5t-43.5 -69.5t-63.5 -48t-83.5 -31t-102.5 -12q-62 0 -119 17t-100.5 48.5t-71 75.5
t-34.5 95l223 46q21 -95 105 -95q31 0 50.5 13t19.5 34q0 36 -42 49l-137 41q-100 30 -147.5 81.5t-47.5 135.5q0 59 22.5 106t63.5 78.5t96 47.5t118 16zM208 -215l47 170h201l-103 -170h-145z" />
    <glyph glyph-name="scommaaccent" unicode="&#x219;" horiz-adv-x="518" 
d="M15 130l202 40q7 -19 21 -29.5t32 -10.5q13 0 20.5 6.5t7.5 14.5q0 16 -28 20l-103 17q-147 24 -147 151q0 33 11.5 65.5t40 59t75 43t110.5 16.5q93 0 155 -36.5t79 -100.5l-188 -37q-3 13 -16.5 26.5t-34.5 13.5q-13 0 -20 -6t-7 -14q0 -16 18 -20l111 -21
q75 -14 112 -58.5t37 -106.5q0 -44 -18.5 -78t-51 -56t-77 -33t-95.5 -11q-56 0 -110 15t-89.5 49.5t-46.5 80.5zM113 -215l47 170h201l-103 -170h-145z" />
    <glyph glyph-name="uni021A" unicode="&#x21a;" horiz-adv-x="699" 
d="M679 574h-219v-574h-221v574h-219v186h659v-186zM252 -45h201l-103 -170h-145z" />
    <glyph glyph-name="uni021B" unicode="&#x21b;" horiz-adv-x="430" 
d="M281 343v-138q0 -17 12.5 -27.5t31.5 -10.5q14 0 30 3.5t24 8.5l36 -157q-69 -37 -151 -37q-43 0 -75.5 12t-58 32t-45 58t-19.5 91v165h-71v165h71v152l215 60v-212h149v-165h-149zM160 -43h201l-103 -170h-145z" />
    <glyph glyph-name="circumflex" unicode="&#x2c6;" horiz-adv-x="600" 
d="M331 567l-30 44l-31 -44h-201l119 168h225l119 -168h-201z" />
    <glyph glyph-name="caron" unicode="&#x2c7;" horiz-adv-x="600" 
d="M532 735l-119 -168h-225l-119 168h201l31 -44l30 44h201z" />
    <glyph glyph-name="breve" unicode="&#x2d8;" horiz-adv-x="600" 
d="M300 552q-88 0 -143.5 49t-55.5 127h159q0 -13 10.5 -24t29.5 -11t30 11t11 24h158q0 -78 -55.5 -127t-143.5 -49z" />
    <glyph glyph-name="dotaccent" unicode="&#x2d9;" horiz-adv-x="600" 
d="M300 757q22 0 48 -11t44 -38t18 -58q0 -22 -10.5 -47t-37.5 -42.5t-62 -17.5q-48 0 -78.5 30.5t-30.5 76.5q0 20 10.5 45t37.5 43.5t61 18.5z" />
    <glyph glyph-name="ring" unicode="&#x2da;" horiz-adv-x="600" 
d="M441 678q0 -56 -41.5 -96t-99.5 -40t-99.5 40t-41.5 96q0 57 41.5 97t99.5 40t99.5 -40t41.5 -97zM340 678q0 16 -12 27.5t-28 11.5t-28 -11.5t-12 -27.5q0 -15 12 -26.5t28 -11.5t28 11.5t12 26.5z" />
    <glyph glyph-name="ogonek" unicode="&#x2db;" horiz-adv-x="600" 
d="M204 10l120 -10q-32 -32 -42 -44t-10 -23q0 -10 7 -16.5t21 -6.5q21 0 53 9l7 -113q-22 -11 -53 -18t-56 -7q-39 0 -68.5 16t-40.5 39.5t-11 44.5q0 33 20.5 69t52.5 60z" />
    <glyph glyph-name="tilde" unicode="&#x2dc;" horiz-adv-x="600" 
d="M222 567h-115q0 87 36.5 141t94.5 54q33 0 64.5 -15.5t40.5 -17.5t14 -2q8 0 17.5 3t19.5 27h115q0 -87 -37 -141t-95 -54q-32 0 -62.5 14t-40.5 16t-15 2q-15 0 -22.5 -5.5t-14.5 -21.5z" />
    <glyph glyph-name="hungarumlaut" unicode="&#x2dd;" horiz-adv-x="600" 
d="M195 567h-173l90 168h214zM425 567h-173l90 168h224z" />
    <glyph glyph-name="uni0326" unicode="&#x326;" horiz-adv-x="0" 
d="M155 -215l47 170h201l-103 -170h-145z" />
    <glyph glyph-name="Wgrave" unicode="&#x1e80;" horiz-adv-x="1123" 
d="M470 819l-137 168h260l80 -168h-203zM1123 760l-243 -760h-186l-132 372l-133 -372h-186l-243 760h234l108 -364l142 364h155l142 -364l108 364h234z" />
    <glyph glyph-name="wgrave" unicode="&#x1e81;" horiz-adv-x="841" 
d="M329 577l-137 168h260l80 -168h-203zM841 508l-200 -508h-140l-80 187l-81 -187h-140l-200 508h210l69 -216l85 216h113l85 -216l69 216h210z" />
    <glyph glyph-name="Wacute" unicode="&#x1e82;" horiz-adv-x="1123" 
d="M660 819h-203l80 168h260zM1123 760l-243 -760h-186l-132 372l-133 -372h-186l-243 760h234l108 -364l142 364h155l142 -364l108 364h234z" />
    <glyph glyph-name="wacute" unicode="&#x1e83;" horiz-adv-x="841" 
d="M519 577h-203l80 168h260zM841 508l-200 -508h-140l-80 187l-81 -187h-140l-200 508h210l69 -216l85 216h113l85 -216l69 216h210z" />
    <glyph glyph-name="Wdieresis" unicode="&#x1e84;" horiz-adv-x="1123" 
d="M437 795q-48 0 -78.5 30.5t-30.5 76.5q0 20 10.5 45t37.5 43t61 18t61.5 -18.5t38 -43t10.5 -44.5q0 -22 -10.5 -47t-37.5 -42.5t-62 -17.5zM687 795q-48 0 -78.5 30.5t-30.5 76.5q0 20 10.5 45t37.5 43t61 18t61.5 -18.5t38 -43t10.5 -44.5q0 -22 -10.5 -47t-37.5 -42.5
t-62 -17.5zM1123 760l-243 -760h-186l-132 372l-133 -372h-186l-243 760h234l108 -364l142 364h155l142 -364l108 364h234z" />
    <glyph glyph-name="wdieresis" unicode="&#x1e85;" horiz-adv-x="841" 
d="M296 553q-48 0 -78.5 30.5t-30.5 76.5q0 20 10.5 45t37.5 43t61 18t61.5 -18.5t38 -43t10.5 -44.5q0 -22 -10.5 -47t-37.5 -42.5t-62 -17.5zM546 553q-48 0 -78.5 30.5t-30.5 76.5q0 20 10.5 45t37.5 43t61 18t61.5 -18.5t38 -43t10.5 -44.5q0 -22 -10.5 -47t-37.5 -42.5
t-62 -17.5zM841 508l-200 -508h-140l-80 187l-81 -187h-140l-200 508h210l69 -216l85 216h113l85 -216l69 216h210z" />
    <glyph glyph-name="Ygrave" unicode="&#x1ef2;" horiz-adv-x="816" 
d="M316 819l-137 168h260l80 -168h-203zM816 760l-297 -529v-231h-232v231l-287 529h241l168 -310l166 310h241z" />
    <glyph glyph-name="ygrave" unicode="&#x1ef3;" horiz-adv-x="637" 
d="M216 577l-137 168h260l80 -168h-203zM587 508v-555q0 -53 -22 -98.5t-63 -77.5t-98 -49.5t-123 -17.5q-91 0 -160.5 34.5t-112.5 109.5l135 107q58 -85 139 -85q41 0 65.5 21.5t24.5 55.5v102q-29 -33 -68 -51.5t-81 -18.5q-84 0 -134.5 55t-50.5 151v317h215v-271
q0 -27 16 -44.5t40 -17.5q28 0 45.5 21t17.5 55v257h215z" />
    <glyph glyph-name="endash" unicode="&#x2013;" horiz-adv-x="620" 
d="M560 193h-500v170h500v-170z" />
    <glyph glyph-name="emdash" unicode="&#x2014;" horiz-adv-x="1250" 
d="M1190 193h-1130v170h1130v-170z" />
    <glyph glyph-name="quoteleft" unicode="&#x2018;" horiz-adv-x="334" 
d="M144 760h165l-57 -328h-227v5z" />
    <glyph glyph-name="quoteright" unicode="&#x2019;" horiz-adv-x="334" 
d="M190 432h-165l57 328h227v-5z" />
    <glyph glyph-name="quotesinglbase" unicode="&#x201a;" horiz-adv-x="334" 
d="M190 -132h-165l57 328h227v-5z" />
    <glyph glyph-name="quotedblleft" unicode="&#x201c;" horiz-adv-x="594" 
d="M144 760h165l-57 -328h-227v5zM404 760h165l-57 -328h-227v5z" />
    <glyph glyph-name="quotedblright" unicode="&#x201d;" horiz-adv-x="594" 
d="M190 432h-165l57 328h227v-5zM450 432h-165l57 328h227v-5z" />
    <glyph glyph-name="quotedblbase" unicode="&#x201e;" horiz-adv-x="594" 
d="M190 -132h-165l57 328h227v-5zM450 -132h-165l57 328h227v-5z" />
    <glyph glyph-name="dagger" unicode="&#x2020;" horiz-adv-x="390" 
d="M365 670v-111h-110v-250h-120v250h-110v111h110v90h120v-90h110z" />
    <glyph glyph-name="daggerdbl" unicode="&#x2021;" horiz-adv-x="390" 
d="M255 559v-49h110v-111h-110v-90h-120v90h-110v111h110v49h-110v111h110v90h120v-90h110v-111h-110z" />
    <glyph glyph-name="bullet" unicode="&#x2022;" horiz-adv-x="399" 
d="M199 451q29 0 60.5 -10t59 -34t46.5 -60.5t19 -81.5q0 -28 -9 -59t-31.5 -58.5t-59 -47t-85.5 -19.5q-80 0 -132 53t-52 131q0 27 9 57.5t34 62.5t63.5 49t77.5 17z" />
    <glyph glyph-name="ellipsis" unicode="&#x2026;" horiz-adv-x="843" 
d="M131 227q23 0 50.5 -12t47 -41.5t19.5 -63.5q0 -50 -33 -83t-84 -33q-50 0 -83 33t-33 83q0 22 11 49t40 47.5t65 20.5zM421 227q23 0 50.5 -12t47 -41.5t19.5 -63.5q0 -50 -33 -83t-84 -33q-50 0 -83 33t-33 83q0 22 11 49t40 47.5t65 20.5zM711 227q23 0 50.5 -12
t47 -41.5t19.5 -63.5q0 -50 -33 -83t-84 -33q-50 0 -83 33t-33 83q0 22 11 49t40 47.5t65 20.5z" />
    <glyph glyph-name="perthousand" unicode="&#x2030;" horiz-adv-x="1348" 
d="M226 775q27 0 58 -8.5t63 -32.5t49 -61.5t17 -76.5q0 -29 -10 -60t-34 -57t-60.5 -43.5t-82.5 -17.5q-47 0 -92.5 22t-71 64.5t-25.5 91.5t25.5 92t71 65t92.5 22zM178 0l471 760h107l-471 -760h-107zM225 659q-24 0 -43.5 -17.5t-19.5 -44.5t19.5 -45t43.5 -18
t43.5 17.5t19.5 45.5q0 27 -19.5 44.5t-43.5 17.5zM704 342q27 0 58 -8.5t63 -32.5t49 -61.5t17 -76.5q0 -29 -10 -60t-34 -57t-60.5 -43.5t-82.5 -17.5q-47 0 -92.5 22t-71 64.5t-25.5 91.5t25.5 92t71 65t92.5 22zM1124 342q27 0 58 -8.5t63 -32.5t49 -61.5t17 -76.5
q0 -29 -10 -60t-34 -57t-60.5 -43.5t-82.5 -17.5q-47 0 -92.5 22t-71 64.5t-25.5 91.5t25.5 92t71 65t92.5 22zM703 226q-24 0 -43.5 -17.5t-19.5 -44.5t19.5 -45t43.5 -18t43.5 17.5t19.5 45.5q0 27 -19.5 44.5t-43.5 17.5zM1123 226q-24 0 -43.5 -17.5t-19.5 -44.5
t19.5 -45t43.5 -18t43.5 17.5t19.5 45.5q0 27 -19.5 44.5t-43.5 17.5z" />
    <glyph glyph-name="guilsinglleft" unicode="&#x2039;" horiz-adv-x="332" 
d="M25 262l92 178h190l-92 -178l92 -178h-190z" />
    <glyph glyph-name="guilsinglright" unicode="&#x203a;" horiz-adv-x="332" 
d="M25 84l92 178l-92 178h190l92 -178l-92 -178h-190z" />
    <glyph glyph-name="fraction" unicode="&#x2044;" horiz-adv-x="258" 
d="M-160 0l471 760h107l-471 -760h-107z" />
    <glyph glyph-name="uni2070" unicode="&#x2070;" horiz-adv-x="484" 
d="M244 870q44 0 84.5 -14.5t71 -41.5t48 -65.5t17.5 -82.5t-17.5 -82t-48 -65.5t-71 -42t-84.5 -14.5q-45 0 -86 14.5t-72 42t-48.5 65.5t-17.5 82t17.5 82.5t48.5 65.5t72 41.5t86 14.5zM244 581q36 0 60.5 24t24.5 61t-24.5 61t-60.5 24q-37 0 -62.5 -24t-25.5 -61
t25.5 -61t62.5 -24z" />
    <glyph glyph-name="uni2074" unicode="&#x2074;" horiz-adv-x="393" 
d="M384 523h-45v-53h-126v53h-198v74l236 263h88v-235h45v-102zM213 625v71l-60 -71h60z" />
    <glyph glyph-name="uni2075" unicode="&#x2075;" horiz-adv-x="352" 
d="M160 727h34q27 0 53 -6t49 -23t32.5 -44t9.5 -52q0 -64 -42.5 -102.5t-113.5 -38.5q-52 0 -90.5 21t-55 52.5t-19.5 58.5l125 20q3 -21 13.5 -31t24.5 -10q13 0 21.5 8.5t8.5 20.5t-9 20t-22 8h-151l30 231h260v-115h-155z" />
    <glyph glyph-name="uni2076" unicode="&#x2076;" horiz-adv-x="362" 
d="M305 860l-81 -115q52 -12 85 -50t33 -92q0 -39 -19.5 -71t-56.5 -53t-87 -21q-65 0 -112 41t-47 104q0 43 23 79l129 178h133zM179 563q20 0 33 11.5t13 28.5t-13 29.5t-33 12.5q-18 0 -30 -12.5t-12 -29.5q0 -16 12 -28t30 -12z" />
    <glyph glyph-name="uni2077" unicode="&#x2077;" horiz-adv-x="320" 
d="M313 860v-32l-148 -358h-134l121 275h-144v115h305z" />
    <glyph glyph-name="uni2078" unicode="&#x2078;" horiz-adv-x="375" 
d="M295 675q61 -28 61 -94q0 -51 -47 -85t-122 -34q-74 0 -120.5 34t-46.5 85q0 33 16 57t45 37q-46 26 -46 81q0 47 44.5 80.5t108.5 33.5t108.5 -33.5t44.5 -80.5q0 -56 -46 -81zM188 773q-13 0 -23 -8t-10 -22t10.5 -22.5t22.5 -8.5t23 8.5t11 22.5t-10.5 22t-23.5 8z
M189 564q12 0 22.5 8.5t10.5 22.5q0 15 -11 23t-23 8q-13 0 -23.5 -8t-10.5 -23q0 -14 10.5 -22.5t24.5 -8.5z" />
    <glyph glyph-name="uni2079" unicode="&#x2079;" horiz-adv-x="362" 
d="M342 725q0 -43 -23 -79l-129 -178h-133l81 115q-52 12 -85 50t-33 92q0 39 19.5 71t56.5 53t87 21q65 0 112 -41t47 -104zM183 765q-20 0 -33 -11.5t-13 -28.5t13 -29.5t33 -12.5q18 0 30 12.5t12 29.5q0 16 -12 28t-30 12z" />
    <glyph glyph-name="uni2080" unicode="&#x2080;" horiz-adv-x="484" 
d="M244 270q44 0 84.5 -14.5t71 -41.5t48 -65.5t17.5 -82.5t-17.5 -82t-48 -65.5t-71 -42t-84.5 -14.5q-45 0 -86 14.5t-72 42t-48.5 65.5t-17.5 82t17.5 82.5t48.5 65.5t72 41.5t86 14.5zM244 -19q36 0 60.5 24t24.5 61t-24.5 61t-60.5 24q-37 0 -62.5 -24t-25.5 -61
t25.5 -61t62.5 -24z" />
    <glyph glyph-name="uni2081" unicode="&#x2081;" horiz-adv-x="254" 
d="M219 -130h-135v214l-79 -26v134l184 68h30v-390z" />
    <glyph glyph-name="uni2082" unicode="&#x2082;" horiz-adv-x="368" 
d="M264 -17h74v-112h-306v20l126 158q50 64 50 84q0 10 -6.5 16.5t-16.5 6.5q-12 0 -20.5 -10t-8.5 -33l-127 23q0 59 43 96.5t113 37.5q69 0 112 -36.5t43 -100.5q0 -19 -6 -36.5t-14.5 -33t-54.5 -78.5z" />
    <glyph glyph-name="uni2083" unicode="&#x2083;" horiz-adv-x="358" 
d="M344 230l-76 -113q39 -13 59.5 -43.5t20.5 -72.5q0 -63 -44 -101.5t-117 -38.5q-71 0 -117.5 37t-52.5 95l125 20q2 -10 7.5 -20t15 -15.5t20.5 -5.5q17 0 26 9t9 20q0 12 -9 20t-27 8h-91l-4 12l65 104h-119l3 115h306v-30z" />
    <glyph glyph-name="uni2084" unicode="&#x2084;" horiz-adv-x="393" 
d="M384 -77h-45v-53h-126v53h-198v74l236 263h88v-235h45v-102zM213 25v71l-60 -71h60z" />
    <glyph glyph-name="uni2085" unicode="&#x2085;" horiz-adv-x="352" 
d="M160 127h34q27 0 53 -6t49 -23t32.5 -44t9.5 -52q0 -64 -42.5 -102.5t-113.5 -38.5q-52 0 -90.5 21t-55 52.5t-19.5 58.5l125 20q3 -21 13.5 -31t24.5 -10q13 0 21.5 8.5t8.5 20.5t-9 20t-22 8h-151l30 231h260v-115h-155z" />
    <glyph glyph-name="uni2086" unicode="&#x2086;" horiz-adv-x="362" 
d="M305 260l-81 -115q52 -12 85 -50t33 -92q0 -39 -19.5 -71t-56.5 -53t-87 -21q-65 0 -112 41t-47 104q0 43 23 79l129 178h133zM179 -37q20 0 33 11.5t13 28.5t-13 29.5t-33 12.5q-18 0 -30 -12.5t-12 -29.5q0 -16 12 -28t30 -12z" />
    <glyph glyph-name="uni2087" unicode="&#x2087;" horiz-adv-x="320" 
d="M313 260v-32l-148 -358h-134l121 275h-144v115h305z" />
    <glyph glyph-name="uni2088" unicode="&#x2088;" horiz-adv-x="375" 
d="M295 75q61 -28 61 -94q0 -51 -47 -85t-122 -34q-74 0 -120.5 34t-46.5 85q0 33 16 57t45 37q-46 26 -46 81q0 47 44.5 80.5t108.5 33.5t108.5 -33.5t44.5 -80.5q0 -56 -46 -81zM188 173q-13 0 -23 -8t-10 -22t10.5 -22.5t22.5 -8.5t23 8.5t11 22.5t-10.5 22t-23.5 8z
M189 -36q12 0 22.5 8.5t10.5 22.5q0 15 -11 23t-23 8q-13 0 -23.5 -8t-10.5 -23q0 -14 10.5 -22.5t24.5 -8.5z" />
    <glyph glyph-name="uni2089" unicode="&#x2089;" horiz-adv-x="362" 
d="M342 125q0 -43 -23 -79l-129 -178h-133l81 115q-52 12 -85 50t-33 92q0 39 19.5 71t56.5 53t87 21q65 0 112 -41t47 -104zM183 165q-20 0 -33 -11.5t-13 -28.5t13 -29.5t33 -12.5q18 0 30 12.5t12 29.5q0 16 -12 28t-30 12z" />
    <glyph glyph-name="Euro" unicode="&#x20ac;" horiz-adv-x="918" 
d="M504 180q68 0 116.5 43.5t61.5 111.5l211 -64q-13 -45 -41 -94t-82.5 -97t-126 -72t-139.5 -24q-50 0 -106.5 13.5t-117 51t-102.5 95t-60 116.5h-93v96h76l-1 23l1 21h-76v96h92q18 59 55 110.5t88 89t114 58t130 20.5q33 0 75.5 -7t88 -26t90 -53t81.5 -87t54 -114
l-211 -64q-13 68 -61.5 111.5t-116.5 43.5q-47 0 -86.5 -22t-63.5 -60h247l-24 -96h-254l-1 -21l1 -23h242l-24 -96h-185q24 -37 63 -58.5t85 -21.5z" />
    <glyph glyph-name="afii61352" unicode="&#x2116;" horiz-adv-x="1470" 
d="M1121 770q61 0 115.5 -20.5t96 -58t64.5 -90t23 -113.5q0 -29 -7.5 -65.5t-28.5 -72.5t-51.5 -64t-69 -46.5t-76 -25t-66.5 -6.5q-60 0 -121.5 23t-103.5 69.5t-57.5 94.5t-15.5 93q0 61 23 113.5t64 90t96 58t115 20.5zM567 760h221v-760h-122l-395 365v-365h-221v760
h122l395 -377v377zM1121 383q46 0 77 31t31 74q0 45 -31 76t-77 31t-76 -31t-30 -76q0 -20 10 -44.5t36 -42.5t60 -18z" />
    <glyph glyph-name="uni2117" unicode="&#x2117;" horiz-adv-x="835" 
d="M418 774q77 0 148.5 -29.5t125.5 -83t84.5 -127.5t30.5 -157t-30.5 -156.5t-84.5 -126t-125 -81.5t-149 -29t-149.5 29t-125.5 82t-84.5 126t-30.5 156t30.5 156.5t84.5 127.5t125.5 83.5t149.5 29.5zM418 43q65 0 124.5 25t104.5 70t70.5 107.5t25.5 132.5
q0 71 -25.5 133.5t-70.5 108.5t-104.5 71t-124.5 25t-125 -25t-105 -71t-70.5 -108.5t-25.5 -133.5q0 -70 25.5 -132.5t70.5 -107.5t105 -70t125 -25zM268 574h195q77 0 118.5 -35.5t41.5 -95.5q0 -66 -46.5 -102t-124.5 -36h-60v-133h-124v402zM392 400h65q23 0 34.5 10.5
t11.5 28.5q0 17 -11.5 27t-34.5 10h-65v-76z" />
    <glyph glyph-name="trademark" unicode="&#x2122;" horiz-adv-x="732" 
d="M314 667h-84v-195h-110v195h-84v93h278v-93zM686 472h-106v122l-46 -69h-43l-46 69v-122h-106v288h94l79 -117l79 117h95v-288z" />
    <glyph glyph-name="oneeighth" unicode="&#x215b;" horiz-adv-x="794" 
d="M84 584l-79 -26v134l184 68h30v-390h-135v214zM649 760l-471 -760h-107l471 760h107zM714 208q61 -28 61 -94q0 -51 -47 -85t-122 -34q-74 0 -120.5 34t-46.5 85q0 33 16 57t45 37q-46 26 -46 81q0 47 44.5 80.5t108.5 33.5t108.5 -33.5t44.5 -80.5q0 -56 -46 -81z
M607 306q-13 0 -23 -8t-10 -22t10.5 -22.5t22.5 -8.5t23 8.5t11 22.5t-10.5 22t-23.5 8zM608 97q12 0 22.5 8.5t10.5 22.5q0 15 -11 23t-23 8q-13 0 -23.5 -8t-10.5 -23q0 -14 10.5 -22.5t24.5 -8.5z" />
    <glyph glyph-name="threeeighths" unicode="&#x215c;" horiz-adv-x="845" 
d="M348 501q0 -63 -44 -101.5t-117 -38.5q-71 0 -117.5 37t-52.5 95l125 20q2 -10 7.5 -20t15 -15.5t20.5 -5.5q17 0 26 9t9 20q0 12 -9 20t-27 8h-91l-4 12l65 104h-119l3 115h306v-30l-76 -113q39 -13 59.5 -43.5t20.5 -72.5zM710 760l-471 -760h-107l471 760h107z
M765 208q61 -28 61 -94q0 -51 -47 -85t-122 -34q-74 0 -120.5 34t-46.5 85q0 33 16 57t45 37q-46 26 -46 81q0 47 44.5 80.5t108.5 33.5t108.5 -33.5t44.5 -80.5q0 -56 -46 -81zM658 306q-13 0 -23 -8t-10 -22t10.5 -22.5t22.5 -8.5t23 8.5t11 22.5t-10.5 22t-23.5 8z
M659 97q12 0 22.5 8.5t10.5 22.5q0 15 -11 23t-23 8q-13 0 -23.5 -8t-10.5 -23q0 -14 10.5 -22.5t24.5 -8.5z" />
    <glyph glyph-name="fiveeighths" unicode="&#x215d;" horiz-adv-x="846" 
d="M338 502q0 -64 -42.5 -102.5t-113.5 -38.5q-52 0 -90.5 21t-55 52.5t-19.5 58.5l125 20q3 -21 13.5 -31t24.5 -10q13 0 21.5 8.5t8.5 20.5t-9 20t-22 8h-151l30 231h260v-115h-155l-3 -18h34q27 0 53 -6t49 -23t32.5 -44t9.5 -52zM711 760l-471 -760h-107l471 760h107z
M766 208q61 -28 61 -94q0 -51 -47 -85t-122 -34q-74 0 -120.5 34t-46.5 85q0 33 16 57t45 37q-46 26 -46 81q0 47 44.5 80.5t108.5 33.5t108.5 -33.5t44.5 -80.5q0 -56 -46 -81zM659 306q-13 0 -23 -8t-10 -22t10.5 -22.5t22.5 -8.5t23 8.5t11 22.5t-10.5 22t-23.5 8z
M660 97q12 0 22.5 8.5t10.5 22.5q0 15 -11 23t-23 8q-13 0 -23.5 -8t-10.5 -23q0 -14 10.5 -22.5t24.5 -8.5z" />
    <glyph glyph-name="seveneighths" unicode="&#x215e;" horiz-adv-x="754" 
d="M152 645h-144v115h305v-32l-148 -358h-134zM609 760l-471 -760h-107l471 760h107zM674 208q61 -28 61 -94q0 -51 -47 -85t-122 -34q-74 0 -120.5 34t-46.5 85q0 33 16 57t45 37q-46 26 -46 81q0 47 44.5 80.5t108.5 33.5t108.5 -33.5t44.5 -80.5q0 -56 -46 -81zM567 306
q-13 0 -23 -8t-10 -22t10.5 -22.5t22.5 -8.5t23 8.5t11 22.5t-10.5 22t-23.5 8zM568 97q12 0 22.5 8.5t10.5 22.5q0 15 -11 23t-23 8q-13 0 -23.5 -8t-10.5 -23q0 -14 10.5 -22.5t24.5 -8.5z" />
    <glyph glyph-name="arrowleft" unicode="&#x2190;" horiz-adv-x="837" 
d="M797 299h-441l128 -129l-120 -120l-334 334l334 334l120 -120l-128 -129h441v-170z" />
    <glyph glyph-name="arrowup" unicode="&#x2191;" horiz-adv-x="748" 
d="M588 313l-129 128v-441h-170v441l-129 -128l-120 120l334 334l334 -334z" />
    <glyph glyph-name="arrowright" unicode="&#x2192;" horiz-adv-x="837" 
d="M807 384l-334 -334l-120 120l128 129h-441v170h441l-128 129l120 120z" />
    <glyph glyph-name="arrowdown" unicode="&#x2193;" horiz-adv-x="748" 
d="M708 327l-334 -334l-334 334l120 120l129 -128v441h170v-441l129 128z" />
    <glyph glyph-name="uni2196" unicode="&#x2196;" horiz-adv-x="834" 
d="M674 -6l-474 476v-203h-170v493h492v-170l-202 -1l474 -475z" />
    <glyph glyph-name="uni2197" unicode="&#x2197;" horiz-adv-x="834" 
d="M804 760v-493h-170v203l-474 -476l-120 120l474 475l-202 1v170h492z" />
    <glyph glyph-name="uni2198" unicode="&#x2198;" horiz-adv-x="834" 
d="M804 493v-493h-492v170l202 1l-474 475l120 120l474 -476v203h170z" />
    <glyph glyph-name="uni2199" unicode="&#x2199;" horiz-adv-x="834" 
d="M320 171l202 -1v-170h-492v493h170v-203l474 476l120 -120z" />
    <glyph glyph-name="minus" unicode="&#x2212;" horiz-adv-x="560" 
d="M530 220h-500v160h500v-160z" />
    <glyph glyph-name="approxequal" unicode="&#x2248;" horiz-adv-x="556" 
d="M526 468v-145q-21 -10 -52.5 -17t-60.5 -7q-57 0 -121.5 24t-90.5 27.5t-44 3.5q-29 0 -67 -8t-60 -21v140q22 16 59 25t68 9q18 0 45 -3.5t79 -22.5t79.5 -24t54.5 -5q26 0 58.5 7t52.5 17zM526 288v-145q-21 -10 -52.5 -17t-60.5 -7q-57 0 -121.5 24t-90.5 27.5
t-44 3.5q-29 0 -67 -8t-60 -21v140q22 16 59 25t68 9q18 0 45 -3.5t79 -22.5t79.5 -24t54.5 -5q26 0 58.5 7t52.5 17z" />
    <glyph glyph-name="notequal" unicode="&#x2260;" horiz-adv-x="560" 
d="M366 328l-26 -48h190v-150h-271l-51 -95h-136l51 95h-93v150h174l26 48h-200v150h281l42 77h136l-42 -77h83v-150h-164z" />
    <glyph glyph-name="lessequal" unicode="&#x2264;" horiz-adv-x="514" 
d="M474 226l-443 99v194l443 100v-160l-261 -37l261 -39v-157zM474 205v-160h-444v160h444z" />
    <glyph glyph-name="greaterequal" unicode="&#x2265;" horiz-adv-x="514" 
d="M301 422l-261 37v160l443 -100v-194l-443 -99v157zM484 45h-444v160h444v-160z" />
    <glyph glyph-name="K.aalt" horiz-adv-x="808" 
d="M539 0l-268 318v-318h-221v760h221v-325l256 325h271l-304 -380l324 -380h-279z" />
    <glyph glyph-name="Kcommaaccent.aalt" horiz-adv-x="808" 
d="M818 0h-279l-268 318v-318h-221v760h221v-325l256 325h271l-304 -380zM304 -45h201l-103 -170h-145z" />
    <glyph glyph-name="Q.aalt" horiz-adv-x="878" 
d="M649 -214l-136 205q-36 -6 -74 -6q-83 0 -159 30t-133 84t-89.5 127t-32.5 153t32.5 153t89.5 127t133 84.5t159 30.5t159 -30.5t133 -84.5t89.5 -127t32.5 -153q0 -41 -12.5 -94.5t-46 -107.5t-80.5 -93l207 -298h-272zM247 379q0 -30 10 -63.5t37 -67.5t66.5 -51
t78.5 -17q29 0 61 10t61 34.5t49.5 64t20.5 90.5q0 30 -10 63.5t-37 67.5t-66.5 51t-78.5 17q-29 0 -61 -10t-61 -34.5t-49.5 -64t-20.5 -90.5z" />
    <glyph glyph-name="I.aalt" horiz-adv-x="321" 
d="M271 0h-221v760h221v-760z" />
    <glyph glyph-name="IJ.aalt" horiz-adv-x="1015" 
d="M50 760h221v-760h-221v760zM973 760v-477q0 -66 -23 -121.5t-65.5 -95t-102.5 -61t-130 -21.5q-134 0 -218.5 71.5t-100.5 194.5l221 43q10 -113 98 -113q44 0 71.5 28t27.5 75v477h222z" />
    <glyph glyph-name="Iacute.aalt" horiz-adv-x="321" 
d="M259 819h-203l80 168h260zM271 0h-221v760h221v-760z" />
    <glyph glyph-name="Icircumflex.aalt" horiz-adv-x="321" 
d="M130 819h-201l119 168h225l119 -168h-201l-30 44zM50 760h221v-760h-221v760z" />
    <glyph glyph-name="Idieresis.aalt" horiz-adv-x="321" 
d="M36 1008q34 0 61.5 -18.5t38 -43t10.5 -44.5q0 -22 -10.5 -47t-37.5 -42.5t-62 -17.5q-48 0 -78.5 30.5t-30.5 76.5q0 20 10.5 45t37.5 43t61 18zM286 1008q34 0 61.5 -18.5t38 -43t10.5 -44.5q0 -22 -10.5 -47t-37.5 -42.5t-62 -17.5q-48 0 -78.5 30.5t-30.5 76.5
q0 20 10.5 45t37.5 43t61 18zM271 0h-221v760h221v-760z" />
    <glyph glyph-name="Idotaccent.aalt" horiz-adv-x="321" 
d="M160 1009q22 0 48 -11t44 -38t18 -58q0 -22 -10.5 -47t-37.5 -42.5t-62 -17.5q-48 0 -78.5 30.5t-30.5 76.5q0 20 10.5 45t37.5 43.5t61 18.5zM271 0h-221v760h221v-760z" />
    <glyph glyph-name="Igrave.aalt" horiz-adv-x="321" 
d="M192 987l80 -168h-203l-137 168h260zM271 0h-221v760h221v-760z" />
    <glyph glyph-name="Imacron.aalt" horiz-adv-x="321" 
d="M340 819h-358v156h358v-156zM271 0h-221v760h221v-760z" />
    <glyph glyph-name="Iogonek.aalt" horiz-adv-x="321" 
d="M300 -81l7 -113q-22 -11 -53 -18t-56 -7q-39 0 -68.5 16t-40.5 39.5t-11 44.5q0 30 16.5 62.5t43.5 56.5h-88v760h221v-760q-32 -32 -42 -44t-10 -23q0 -10 7 -16.5t21 -6.5q21 0 53 9z" />
    <glyph glyph-name="J.aalt" horiz-adv-x="694" 
d="M652 760v-477q0 -66 -23 -121.5t-65.5 -95t-102.5 -61t-130 -21.5q-134 0 -218.5 71.5t-100.5 194.5l221 43q10 -113 98 -113q44 0 71.5 28t27.5 75v477h222z" />
    <glyph glyph-name="P.aalt" horiz-adv-x="693" 
d="M50 760h356q60 0 111 -18t87 -50.5t55 -77.5t19 -97t-19 -97.5t-55 -78t-87 -50.5t-111 -18h-135v-273h-221v760zM271 451h110q39 0 60 19t21 47q0 20 -11.5 36t-31 22.5t-38.5 6.5h-110v-131z" />
    <glyph glyph-name="R.aalt" horiz-adv-x="793" 
d="M823 0h-266l-222 273h-64v-273h-221v760h356q60 0 111 -18t87 -50.5t55 -77.5t19 -97q0 -32 -10 -71.5t-38.5 -76.5t-69.5 -60zM271 451h110q39 0 60 19t21 47q0 20 -11.5 36t-31 22.5t-38.5 6.5h-110v-131z" />
    <glyph glyph-name="Racute.aalt" horiz-adv-x="793" 
d="M435 819h-203l80 168h260zM823 0h-266l-222 273h-64v-273h-221v760h356q60 0 111 -18t87 -50.5t55 -77.5t19 -97q0 -32 -10 -71.5t-38.5 -76.5t-69.5 -60zM271 451h110q39 0 60 19t21 47q0 20 -11.5 36t-31 22.5t-38.5 6.5h-110v-131z" />
    <glyph glyph-name="Rcaron.aalt" horiz-adv-x="793" 
d="M224 819l-119 168h201l31 -44l30 44h201l-119 -168h-225zM823 0h-266l-222 273h-64v-273h-221v760h356q60 0 111 -18t87 -50.5t55 -77.5t19 -97q0 -32 -10 -71.5t-38.5 -76.5t-69.5 -60zM271 451h110q39 0 60 19t21 47q0 20 -11.5 36t-31 22.5t-38.5 6.5h-110v-131z" />
    <glyph glyph-name="Rcommaaccent.aalt" horiz-adv-x="793" 
d="M823 0h-266l-222 273h-64v-273h-221v760h356q60 0 111 -18t87 -50.5t55 -77.5t19 -97q0 -32 -10 -71.5t-38.5 -76.5t-69.5 -60zM271 451h110q39 0 60 19t21 47q0 20 -11.5 36t-31 22.5t-38.5 6.5h-110v-131zM310 -45h201l-103 -170h-145z" />
    <glyph glyph-name="E.aalt" horiz-adv-x="653" 
d="M626 186v-186h-576v760h569v-186h-348v-111h323v-171h-323v-106h355z" />
    <glyph glyph-name="Eacute.aalt" horiz-adv-x="653" 
d="M432 819h-203l80 168h260zM626 186v-186h-576v760h569v-186h-348v-111h323v-171h-323v-106h355z" />
    <glyph glyph-name="Ecaron.aalt" horiz-adv-x="653" 
d="M221 819l-119 168h201l31 -44l30 44h201l-119 -168h-225zM626 186v-186h-576v760h569v-186h-348v-111h323v-171h-323v-106h355z" />
    <glyph glyph-name="Ecircumflex.aalt" horiz-adv-x="653" 
d="M303 819h-201l119 168h225l119 -168h-201l-30 44zM626 186v-186h-576v760h569v-186h-348v-111h323v-171h-323v-106h355z" />
    <glyph glyph-name="Edieresis.aalt" horiz-adv-x="653" 
d="M209 795q-48 0 -78.5 30.5t-30.5 76.5q0 20 10.5 45t37.5 43t61 18t61.5 -18.5t38 -43t10.5 -44.5q0 -22 -10.5 -47t-37.5 -42.5t-62 -17.5zM459 795q-48 0 -78.5 30.5t-30.5 76.5q0 20 10.5 45t37.5 43t61 18t61.5 -18.5t38 -43t10.5 -44.5q0 -22 -10.5 -47t-37.5 -42.5
t-62 -17.5zM626 186v-186h-576v760h569v-186h-348v-111h323v-171h-323v-106h355z" />
    <glyph glyph-name="Edotaccent.aalt" horiz-adv-x="653" 
d="M333 795q-48 0 -78.5 30.5t-30.5 76.5q0 20 10.5 45t37.5 43.5t61 18.5q22 0 48 -11t44 -38t18 -58q0 -22 -10.5 -47t-37.5 -42.5t-62 -17.5zM626 186v-186h-576v760h569v-186h-348v-111h323v-171h-323v-106h355z" />
    <glyph glyph-name="Egrave.aalt" horiz-adv-x="653" 
d="M242 819l-137 168h260l80 -168h-203zM626 186v-186h-576v760h569v-186h-348v-111h323v-171h-323v-106h355z" />
    <glyph glyph-name="Emacron.aalt" horiz-adv-x="653" 
d="M513 819h-358v156h358v-156zM626 186v-186h-576v760h569v-186h-348v-111h323v-171h-323v-106h355z" />
    <glyph glyph-name="Eogonek.aalt" horiz-adv-x="653" 
d="M626 0h-44q-32 -32 -42 -44t-10 -23q0 -10 7 -16.5t21 -6.5q21 0 53 9l7 -113q-22 -11 -53 -18t-56 -7q-39 0 -68.5 16t-40.5 39.5t-11 44.5q0 30 16.5 62.5t43.5 56.5h-399v760h569v-186h-348v-111h323v-171h-323v-106h355v-186z" />
    <glyph glyph-name="F.aalt" horiz-adv-x="638" 
d="M271 574v-122h323v-186h-323v-266h-221v760h573v-186h-352z" />
    <glyph glyph-name="M.aalt" horiz-adv-x="936" 
d="M886 760v-760h-216v354l-169 -184h-66l-169 184v-354h-216v760h136l282 -314l282 314h136z" />
    <glyph glyph-name="N.aalt" horiz-adv-x="838" 
d="M788 760v-760h-122l-395 365v-365h-221v760h122l395 -377v377h221z" />
    <glyph glyph-name="Nacute.aalt" horiz-adv-x="838" 
d="M502 819h-203l80 168h260zM788 760v-760h-122l-395 365v-365h-221v760h122l395 -377v377h221z" />
    <glyph glyph-name="Ncaron.aalt" horiz-adv-x="838" 
d="M291 819l-119 168h201l31 -44l30 44h201l-119 -168h-225zM788 760v-760h-122l-395 365v-365h-221v760h122l395 -377v377h221z" />
    <glyph glyph-name="Ncommaaccent.aalt" horiz-adv-x="838" 
d="M788 760v-760h-122l-395 365v-365h-221v760h122l395 -377v377h221zM352 -45h201l-103 -170h-145z" />
    <glyph glyph-name="Eng.aalt" horiz-adv-x="838" 
d="M788 760v-890q0 -77 -50.5 -118.5t-137.5 -41.5q-22 0 -42.5 1.5t-38 5t-35.5 8t-21 5.5l20 166q49 -7 59 -7q15 0 23 7t8 24v166l-302 279v-365h-221v760h122l395 -377v377h221z" />
    <glyph glyph-name="Ntilde.aalt" horiz-adv-x="838" 
d="M363 846q-15 0 -22.5 -5.5t-14.5 -21.5h-115q0 87 36.5 141t94.5 54q33 0 64.5 -15.5t40.5 -17.5t14 -2q8 0 17.5 3t19.5 27h115q0 -87 -37 -141t-95 -54q-32 0 -62.5 14t-40.5 16t-15 2zM788 760v-760h-122l-395 365v-365h-221v760h122l395 -377v377h221z" />
    <glyph glyph-name="G.aalt" horiz-adv-x="860" 
d="M381 448h449q5 -47 5 -69q0 -86 -29.5 -159.5t-83 -126t-127.5 -81t-160 -28.5q-84 0 -159.5 30.5t-131.5 84.5t-87.5 127t-31.5 153t31.5 153t87.5 127t131.5 84.5t158.5 30.5q136 0 237 -63t138 -170l-232 -52q-39 89 -143 89q-40 0 -74.5 -15t-60 -42.5t-39 -64
t-13.5 -77.5t13.5 -77.5t39 -64t60.5 -42.5t75 -15q58 0 99.5 24.5t63.5 67.5h-217v176z" />
    <glyph glyph-name="Gbreve.aalt" horiz-adv-x="860" 
d="M435 804q-88 0 -143.5 49t-55.5 127h159q0 -13 10.5 -24t29.5 -11t30 11t11 24h158q0 -78 -55.5 -127t-143.5 -49zM381 448h449q5 -47 5 -69q0 -86 -29.5 -159.5t-83 -126t-127.5 -81t-160 -28.5q-84 0 -159.5 30.5t-131.5 84.5t-87.5 127t-31.5 153t31.5 153t87.5 127
t131.5 84.5t158.5 30.5q136 0 237 -63t138 -170l-232 -52q-39 89 -143 89q-40 0 -74.5 -15t-60 -42.5t-39 -64t-13.5 -77.5t13.5 -77.5t39 -64t60.5 -42.5t75 -15q58 0 99.5 24.5t63.5 67.5h-217v176z" />
    <glyph glyph-name="Gcommaaccent.aalt" horiz-adv-x="860" 
d="M381 448h449q5 -47 5 -69q0 -86 -29.5 -159.5t-83 -126t-127.5 -81t-160 -28.5q-84 0 -159.5 30.5t-131.5 84.5t-87.5 127t-31.5 153t31.5 153t87.5 127t131.5 84.5t158.5 30.5q136 0 237 -63t138 -170l-232 -52q-39 89 -143 89q-40 0 -74.5 -15t-60 -42.5t-39 -64
t-13.5 -77.5t13.5 -77.5t39 -64t60.5 -42.5t75 -15q58 0 99.5 24.5t63.5 67.5h-217v176zM331 -45h201l-103 -170h-145z" />
    <glyph glyph-name="Gdotaccent.aalt" horiz-adv-x="860" 
d="M434 795q-48 0 -78.5 30.5t-30.5 76.5q0 20 10.5 45t37.5 43.5t61 18.5q22 0 48 -11t44 -38t18 -58q0 -22 -10.5 -47t-37.5 -42.5t-62 -17.5zM381 448h449q5 -47 5 -69q0 -86 -29.5 -159.5t-83 -126t-127.5 -81t-160 -28.5q-84 0 -159.5 30.5t-131.5 84.5t-87.5 127
t-31.5 153t31.5 153t87.5 127t131.5 84.5t158.5 30.5q136 0 237 -63t138 -170l-232 -52q-39 89 -143 89q-40 0 -74.5 -15t-60 -42.5t-39 -64t-13.5 -77.5t13.5 -77.5t39 -64t60.5 -42.5t75 -15q58 0 99.5 24.5t63.5 67.5h-217v176z" />
    <glyph glyph-name="i.aalt" horiz-adv-x="299" 
d="M149 767q22 0 48 -11t44 -38t18 -58q0 -22 -10.5 -47t-37.5 -42.5t-62 -17.5q-48 0 -78.5 30.5t-30.5 76.5q0 20 10.5 45t37.5 43.5t61 18.5zM257 0h-215v508h215v-508z" />
    <glyph glyph-name="germandbls.case" horiz-adv-x="1352" 
d="M346 774q59 0 111 -14t92.5 -41.5t66.5 -69t35 -94.5l-213 -43q-19 86 -95 86q-27 0 -44.5 -13t-17.5 -34q0 -18 10 -30t24 -17l134 -45q107 -36 157 -86.5t50 -137.5q0 -49 -16 -89.5t-43.5 -69.5t-63.5 -48t-83.5 -31t-102.5 -12q-62 0 -119 17t-100.5 48.5t-71 75.5
t-34.5 95l223 46q21 -95 105 -95q31 0 50.5 13t19.5 34q0 36 -42 49l-137 41q-100 30 -147.5 81.5t-47.5 135.5q0 59 22.5 106t63.5 78.5t96 47.5t118 16zM1022 774q59 0 111 -14t92.5 -41.5t66.5 -69t35 -94.5l-213 -43q-19 86 -95 86q-27 0 -44.5 -13t-17.5 -34
q0 -18 10 -30t24 -17l134 -45q107 -36 157 -86.5t50 -137.5q0 -49 -16 -89.5t-43.5 -69.5t-63.5 -48t-83.5 -31t-102.5 -12q-62 0 -119 17t-100.5 48.5t-71 75.5t-34.5 95l223 46q21 -95 105 -95q31 0 50.5 13t19.5 34q0 36 -42 49l-137 41q-100 30 -147.5 81.5t-47.5 135.5
q0 59 22.5 106t63.5 78.5t96 47.5t118 16z" />
    <glyph glyph-name="a.salt" horiz-adv-x="614" 
d="M589 159l15 -139q-52 -35 -113 -35q-52 0 -84.5 19t-48.5 47q-64 -66 -167 -66q-40 0 -73.5 11.5t-57.5 32.5t-37 50t-13 62q0 83 58 125t173 50l95 6v9q0 18 -12 30t-30 12q-38 0 -45 -42l-202 42q21 73 84.5 111.5t162.5 38.5q119 0 185 -57.5t66 -162.5v-125
q0 -21 15 -21zM282 134q22 0 38 14t16 41v26l-39 -5q-55 -6 -55 -40q0 -16 11.5 -26t28.5 -10z" />
    <glyph glyph-name="aacute.aalt" horiz-adv-x="614" 
d="M391 567h-203l80 168h260zM589 159l15 -139q-52 -35 -113 -35q-52 0 -84.5 19t-48.5 47q-64 -66 -167 -66q-40 0 -73.5 11.5t-57.5 32.5t-37 50t-13 62q0 83 58 125t173 50l95 6v9q0 18 -12 30t-30 12q-38 0 -45 -42l-202 42q21 73 84.5 111.5t162.5 38.5
q119 0 185 -57.5t66 -162.5v-125q0 -21 15 -21zM282 134q22 0 38 14t16 41v26l-39 -5q-55 -6 -55 -40q0 -16 11.5 -26t28.5 -10z" />
    <glyph glyph-name="abreve.aalt" horiz-adv-x="614" 
d="M293 552q-88 0 -143.5 49t-55.5 127h159q0 -13 10.5 -24t29.5 -11t30 11t11 24h158q0 -78 -55.5 -127t-143.5 -49zM589 159l15 -139q-52 -35 -113 -35q-52 0 -84.5 19t-48.5 47q-64 -66 -167 -66q-40 0 -73.5 11.5t-57.5 32.5t-37 50t-13 62q0 83 58 125t173 50l95 6v9
q0 18 -12 30t-30 12q-38 0 -45 -42l-202 42q21 73 84.5 111.5t162.5 38.5q119 0 185 -57.5t66 -162.5v-125q0 -21 15 -21zM282 134q22 0 38 14t16 41v26l-39 -5q-55 -6 -55 -40q0 -16 11.5 -26t28.5 -10z" />
    <glyph glyph-name="acircumflex.aalt" horiz-adv-x="614" 
d="M262 567h-201l119 168h225l119 -168h-201l-30 44zM589 159l15 -139q-52 -35 -113 -35q-52 0 -84.5 19t-48.5 47q-64 -66 -167 -66q-40 0 -73.5 11.5t-57.5 32.5t-37 50t-13 62q0 83 58 125t173 50l95 6v9q0 18 -12 30t-30 12q-38 0 -45 -42l-202 42q21 73 84.5 111.5
t162.5 38.5q119 0 185 -57.5t66 -162.5v-125q0 -21 15 -21zM282 134q22 0 38 14t16 41v26l-39 -5q-55 -6 -55 -40q0 -16 11.5 -26t28.5 -10z" />
    <glyph glyph-name="adieresis.aalt" horiz-adv-x="614" 
d="M168 543q-48 0 -78.5 30.5t-30.5 76.5q0 20 10.5 45t37.5 43t61 18t61.5 -18.5t38 -43t10.5 -44.5q0 -22 -10.5 -47t-37.5 -42.5t-62 -17.5zM418 543q-48 0 -78.5 30.5t-30.5 76.5q0 20 10.5 45t37.5 43t61 18t61.5 -18.5t38 -43t10.5 -44.5q0 -22 -10.5 -47t-37.5 -42.5
t-62 -17.5zM589 159l15 -139q-52 -35 -113 -35q-52 0 -84.5 19t-48.5 47q-64 -66 -167 -66q-40 0 -73.5 11.5t-57.5 32.5t-37 50t-13 62q0 83 58 125t173 50l95 6v9q0 18 -12 30t-30 12q-38 0 -45 -42l-202 42q21 73 84.5 111.5t162.5 38.5q119 0 185 -57.5t66 -162.5v-125
q0 -21 15 -21zM282 134q22 0 38 14t16 41v26l-39 -5q-55 -6 -55 -40q0 -16 11.5 -26t28.5 -10z" />
    <glyph glyph-name="agrave.aalt" horiz-adv-x="614" 
d="M201 567l-137 168h260l80 -168h-203zM589 159l15 -139q-52 -35 -113 -35q-52 0 -84.5 19t-48.5 47q-64 -66 -167 -66q-40 0 -73.5 11.5t-57.5 32.5t-37 50t-13 62q0 83 58 125t173 50l95 6v9q0 18 -12 30t-30 12q-38 0 -45 -42l-202 42q21 73 84.5 111.5t162.5 38.5
q119 0 185 -57.5t66 -162.5v-125q0 -21 15 -21zM282 134q22 0 38 14t16 41v26l-39 -5q-55 -6 -55 -40q0 -16 11.5 -26t28.5 -10z" />
    <glyph glyph-name="amacron.aalt" horiz-adv-x="614" 
d="M472 567h-358v156h358v-156zM589 159l15 -139q-52 -35 -113 -35q-52 0 -84.5 19t-48.5 47q-64 -66 -167 -66q-40 0 -73.5 11.5t-57.5 32.5t-37 50t-13 62q0 83 58 125t173 50l95 6v9q0 18 -12 30t-30 12q-38 0 -45 -42l-202 42q21 73 84.5 111.5t162.5 38.5
q119 0 185 -57.5t66 -162.5v-125q0 -21 15 -21zM282 134q22 0 38 14t16 41v26l-39 -5q-55 -6 -55 -40q0 -16 11.5 -26t28.5 -10z" />
    <glyph glyph-name="aogonek.aalt" horiz-adv-x="614" 
d="M633 -61l7 -113q-22 -11 -53 -18t-56 -7q-39 0 -68.5 16t-40.5 39.5t-11 44.5q0 20 9 44.5t24 44.5q-60 13 -86 61q-64 -66 -167 -66q-40 0 -73.5 11.5t-57.5 32.5t-37 50t-13 62q0 83 58 125t173 50l95 6v9q0 18 -12 30t-30 12q-38 0 -45 -42l-202 42q21 73 84.5 111.5
t162.5 38.5q119 0 185 -57.5t66 -162.5v-125q0 -21 15 -21l29 2l15 -139q-32 -32 -42 -44t-10 -23q0 -10 7 -16.5t21 -6.5q21 0 53 9zM282 134q22 0 38 14t16 41v26l-39 -5q-55 -6 -55 -40q0 -16 11.5 -26t28.5 -10z" />
    <glyph glyph-name="aring.aalt" horiz-adv-x="614" 
d="M293 542q-58 0 -99.5 40t-41.5 96q0 57 41.5 97t99.5 40t99.5 -40t41.5 -97q0 -56 -41.5 -96t-99.5 -40zM293 717q-16 0 -28 -11.5t-12 -27.5q0 -15 12 -26.5t28 -11.5t28 11.5t12 26.5q0 16 -12 27.5t-28 11.5zM589 159l15 -139q-52 -35 -113 -35q-52 0 -84.5 19
t-48.5 47q-64 -66 -167 -66q-40 0 -73.5 11.5t-57.5 32.5t-37 50t-13 62q0 83 58 125t173 50l95 6v9q0 18 -12 30t-30 12q-38 0 -45 -42l-202 42q21 73 84.5 111.5t162.5 38.5q119 0 185 -57.5t66 -162.5v-125q0 -21 15 -21zM282 134q22 0 38 14t16 41v26l-39 -5
q-55 -6 -55 -40q0 -16 11.5 -26t28.5 -10z" />
    <glyph glyph-name="atilde.aalt" horiz-adv-x="614" 
d="M252 594q-15 0 -22.5 -5.5t-14.5 -21.5h-115q0 87 36.5 141t94.5 54q33 0 64.5 -15.5t40.5 -17.5t14 -2q8 0 17.5 3t19.5 27h115q0 -87 -37 -141t-95 -54q-32 0 -62.5 14t-40.5 16t-15 2zM589 159l15 -139q-52 -35 -113 -35q-52 0 -84.5 19t-48.5 47q-64 -66 -167 -66
q-40 0 -73.5 11.5t-57.5 32.5t-37 50t-13 62q0 83 58 125t173 50l95 6v9q0 18 -12 30t-30 12q-38 0 -45 -42l-202 42q21 73 84.5 111.5t162.5 38.5q119 0 185 -57.5t66 -162.5v-125q0 -21 15 -21zM282 134q22 0 38 14t16 41v26l-39 -5q-55 -6 -55 -40q0 -16 11.5 -26
t28.5 -10z" />
    <glyph glyph-name="l.aalt" horiz-adv-x="315" 
d="M265 0h-215v800h215v-800z" />
    <glyph glyph-name="lacute.aalt" horiz-adv-x="315" 
d="M261 859h-203l80 168h260zM265 0h-215v800h215v-800z" />
    <glyph glyph-name="lcaron.aalt" horiz-adv-x="315" 
d="M265 0h-215v800h215v-800zM453 600h-138v200h185z" />
    <glyph glyph-name="lcommaaccent.aalt" horiz-adv-x="315" 
d="M265 0h-215v800h215v-800zM13 -215l47 170h201l-103 -170h-145z" />
    <glyph glyph-name="ldot.aalt" horiz-adv-x="508" 
d="M265 0h-215v800h215v-800zM388 471q22 0 48 -11t44 -38t18 -58q0 -22 -10.5 -47t-37.5 -42.5t-62 -17.5q-48 0 -78.5 30.5t-30.5 76.5q0 20 10.5 45t37.5 43.5t61 18.5z" />
    <glyph glyph-name="lslash.aalt" horiz-adv-x="325" 
d="M315 356l-50 -25v-331h-215v226l-40 -20v197l40 20v377h215v-272l50 25v-197z" />
    <glyph glyph-name="k.aalt" horiz-adv-x="666" 
d="M404 0l-139 171v-171h-215v800h215v-465l134 173h259l-195 -254l207 -254h-266z" />
    <glyph glyph-name="kcommaaccent.aalt" horiz-adv-x="666" 
d="M265 0h-215v800h215v-465l134 173h259l-195 -254l207 -254h-266l-139 171v-171zM244 -45h201l-103 -170h-145z" />
    <glyph glyph-name="g.aalt" horiz-adv-x="632" 
d="M637 343h-70l2 -32q0 -34 -13 -69.5t-49 -68t-89.5 -48t-106.5 -15.5q-59 0 -112 17q-4 -7 -4 -16q0 -15 13.5 -24t35.5 -9h157q110 0 168 -44.5t58 -135.5q0 -35 -14.5 -71.5t-50.5 -66.5t-97.5 -50t-151.5 -20h-38q-119 0 -189.5 45.5t-70.5 119.5q0 81 70 112
q-32 21 -49.5 52t-17.5 65q0 38 18 69.5t50 52.5q-15 21 -24 49t-9 56q0 46 18.5 85.5t53 68t82.5 43.5t104 15q58 0 104 -15h222v-165zM311 257q25 0 45 17t20 42t-20 42t-45 17t-45 -17t-20 -42t20 -42t45 -17zM377 -81h-106q-23 0 -32.5 -10t-9.5 -22q0 -15 10.5 -22.5
t39.5 -7.5h59q69 0 69 35q0 11 -8.5 19t-21.5 8z" />
    <glyph glyph-name="gbreve.aalt" horiz-adv-x="632" 
d="M322 562q-88 0 -143.5 49t-55.5 127h159q0 -13 10.5 -24t29.5 -11t30 11t11 24h158q0 -78 -55.5 -127t-143.5 -49zM637 343h-70l2 -32q0 -34 -13 -69.5t-49 -68t-89.5 -48t-106.5 -15.5q-59 0 -112 17q-4 -7 -4 -16q0 -15 13.5 -24t35.5 -9h157q110 0 168 -44.5
t58 -135.5q0 -35 -14.5 -71.5t-50.5 -66.5t-97.5 -50t-151.5 -20h-38q-119 0 -189.5 45.5t-70.5 119.5q0 81 70 112q-32 21 -49.5 52t-17.5 65q0 38 18 69.5t50 52.5q-15 21 -24 49t-9 56q0 46 18.5 85.5t53 68t82.5 43.5t104 15q58 0 104 -15h222v-165zM311 257q25 0 45 17
t20 42t-20 42t-45 17t-45 -17t-20 -42t20 -42t45 -17zM377 -81h-106q-23 0 -32.5 -10t-9.5 -22q0 -15 10.5 -22.5t39.5 -7.5h59q69 0 69 35q0 11 -8.5 19t-21.5 8z" />
    <glyph glyph-name="gcommaaccent.aalt" horiz-adv-x="632" 
d="M405 574h-201l103 170h145zM637 343h-70l2 -32q0 -34 -13 -69.5t-49 -68t-89.5 -48t-106.5 -15.5q-59 0 -112 17q-4 -7 -4 -16q0 -15 13.5 -24t35.5 -9h157q110 0 168 -44.5t58 -135.5q0 -35 -14.5 -71.5t-50.5 -66.5t-97.5 -50t-151.5 -20h-38q-119 0 -189.5 45.5
t-70.5 119.5q0 81 70 112q-32 21 -49.5 52t-17.5 65q0 38 18 69.5t50 52.5q-15 21 -24 49t-9 56q0 46 18.5 85.5t53 68t82.5 43.5t104 15q58 0 104 -15h222v-165zM311 257q25 0 45 17t20 42t-20 42t-45 17t-45 -17t-20 -42t20 -42t45 -17zM377 -81h-106q-23 0 -32.5 -10
t-9.5 -22q0 -15 10.5 -22.5t39.5 -7.5h59q69 0 69 35q0 11 -8.5 19t-21.5 8z" />
    <glyph glyph-name="gdotaccent.aalt" horiz-adv-x="632" 
d="M321 553q-48 0 -78.5 30.5t-30.5 76.5q0 20 10.5 45t37.5 43.5t61 18.5q22 0 48 -11t44 -38t18 -58q0 -22 -10.5 -47t-37.5 -42.5t-62 -17.5zM637 343h-70l2 -32q0 -34 -13 -69.5t-49 -68t-89.5 -48t-106.5 -15.5q-59 0 -112 17q-4 -7 -4 -16q0 -15 13.5 -24t35.5 -9h157
q110 0 168 -44.5t58 -135.5q0 -35 -14.5 -71.5t-50.5 -66.5t-97.5 -50t-151.5 -20h-38q-119 0 -189.5 45.5t-70.5 119.5q0 81 70 112q-32 21 -49.5 52t-17.5 65q0 38 18 69.5t50 52.5q-15 21 -24 49t-9 56q0 46 18.5 85.5t53 68t82.5 43.5t104 15q58 0 104 -15h222v-165z
M311 257q25 0 45 17t20 42t-20 42t-45 17t-45 -17t-20 -42t20 -42t45 -17zM377 -81h-106q-23 0 -32.5 -10t-9.5 -22q0 -15 10.5 -22.5t39.5 -7.5h59q69 0 69 35q0 11 -8.5 19t-21.5 8z" />
    <glyph glyph-name="y.aalt" horiz-adv-x="644" 
d="M644 508l-340 -788h-223l129 300l-210 488h223l94 -240l104 240h223z" />
    <glyph glyph-name="yacute.aalt" horiz-adv-x="644" 
d="M422 577h-203l80 168h260zM644 508l-340 -788h-223l129 300l-210 488h223l94 -240l104 240h223z" />
    <glyph glyph-name="ycircumflex.aalt" horiz-adv-x="644" 
d="M293 577h-201l119 168h225l119 -168h-201l-30 44zM644 508l-340 -788h-223l129 300l-210 488h223l94 -240l104 240h223z" />
    <glyph glyph-name="ydieresis.aalt" horiz-adv-x="644" 
d="M199 553q-48 0 -78.5 30.5t-30.5 76.5q0 20 10.5 45t37.5 43t61 18t61.5 -18.5t38 -43t10.5 -44.5q0 -22 -10.5 -47t-37.5 -42.5t-62 -17.5zM449 553q-48 0 -78.5 30.5t-30.5 76.5q0 20 10.5 45t37.5 43t61 18t61.5 -18.5t38 -43t10.5 -44.5q0 -22 -10.5 -47t-37.5 -42.5
t-62 -17.5zM644 508l-340 -788h-223l129 300l-210 488h223l94 -240l104 240h223z" />
    <glyph glyph-name="ygrave.aalt" horiz-adv-x="644" 
d="M232 577l-137 168h260l80 -168h-203zM644 508l-340 -788h-223l129 300l-210 488h223l94 -240l104 240h223z" />
    <glyph glyph-name="germandbls.salt" horiz-adv-x="709" 
d="M534 400q13 -3 39.5 -12.5t48 -26.5t36.5 -36.5t25.5 -48t10.5 -66.5q0 -47 -17 -88.5t-48.5 -72t-76 -47.5t-97.5 -17q-82 0 -146 13l21 175q43 -8 52 -8.5t19 -0.5q32 0 53 19.5t21 48.5t-23.5 49.5t-59.5 20.5h-52v170h31q28 0 46.5 19t18.5 47q0 29 -21 47t-54 18
q-42 0 -69 -29.5t-27 -76.5v-497h-215v481q0 65 22.5 119.5t63.5 93.5t99 60t126 21q62 0 115.5 -15.5t93 -43.5t61 -68t21.5 -87q0 -29 -11.5 -63.5t-40.5 -62t-66 -35.5z" />
    <glyph glyph-name="j.aalt" horiz-adv-x="316" 
d="M163 769q24 0 51.5 -11.5t47 -40.5t19.5 -62q0 -23 -11 -49.5t-40.5 -45.5t-66.5 -19q-24 0 -51.5 11t-46.5 39.5t-19 63.5q0 33 19 62t46.5 40.5t51.5 11.5zM-30 -264l26 146l29 -3q14 0 22.5 11.5t8.5 29.5v588h215v-605q0 -87 -52 -140t-136 -53q-59 0 -113 26z" />
    <glyph glyph-name="ij.aalt" horiz-adv-x="621" 
d="M152 769q24 0 51.5 -11.5t47 -40.5t19.5 -62q0 -23 -11 -49.5t-40.5 -45.5t-66.5 -19q-24 0 -51.5 11t-46.5 39.5t-19 63.5q0 33 19 62t46.5 40.5t51.5 11.5zM468 769q24 0 51.5 -11.5t47 -40.5t19.5 -62q0 -23 -11 -49.5t-40.5 -45.5t-66.5 -19q-24 0 -51.5 11
t-46.5 39.5t-19 63.5q0 33 19 62t46.5 40.5t51.5 11.5zM260 0h-215v508h215v-508zM275 -264l26 146l29 -3q14 0 22.5 11.5t8.5 29.5v588h215v-605q0 -87 -52 -140t-136 -53q-59 0 -113 26z" />
    <glyph glyph-name="f_j.dlig" horiz-adv-x="668" 
d="M633 508v-788h-215v623h-135v-343h-215v343h-68v165h68v66q0 39 14 80.5t53 81.5t98 59.5t119 19.5q51 0 98.5 -14t101.5 -45l-77 -157q-46 39 -103 39q-38 0 -63.5 -22t-25.5 -57v-51h350z" />
    <glyph glyph-name="f_f_f.dlig" horiz-adv-x="1119" 
d="M979 508h140v-165h-140v-343h-215v343h-133v-343h-215v343h-133v-343h-215v343h-68v165h68v66q0 39 14 80.5t53 81.5t98 59.5t119 19.5q45 0 87 -10.5t87 -34.5q73 45 174 45q82 0 157 -36q26 16 60.5 26t68.5 10q83 0 145 -55l-71 -135q-17 13 -37 13t-32 -12t-12 -31
v-87zM416 508v66q0 29 6 56q-24 8 -50 8q-38 0 -63.5 -22t-25.5 -57v-51h133zM764 508v86q0 19 3 37q-24 7 -47 7q-38 0 -63.5 -22t-25.5 -57v-51h133z" />
    <glyph glyph-name="f_k.dlig" horiz-adv-x="1075" 
d="M1079 0h-280l-71 89l-70 -89h-215v343h-160v-343h-215v343h-68v165h68v66q0 39 14 80.5t53 81.5t98 59.5t119 19.5q57 0 103 -15h203v-460l147 168h253l-195 -248zM443 508v113q-34 17 -71 17q-38 0 -63.5 -22t-25.5 -57v-51h160z" />
    <glyph glyph-name="f_f_k.dlig" horiz-adv-x="1523" 
d="M1479 0h-280l-71 89l-70 -89h-215v343h-170v-343h-215v343h-175v-343h-215v343h-68v165h68v66q0 39 14 80.5t53 81.5t98 59.5t119 19.5q50 0 97.5 -13.5t99.5 -44.5q37 28 87 43t106 15q57 0 103 -15h213v-460l147 168h253l-195 -248zM458 508v66q0 18 3 36
q-40 28 -89 28q-38 0 -63.5 -22t-25.5 -57v-51h175zM843 508v107q-38 23 -81 23q-38 0 -63.5 -22t-25.5 -57v-51h170z" />
    <glyph glyph-name="r_t.dlig" horiz-adv-x="880" 
d="M731 343v-138q0 -17 12.5 -27.5t31.5 -10.5q14 0 30 3.5t24 8.5l36 -157q-69 -37 -151 -37q-43 0 -75.5 12t-58 32t-45 58t-19.5 91v165h-49q-44 0 -82 -14.5t-64.5 -40.5t-41 -62t-14.5 -77v-149h-215v508h215v-60q72 60 162 60h89v152l215 60v-212h149v-165h-149z" />
    <glyph glyph-name="f_k.dlig.ss03" horiz-adv-x="1059" 
d="M797 0l-139 171v-171h-215v343h-160v-343h-215v343h-68v165h68v66q0 39 14 80.5t53 81.5t98 59.5t119 19.5q57 0 103 -15h203v-465l134 173h259l-195 -254l207 -254h-266zM443 508v113q-34 17 -71 17q-38 0 -63.5 -22t-25.5 -57v-51h160z" />
    <glyph glyph-name="f_f_k.dlig.ss03" horiz-adv-x="1459" 
d="M1197 0l-139 171v-171h-215v343h-170v-343h-215v343h-175v-343h-215v343h-68v165h68v66q0 39 14 80.5t53 81.5t98 59.5t119 19.5q50 0 97.5 -13.5t99.5 -44.5q37 28 87 43t106 15q57 0 103 -15h213v-465l134 173h259l-195 -254l207 -254h-266zM458 508v66q0 18 3 36
q-40 28 -89 28q-38 0 -63.5 -22t-25.5 -57v-51h175zM843 508v107q-38 23 -81 23q-38 0 -63.5 -22t-25.5 -57v-51h170z" />
    <glyph glyph-name="uniFB02.aalt" horiz-adv-x="708" 
d="M658 800v-800h-215v343h-160v-343h-215v343h-68v165h68v66q0 39 14 80.5t53 81.5t98 59.5t119 19.5q57 0 103 -15h203zM443 508v113q-34 17 -71 17q-38 0 -63.5 -22t-25.5 -57v-51h160z" />
    <glyph glyph-name="f_h.dlig" horiz-adv-x="1030" 
d="M808 523q83 0 133.5 -55t50.5 -151v-317h-215v271q0 27 -16 44.5t-41 17.5q-27 0 -44.5 -21t-17.5 -55v-257h-215v343h-160v-343h-215v343h-68v165h68v66q0 39 14 80.5t53 81.5t98 59.5t119 19.5q57 0 103 -15h203v-347q29 33 68 51.5t82 18.5zM443 508v113
q-34 17 -71 17q-38 0 -63.5 -22t-25.5 -57v-51h160z" />
    <glyph glyph-name="t_z.dlig" horiz-adv-x="930" 
d="M914 483l-162 -282q88 -19 133 -76.5t45 -145.5q0 -60 -21 -110.5t-59.5 -85.5t-92.5 -54t-118 -19q-96 0 -170 46.5t-101 122.5l188 86q10 -34 34.5 -51t52.5 -17q16 0 35 7t32.5 25.5t13.5 44.5q0 34 -24 55t-62 21h-162l-15 38l147 255h-327v-138q0 -17 12.5 -27.5
t31.5 -10.5q14 0 30 3.5t24 8.5l36 -157q-69 -37 -151 -37q-43 0 -75.5 12t-58 32t-45 58t-19.5 91v165h-71v165h71v152l215 60v-212h633v-25z" />
    <glyph glyph-name="y_t.dlig" horiz-adv-x="1074" 
d="M925 343v-138q0 -17 12.5 -27.5t31.5 -10.5q14 0 30 3.5t24 8.5l36 -157q-69 -37 -151 -37q-43 0 -75.5 12t-58 32t-45 58t-19.5 91v165h-137l-269 -623h-223l129 300l-210 488h223l94 -240l104 240h289v152l215 60v-212h149v-165h-149z" />
    <glyph glyph-name="L_A.dlig" horiz-adv-x="1345" 
d="M1345 0h-236l-40 88h-292l-40 -88h-687v760h221v-574h319l276 574h114zM988 268l-64 143l-65 -143h129z" />
    <glyph glyph-name="R_A.dlig" horiz-adv-x="1567" 
d="M1567 0h-236l-40 88h-292l-40 -88h-402l-222 273h-64v-273h-221v760h356q60 0 111 -18t87 -50.5t55 -77.5t19 -97q0 -32 -10 -71.5t-38.5 -76.5t-69.5 -60l199 -234l329 685h114zM271 451h110q39 0 60 19t21 47q0 20 -11.5 36t-31 22.5t-38.5 6.5h-110v-131zM1210 268
l-64 143l-65 -143h129z" />
    <glyph glyph-name="t_i.dlig" horiz-adv-x="735" 
d="M582 541q-24 0 -51.5 11t-46.5 39.5t-19 63.5q0 33 19 62t46.5 40.5t51.5 11.5t51.5 -11.5t47 -40.5t19.5 -62q0 -23 -11 -49.5t-40.5 -45.5t-66.5 -19zM690 508v-508h-215v343h-194v-138q0 -17 12.5 -27.5t31.5 -10.5q14 0 30 3.5t24 8.5l36 -157q-69 -37 -151 -37
q-43 0 -75.5 12t-58 32t-45 58t-19.5 91v165h-71v165h71v152l215 60v-212h409z" />
    <glyph glyph-name="t_h.dlig" horiz-adv-x="1067" 
d="M845 523q83 0 133.5 -55t50.5 -151v-317h-215v271q0 27 -16 44.5t-41 17.5q-27 0 -44.5 -21t-17.5 -55v-257h-215v343h-199v-138q0 -17 12.5 -27.5t31.5 -10.5q14 0 30 3.5t24 8.5l36 -157q-69 -37 -151 -37q-43 0 -75.5 12t-58 32t-45 58t-19.5 91v165h-71v165h71v152
l215 60v-212h199v292h215v-347q29 33 68 51.5t82 18.5z" />
    <glyph glyph-name="t_u.dlig" horiz-adv-x="1057" 
d="M1007 508v-508h-215v55q-29 -33 -68 -51.5t-81 -18.5q-84 0 -134.5 55t-50.5 151v152h-177v-138q0 -17 12.5 -27.5t31.5 -10.5q14 0 30 3.5t24 8.5l36 -157q-69 -37 -151 -37q-43 0 -75.5 12t-58 32t-45 58t-19.5 91v165h-71v165h71v152l215 60v-212h392v-271
q0 -27 16 -44.5t40 -17.5q28 0 45.5 21t17.5 55v257h215z" />
    <glyph glyph-name="t_y.dlig" horiz-adv-x="1024" 
d="M1024 508l-340 -788h-223l129 300l-139 323h-170v-138q0 -17 12.5 -27.5t31.5 -10.5q14 0 30 3.5t24 8.5l36 -157q-69 -37 -151 -37q-43 0 -75.5 12t-58 32t-45 58t-19.5 91v165h-71v165h71v152l215 60v-212h322l94 -240l104 240h223z" />
    <glyph glyph-name="w_w_w.dlig" horiz-adv-x="2243" 
d="M2243 508l-200 -508h-140l-80 187l-81 -187h-140l-130 330l-130 -330h-140l-80 187l-81 -187h-140l-130 330l-130 -330h-140l-80 187l-81 -187h-140l-200 508h210l69 -216l85 216h113l85 -216l69 216h280l69 -216l85 216h113l85 -216l69 216h280l69 -216l85 216h113
l85 -216l69 216h210z" />
    <glyph glyph-name="W_W_W.dlig" horiz-adv-x="2901" 
d="M2901 760l-243 -760h-186l-132 372l-133 -372h-186l-126 394l-126 -394h-186l-132 372l-133 -372h-186l-126 394l-126 -394h-186l-132 372l-133 -372h-186l-243 760h234l108 -364l142 364h155l142 -364l108 364h234l108 -364l142 364h155l142 -364l108 364h234l108 -364
l142 364h155l142 -364l108 364h234z" />
    <glyph glyph-name="r_f.dlig" horiz-adv-x="880" 
d="M740 508h140v-165h-140v-343h-215v343h-58q-44 0 -82 -14.5t-64.5 -40.5t-41 -62t-14.5 -77v-149h-215v508h215v-60q72 60 162 60h98v86q0 36 11 74t41.5 74.5t76.5 54.5t93 18q83 0 145 -55l-71 -135q-17 13 -37 13t-32 -12t-12 -31v-87z" />
    <glyph glyph-name="E_R.dlig" horiz-adv-x="1476" 
d="M1506 0h-266l-239 292h-47v-292h-221v292h-462v-106h355v-186h-576v760h569v-186h-348v-111h462v297h356q60 0 111 -17t87 -48.5t55 -75t19 -93.5q0 -32 -11 -71.5t-42 -75.5t-76 -57zM954 463h116q33 0 54 17.5t21 45.5q0 25 -21 40.5t-54 15.5h-116v-119z" />
    <glyph glyph-name="f_f_j.dlig" horiz-adv-x="1016" 
d="M981 508v-788h-215v623h-135v-343h-215v343h-133v-343h-215v343h-68v165h68v66q0 39 14 80.5t53 81.5t98 59.5t119 19.5q45 0 87 -10.5t87 -34.5q73 45 174 45q51 0 98.5 -14t101.5 -45l-77 -157q-46 39 -103 39q-38 0 -63.5 -22t-25.5 -57v-51h350zM416 508v66
q0 29 6 56q-24 8 -50 8q-38 0 -63.5 -22t-25.5 -57v-51h133z" />
    <glyph glyph-name="f_f_l.liga.ss02" horiz-adv-x="1056" 
d="M1006 800v-800h-215v343h-160v-343h-215v343h-133v-343h-215v343h-68v165h68v66q0 39 14 80.5t53 81.5t98 59.5t119 19.5q45 0 87 -10.5t87 -34.5q73 45 174 45q57 0 103 -15h203zM416 508v66q0 29 6 56q-24 8 -50 8q-38 0 -63.5 -22t-25.5 -57v-51h133zM791 508v113
q-34 17 -71 17q-38 0 -63.5 -22t-25.5 -57v-51h160z" />
    <glyph glyph-name="f_f_j.dlig.ss13" horiz-adv-x="1037" 
d="M1002 508v-605q0 -87 -52 -140t-136 -53q-59 0 -113 26l26 146l29 -3q14 0 22.5 11.5t8.5 29.5v423h-156v-343h-215v343h-133v-343h-215v343h-68v165h68v66q0 39 14 80.5t53 81.5t98 59.5t119 19.5q45 0 87 -10.5t87 -34.5q73 45 174 45q51 0 98.5 -14t101.5 -45
l-77 -157q-46 39 -103 39q-38 0 -63.5 -22t-25.5 -57v-51h371zM416 508v66q0 29 6 56q-24 8 -50 8q-38 0 -63.5 -22t-25.5 -57v-51h133z" />
    <glyph glyph-name="f_j.dlig.ss13" horiz-adv-x="689" 
d="M654 508v-605q0 -87 -52 -140t-136 -53q-59 0 -113 26l26 146l29 -3q14 0 22.5 11.5t8.5 29.5v423h-156v-343h-215v343h-68v165h68v66q0 39 14 80.5t53 81.5t98 59.5t119 19.5q51 0 98.5 -14t101.5 -45l-77 -157q-46 39 -103 39q-38 0 -63.5 -22t-25.5 -57v-51h371z" />
    <glyph glyph-name="zero.oldstyle" horiz-adv-x="710" 
d="M355 632q69 0 132 -25t109.5 -69t72.5 -103.5t26 -124.5q0 -66 -26 -125.5t-72.5 -104t-109.5 -69t-132 -24.5t-132 24.5t-109.5 69t-72.5 104t-26 125.5q0 65 26 124.5t72.5 103.5t109.5 69t132 25zM355 173q28 0 57 13t50 47.5t21 76.5t-21 76t-50 47t-57 13t-57 -13
t-50 -47t-21 -76t21 -76.5t50 -47.5t57 -13z" />
    <glyph glyph-name="one.oldstyle" horiz-adv-x="616" 
d="M596 192v-192h-546v192h166v171l-125 -36v197l312 98h41v-430h152z" />
    <glyph glyph-name="two.oldstyle" horiz-adv-x="626" 
d="M596 195v-195h-571v64l249 215q42 39 59.5 62.5t17.5 48.5q0 23 -14.5 38t-37.5 15q-27 0 -45 -20t-22 -55l-212 39q7 104 82 164.5t196 60.5q45 0 93.5 -11t94.5 -42t68.5 -78.5t22.5 -97.5q0 -37 -12.5 -74t-39.5 -69t-66 -65h137z" />
    <glyph glyph-name="three.oldstyle" horiz-adv-x="651" 
d="M633 548l-164 -217q78 -23 117.5 -78.5t39.5 -137.5q0 -60 -21 -110.5t-60.5 -85.5t-94.5 -54t-120 -19q-62 0 -117 17t-97 50.5t-67 82t-30 107.5l217 41q2 -57 31 -84t67 -27q36 0 61 21t25 56q0 34 -25 55t-66 21h-156l-11 24l151 220h-250l5 192h565v-74z" />
    <glyph glyph-name="four.oldstyle" horiz-adv-x="751" 
d="M751 0h-115v-158h-211v158h-405v130l468 492h148v-430h115v-192zM425 192v127l-123 -127h123z" />
    <glyph glyph-name="five.oldstyle" horiz-adv-x="646" 
d="M263 356h86q136 0 206.5 -65.5t70.5 -178.5q0 -59 -21.5 -108.5t-60.5 -84.5t-94.5 -54t-120.5 -19q-61 0 -115.5 17t-96.5 50t-67.5 81.5t-30.5 108.5l217 41q2 -57 30 -85t66 -28q37 0 62.5 22t25.5 57q0 34 -25 55t-66 21h-285l58 436h487v-195h-316z" />
    <glyph glyph-name="six.oldstyle" horiz-adv-x="662" 
d="M540 760l-145 -221q37 -7 78 -24.5t82 -55t61.5 -90t20.5 -105.5q0 -60 -24 -112t-66.5 -89.5t-99 -57.5t-117.5 -20t-116.5 20t-98 57.5t-66.5 89.5t-24 112q0 91 51 161l226 335h238zM330 173q19 0 42 9t39.5 31.5t16.5 50.5q0 18 -9.5 39.5t-34 37.5t-54.5 16
q-18 0 -40.5 -9.5t-39 -32.5t-16.5 -51q0 -18 9.5 -39t33.5 -36.5t53 -15.5z" />
    <glyph glyph-name="seven.oldstyle" horiz-adv-x="643" 
d="M623 622v-67l-299 -693h-247l252 565h-299v195h593z" />
    <glyph glyph-name="eight.oldstyle" horiz-adv-x="667" 
d="M513 397q59 -26 91.5 -73.5t32.5 -112.5q0 -47 -22 -89t-62 -72.5t-97 -47.5t-124 -17q-66 0 -122 17t-96.5 48t-62 72.5t-21.5 89.5q0 65 32.5 112t91.5 73q-34 17 -57.5 44t-32 58t-8.5 58q0 44 21 84t59 70t89 47t108 17t108.5 -17t89.5 -47t59 -70t21 -84
q0 -27 -8.5 -58t-32 -58t-57.5 -44zM333 608q-30 0 -52 -20.5t-22 -50.5t22 -51t52 -21t52.5 21t22.5 51q0 31 -22.5 51t-52.5 20zM333 161q32 0 55 21t23 53t-23 53t-55 21q-14 0 -32 -7t-31.5 -25.5t-13.5 -41.5q0 -32 23 -53t54 -21z" />
    <glyph glyph-name="nine.oldstyle" horiz-adv-x="667" 
d="M637 353q0 -91 -51 -161l-226 -335h-238l145 221q-37 7 -78 24.5t-82 55t-61.5 90t-20.5 105.5q0 60 24 112t66.5 89.5t99 57.5t117.5 20t116.5 -20t98 -57.5t66.5 -89.5t24 -112zM234 353q0 -18 9.5 -39.5t34 -37.5t54.5 -16q18 0 40.5 9.5t39 32.5t16.5 51
q0 18 -9.5 39t-33.5 36.5t-53 15.5q-19 0 -42 -9t-39.5 -31.5t-16.5 -50.5z" />
    <glyph glyph-name="zero.tnum" 
d="M335 775q70 0 129.5 -28.5t102 -81t65.5 -126t23 -160.5t-23 -160t-65.5 -125.5t-102 -80.5t-129.5 -28t-130 28t-102.5 80.5t-65.5 125.5t-23 160t23 160.5t65.5 126t102.5 81t130 28.5zM335 169q46 0 72 51.5t26 158.5q0 105 -26 157t-72 52q-47 0 -73 -51.5
t-26 -157.5q0 -107 26 -158.5t73 -51.5z" />
    <glyph glyph-name="one.tnum" 
d="M623 192v-192h-576v192h188v299l-163 -48v207l350 110h41v-568h160z" />
    <glyph glyph-name="two.tnum" 
d="M640 195v-195h-601v64l306 338q59 64 59 116q0 30 -19 49t-49 19q-73 0 -83 -101l-212 39q2 26 10.5 58.5t29 65t55.5 61.5t89 47.5t117 18.5t116.5 -18.5t92 -52.5t59 -82t20.5 -104q0 -37 -9 -65t-20.5 -47.5t-25 -37t-36 -43t-28.5 -33.5l-81 -97h210z" />
    <glyph glyph-name="three.tnum" 
d="M640 686l-164 -217q78 -23 117.5 -78.5t39.5 -137.5q0 -60 -21 -110.5t-60.5 -85.5t-94.5 -54t-120 -19q-62 0 -117 17t-97 50.5t-67 82t-30 107.5l217 41q2 -57 31 -84t67 -27q36 0 61 21t25 56q0 34 -25 55t-66 21h-156l-11 24l151 220h-250l5 192h565v-74z" />
    <glyph glyph-name="four.tnum" 
d="M655 111h-72v-111h-202v111h-367v137l417 512h152v-481h72v-168zM381 279v172l-134 -172h134z" />
    <glyph glyph-name="five.tnum" 
d="M273 494h86q136 0 206.5 -65.5t70.5 -178.5q0 -59 -21.5 -108.5t-60.5 -84.5t-94.5 -54t-120.5 -19q-61 0 -115.5 17t-96.5 50t-67.5 81.5t-30.5 108.5l217 41q2 -57 30 -85t66 -28q37 0 62.5 22t25.5 57q0 34 -25 55t-66 21h-285l58 436h487v-195h-316z" />
    <glyph glyph-name="six.tnum" 
d="M549 760l-145 -221q37 -7 78 -24.5t82 -55t61.5 -90t20.5 -105.5q0 -60 -24 -112t-66.5 -89.5t-99 -57.5t-117.5 -20t-116.5 20t-98 57.5t-66.5 89.5t-24 112q0 91 51 161l226 335h238zM339 173q19 0 42 9t39.5 31.5t16.5 50.5q0 18 -9.5 39.5t-34 37.5t-54.5 16
q-18 0 -40.5 -9.5t-39 -32.5t-16.5 -51q0 -18 9.5 -39t33.5 -36.5t53 -15.5z" />
    <glyph glyph-name="seven.tnum" 
d="M647 760v-93l-318 -667h-251l283 573h-329v187h615z" />
    <glyph glyph-name="eight.tnum" 
d="M514 397q59 -26 91.5 -73.5t32.5 -112.5q0 -47 -22 -89t-62 -72.5t-97 -47.5t-124 -17q-66 0 -122 17t-96.5 48t-62 72.5t-21.5 89.5q0 65 32.5 112t91.5 73q-34 17 -57.5 44t-32 58t-8.5 58q0 44 21 84t59 70t89 47t108 17t108.5 -17t89.5 -47t59 -70t21 -84
q0 -27 -8.5 -58t-32 -58t-57.5 -44zM334 608q-30 0 -52 -20.5t-22 -50.5t22 -51t52 -21t52.5 21t22.5 51q0 31 -22.5 51t-52.5 20zM334 161q32 0 55 21t23 53t-23 53t-55 21q-14 0 -32 -7t-31.5 -25.5t-13.5 -41.5q0 -32 23 -53t54 -21z" />
    <glyph glyph-name="nine.tnum" 
d="M636 496q0 -91 -51 -161l-226 -335h-238l145 221q-37 7 -78 24.5t-82 55t-61.5 90t-20.5 105.5q0 60 24 112t66.5 89.5t99 57.5t117.5 20t116.5 -20t98 -57.5t66.5 -89.5t24 -112zM233 496q0 -18 9.5 -39.5t34 -37.5t54.5 -16q18 0 40.5 9.5t39 32.5t16.5 51
q0 18 -9.5 39t-33.5 36.5t-53 15.5q-19 0 -42 -9t-39.5 -31.5t-16.5 -50.5z" />
    <glyph glyph-name="glyph364" 
d="M335 775q70 0 129.5 -28.5t102 -81t65.5 -126t23 -160.5t-23 -160t-65.5 -125.5t-102 -80.5t-129.5 -28t-130 28t-102.5 80.5t-65.5 125.5t-23 160t23 160.5t65.5 126t102.5 81t130 28.5zM335 588q-47 0 -73 -51.5t-26 -157.5q0 -32 3 -61l163 227q-24 43 -67 43z
M335 169q46 0 72 51.5t26 158.5l-2 55l-163 -225q25 -40 67 -40z" />
    <glyph glyph-name="zero.zero" horiz-adv-x="848" 
d="M424 774q81 0 154.5 -30.5t128.5 -84.5t85.5 -127t30.5 -153q0 -81 -30.5 -153.5t-85.5 -126.5t-128.5 -84t-154.5 -30t-154.5 30t-128.5 84t-85.5 126.5t-30.5 153.5q0 80 30.5 153t85.5 127t128.5 84.5t154.5 30.5zM424 578q-38 0 -70.5 -15t-56.5 -42.5t-37 -64
t-13 -77.5q0 -31 9 -62.5t23 -55.5l217 301q-34 16 -72 16zM424 180q38 0 70.5 15t56.5 42.5t37 64t13 77.5q0 37 -11 70.5t-27 56.5l-221 -305q36 -21 82 -21z" />
    <glyph glyph-name="glyph366" horiz-adv-x="710" 
d="M355 632q69 0 132 -25t109.5 -69t72.5 -103.5t26 -124.5q0 -66 -26 -125.5t-72.5 -104t-109.5 -69t-132 -24.5t-132 24.5t-109.5 69t-72.5 104t-26 125.5q0 65 26 124.5t72.5 103.5t109.5 69t132 25zM355 446q-28 0 -57 -13t-50 -47t-21 -76q0 -40 17 -71l147 202
q-18 5 -36 5zM355 173q28 0 57 13t50 47.5t21 76.5q0 44 -22 80l-151 -209q22 -8 45 -8z" />
    <glyph glyph-name="zero.dnom" horiz-adv-x="484" 
d="M244 398q44 0 84.5 -14.5t71 -41.5t48 -65.5t17.5 -82.5t-17.5 -82t-48 -65.5t-71 -42t-84.5 -14.5q-45 0 -86 14.5t-72 42t-48.5 65.5t-17.5 82t17.5 82.5t48.5 65.5t72 41.5t86 14.5zM244 109q36 0 60.5 24t24.5 61t-24.5 61t-60.5 24q-37 0 -62.5 -24t-25.5 -61
t25.5 -61t62.5 -24z" />
    <glyph glyph-name="one.dnom" horiz-adv-x="254" 
d="M219 0h-135v214l-79 -26v134l184 68h30v-390z" />
    <glyph glyph-name="two.dnom" horiz-adv-x="368" 
d="M264 112h74v-112h-306v20l126 158q50 64 50 84q0 10 -6.5 16.5t-16.5 6.5q-12 0 -20.5 -10t-8.5 -33l-127 23q0 59 43 96.5t113 37.5q69 0 112 -36.5t43 -100.5q0 -19 -6 -36.5t-14.5 -33t-54.5 -78.5z" />
    <glyph glyph-name="three.dnom" horiz-adv-x="358" 
d="M344 358l-76 -113q39 -13 59.5 -43.5t20.5 -72.5q0 -63 -44 -101.5t-117 -38.5q-71 0 -117.5 37t-52.5 95l125 20q2 -10 7.5 -20t15 -15.5t20.5 -5.5q17 0 26 9t9 20q0 12 -9 20t-27 8h-91l-4 12l65 104h-119l3 115h306v-30z" />
    <glyph glyph-name="four.dnom" horiz-adv-x="393" 
d="M384 53h-45v-53h-126v53h-198v74l236 263h88v-235h45v-102zM213 155v71l-60 -71h60z" />
    <glyph glyph-name="five.dnom" horiz-adv-x="352" 
d="M160 256h34q27 0 53 -6t49 -23t32.5 -44t9.5 -52q0 -64 -42.5 -102.5t-113.5 -38.5q-52 0 -90.5 21t-55 52.5t-19.5 58.5l125 20q3 -21 13.5 -31t24.5 -10q13 0 21.5 8.5t8.5 20.5t-9 20t-22 8h-151l30 231h260v-115h-155z" />
    <glyph glyph-name="six.dnom" horiz-adv-x="362" 
d="M305 388l-81 -115q52 -12 85 -50t33 -92q0 -39 -19.5 -71t-56.5 -53t-87 -21q-65 0 -112 41t-47 104q0 43 23 79l129 178h133zM179 91q20 0 33 11.5t13 28.5t-13 29.5t-33 12.5q-18 0 -30 -12.5t-12 -29.5q0 -16 12 -28t30 -12z" />
    <glyph glyph-name="seven.dnom" horiz-adv-x="320" 
d="M313 389v-32l-148 -358h-134l121 275h-144v115h305z" />
    <glyph glyph-name="eight.dnom" horiz-adv-x="375" 
d="M295 208q61 -28 61 -94q0 -51 -47 -85t-122 -34q-74 0 -120.5 34t-46.5 85q0 33 16 57t45 37q-46 26 -46 81q0 47 44.5 80.5t108.5 33.5t108.5 -33.5t44.5 -80.5q0 -56 -46 -81zM188 306q-13 0 -23 -8t-10 -22t10.5 -22.5t22.5 -8.5t23 8.5t11 22.5t-10.5 22t-23.5 8z
M189 97q12 0 22.5 8.5t10.5 22.5q0 15 -11 23t-23 8q-13 0 -23.5 -8t-10.5 -23q0 -14 10.5 -22.5t24.5 -8.5z" />
    <glyph glyph-name="nine.dnom" horiz-adv-x="362" 
d="M342 257q0 -43 -23 -79l-129 -178h-133l81 115q-52 12 -85 50t-33 92q0 39 19.5 71t56.5 53t87 21q65 0 112 -41t47 -104zM183 297q-20 0 -33 -11.5t-13 -28.5t13 -29.5t33 -12.5q18 0 30 12.5t12 29.5q0 16 -12 28t-30 12z" />
    <glyph glyph-name="zero.numr" horiz-adv-x="484" 
d="M244 770q44 0 84.5 -14.5t71 -41.5t48 -65.5t17.5 -82.5t-17.5 -82t-48 -65.5t-71 -42t-84.5 -14.5q-45 0 -86 14.5t-72 42t-48.5 65.5t-17.5 82t17.5 82.5t48.5 65.5t72 41.5t86 14.5zM244 481q36 0 60.5 24t24.5 61t-24.5 61t-60.5 24q-37 0 -62.5 -24t-25.5 -61
t25.5 -61t62.5 -24z" />
    <glyph glyph-name="one.numr" horiz-adv-x="254" 
d="M219 370h-135v214l-79 -26v134l184 68h30v-390z" />
    <glyph glyph-name="two.numr" horiz-adv-x="368" 
d="M264 483h74v-112h-306v20l126 158q50 64 50 84q0 10 -6.5 16.5t-16.5 6.5q-12 0 -20.5 -10t-8.5 -33l-127 23q0 59 43 96.5t113 37.5q69 0 112 -36.5t43 -100.5q0 -19 -6 -36.5t-14.5 -33t-54.5 -78.5z" />
    <glyph glyph-name="three.numr" horiz-adv-x="358" 
d="M344 730l-76 -113q39 -13 59.5 -43.5t20.5 -72.5q0 -63 -44 -101.5t-117 -38.5q-71 0 -117.5 37t-52.5 95l125 20q2 -10 7.5 -20t15 -15.5t20.5 -5.5q17 0 26 9t9 20q0 12 -9 20t-27 8h-91l-4 12l65 104h-119l3 115h306v-30z" />
    <glyph glyph-name="four.numr" horiz-adv-x="393" 
d="M384 423h-45v-53h-126v53h-198v74l236 263h88v-235h45v-102zM213 525v71l-60 -71h60z" />
    <glyph glyph-name="five.numr" horiz-adv-x="352" 
d="M160 627h34q27 0 53 -6t49 -23t32.5 -44t9.5 -52q0 -64 -42.5 -102.5t-113.5 -38.5q-52 0 -90.5 21t-55 52.5t-19.5 58.5l125 20q3 -21 13.5 -31t24.5 -10q13 0 21.5 8.5t8.5 20.5t-9 20t-22 8h-151l30 231h260v-115h-155z" />
    <glyph glyph-name="six.numr" horiz-adv-x="362" 
d="M305 760l-81 -115q52 -12 85 -50t33 -92q0 -39 -19.5 -71t-56.5 -53t-87 -21q-65 0 -112 41t-47 104q0 43 23 79l129 178h133zM179 463q20 0 33 11.5t13 28.5t-13 29.5t-33 12.5q-18 0 -30 -12.5t-12 -29.5q0 -16 12 -28t30 -12z" />
    <glyph glyph-name="seven.numr" horiz-adv-x="320" 
d="M313 760v-32l-148 -358h-134l121 275h-144v115h305z" />
    <glyph glyph-name="eight.numr" horiz-adv-x="375" 
d="M295 575q61 -28 61 -94q0 -51 -47 -85t-122 -34q-74 0 -120.5 34t-46.5 85q0 33 16 57t45 37q-46 26 -46 81q0 47 44.5 80.5t108.5 33.5t108.5 -33.5t44.5 -80.5q0 -56 -46 -81zM188 673q-13 0 -23 -8t-10 -22t10.5 -22.5t22.5 -8.5t23 8.5t11 22.5t-10.5 22t-23.5 8z
M189 464q12 0 22.5 8.5t10.5 22.5q0 15 -11 23t-23 8q-13 0 -23.5 -8t-10.5 -23q0 -14 10.5 -22.5t24.5 -8.5z" />
    <glyph glyph-name="nine.numr" horiz-adv-x="362" 
d="M342 625q0 -43 -23 -79l-129 -178h-133l81 115q-52 12 -85 50t-33 92q0 39 19.5 71t56.5 53t87 21q65 0 112 -41t47 -104zM183 665q-20 0 -33 -11.5t-13 -28.5t13 -29.5t33 -12.5q18 0 30 12.5t12 29.5q0 16 -12 28t-30 12z" />
    <glyph glyph-name="backslash.aalt" horiz-adv-x="468" 
d="M448 0h-190l-237 760h190z" />
    <glyph glyph-name="periodcentered.aalt" horiz-adv-x="263" 
d="M131 498q23 0 50.5 -12t47 -41.5t19.5 -63.5q0 -50 -33 -83t-84 -33q-50 0 -83 33t-33 83q0 22 11 49t40 47.5t65 20.5z" />
    <glyph glyph-name="bullet.aalt" horiz-adv-x="399" 
d="M199 556q29 0 60.5 -10t59 -34t46.5 -60.5t19 -81.5q0 -28 -9 -59t-31.5 -58.5t-59 -47t-85.5 -19.5q-80 0 -132 53t-52 131q0 27 9 57.5t34 62.5t63.5 49t77.5 17z" />
    <glyph glyph-name="colon.aalt" horiz-adv-x="263" 
d="M131 628q23 0 50.5 -12t47 -41.5t19.5 -63.5q0 -50 -33 -83t-84 -33q-50 0 -83 33t-33 83q0 22 11 49t40 47.5t65 20.5zM131 337q23 0 50.5 -12t47 -41.5t19.5 -63.5q0 -50 -33 -83t-84 -33q-50 0 -83 33t-33 83q0 22 11 49t40 47.5t65 20.5z" />
    <glyph glyph-name="exclamdown.aalt" horiz-adv-x="315" 
d="M164 544q-23 0 -50.5 11.5t-46.5 39.5t-19 60q0 22 11 48t39.5 44.5t65.5 18.5t66 -18.5t40 -44.5t11 -48q0 -21 -11 -46.5t-40.5 -45t-65.5 -19.5zM35 31l20 459h205l20 -459v-31h-245v31z" />
    <glyph glyph-name="questiondown.aalt" horiz-adv-x="560" 
d="M291 542q-23 0 -50.5 11.5t-47 39.5t-19.5 60q0 22 11 48t40 44.5t66 18.5t65.5 -18.5t39.5 -44.5t11 -48q0 -21 -11 -46.5t-40 -45t-65 -19.5zM328 221l217 -44q-9 -40 -31.5 -75.5t-56.5 -62t-81 -41.5t-102 -15q-58 0 -106 16.5t-81 45.5t-50 68t-17 82
q0 69 42.5 117.5t117.5 70.5v105h215l-1 -234h-88q-31 0 -49.5 -12t-18.5 -33q0 -17 12 -29t30 -12q19 0 32.5 14.5t15.5 38.5z" />
    <glyph glyph-name="semicolon.aalt" horiz-adv-x="300" 
d="M168 628q23 0 50.5 -12t47 -41.5t19.5 -63.5q0 -50 -33 -83t-84 -33q-50 0 -83 33t-33 83q0 22 11 49t40 47.5t65 20.5zM155 -132h-165l57 328h227v-5z" />
    <glyph glyph-name="slash.case" horiz-adv-x="488" 
d="M202 0h-171l255 760h171z" />
    <glyph glyph-name="braceleft.aalt" horiz-adv-x="414" 
d="M290 570v-78q0 -40 -13 -71.5t-39 -46.5q26 -15 39 -46.5t13 -72.5v-65q0 -10 8 -17t19 -7h67v-166h-155q-58 0 -94 41.5t-36 109.5v74q0 18 -8.5 35.5t-31.5 23.5l-39 10v161l39 9q18 5 29 19t11 39v87q0 67 36 109t94 42h155v-166h-67q-11 0 -19 -7t-8 -17z" />
    <glyph glyph-name="braceright.aalt" horiz-adv-x="399" 
d="M379 455v-161l-39 -10q-18 -5 -29 -19.5t-11 -39.5v-74q0 -68 -36 -109.5t-94 -41.5h-155v166h67q11 0 19 7t8 17v65q0 41 13 72.5t39 46.5q-26 15 -39 46.5t-13 71.5v78q0 10 -8 17t-19 7h-67v166h155q58 0 94 -42t36 -109v-87q0 -18 8.5 -35t31.5 -23z" />
    <glyph glyph-name="bracketleft.aalt" horiz-adv-x="435" 
d="M241 594v-428h164v-166h-355v760h355v-166h-164z" />
    <glyph glyph-name="bracketright.aalt" horiz-adv-x="420" 
d="M370 760v-760h-355v166h164v428h-164v166h355z" />
    <glyph glyph-name="parenleft.aalt" horiz-adv-x="377" 
d="M247 379q0 -56 12.5 -99.5t31 -76.5t61.5 -95l-141 -126q-112 124 -149 214t-37 183t37 183t149 214l133 -127q-5 -7 -25.5 -40.5t-35 -62.5t-22.5 -59.5t-11 -57t-3 -50.5z" />
    <glyph glyph-name="parenright.aalt" horiz-adv-x="377" 
d="M33 649l133 127q112 -124 149 -214t37 -183t-37 -183t-149 -214l-141 126q43 62 61.5 95t28 66.5t12.5 60.5t3 49q0 56 -11 97t-25.5 70t-35 62.5t-25.5 40.5z" />
    <glyph glyph-name="emdash.aalt" horiz-adv-x="1250" 
d="M1190 290h-1130v170h1130v-170z" />
    <glyph glyph-name="endash.aalt" horiz-adv-x="620" 
d="M560 290h-500v170h500v-170z" />
    <glyph glyph-name="hyphen.aalt" horiz-adv-x="458" 
d="M398 287h-338v176h338v-176z" />
    <glyph glyph-name="guillemotleft.aalt" horiz-adv-x="572" 
d="M25 382l92 178h190l-92 -178l92 -178h-190zM265 382l92 178h190l-92 -178l92 -178h-190z" />
    <glyph glyph-name="guillemotright.aalt" horiz-adv-x="572" 
d="M25 204l92 178l-92 178h190l92 -178l-92 -178h-190zM265 204l92 178l-92 178h190l92 -178l-92 -178h-190z" />
    <glyph glyph-name="guilsinglleft.aalt" horiz-adv-x="332" 
d="M25 382l92 178h190l-92 -178l92 -178h-190z" />
    <glyph glyph-name="guilsinglright.aalt" horiz-adv-x="332" 
d="M25 204l92 178l-92 178h190l92 -178l-92 -178h-190z" />
    <glyph glyph-name="cent.aalt" 
d="M415 233l196 -34q-9 -70 -55.5 -122.5t-114.5 -75.5v-121h-196v120q-84 26 -137 94t-53 160t53 160t137 94v122h196v-123q67 -22 113.5 -74t55.5 -121l-195 -36q-5 32 -25 51t-48 19q-17 0 -36 -9.5t-32 -32.5t-13 -50q0 -17 7.5 -38.5t27.5 -37.5t46 -16q28 0 48 19
t25 52z" />
    <glyph glyph-name="dollar.aalt" 
d="M651 235q0 -60 -23 -106t-65.5 -79t-104.5 -50v-156h-197v148q-99 19 -165.5 80.5t-78.5 148.5l223 46q21 -95 105 -95q31 0 50.5 13t19.5 34q0 36 -42 49l-137 41q-100 30 -147.5 81.5t-47.5 135.5q0 35 9.5 71.5t33.5 69t62.5 58t94.5 38.5v131h197v-130
q84 -19 139 -72.5t69 -136.5l-213 -43q-19 86 -95 86q-27 0 -44.5 -13t-17.5 -34q0 -18 10 -30t24 -17l134 -45q107 -36 157 -86.5t50 -137.5z" />
    <glyph glyph-name="Euro.aalt" 
d="M431 325l213 -40q-6 -63 -29 -118.5t-61 -96t-89.5 -63t-110.5 -22.5q-53 0 -100 19t-84 54t-63 85.5t-39 111.5h-48v97h37l-1 28v25h-36v97h48q26 126 102 199.5t184 73.5q59 0 111 -22.5t90 -63.5t61 -97t27 -119l-209 -39q-15 160 -80 160q-54 0 -72 -92h105l-15 -97
h-100v-25v-28h96l-16 -97h-70q20 -90 72 -90q66 0 77 160z" />
    <glyph glyph-name="florin.aalt" 
d="M528 598q-22 0 -37 -13t-19 -34l-23 -121h98v-167h-129l-43 -232q-17 -90 -77 -143t-148 -53q-35 0 -63 8.5t-64 32.5l57 151q33 -13 47 -13q13 0 23 10t13 26l40 213h-84v167h115l26 140q6 34 23 69.5t47 65.5t75 50t102 20q34 0 72 -9.5t66 -24.5l-63 -158
q-31 15 -54 15z" />
    <glyph glyph-name="sterling.aalt" 
d="M638 182v-182h-595v142l62 20v98h-62v167h62v103q0 54 19 99.5t54 78t84.5 50t107.5 17.5q54 0 101 -17t82 -48.5t55 -74t23 -90.5l-203 -39q-6 81 -58 81q-24 0 -38.5 -15.5t-14.5 -41.5v-103h194v-167h-194v-78h321z" />
    <glyph glyph-name="yen.aalt" 
d="M483 356h106v-111h-149v-45h149v-111h-149v-89h-221v89h-138v111h138v45h-138v111h97l-164 404h226l90 -299l89 299h236z" />
    <glyph glyph-name="approxequal.aalt" 
d="M583 468v-145q-21 -10 -52.5 -17t-60.5 -7q-57 0 -121.5 24t-90.5 27.5t-44 3.5q-29 0 -67 -8t-60 -21v140q22 16 59 25t68 9q18 0 45 -3.5t79 -22.5t79.5 -24t54.5 -5q26 0 58.5 7t52.5 17zM583 288v-145q-21 -10 -52.5 -17t-60.5 -7q-57 0 -121.5 24t-90.5 27.5
t-44 3.5q-29 0 -67 -8t-60 -21v140q22 16 59 25t68 9q18 0 45 -3.5t79 -22.5t79.5 -24t54.5 -5q26 0 58.5 7t52.5 17z" />
    <glyph glyph-name="divide.aalt" 
d="M335 574q34 0 58 -25t24 -57q0 -34 -23.5 -57.5t-58.5 -23.5t-58.5 23.5t-23.5 57.5q0 15 8 34t28 33.5t46 14.5zM585 220h-500v160h500v-160zM335 190q34 0 58 -25t24 -57q0 -34 -23.5 -57.5t-58.5 -23.5t-58.5 23.5t-23.5 57.5q0 15 8 34t28 33.5t46 14.5z" />
    <glyph glyph-name="equal.aalt" 
d="M585 328h-500v150h500v-150zM585 130h-500v150h500v-150z" />
    <glyph glyph-name="greater.aalt" 
d="M363 325l-233 53v182l434 -143v-185l-434 -143v182z" />
    <glyph glyph-name="greaterequal.aalt" 
d="M377 422l-261 37v160l443 -100v-194l-443 -99v157zM560 45h-444v160h444v-160z" />
    <glyph glyph-name="less.aalt" 
d="M530 89l-434 143v185l434 143v-182l-233 -53l233 -54v-182z" />
    <glyph glyph-name="lessequal.aalt" 
d="M554 226l-443 99v194l443 100v-160l-261 -37l261 -39v-157zM554 205v-160h-444v160h444z" />
    <glyph glyph-name="minus.aalt" 
d="M585 220h-500v160h500v-160z" />
    <glyph glyph-name="multiply.aalt" 
d="M446 300l128 -127l-111 -111l-128 127l-128 -127l-111 111l128 127l-128 127l111 111l128 -127l128 127l111 -111z" />
    <glyph glyph-name="notequal.aalt" 
d="M421 328l-26 -48h190v-150h-271l-51 -95h-136l51 95h-93v150h174l26 48h-200v150h281l42 77h136l-42 -77h83v-150h-164z" />
    <glyph glyph-name="plus.aalt" 
d="M585 220h-170v-170h-160v170h-170v160h170v170h160v-170h170v-160z" />
    <glyph glyph-name="plusminus.aalt" 
d="M585 500v-160h-170v-130h-160v130h-170v160h170v150h160v-150h170zM85 160h500v-160h-500v160z" />
    <glyph glyph-name="bar.aalt" horiz-adv-x="291" 
d="M241 0h-191v760h191v-760z" />
    <glyph glyph-name="at.aalt" horiz-adv-x="999" 
d="M741 584v-311q0 -21 12.5 -32t32.5 -11q14 0 26 8.5t22 25.5t20 54.5t10 89.5q0 74 -27 137.5t-75 107.5t-112.5 68t-136.5 24q-78 0 -147.5 -28t-121 -79t-80 -121t-28.5 -150q0 -79 28 -147.5t78.5 -117.5t120 -76t148.5 -27q72 0 133 22.5t123 70.5l48 -76
q-124 -105 -303 -105q-129 0 -237 54t-171.5 159t-63.5 239q0 47 12 108t44.5 121.5t80.5 108t109 79t121 43t106 11.5q127 0 231.5 -57.5t159.5 -155t55 -213.5q0 -48 -11 -95t-36 -86t-69 -63t-106 -24q-49 0 -87 18t-56 57q-23 -35 -60 -53.5t-84 -18.5q-42 0 -79.5 15.5
t-65.5 45t-43.5 72t-15.5 94.5q0 38 10.5 77.5t39 76.5t71 54.5t84.5 17.5q81 0 129 -53v41h161zM504 284q32 0 54 25t22 63q0 18 -7.5 38.5t-26.5 34t-42 13.5q-15 0 -33 -8t-31 -29t-13 -49q0 -38 22.5 -63t54.5 -25z" />
    <glyph glyph-name="glyph550" horiz-adv-x="600" 
d="M349 450h-138v200h185z" />
    </font>
</defs>
</svg>
