<?xml version="1.0" standalone="no"?>
<!DOCTYPE svg PUBLIC "-//W3C//DTD SVG 1.1//EN" "http://www.w3.org/Graphics/SVG/1.1/DTD/svg11.dtd" >
<svg>
<metadata>
Created by FontForge 20120731 at Thu Jul 11 04:14:43 2019
 By www
Copyright (c) 2014 by Rene' Bieder. All rights reserved.
</metadata>
<defs>
<font id="GalanoClassicAltW00-Thin" horiz-adv-x="670" >
  <font-face 
    font-family="GalanoClassicAltW00-Thin"
    font-weight="200"
    font-stretch="normal"
    units-per-em="1000"
    panose-1="1 0 0 0 0 0 0 0 0 0"
    ascent="800"
    descent="-200"
    x-height="486"
    cap-height="760"
    bbox="-170 -310 3046 1017"
    underline-thickness="50"
    underline-position="-75"
    unicode-range="U+0020-FB02"
  />
<missing-glyph horiz-adv-x="892" 
d="M446 767q77 0 148 -29t117.5 -74.5t73.5 -95.5t37 -100t10 -89q0 -81 -30 -152.5t-83.5 -124t-124.5 -81t-148 -28.5t-148 28.5t-124.5 81t-83.5 124t-30 152.5q0 39 10 89t37 100t73.5 95.5t117.5 74.5t148 29zM446 748q-73 0 -140 -27t-117.5 -77t-79 -118t-28.5 -146
q0 -77 28.5 -145t79 -117.5t117.5 -77t140 -27.5t140 27.5t117.5 77t79 117.5t28.5 145q0 78 -28.5 146t-79 118t-117.5 77t-140 27zM589 454q0 -54 -39.5 -90t-96.5 -40v-62h-22v85h12q52 0 87.5 29.5t35.5 77.5q0 23 -10.5 48t-39.5 42t-68 17q-56 0 -89 -35t-31 -91
l-23 2q-1 65 39 105t104 40q60 0 100.5 -35t40.5 -93zM443 209q7 0 13 -5.5t6 -12.5q0 -8 -6.5 -14.5t-12.5 -6.5q-8 0 -14.5 6.5t-6.5 14.5q0 7 6.5 12.5t14.5 5.5z" />
    <glyph glyph-name="uniFB01" unicode="fi" horiz-adv-x="570" 
d="M469 486v-486h-21v466h-312v-466h-21v466h-115v20h115v131q0 90 49.5 141.5t132.5 51.5q46 0 85.5 -17t77.5 -51l-12 -16q-69 64 -151 64q-73 0 -117 -46t-44 -127v-131h333z" />
    <glyph glyph-name="uniFB02" unicode="fl" horiz-adv-x="637" 
d="M598 28l9 -17q-30 -21 -67 -21q-21 0 -45.5 9.5t-40.5 34.5t-16 59v373h-302v-466h-21v466h-115v20h115v131q0 90 49.5 141.5t132.5 51.5q77 0 141 -50v40h21v-57l1 -1l-1 -1v-648q0 -37 23 -60t60 -23q31 0 56 18zM438 486v249q-63 55 -141 55q-73 0 -117 -46t-44 -127
v-131h302z" />
    <glyph glyph-name="f_f.liga" unicode="ff" horiz-adv-x="683" 
d="M693 466h-237v-466h-21v466h-299v-466h-21v466h-115v20h115v131q0 90 49.5 141.5t132.5 51.5q85 0 157 -63q17 32 48.5 50t73.5 18q38 0 72 -16l-9 -18q-28 14 -62 14q-56 0 -88.5 -37t-32.5 -96v-176h237v-20zM435 486v176q0 36 11 66q-33 30 -69 46t-80 16
q-73 0 -117 -46t-44 -127v-131h299z" />
    <glyph glyph-name="f_f_i.liga" unicode="ffi" horiz-adv-x="876" 
d="M775 486v-486h-21v466h-312v-466h-21v466h-285v-466h-21v466h-115v20h115v131q0 90 49.5 141.5t132.5 51.5q87 0 161 -66q24 32 61.5 49t83.5 17t85.5 -17t77.5 -51l-12 -16q-69 64 -151 64q-73 0 -117 -46t-44 -127v-131h333zM421 486v131q0 64 26 110
q-33 30 -69.5 46.5t-80.5 16.5q-73 0 -117 -46t-44 -127v-131h285z" />
    <glyph glyph-name="f_f_l.liga" unicode="ffl" horiz-adv-x="943" 
d="M904 28l9 -17q-30 -21 -67 -21q-21 0 -45.5 9.5t-40.5 34.5t-16 59v373h-302v-466h-21v466h-285v-466h-21v466h-115v20h115v131q0 90 49.5 141.5t132.5 51.5q87 0 161 -66q24 32 61.5 49t83.5 17q77 0 141 -50v40h21v-57l1 -1l-1 -1v-648q0 -37 23 -60t60 -23q31 0 56 18
zM421 486v131q0 64 26 110q-33 30 -69.5 46.5t-80.5 16.5q-73 0 -117 -46t-44 -127v-131h285zM744 486v249q-63 55 -141 55q-73 0 -117 -46t-44 -127v-131h302z" />
    <glyph glyph-name=".notdef" horiz-adv-x="892" 
d="M446 767q77 0 148 -29t117.5 -74.5t73.5 -95.5t37 -100t10 -89q0 -81 -30 -152.5t-83.5 -124t-124.5 -81t-148 -28.5t-148 28.5t-124.5 81t-83.5 124t-30 152.5q0 39 10 89t37 100t73.5 95.5t117.5 74.5t148 29zM446 748q-73 0 -140 -27t-117.5 -77t-79 -118t-28.5 -146
q0 -77 28.5 -145t79 -117.5t117.5 -77t140 -27.5t140 27.5t117.5 77t79 117.5t28.5 145q0 78 -28.5 146t-79 118t-117.5 77t-140 27zM589 454q0 -54 -39.5 -90t-96.5 -40v-62h-22v85h12q52 0 87.5 29.5t35.5 77.5q0 23 -10.5 48t-39.5 42t-68 17q-56 0 -89 -35t-31 -91
l-23 2q-1 65 39 105t104 40q60 0 100.5 -35t40.5 -93zM443 209q7 0 13 -5.5t6 -12.5q0 -8 -6.5 -14.5t-12.5 -6.5q-8 0 -14.5 6.5t-6.5 14.5q0 7 6.5 12.5t14.5 5.5z" />
    <glyph glyph-name=".null" horiz-adv-x="0" 
 />
    <glyph glyph-name="nonmarkingreturn" horiz-adv-x="333" 
 />
    <glyph glyph-name="space" unicode=" " horiz-adv-x="260" 
 />
    <glyph glyph-name="exclam" unicode="!" horiz-adv-x="250" 
d="M136 760v-560h-21v560h21zM125 46q10 0 17.5 -7.5t7.5 -16.5q0 -10 -7.5 -17t-17.5 -7t-17.5 7t-7.5 17q0 9 7.5 16.5t17.5 7.5z" />
    <glyph glyph-name="quotedbl" unicode="&#x22;" horiz-adv-x="251" 
d="M60 502v258h21v-258h-21zM170 502v258h21v-258h-21z" />
    <glyph glyph-name="numbersign" unicode="#" horiz-adv-x="665" 
d="M510 514l-64 -279h110l-5 -21h-110l-49 -214h-22l49 214h-247l-49 -214h-22l49 214h-110l5 21h110l64 279h-111l6 21h109l52 225h22l-52 -225h247l52 225h22l-52 -225h111l-6 -21h-109zM488 514h-247l-64 -279h247z" />
    <glyph glyph-name="dollar" unicode="$" horiz-adv-x="642" 
d="M584 187q0 -52 -25.5 -94.5t-77 -71.5t-127.5 -32v-145h-26v145q-110 4 -184 65.5t-86 159.5l24 6q4 -47 25 -86.5t55.5 -67t81 -42.5t98.5 -15q98 0 158.5 49.5t60.5 128.5q0 112 -138 156l-172 55q-92 29 -128.5 71t-36.5 104q0 31 10.5 64.5t37 62t70 48.5t104.5 22
v124h24v-124q97 -4 160.5 -58t79.5 -140l-21 -7q-17 86 -79 135t-154 49q-34 0 -70 -8.5t-66.5 -29t-51.5 -55.5t-21 -84q0 -53 30 -90t126 -66l161 -50q158 -49 158 -179z" />
    <glyph glyph-name="percent" unicode="%" horiz-adv-x="860" 
d="M221 770q48 0 85 -22t56.5 -56.5t19.5 -78.5q0 -41 -19.5 -75t-56.5 -57t-85 -23q-47 0 -84 23t-57 57t-20 75q0 35 16.5 71.5t57 61t87.5 24.5zM154 0l511 760h23l-511 -760h-23zM221 753q-20 0 -43 -6.5t-45 -23t-38.5 -44.5t-16.5 -66q0 -22 8 -45.5t28.5 -45.5
t51 -33.5t55.5 -11.5q40 0 76.5 22t51 53.5t14.5 60.5q0 38 -17.5 69t-50.5 51t-74 20zM639 302q48 0 85 -22t56.5 -56.5t19.5 -78.5q0 -41 -19.5 -75t-56.5 -57t-85 -23q-47 0 -84 23t-57 57t-20 75q0 35 16.5 71.5t57 61t87.5 24.5zM639 285q-20 0 -43 -6.5t-45 -23
t-38.5 -44.5t-16.5 -66q0 -22 8 -45.5t28.5 -45.5t51 -33.5t55.5 -11.5q40 0 76.5 22t51 53.5t14.5 60.5q0 38 -17.5 69t-50.5 51t-74 20z" />
    <glyph glyph-name="ampersand" unicode="&#x26;" horiz-adv-x="782" 
d="M740 -11l-157 129q-31 -45 -78 -76t-94 -41.5t-83 -10.5q-55 0 -101.5 15t-80 42.5t-51.5 66.5t-18 86q0 48 18.5 89.5t53.5 76t83 56.5q-36 42 -52.5 80.5t-16.5 79.5q0 84 53 136t137 52q58 0 99 -24t65 -63.5t30 -94.5l-19 -6q-6 53 -27.5 90t-58.5 58t-90 21
q-74 0 -121 -47t-47 -120q0 -65 43.5 -127t182.5 -175l168 -136q47 81 47 188v40h20v-40q0 -117 -52 -201l159 -129zM328 9q73 0 136 31.5t103 89.5l-169 139q-104 85 -152 137q-70 -31 -109.5 -84.5t-39.5 -121.5q0 -31 11 -64t42 -64.5t79.5 -47t98.5 -15.5z" />
    <glyph glyph-name="quotesingle" unicode="'" horiz-adv-x="141" 
d="M60 502v258h21v-258h-21z" />
    <glyph glyph-name="parenleft" unicode="(" horiz-adv-x="339" 
d="M255 840l14 -15q-95 -99 -136 -210.5t-41 -240.5q0 -56 9 -116t27 -110.5t49.5 -106t91.5 -119.5l-14 -14q-62 65 -102.5 135.5t-61.5 151.5t-21 179t21 179t61.5 152t102.5 135z" />
    <glyph glyph-name="parenright" unicode=")" horiz-adv-x="339" 
d="M70 825l14 15q62 -64 102.5 -135t61.5 -152t21 -179t-21 -179t-61.5 -151.5t-102.5 -135.5l-14 14q36 38 69.5 85.5t60.5 111t37 131.5t10 124q0 129 -41 240.5t-136 210.5z" />
    <glyph glyph-name="asterisk" unicode="*" horiz-adv-x="387" 
d="M205 593l133 -76l-11 -17l-133 75v-151h-20v151l-133 -75l-11 17l133 76l-133 75l11 17l133 -75v150h20v-150l133 75l11 -17z" />
    <glyph glyph-name="plus" unicode="+" horiz-adv-x="580" 
d="M500 295h-200v-200h-20v200h-200v20h200v200h20v-200h200v-20z" />
    <glyph glyph-name="comma" unicode="," horiz-adv-x="168" 
d="M40 -132h-20l72 258h28v-2z" />
    <glyph glyph-name="hyphen" unicode="-" horiz-adv-x="438" 
d="M378 245h-318v20h318v-20z" />
    <glyph glyph-name="period" unicode="." horiz-adv-x="170" 
d="M85 46q10 0 17.5 -7.5t7.5 -16.5q0 -10 -7.5 -17t-17.5 -7t-17.5 7t-7.5 17q0 9 7.5 16.5t17.5 7.5z" />
    <glyph glyph-name="slash" unicode="/" horiz-adv-x="318" 
d="M313 830l-288 -911h-20l288 911h20z" />
    <glyph glyph-name="zero" unicode="0" horiz-adv-x="889" 
d="M445 770q76 0 145 -30t120 -83.5t80 -126t29 -151.5t-29 -151t-80 -125.5t-120 -83t-145 -29.5t-145 29.5t-120.5 83t-80.5 125.5t-29 151q0 80 29 152t80.5 125.5t120.5 83.5t145 30zM445 10q72 0 136.5 28.5t113 79t75.5 118.5t27 143t-27 143.5t-75.5 119.5
t-113.5 79.5t-136 28.5q-72 0 -137 -28.5t-113.5 -79.5t-75.5 -119.5t-27 -143.5t27 -143t75.5 -118.5t113.5 -79t137 -28.5z" />
    <glyph glyph-name="one" unicode="1" horiz-adv-x="426" 
d="M286 760v-760h-22v730l-224 -90v22l240 98h6z" />
    <glyph glyph-name="two" unicode="2" horiz-adv-x="586" 
d="M536 20v-20h-486v13l265 252q95 90 125 131t42 76.5t12 74.5q0 33 -10.5 68.5t-35.5 65t-66 49.5t-97 20q-97 0 -156.5 -63t-60.5 -162l-23 3q1 53 19 98t49.5 77t75.5 49.5t96 17.5q49 0 91.5 -15.5t73.5 -45t48 -71.5t17 -91q0 -21 -4.5 -48t-17 -55.5t-40.5 -66.5
t-123 -128l-242 -229h448z" />
    <glyph glyph-name="three" unicode="3" horiz-adv-x="654" 
d="M287 465h63q38 0 80 -11.5t82.5 -43t61 -79.5t20.5 -98q0 -51 -19 -96.5t-54.5 -78.5t-84.5 -51t-105 -18t-104.5 18.5t-83 52t-53.5 81.5t-20 104l22 4q0 -53 17.5 -97.5t49.5 -76.5t76.5 -49t96.5 -17q51 0 96 16.5t77.5 47t50 72t17.5 88.5q0 45 -16.5 84.5t-46.5 68
t-71.5 44t-89.5 15.5h-99l-3 8l306 287h-450v20h486v-11z" />
    <glyph glyph-name="four" unicode="4" horiz-adv-x="753" 
d="M738 164h-180v-164h-22v164h-496v13l504 583h14v-576h180v-20zM536 184v533l-461 -533h461z" />
    <glyph glyph-name="five" unicode="5" horiz-adv-x="644" 
d="M138 465h207q38 0 80 -11.5t82.5 -43t61 -79.5t20.5 -98q0 -51 -19 -96.5t-54.5 -78.5t-84.5 -51t-105 -18t-104.5 18.5t-83 52t-53.5 81.5t-20 104l22 4q0 -53 17.5 -97.5t49.5 -76.5t76.5 -49t96.5 -17q51 0 96 16.5t77.5 47t50 72t17.5 88.5q0 45 -16.5 84.5t-46.5 68
t-71.5 44t-89.5 15.5h-230l53 315h402v-20h-382z" />
    <glyph glyph-name="six" unicode="6" horiz-adv-x="685" 
d="M342 516q57 0 107.5 -19.5t87.5 -55t57.5 -84t20.5 -103.5t-20.5 -104t-57.5 -84.5t-87.5 -55.5t-107.5 -20t-107 20t-87 55.5t-57.5 84.5t-20.5 104q0 50 17 95t48 80l269 331h28l-223 -275q27 14 63 22.5t70 8.5zM342 11q25 0 57 6t64.5 22.5t62 45.5t48.5 73.5
t19 95.5q0 38 -12.5 79t-47 81.5t-87 61t-104.5 20.5t-98 -18t-80 -50.5t-53 -77.5t-19 -96q0 -24 6 -55t23 -62.5t47 -60t76 -47t98 -18.5z" />
    <glyph glyph-name="seven" unicode="7" horiz-adv-x="566" 
d="M551 760v-11l-359 -749h-28l359 740h-493v20h521z" />
    <glyph glyph-name="eight" unicode="8" horiz-adv-x="609" 
d="M360 393q89 -16 139 -67.5t50 -131.5q0 -33 -11.5 -68.5t-44 -69t-83.5 -50t-105 -16.5q-110 0 -177.5 56.5t-67.5 148.5q0 51 21.5 91t62.5 67t104 39q-42 7 -80.5 30.5t-59.5 66t-21 88.5q0 31 11.5 64.5t38.5 62t69.5 47.5t97.5 19q44 0 84 -14t70 -39.5t47 -61.5
t17 -77q0 -26 -8 -56t-27 -56.5t-51 -46t-76 -26.5zM109 578q-1 -44 21 -85t69.5 -63.5t105.5 -22.5q59 0 101.5 20.5t68 58.5t25.5 90q0 29 -10.5 59t-35 55t-62.5 41.5t-87 16.5q-37 0 -68 -10t-57 -27.5t-48 -51t-23 -81.5zM305 12q98 0 159 50.5t61 130.5q0 38 -15 72
t-43 59.5t-69.5 39.5t-91.5 14q-100 0 -161 -52.5t-61 -132.5t61 -130.5t160 -50.5z" />
    <glyph glyph-name="nine" unicode="9" horiz-adv-x="665" 
d="M615 506q0 -50 -17 -95t-48 -80l-269 -331h-28l223 275q-27 -14 -63 -22.5t-70 -8.5q-57 0 -107.5 19.5t-87.5 55t-57.5 84t-20.5 103.5t20.5 104t57.5 84.5t87.5 55.5t107.5 20t107 -20t87 -55.5t57.5 -84.5t20.5 -104zM92 506q0 -38 12.5 -79t47 -81.5t87 -61
t104.5 -20.5t98 18t80 50.5t53 77.5t19 96q0 24 -6 55t-23 62.5t-47 60t-76 47t-98 18.5q-25 0 -57 -6t-64.5 -22.5t-62 -45.5t-48.5 -73.5t-19 -95.5z" />
    <glyph glyph-name="colon" unicode=":" horiz-adv-x="170" 
d="M85 438q10 0 17.5 -7.5t7.5 -16.5q0 -10 -7.5 -17t-17.5 -7t-17.5 7t-7.5 17q0 9 7.5 16.5t17.5 7.5zM85 46q10 0 17.5 -7.5t7.5 -16.5q0 -10 -7.5 -17t-17.5 -7t-17.5 7t-7.5 17q0 9 7.5 16.5t17.5 7.5z" />
    <glyph glyph-name="semicolon" unicode=";" horiz-adv-x="192" 
d="M107 438q10 0 17.5 -7.5t7.5 -16.5q0 -10 -7.5 -17t-17.5 -7t-17.5 7t-7.5 17q0 9 7.5 16.5t17.5 7.5zM40 -132h-20l72 258h28v-2z" />
    <glyph glyph-name="less" unicode="&#x3c;" horiz-adv-x="424" 
d="M384 122l-354 177v12l354 177v-23l-322 -160l322 -160v-23z" />
    <glyph glyph-name="equal" unicode="=" horiz-adv-x="580" 
d="M500 395h-420v20h420v-20zM500 215h-420v20h420v-20z" />
    <glyph glyph-name="greater" unicode="&#x3e;" horiz-adv-x="424" 
d="M362 305l-322 160v23l354 -177v-12l-354 -177v23z" />
    <glyph glyph-name="question" unicode="?" horiz-adv-x="510" 
d="M257 770q59 0 110 -24.5t77 -72.5t26 -103q0 -53 -25 -96.5t-73 -73t-114 -32.5v-168h-22v188h11q40 0 77 13t65 37.5t44 58.5t16 73q0 81 -53 130.5t-139 49.5q-87 0 -141 -55.5t-54 -144.5l-22 3q0 97 60 157t157 60zM247 46q10 0 17.5 -7.5t7.5 -16.5q0 -10 -7.5 -17
t-17.5 -7t-17.5 7t-7.5 17q0 9 7.5 16.5t17.5 7.5z" />
    <glyph glyph-name="at" unicode="@" horiz-adv-x="1065" 
d="M534 770q118 0 221.5 -52.5t166.5 -155.5t63 -233q0 -75 -19.5 -131.5t-55 -87.5t-86.5 -31q-25 0 -53.5 10t-47.5 36.5t-19 62.5v29q-12 -28 -37 -58.5t-67 -50.5t-89 -20q-44 0 -83.5 16.5t-69.5 46.5t-47 73t-17 92q0 37 11 76.5t41.5 77.5t75.5 57t89 19
q65 0 116.5 -35t76.5 -95v118h21v-348q0 -39 27 -64t70 -25q35 0 62 19t45 53t26 77t8 84q0 67 -22 139t-74.5 134t-117 95t-119 43t-96.5 10q-90 0 -170 -32t-138.5 -90t-91 -137.5t-32.5 -168.5q0 -90 32.5 -169.5t89.5 -138t133 -90.5t159 -32q64 0 138.5 18.5
t121.5 48.5l12 -19q-24 -15 -66.5 -31.5t-99.5 -27t-105 -10.5q-112 0 -212.5 54t-162.5 159t-62 237q0 120 55 222.5t161 164t238 61.5zM512 106q39 0 74 15t61.5 43t41.5 67.5t15 85.5q0 34 -10 70t-33.5 66.5t-61.5 51t-87 20.5q-40 0 -76 -14.5t-63 -42t-42.5 -66.5
t-15.5 -85q0 -57 26 -108t73.5 -77t97.5 -26z" />
    <glyph glyph-name="A" unicode="A" horiz-adv-x="768" 
d="M748 0h-23l-100 214h-482l-100 -214h-23l355 760h18zM616 234l-232 494l-231 -494h463z" />
    <glyph glyph-name="B" unicode="B" horiz-adv-x="757" 
d="M497 433q89 -18 139.5 -74.5t50.5 -139.5q0 -97 -68.5 -158t-178.5 -61h-335v760h295q98 0 152.5 -46.5t54.5 -125.5q0 -55 -28 -96.5t-82 -58.5zM127 740v-300h293q77 0 121 40.5t44 107.5q0 70 -48.5 111t-136.5 41h-273zM127 20h313q101 0 163 55.5t62 143.5
q0 91 -67 146t-178 55h-293v-400z" />
    <glyph glyph-name="C" unicode="C" horiz-adv-x="894" 
d="M456 9q64 0 120.5 19t101.5 53.5t76.5 82.5t48.5 104l21 -6q-18 -59 -52 -109.5t-81.5 -87t-107.5 -56.5t-127 -20q-79 0 -150 30t-124 83.5t-82.5 125.5t-29.5 151q0 80 29.5 152t82.5 125.5t124 83.5t150 30q67 0 127 -20t107.5 -56.5t81.5 -87t52 -110.5l-21 -6
q-17 56 -48.5 104t-76.5 83t-101.5 54t-120.5 19q-74 0 -141.5 -28.5t-117 -79.5t-77.5 -119.5t-28 -143.5t28 -143t77.5 -119t117 -79.5t141.5 -28.5z" />
    <glyph glyph-name="D" unicode="D" horiz-adv-x="856" 
d="M105 760h254q93 0 172.5 -27t136.5 -77.5t87.5 -121.5t30.5 -154t-30.5 -154t-87.5 -121.5t-136.5 -77.5t-172.5 -27h-254v760zM127 20h230q89 0 165 26t130 73.5t83 114.5t29 146t-29 146t-83 114.5t-130 73.5t-165 26h-230v-720z" />
    <glyph glyph-name="E" unicode="E" horiz-adv-x="690" 
d="M127 740v-350h475v-20h-475v-350h498v-20h-520v760h520v-20h-498z" />
    <glyph glyph-name="F" unicode="F" horiz-adv-x="645" 
d="M127 740v-350h477v-20h-477v-370h-22v760h510v-20h-488z" />
    <glyph glyph-name="G" unicode="G" horiz-adv-x="913" 
d="M805 292v-292h-22v205q-40 -108 -125.5 -162t-200.5 -54q-79 0 -150 30t-124.5 83.5t-83 125.5t-29.5 151q0 80 29.5 152t82.5 125.5t124 83.5t149 30q64 0 123.5 -20t108 -57t83.5 -88t53 -110l-21 -6q-16 56 -49 104t-79 83.5t-102 54.5t-117 19q-74 0 -141 -28.5
t-116.5 -79.5t-77.5 -119.5t-28 -143.5t28 -143.5t78 -119t117.5 -79t141.5 -28.5q89 0 154.5 32.5t108.5 90t63 140.5h-435v20h457z" />
    <glyph glyph-name="H" unicode="H" horiz-adv-x="789" 
d="M684 760v-760h-22v370h-535v-370h-22v760h22v-370h535v370h22z" />
    <glyph glyph-name="I" unicode="I" horiz-adv-x="542" 
d="M282 740v-720h210v-20h-442v20h210v720h-210v20h442v-20h-210z" />
    <glyph glyph-name="J" unicode="J" horiz-adv-x="714" 
d="M619 760v-437q0 -73 -21.5 -135.5t-61 -106.5t-95.5 -68t-121 -24q-41 0 -85 11.5t-84.5 39.5t-72.5 76t-46 117l21 7q21 -106 92 -168t175 -62q45 0 92.5 15t88 51.5t61.5 83.5t27.5 88.5t6.5 74.5v417h-399v20h422z" />
    <glyph glyph-name="K" unicode="K" horiz-adv-x="828" 
d="M778 0h-28l-334 370l-289 -370h-22v760h22v-725l564 725h29l-291 -373z" />
    <glyph glyph-name="L" unicode="L" horiz-adv-x="610" 
d="M580 20v-20h-475v760h22v-740h453z" />
    <glyph glyph-name="M" unicode="M" horiz-adv-x="1039" 
d="M934 760v-760h-21v721l-386 -598h-14l-387 598v-721h-21v760h21l394 -607l393 607h21z" />
    <glyph glyph-name="N" unicode="N" horiz-adv-x="859" 
d="M754 760v-760h-22v269l-604 463l-1 -732h-22v760h23l604 -464v464h22z" />
    <glyph glyph-name="O" unicode="O" horiz-adv-x="909" 
d="M455 770q78 0 149 -30t123.5 -83.5t82 -125.5t29.5 -152q0 -79 -29.5 -151t-82 -125.5t-123.5 -83t-149 -29.5t-149 29.5t-124 83t-82.5 125t-29.5 151.5t29.5 152t82.5 125.5t124 83.5t149 30zM455 10q74 0 140.5 28.5t116.5 79t77.5 118.5t27.5 143t-28 143.5
t-77.5 119.5t-116 79.5t-140.5 28.5t-141 -28.5t-116.5 -79.5t-77.5 -119.5t-28 -143.5t28 -143t77.5 -118.5t116.5 -79t141 -28.5z" />
    <glyph glyph-name="P" unicode="P" horiz-adv-x="746" 
d="M105 760h292q65 0 122 -18.5t99 -54t65 -87t23 -114.5t-23 -114.5t-65 -87t-99 -54t-122 -18.5h-270v-212h-22v760zM127 233h270q60 0 113 17t92 49.5t60.5 80t21.5 106.5t-21.5 106.5t-60.5 80.5t-92 50t-113 17h-270v-507z" />
    <glyph glyph-name="Q" unicode="Q" horiz-adv-x="909" 
d="M832 -157l-172 205q-92 -58 -205 -58q-78 0 -149 29.5t-124 83t-82.5 125t-29.5 151.5t29.5 152t82.5 125.5t124 83.5t149 30t149 -30t123.5 -83.5t82 -125.5t29.5 -152q0 -36 -7.5 -78t-29 -90.5t-56.5 -87.5t-68 -63l171 -203zM455 10q104 0 191 54l-158 189l17 14
l160 -191q51 37 85.5 88t50.5 104t16 111q0 75 -28 143.5t-77.5 119.5t-116 79.5t-140.5 28.5t-141 -28.5t-116.5 -79.5t-77.5 -119.5t-28 -143.5t28 -143t77.5 -118.5t116.5 -79t141 -28.5z" />
    <glyph glyph-name="R" unicode="R" horiz-adv-x="776" 
d="M726 0h-35l-254 214l-42 -2h-268v-212h-22v760h290q70 0 127.5 -19.5t97.5 -55.5t61.5 -87t21.5 -112q0 -107 -63 -178.5t-173 -89.5zM127 232h268q65 0 118.5 18t91 51.5t57 81t19.5 103.5t-19.5 103.5t-57 81t-91 51.5t-118.5 18h-268v-508z" />
    <glyph glyph-name="S" unicode="S" horiz-adv-x="642" 
d="M318 770q103 0 170 -54t84 -144l-21 -7q-17 86 -79 135t-154 49q-34 0 -70 -8.5t-66.5 -29t-51.5 -55.5t-21 -84q0 -53 30 -90t126 -66l161 -50q158 -49 158 -179q0 -43 -17.5 -79.5t-50 -63t-78 -41t-98.5 -14.5q-115 0 -192.5 62t-89.5 163l24 6q4 -47 25 -86.5
t55.5 -67t81 -42.5t98.5 -15q98 0 158.5 49.5t60.5 128.5q0 112 -138 156l-172 55q-92 29 -128.5 71t-36.5 104q0 88 64 142.5t168 54.5z" />
    <glyph glyph-name="T" unicode="T" horiz-adv-x="642" 
d="M612 740h-280v-740h-22v740h-280v20h582v-20z" />
    <glyph glyph-name="U" unicode="U" horiz-adv-x="796" 
d="M701 760v-437q0 -73 -22 -135.5t-62 -106.5t-97 -68t-123 -24t-122.5 24t-96.5 68t-61.5 106.5t-21.5 135.5v437h22v-437q0 -69 20 -127.5t57 -99.5t89.5 -63.5t113.5 -22.5q46 0 94.5 15t84.5 47t57.5 69.5t33 84t11.5 97.5v437h23z" />
    <glyph glyph-name="V" unicode="V" horiz-adv-x="772" 
d="M752 760l-356 -760h-20l-356 760h23l343 -726l343 726h23z" />
    <glyph glyph-name="W" unicode="W" horiz-adv-x="1064" 
d="M1044 760l-249 -760h-19l-244 726l-244 -726h-19l-249 760h23l235 -726l243 726h22l243 -726l235 726h23z" />
    <glyph glyph-name="X" unicode="X" horiz-adv-x="732" 
d="M684 0l-318 366l-318 -366h-28l331 382l-318 378h28l305 -362l305 362h28l-319 -378l332 -382h-28z" />
    <glyph glyph-name="Y" unicode="Y" horiz-adv-x="720" 
d="M371 254v-254h-22v254l-329 506h26l314 -486l314 486h26z" />
    <glyph glyph-name="Z" unicode="Z" horiz-adv-x="746" 
d="M686 747l-584 -727h584v-20h-616v13l583 727h-566v20h599v-13z" />
    <glyph glyph-name="bracketleft" unicode="[" horiz-adv-x="377" 
d="M127 808v-880h180v-20h-202v920h202v-20h-180z" />
    <glyph glyph-name="backslash" unicode="\" horiz-adv-x="318" 
d="M313 -81h-20l-288 911h20z" />
    <glyph glyph-name="bracketright" unicode="]" horiz-adv-x="377" 
d="M272 828v-920h-202v20h180v880h-180v20h202z" />
    <glyph glyph-name="asciicircum" unicode="^" horiz-adv-x="344" 
d="M55 571h-25l135 189h14l135 -189h-25l-117 163z" />
    <glyph glyph-name="underscore" unicode="_" horiz-adv-x="470" 
d="M450 -76h-430v20h430v-20z" />
    <glyph glyph-name="grave" unicode="`" horiz-adv-x="600" 
d="M218 703l93 -136h-21l-95 136h23z" />
    <glyph glyph-name="a" unicode="a" horiz-adv-x="655" 
d="M550 486v-486h-21v138q-28 -69 -90 -108.5t-136 -39.5q-50 0 -95.5 18t-79.5 51t-53.5 80.5t-19.5 103.5t19.5 103.5t53.5 80.5t79.5 51t95.5 18q74 0 136 -39.5t90 -108.5v138h21zM303 10q32 0 69 11t76 42t60 80t21 100t-18.5 95t-50.5 74.5t-73 47t-84 16.5
q-45 0 -86.5 -16.5t-73 -47t-49.5 -74.5t-18 -95q0 -38 12 -78.5t44 -79t79 -57t92 -18.5z" />
    <glyph glyph-name="b" unicode="b" horiz-adv-x="655" 
d="M352 496q50 0 95.5 -18t79.5 -51t53.5 -80.5t19.5 -103.5t-19.5 -103.5t-53.5 -80.5t-79.5 -51t-95.5 -18q-74 0 -136 39.5t-90 108.5v-138h-21v800h21v-452q28 69 90 108.5t136 39.5zM352 10q45 0 86.5 16.5t73 47t49.5 74.5t18 95q0 38 -12 78.5t-44 79t-79 57
t-92 18.5q-32 0 -69 -11t-76 -42t-60 -80t-21 -100t18.5 -95t50.5 -74.5t73 -47t84 -16.5z" />
    <glyph glyph-name="c" unicode="c" horiz-adv-x="585" 
d="M307 12q76 0 133.5 40.5t77.5 106.5l19 -8q-22 -72 -84.5 -115.5t-145.5 -43.5q-52 0 -99 19t-81 53t-53 80.5t-19 99.5t19 99.5t53 80.5t81 53t99 19q83 0 145.5 -43.5t84.5 -115.5l-19 -8q-20 66 -77.5 106.5t-133.5 40.5q-48 0 -96 -19.5t-80 -58.5t-43.5 -78.5
t-11.5 -75.5t11.5 -75.5t43.5 -78.5t80 -58.5t96 -19.5z" />
    <glyph glyph-name="d" unicode="d" horiz-adv-x="655" 
d="M550 800v-800h-21v138q-28 -69 -90 -108.5t-136 -39.5q-50 0 -95.5 18t-79.5 51t-53.5 80.5t-19.5 103.5t19.5 103.5t53.5 80.5t79.5 51t95.5 18q74 0 136 -39.5t90 -108.5v452h21zM303 10q32 0 69 11t76 42t60 80t21 100t-18.5 95t-50.5 74.5t-73 47t-84 16.5
q-45 0 -86.5 -16.5t-73 -47t-49.5 -74.5t-18 -95q0 -38 12 -78.5t44 -79t79 -57t92 -18.5z" />
    <glyph glyph-name="e" unicode="e" horiz-adv-x="594" 
d="M76 248v-5v-2q0 -39 13 -79.5t46 -78t78.5 -55.5t85.5 -18q47 0 87 14.5t73 46t52 84.5l18 -6q-25 -76 -85 -117.5t-145 -41.5q-45 0 -89 17.5t-79 50t-55.5 80t-20.5 103.5q0 57 20.5 105t56.5 81.5t81.5 51t93.5 17.5q100 0 164.5 -66t67.5 -172v-10h-463zM307 476
q-40 0 -80 -14.5t-72 -41.5t-53 -66t-25 -86h440q-6 94 -65 151t-145 57z" />
    <glyph glyph-name="f" unicode="f" horiz-adv-x="363" 
d="M373 466h-237v-466h-21v466h-115v20h115v176q0 70 37.5 111.5t103.5 41.5q38 0 72 -16l-9 -18q-28 14 -62 14q-56 0 -88.5 -37t-32.5 -96v-176h237v-20z" />
    <glyph glyph-name="g" unicode="g" horiz-adv-x="655" 
d="M550 486v-555q0 -46 -21.5 -91.5t-62.5 -76.5t-80 -42t-74 -11q-94 0 -154.5 38.5t-85.5 107.5l22 8q10 -28 33.5 -60.5t71 -53t113.5 -20.5q53 0 105.5 26t82 74.5t29.5 100.5v207q-28 -69 -90 -108.5t-136 -39.5q-50 0 -95.5 18t-79.5 51t-53.5 80.5t-19.5 103.5
t19.5 103.5t53.5 80.5t79.5 51t95.5 18q74 0 136 -39.5t90 -108.5v138h21zM303 10q32 0 69 11t76 42t60 80t21 100t-18.5 95t-50.5 74.5t-73 47t-84 16.5q-45 0 -86.5 -16.5t-73 -47t-49.5 -74.5t-18 -95q0 -38 12 -78.5t44 -79t79 -57t92 -18.5z" />
    <glyph glyph-name="h" unicode="h" horiz-adv-x="632" 
d="M341 496q88 0 142 -58t54 -152v-286h-21v286q0 85 -47.5 137.5t-124.5 52.5q-98 0 -158 -61.5t-60 -161.5v-253h-21v800h21v-449q24 68 81 106.5t134 38.5z" />
    <glyph glyph-name="i" unicode="i" horiz-adv-x="251" 
d="M125 709q10 0 17.5 -7.5t7.5 -16.5q0 -10 -7.5 -17t-17.5 -7t-17.5 7t-7.5 17q0 9 7.5 16.5t17.5 7.5zM136 0h-21v486h21v-486z" />
    <glyph glyph-name="j" unicode="j" horiz-adv-x="251" 
d="M125 709q10 0 17.5 -7.5t7.5 -16.5q0 -10 -7.5 -17t-17.5 -7t-17.5 7t-7.5 17q0 9 7.5 16.5t17.5 7.5zM136 -280h-21v766h21v-766z" />
    <glyph glyph-name="k" unicode="k" horiz-adv-x="611" 
d="M126 800v-800h-21v800h21zM591 0h-33l-239 239l-193 -239l1 34l364 452h29l-186 -229z" />
    <glyph glyph-name="l" unicode="l" horiz-adv-x="294" 
d="M116 800v-707q0 -37 23 -60t60 -23q31 0 56 18l9 -17q-30 -21 -67 -21q-21 0 -45.5 9.5t-40.5 34.5t-16 59v707h21z" />
    <glyph glyph-name="m" unicode="m" horiz-adv-x="943" 
d="M675 496q77 0 125 -47t48 -123v-326h-21v326q0 67 -43 108.5t-112 41.5q-41 0 -75.5 -15t-59 -43.5t-38 -68t-13.5 -86.5v-263h-21v326q0 67 -42.5 108.5t-111.5 41.5q-83 0 -134 -58.5t-51 -154.5v-263h-21v486h21v-126q22 63 71.5 99.5t115.5 36.5q67 0 113.5 -37
t56.5 -98q23 63 73.5 99t118.5 36z" />
    <glyph glyph-name="n" unicode="n" horiz-adv-x="632" 
d="M341 496q88 0 142 -58t54 -152v-286h-21v286q0 85 -47.5 137.5t-124.5 52.5q-98 0 -158 -61.5t-60 -161.5v-253h-21v486h21v-135q24 68 81 106.5t134 38.5z" />
    <glyph glyph-name="o" unicode="o" horiz-adv-x="615" 
d="M307 496q53 0 99.5 -19t81 -53t53.5 -80.5t19 -99.5t-19 -100t-53.5 -81.5t-81 -53.5t-99.5 -19q-52 0 -99 19t-81 53.5t-53 81.5t-19 100t19 99.5t53 80.5t81 53t99 19zM307 10q48 0 91 17.5t74.5 49.5t49 75t17.5 92t-17.5 92t-49 74t-74.5 48.5t-91 17.5t-96 -19.5
t-80 -58.5t-43.5 -78.5t-11.5 -75.5t11.5 -76t43.5 -79t80 -59t96 -20z" />
    <glyph glyph-name="p" unicode="p" horiz-adv-x="655" 
d="M352 496q50 0 95.5 -18t79.5 -51t53.5 -80.5t19.5 -103.5t-19.5 -103.5t-53.5 -80.5t-79.5 -51t-95.5 -18q-74 0 -136 39.5t-90 108.5v-418h-21v766h21v-138q28 69 90 108.5t136 39.5zM352 10q45 0 86.5 16.5t73 47t49.5 74.5t18 95q0 38 -12 78.5t-44 79t-79 57
t-92 18.5q-32 0 -69 -11t-76 -42t-60 -80t-21 -100t18.5 -95t50.5 -74.5t73 -47t84 -16.5z" />
    <glyph glyph-name="q" unicode="q" horiz-adv-x="655" 
d="M550 486v-766h-21v418q-28 -69 -90 -108.5t-136 -39.5q-50 0 -95.5 18t-79.5 51t-53.5 80.5t-19.5 103.5t19.5 103.5t53.5 80.5t79.5 51t95.5 18q74 0 136 -39.5t90 -108.5v138h21zM303 10q32 0 69 11t76 42t60 80t21 100t-18.5 95t-50.5 74.5t-73 47t-84 16.5
q-45 0 -86.5 -16.5t-73 -47t-49.5 -74.5t-18 -95q0 -38 12 -78.5t44 -79t79 -57t92 -18.5z" />
    <glyph glyph-name="r" unicode="r" horiz-adv-x="393" 
d="M344 489q19 0 34 -3l-5 -19q-10 2 -29 2q-37 0 -75.5 -14t-70 -46.5t-52 -81.5t-20.5 -109v-218h-21v486h21v-150q20 51 58.5 88.5t80.5 51t79 13.5z" />
    <glyph glyph-name="s" unicode="s" horiz-adv-x="483" 
d="M63 134l20 7q5 -60 51.5 -96t119.5 -36q31 0 66.5 10t58.5 38.5t23 70.5q0 39 -23 61.5t-72 33.5l-115 27q-60 14 -86.5 40t-26.5 70q0 63 44.5 99.5t116.5 36.5q69 0 113.5 -35t59.5 -91l-19 -8q-11 52 -52 83t-103 31q-60 0 -99.5 -30t-39.5 -86q0 -36 22.5 -58
t76.5 -34l110 -26q60 -15 87 -42.5t27 -71.5q0 -64 -46.5 -101t-122.5 -37q-49 0 -89 15.5t-68 47.5t-34 81z" />
    <glyph glyph-name="t" unicode="t" horiz-adv-x="373" 
d="M128 466v-343q0 -24 10 -50.5t37 -44.5t62 -18q47 0 86 36l12 -16q-43 -40 -99 -40q-57 0 -93 37t-36 96v343h-107v20h107v224l21 10v-234h240v-20h-240z" />
    <glyph glyph-name="u" unicode="u" horiz-adv-x="632" 
d="M527 486v-486h-21v135q-24 -68 -81 -106.5t-134 -38.5q-88 0 -142 58t-54 152v286h21v-286q0 -85 47.5 -137.5t124.5 -52.5q98 0 158 61.5t60 161.5v253h21z" />
    <glyph glyph-name="v" unicode="v" horiz-adv-x="573" 
d="M553 486l-254 -486h-25l-254 486h25l242 -463l241 463h25z" />
    <glyph glyph-name="w" unicode="w" horiz-adv-x="810" 
d="M790 486l-188 -489h-25l-172 453l-172 -453h-25l-188 489h23l179 -456l174 456h18l174 -456l179 456h23z" />
    <glyph glyph-name="x" unicode="x" horiz-adv-x="564" 
d="M296 243l208 -243h-27l-195 228l-195 -228h-27l208 243l-208 243h27l195 -228l195 228h27z" />
    <glyph glyph-name="y" unicode="y" horiz-adv-x="632" 
d="M527 486v-565q0 -42 -16 -81t-45 -68t-69.5 -45.5t-87.5 -16.5q-87 0 -146 38.5t-84 107.5l22 8q10 -29 34 -61.5t69 -52.5t105 -20q53 0 96 23t71.5 66.5t29.5 101.5v214q-24 -68 -81 -106.5t-134 -38.5q-88 0 -142 58t-54 152v286h21v-286q0 -85 47.5 -137.5
t124.5 -52.5q98 0 158 61.5t60 161.5v253h21z" />
    <glyph glyph-name="z" unicode="z" horiz-adv-x="469" 
d="M439 20v-20h-399v17l361 449h-350v20h379v-17l-361 -449h370z" />
    <glyph glyph-name="braceleft" unicode="{" horiz-adv-x="435" 
d="M205 702v-206q0 -45 -18.5 -78.5t-50.5 -48.5q32 -15 50.5 -48.5t18.5 -78.5v-206q0 -51 27 -79.5t72 -28.5h61v-20h-61q-55 0 -88 34t-33 94v207q0 48 -24.5 79.5t-63.5 35.5h-11h-14v22h14h11q39 4 63.5 35.5t24.5 80.5v206q0 60 33 94t88 34h61v-20h-61
q-45 0 -72 -28.5t-27 -79.5z" />
    <glyph glyph-name="bar" unicode="|" horiz-adv-x="232" 
d="M127 -81h-22v911h22v-911z" />
    <glyph glyph-name="braceright" unicode="}" horiz-adv-x="435" 
d="M365 380v-22h-14h-11q-39 -4 -63.5 -35.5t-24.5 -79.5v-207q0 -60 -33 -94t-88 -34h-61v20h61q45 0 72 28.5t27 79.5v206q0 45 18.5 78.5t50.5 48.5q-32 15 -50.5 48.5t-18.5 78.5v206q0 51 -27 79.5t-72 28.5h-61v20h61q55 0 88 -34t33 -94v-206q0 -49 24.5 -80.5
t63.5 -35.5h11h14z" />
    <glyph glyph-name="asciitilde" unicode="~" horiz-adv-x="452" 
d="M65 247h-26q0 22 9 46.5t32.5 40.5t54.5 16q41 0 88.5 -37.5t65 -43t29.5 -5.5q33 0 52 22.5t18 61.5h25q0 -47 -26.5 -76t-68.5 -29q-40 0 -88 37.5t-65.5 43t-29.5 5.5q-33 0 -53 -22.5t-17 -59.5z" />
    <glyph glyph-name="exclamdown" unicode="&#xa1;" horiz-adv-x="250" 
d="M125 448q-10 0 -17.5 7.5t-7.5 16.5q0 10 7.5 17t17.5 7t17.5 -7t7.5 -17q0 -9 -7.5 -16.5t-17.5 -7.5zM115 294h21v-560h-21v560z" />
    <glyph glyph-name="cent" unicode="&#xa2;" horiz-adv-x="592" 
d="M307 12q76 0 133.5 40.5t77.5 106.5l19 -8q-21 -69 -80 -112t-138 -47v-122h-21v122q-24 1 -55 7.5t-62.5 24t-60 47.5t-47 75.5t-18.5 97.5q0 38 10.5 74.5t30 66.5t51 56.5t72.5 40t79 14.5v134h21v-134q79 -4 138 -47t80 -112l-19 -8q-20 66 -77.5 106.5t-133.5 40.5
q-48 0 -96 -19.5t-80 -58.5t-43.5 -78.5t-11.5 -75.5t11.5 -75.5t43.5 -78.5t80 -58.5t96 -19.5z" />
    <glyph glyph-name="sterling" unicode="&#xa3;" horiz-adv-x="708" 
d="M648 20v-20h-578v14l95 5v308h-95v20h95v189q0 51 17 94.5t48.5 74.5t75.5 48t95 17q106 0 172 -64.5t66 -166.5l-22 -6q0 48 -15.5 88t-44 68.5t-69 44t-87.5 15.5q-95 0 -154.5 -59t-59.5 -154v-189h335v-20h-335v-307h461z" />
    <glyph glyph-name="yen" unicode="&#xa5;" horiz-adv-x="690" 
d="M368 325h216v-20h-228v-115h228v-21h-228v-169h-22v169h-228v21h228v115h-228v20h216l-282 435h26l278 -435h2l278 435h26z" />
    <glyph glyph-name="section" unicode="&#xa7;" horiz-adv-x="587" 
d="M537 258q0 -29 -10.5 -60t-35.5 -55t-56 -35q57 -43 57 -109q0 -69 -55.5 -113t-145.5 -44q-40 0 -80.5 9.5t-73 32.5t-53 60.5t-20.5 90.5l20 6q0 -82 53.5 -130.5t152.5 -48.5q81 0 130 38.5t49 98.5q0 79 -95 120l-193 88q-71 32 -103 66t-32 81q0 31 11 61.5t36 53.5
t56 34q-58 43 -58 109q0 69 55.5 113.5t145.5 44.5q62 0 114 -24t77.5 -70t25.5 -98l-22 -8q0 82 -51.5 130.5t-142.5 48.5q-81 0 -130 -38t-49 -99q0 -39 23 -68t72 -52l193 -88q71 -32 103 -66t32 -80zM415 121q47 16 73.5 50t26.5 85q0 39 -27 70t-96 61l-193 87
q-17 7 -32 17q-99 -37 -99 -135q0 -39 27 -70t96 -62l193 -86q17 -8 31 -17z" />
    <glyph glyph-name="dieresis" unicode="&#xa8;" horiz-adv-x="600" 
d="M200 650q10 0 17.5 -7.5t7.5 -16.5q0 -10 -7.5 -17t-17.5 -7t-17.5 7t-7.5 17q0 9 7.5 16.5t17.5 7.5zM400 650q10 0 17.5 -7.5t7.5 -16.5q0 -10 -7.5 -17t-17.5 -7t-17.5 7t-7.5 17q0 9 7.5 16.5t17.5 7.5z" />
    <glyph glyph-name="copyright" unicode="&#xa9;" horiz-adv-x="884" 
d="M442 770q78 0 149.5 -29t125 -82t84 -126t30.5 -156q0 -82 -30.5 -153.5t-84 -124t-125 -81t-149.5 -28.5t-149.5 28.5t-125 81t-84 124t-30.5 153.5q0 83 30.5 156t84 126t125 82t149.5 29zM442 749q-73 0 -140.5 -27.5t-118 -77.5t-79 -119t-28.5 -147q0 -77 28.5 -145
t79 -117.5t118 -76.5t140.5 -27t140.5 27t118 76.5t79 117.5t28.5 145q0 78 -28.5 147t-79 119t-118 77.5t-140.5 27.5zM451 592q32 0 74 -13.5t76 -48t43 -80.5l-20 -5q-7 26 -28.5 56t-61.5 50t-83 20q-28 0 -59.5 -9t-60 -32t-49 -61t-20.5 -90q0 -31 10 -64.5t33.5 -62
t61 -48t84.5 -19.5q36 0 70.5 14.5t63 43t40.5 70.5l18 -7q-14 -61 -69 -101.5t-123 -40.5q-43 0 -81.5 15.5t-68 44t-46 68.5t-16.5 87q0 34 11 71t41 72t73.5 52.5t86.5 17.5z" />
    <glyph glyph-name="ordfeminine" unicode="&#xaa;" horiz-adv-x="404" 
d="M397 419l2 -16q-24 -5 -37 -5q-20 0 -33 15t-13 38v27q-21 -35 -60 -57.5t-88 -22.5q-54 0 -87 27.5t-33 71.5q0 96 157 108l111 8v19q0 25 -10.5 52.5t-38.5 44.5t-66 17q-33 0 -60.5 -14t-41.5 -38t-18 -48l-18 3q9 56 46.5 85t91.5 29q28 0 60.5 -11.5t53 -42.5
t20.5 -77v-181q0 -14 8.5 -24.5t18.5 -10.5t35 3zM169 415q45 0 82 22.5t51 53t14 58.5v47l-111 -8q-137 -10 -137 -90q0 -37 27 -60t74 -23z" />
    <glyph glyph-name="guillemotleft" unicode="&#xab;" horiz-adv-x="357" 
d="M25 262l132 178h25l-132 -178l132 -178h-25zM175 262l132 178h25l-132 -178l132 -178h-25z" />
    <glyph glyph-name="registered" unicode="&#xae;" horiz-adv-x="500" 
d="M250 770q30 0 63.5 -10t67.5 -37.5t51.5 -69.5t17.5 -84q0 -53 -26.5 -101t-74.5 -73.5t-99 -25.5t-99 25.5t-74.5 73.5t-26.5 101q0 31 10.5 65.5t38.5 68t69.5 50.5t81.5 17zM250 386q76 0 129.5 52.5t53.5 130.5q0 49 -24 93.5t-68 68t-91 23.5t-91 -23.5t-68 -68
t-24 -93.5q0 -78 53.5 -130.5t129.5 -52.5zM335 611q0 -26 -18 -43t-48 -19l77 -72h-23l-76 72h-50v-72h-16v195h81q33 0 53 -17t20 -44zM197 564h63q26 0 42 13t16 34t-15.5 33.5t-40.5 12.5h-65v-93z" />
    <glyph glyph-name="macron" unicode="&#xaf;" horiz-adv-x="600" 
d="M425 595h-250v17h250v-17z" />
    <glyph glyph-name="degree" unicode="&#xb0;" horiz-adv-x="397" 
d="M199 770q49 0 84 -32.5t35 -84.5q0 -24 -12 -51t-42 -46t-65 -19q-22 0 -50 11t-49 39.5t-21 65.5q0 51 36 84t84 33zM199 556q40 0 69.5 27.5t29.5 69.5q0 20 -10.5 43.5t-35.5 39.5t-53 16t-53.5 -16t-36 -39.5t-10.5 -43.5t10.5 -43t36 -38.5t53.5 -15.5z" />
    <glyph glyph-name="plusminus" unicode="&#xb1;" horiz-adv-x="580" 
d="M500 340v-20h-200v-190h-20v190h-200v20h200v190h20v-190h200zM80 20h420v-20h-420v20z" />
    <glyph glyph-name="uni00B2" unicode="&#xb2;" horiz-adv-x="334" 
d="M284 525v-18h-239v7l117 109q43 40 62.5 62t26.5 41t7 36q0 40 -25.5 65t-64.5 25q-43 0 -71.5 -28t-28.5 -72l-20 3q0 24 11.5 51t41.5 45.5t67 18.5q23 0 48.5 -10t43 -36t17.5 -61q0 -20 -8 -42t-29 -45.5t-65 -64.5l-92 -86h201z" />
    <glyph glyph-name="uni00B3" unicode="&#xb3;" horiz-adv-x="327" 
d="M156 716h16q39 0 68.5 -16.5t40.5 -42t11 -47.5q0 -37 -20.5 -65t-50.5 -38.5t-57 -10.5q-35 0 -66 16.5t-45 41.5t-17 46l19 5q2 -19 14.5 -40.5t39 -36t55.5 -14.5q35 0 62 15t37 38t10 43q0 39 -28 63.5t-73 24.5h-49l-2 7l127 136h-198v19h236v-4z" />
    <glyph glyph-name="acute" unicode="&#xb4;" horiz-adv-x="600" 
d="M290 567h-21l93 136h23z" />
    <glyph glyph-name="paragraph" unicode="&#xb6;" horiz-adv-x="525" 
d="M301 0h-22v389h-50q-32 0 -67.5 8.5t-70.5 33.5t-53 65t-18 82q0 88 53 135t142 47h86v-760zM420 0h-22v760h22v-760z" />
    <glyph glyph-name="periodcentered" unicode="&#xb7;" horiz-adv-x="170" 
d="M85 292q10 0 17.5 -7.5t7.5 -16.5q0 -10 -7.5 -17t-17.5 -7t-17.5 7t-7.5 17q0 9 7.5 16.5t17.5 7.5z" />
    <glyph glyph-name="cedilla" unicode="&#xb8;" horiz-adv-x="600" 
d="M290 0h21l-100 -180h-26z" />
    <glyph glyph-name="uni00B9" unicode="&#xb9;" horiz-adv-x="200" 
d="M130 501h-21v333l-94 -38v19l109 45h6v-359z" />
    <glyph glyph-name="ordmasculine" unicode="&#xba;" horiz-adv-x="451" 
d="M226 763q26 0 55 -8.5t55.5 -29.5t45.5 -56t19 -83q0 -29 -9 -59.5t-31 -57t-56.5 -44.5t-78.5 -18q-25 0 -54 8.5t-59.5 33t-46.5 62t-16 75.5q0 28 9.5 58.5t35 60t61.5 44t70 14.5zM226 426q39 0 77 20t59 58.5t21 81.5q0 25 -8.5 52.5t-28.5 51t-50.5 39.5t-69.5 16
q-38 0 -75.5 -20t-59 -58t-21.5 -81t21.5 -81.5t59 -58.5t75.5 -20z" />
    <glyph glyph-name="guillemotright" unicode="&#xbb;" horiz-adv-x="357" 
d="M25 84l132 178l-132 178h25l132 -178l-132 -178h-25zM175 84l132 178l-132 178h25l132 -178l-132 -178h-25z" />
    <glyph glyph-name="onequarter" unicode="&#xbc;" horiz-adv-x="624" 
d="M109 734l-94 -38v19l109 45h6v-359h-21v333zM565 760l-511 -760h-23l511 760h23zM604 86h-67v-86h-20v86h-212v11l221 261h11v-254h67v-18zM517 104v213l-180 -213h180z" />
    <glyph glyph-name="onehalf" unicode="&#xbd;" horiz-adv-x="658" 
d="M549 760l-511 -760h-23l511 760h23zM123 734l-94 -38v19l109 45h6v-359h-21v333zM613 18v-18h-239v7l117 109q43 40 62.5 62t26.5 41t7 36q0 40 -25.5 65t-64.5 25q-43 0 -71.5 -28t-28.5 -72l-20 3q0 24 11.5 51t41.5 45.5t67 18.5q23 0 48.5 -10t43 -36t17.5 -61
q0 -20 -8 -42t-29 -45.5t-65 -64.5l-92 -86h201z" />
    <glyph glyph-name="threequarters" unicode="&#xbe;" horiz-adv-x="675" 
d="M292 510q0 -37 -20.5 -65t-50.5 -38.5t-57 -10.5q-35 0 -66 16.5t-45 41.5t-17 46l19 5q2 -19 14.5 -40.5t39 -36t55.5 -14.5q35 0 62 15t37 38t10 43q0 39 -28 63.5t-73 24.5h-49l-2 7l127 136h-198v19h236v-4l-130 -140h16q39 0 68.5 -16.5t40.5 -42t11 -47.5zM646 760
l-511 -760h-23l511 760h23zM655 86h-67v-86h-20v86h-212v11l221 261h11v-254h67v-18zM568 104v213l-180 -213h180z" />
    <glyph glyph-name="questiondown" unicode="&#xbf;" horiz-adv-x="510" 
d="M263 448q-10 0 -17.5 7.5t-7.5 16.5q0 10 7.5 17t17.5 7t17.5 -7t7.5 -17q0 -9 -7.5 -16.5t-17.5 -7.5zM448 -56l22 -3q0 -97 -60 -157t-157 -60q-59 0 -110 24.5t-77 72.5t-26 103q0 53 25 96.5t73 73t114 32.5v168h22v-188h-11q-40 0 -77 -13t-65 -37.5t-44 -58.5
t-16 -73q0 -81 53 -130.5t139 -49.5q87 0 141 55.5t54 144.5z" />
    <glyph glyph-name="Agrave" unicode="&#xc0;" horiz-adv-x="768" 
d="M372 841l-95 136h23l93 -136h-21zM748 0h-23l-100 214h-482l-100 -214h-23l355 760h18zM616 234l-232 494l-231 -494h463z" />
    <glyph glyph-name="Aacute" unicode="&#xc1;" horiz-adv-x="768" 
d="M401 841h-21l93 136h23zM748 0h-23l-100 214h-482l-100 -214h-23l355 760h18zM616 234l-232 494l-231 -494h463z" />
    <glyph glyph-name="Acircumflex" unicode="&#xc2;" horiz-adv-x="768" 
d="M279 841h-25l120 135h20l120 -135h-25l-105 117zM748 0h-23l-100 214h-482l-100 -214h-23l355 760h18zM616 234l-232 494l-231 -494h463z" />
    <glyph glyph-name="Atilde" unicode="&#xc3;" horiz-adv-x="768" 
d="M321 927q-22 0 -34.5 -14.5t-12.5 -39.5h-21q0 33 19 53t48 20q28 0 59 -24.5t43.5 -28.5t20.5 -4q21 0 33 15t12 41h21q0 -34 -18.5 -54.5t-47.5 -20.5q-27 0 -58.5 24.5t-43.5 28.5t-20 4zM748 0h-23l-100 214h-482l-100 -214h-23l355 760h18zM616 234l-232 494
l-231 -494h463z" />
    <glyph glyph-name="Adieresis" unicode="&#xc4;" horiz-adv-x="768" 
d="M284 876q-10 0 -17.5 7t-7.5 17q0 9 7.5 16.5t17.5 7.5t17.5 -7.5t7.5 -16.5q0 -10 -7.5 -17t-17.5 -7zM484 876q-10 0 -17.5 7t-7.5 17q0 9 7.5 16.5t17.5 7.5t17.5 -7.5t7.5 -16.5q0 -10 -7.5 -17t-17.5 -7zM748 0h-23l-100 214h-482l-100 -214h-23l355 760h18z
M616 234l-232 494l-231 -494h463z" />
    <glyph glyph-name="Aring" unicode="&#xc5;" horiz-adv-x="768" 
d="M384 829q-36 0 -62 25.5t-26 60.5t26 60.5t62 25.5t62 -25.5t26 -60.5t-26 -60.5t-62 -25.5zM384 983q-29 0 -49.5 -20.5t-20.5 -47.5t20.5 -47.5t49.5 -20.5t49.5 20.5t20.5 47.5t-20.5 47.5t-49.5 20.5zM748 0h-23l-100 214h-482l-100 -214h-23l355 760h18zM616 234
l-232 494l-231 -494h463z" />
    <glyph glyph-name="AE" unicode="&#xc6;" horiz-adv-x="1139" 
d="M616 740v-310h437v-20h-437v-390h458v-20h-480v214h-388l-160 -214h-26l570 760h484v-20h-458zM594 234v498l-373 -498h373z" />
    <glyph glyph-name="Ccedilla" unicode="&#xc7;" horiz-adv-x="894" 
d="M456 9q64 0 120.5 19t101.5 53.5t76.5 82.5t48.5 104l21 -6q-27 -89 -82.5 -149.5t-126 -91.5t-153.5 -32l-94 -169h-26l99 169q-76 3 -144.5 34t-119.5 84.5t-79 124t-28 147.5q0 80 29.5 152t82.5 125.5t124 83.5t150 30q67 0 127 -20t107.5 -56.5t81.5 -87t52 -110.5
l-21 -6q-17 56 -48.5 104t-76.5 83t-101.5 54t-120.5 19q-74 0 -141.5 -28.5t-117 -79.5t-77.5 -119.5t-28 -143.5t28 -143t77.5 -119t117 -79.5t141.5 -28.5z" />
    <glyph glyph-name="Egrave" unicode="&#xc8;" horiz-adv-x="690" 
d="M366 841l-95 136h23l93 -136h-21zM127 740v-350h475v-20h-475v-350h498v-20h-520v760h520v-20h-498z" />
    <glyph glyph-name="Eacute" unicode="&#xc9;" horiz-adv-x="690" 
d="M395 841h-21l93 136h23zM127 740v-350h475v-20h-475v-350h498v-20h-520v760h520v-20h-498z" />
    <glyph glyph-name="Ecircumflex" unicode="&#xca;" horiz-adv-x="690" 
d="M273 841h-25l120 135h20l120 -135h-25l-105 117zM127 740v-350h475v-20h-475v-350h498v-20h-520v760h520v-20h-498z" />
    <glyph glyph-name="Edieresis" unicode="&#xcb;" horiz-adv-x="690" 
d="M278 876q-10 0 -17.5 7t-7.5 17q0 9 7.5 16.5t17.5 7.5t17.5 -7.5t7.5 -16.5q0 -10 -7.5 -17t-17.5 -7zM478 876q-10 0 -17.5 7t-7.5 17q0 9 7.5 16.5t17.5 7.5t17.5 -7.5t7.5 -16.5q0 -10 -7.5 -17t-17.5 -7zM127 740v-350h475v-20h-475v-350h498v-20h-520v760h520v-20
h-498z" />
    <glyph glyph-name="Igrave" unicode="&#xcc;" horiz-adv-x="542" 
d="M260 841l-95 136h23l93 -136h-21zM282 740v-720h210v-20h-442v20h210v720h-210v20h442v-20h-210z" />
    <glyph glyph-name="Iacute" unicode="&#xcd;" horiz-adv-x="542" 
d="M289 841h-21l93 136h23zM282 740v-720h210v-20h-442v20h210v720h-210v20h442v-20h-210z" />
    <glyph glyph-name="Icircumflex" unicode="&#xce;" horiz-adv-x="542" 
d="M167 841h-25l120 135h20l120 -135h-25l-105 117zM282 740v-720h210v-20h-442v20h210v720h-210v20h442v-20h-210z" />
    <glyph glyph-name="Idieresis" unicode="&#xcf;" horiz-adv-x="542" 
d="M172 876q-10 0 -17.5 7t-7.5 17q0 9 7.5 16.5t17.5 7.5t17.5 -7.5t7.5 -16.5q0 -10 -7.5 -17t-17.5 -7zM372 876q-10 0 -17.5 7t-7.5 17q0 9 7.5 16.5t17.5 7.5t17.5 -7.5t7.5 -16.5q0 -10 -7.5 -17t-17.5 -7zM282 740v-720h210v-20h-442v20h210v720h-210v20h442v-20
h-210z" />
    <glyph glyph-name="Eth" unicode="&#xd0;" horiz-adv-x="876" 
d="M125 760h254q93 0 172.5 -27t136.5 -77.5t87.5 -121.5t30.5 -154t-30.5 -154t-87.5 -121.5t-136.5 -77.5t-172.5 -27h-254v368h-95v20h95v372zM147 20h230q89 0 165 26t130 73.5t83 114.5t29 146t-29 146t-83 114.5t-130 73.5t-165 26h-230v-352h191v-20h-191v-348z" />
    <glyph glyph-name="Ntilde" unicode="&#xd1;" horiz-adv-x="859" 
d="M369 927q-22 0 -34.5 -14.5t-12.5 -39.5h-21q0 33 19 53t48 20q28 0 59 -24.5t43.5 -28.5t20.5 -4q21 0 33 15t12 41h21q0 -34 -18.5 -54.5t-47.5 -20.5q-27 0 -58.5 24.5t-43.5 28.5t-20 4zM754 760v-760h-22v269l-604 463l-1 -732h-22v760h23l604 -464v464h22z" />
    <glyph glyph-name="Ograve" unicode="&#xd2;" horiz-adv-x="909" 
d="M443 841l-95 136h23l93 -136h-21zM455 770q78 0 149 -30t123.5 -83.5t82 -125.5t29.5 -152q0 -79 -29.5 -151t-82 -125.5t-123.5 -83t-149 -29.5t-149 29.5t-124 83t-82.5 125t-29.5 151.5t29.5 152t82.5 125.5t124 83.5t149 30zM455 10q74 0 140.5 28.5t116.5 79
t77.5 118.5t27.5 143t-28 143.5t-77.5 119.5t-116 79.5t-140.5 28.5t-141 -28.5t-116.5 -79.5t-77.5 -119.5t-28 -143.5t28 -143t77.5 -118.5t116.5 -79t141 -28.5z" />
    <glyph glyph-name="Oacute" unicode="&#xd3;" horiz-adv-x="909" 
d="M472 841h-21l93 136h23zM455 770q78 0 149 -30t123.5 -83.5t82 -125.5t29.5 -152q0 -79 -29.5 -151t-82 -125.5t-123.5 -83t-149 -29.5t-149 29.5t-124 83t-82.5 125t-29.5 151.5t29.5 152t82.5 125.5t124 83.5t149 30zM455 10q74 0 140.5 28.5t116.5 79t77.5 118.5
t27.5 143t-28 143.5t-77.5 119.5t-116 79.5t-140.5 28.5t-141 -28.5t-116.5 -79.5t-77.5 -119.5t-28 -143.5t28 -143t77.5 -118.5t116.5 -79t141 -28.5z" />
    <glyph glyph-name="Ocircumflex" unicode="&#xd4;" horiz-adv-x="909" 
d="M350 841h-25l120 135h20l120 -135h-25l-105 117zM455 770q78 0 149 -30t123.5 -83.5t82 -125.5t29.5 -152q0 -79 -29.5 -151t-82 -125.5t-123.5 -83t-149 -29.5t-149 29.5t-124 83t-82.5 125t-29.5 151.5t29.5 152t82.5 125.5t124 83.5t149 30zM455 10q74 0 140.5 28.5
t116.5 79t77.5 118.5t27.5 143t-28 143.5t-77.5 119.5t-116 79.5t-140.5 28.5t-141 -28.5t-116.5 -79.5t-77.5 -119.5t-28 -143.5t28 -143t77.5 -118.5t116.5 -79t141 -28.5z" />
    <glyph glyph-name="Otilde" unicode="&#xd5;" horiz-adv-x="909" 
d="M392 927q-22 0 -34.5 -14.5t-12.5 -39.5h-21q0 33 19 53t48 20q28 0 59 -24.5t43.5 -28.5t20.5 -4q21 0 33 15t12 41h21q0 -34 -18.5 -54.5t-47.5 -20.5q-27 0 -58.5 24.5t-43.5 28.5t-20 4zM455 770q78 0 149 -30t123.5 -83.5t82 -125.5t29.5 -152q0 -79 -29.5 -151
t-82 -125.5t-123.5 -83t-149 -29.5t-149 29.5t-124 83t-82.5 125t-29.5 151.5t29.5 152t82.5 125.5t124 83.5t149 30zM455 10q74 0 140.5 28.5t116.5 79t77.5 118.5t27.5 143t-28 143.5t-77.5 119.5t-116 79.5t-140.5 28.5t-141 -28.5t-116.5 -79.5t-77.5 -119.5t-28 -143.5
t28 -143t77.5 -118.5t116.5 -79t141 -28.5z" />
    <glyph glyph-name="Odieresis" unicode="&#xd6;" horiz-adv-x="909" 
d="M355 876q-10 0 -17.5 7t-7.5 17q0 9 7.5 16.5t17.5 7.5t17.5 -7.5t7.5 -16.5q0 -10 -7.5 -17t-17.5 -7zM555 876q-10 0 -17.5 7t-7.5 17q0 9 7.5 16.5t17.5 7.5t17.5 -7.5t7.5 -16.5q0 -10 -7.5 -17t-17.5 -7zM455 770q78 0 149 -30t123.5 -83.5t82 -125.5t29.5 -152
q0 -79 -29.5 -151t-82 -125.5t-123.5 -83t-149 -29.5t-149 29.5t-124 83t-82.5 125t-29.5 151.5t29.5 152t82.5 125.5t124 83.5t149 30zM455 10q74 0 140.5 28.5t116.5 79t77.5 118.5t27.5 143t-28 143.5t-77.5 119.5t-116 79.5t-140.5 28.5t-141 -28.5t-116.5 -79.5
t-77.5 -119.5t-28 -143.5t28 -143t77.5 -118.5t116.5 -79t141 -28.5z" />
    <glyph glyph-name="multiply" unicode="&#xd7;" horiz-adv-x="486" 
d="M258 305l148 -148l-15 -15l-148 148l-148 -148l-15 15l148 148l-148 148l15 15l148 -148l148 148l15 -15z" />
    <glyph glyph-name="Oslash" unicode="&#xd8;" horiz-adv-x="909" 
d="M789 742l-69 -77q55 -54 87 -129t32 -157q0 -79 -29.5 -151t-82 -125.5t-123.5 -83t-149 -29.5q-71 0 -137.5 25t-116.5 69l-76 -84l-14 14l75 84q-54 53 -85 126.5t-31 154.5q0 80 29.5 152t82.5 125.5t124 83.5t149 30q70 0 135 -24.5t115 -67.5l70 78zM92 379
q0 -76 29 -145.5t79 -119.5l491 548q-47 41 -108.5 64.5t-127.5 23.5q-74 0 -141 -28.5t-116.5 -79.5t-77.5 -119.5t-28 -143.5zM455 10q74 0 140.5 28.5t116.5 79t77.5 118.5t27.5 143q0 78 -29.5 148.5t-81.5 121.5l-491 -549q48 -42 110.5 -66t129.5 -24z" />
    <glyph glyph-name="Ugrave" unicode="&#xd9;" horiz-adv-x="796" 
d="M385 841l-95 136h23l93 -136h-21zM701 760v-437q0 -73 -22 -135.5t-62 -106.5t-97 -68t-123 -24t-122.5 24t-96.5 68t-61.5 106.5t-21.5 135.5v437h22v-437q0 -69 20 -127.5t57 -99.5t89.5 -63.5t113.5 -22.5q46 0 94.5 15t84.5 47t57.5 69.5t33 84t11.5 97.5v437h23z
" />
    <glyph glyph-name="Uacute" unicode="&#xda;" horiz-adv-x="796" 
d="M414 841h-21l93 136h23zM701 760v-437q0 -73 -22 -135.5t-62 -106.5t-97 -68t-123 -24t-122.5 24t-96.5 68t-61.5 106.5t-21.5 135.5v437h22v-437q0 -69 20 -127.5t57 -99.5t89.5 -63.5t113.5 -22.5q46 0 94.5 15t84.5 47t57.5 69.5t33 84t11.5 97.5v437h23z" />
    <glyph glyph-name="Ucircumflex" unicode="&#xdb;" horiz-adv-x="796" 
d="M292 841h-25l120 135h20l120 -135h-25l-105 117zM701 760v-437q0 -73 -22 -135.5t-62 -106.5t-97 -68t-123 -24t-122.5 24t-96.5 68t-61.5 106.5t-21.5 135.5v437h22v-437q0 -69 20 -127.5t57 -99.5t89.5 -63.5t113.5 -22.5q46 0 94.5 15t84.5 47t57.5 69.5t33 84
t11.5 97.5v437h23z" />
    <glyph glyph-name="Udieresis" unicode="&#xdc;" horiz-adv-x="796" 
d="M297 876q-10 0 -17.5 7t-7.5 17q0 9 7.5 16.5t17.5 7.5t17.5 -7.5t7.5 -16.5q0 -10 -7.5 -17t-17.5 -7zM497 876q-10 0 -17.5 7t-7.5 17q0 9 7.5 16.5t17.5 7.5t17.5 -7.5t7.5 -16.5q0 -10 -7.5 -17t-17.5 -7zM701 760v-437q0 -73 -22 -135.5t-62 -106.5t-97 -68
t-123 -24t-122.5 24t-96.5 68t-61.5 106.5t-21.5 135.5v437h22v-437q0 -69 20 -127.5t57 -99.5t89.5 -63.5t113.5 -22.5q46 0 94.5 15t84.5 47t57.5 69.5t33 84t11.5 97.5v437h23z" />
    <glyph glyph-name="Yacute" unicode="&#xdd;" horiz-adv-x="720" 
d="M377 841h-21l93 136h23zM371 254v-254h-22v254l-329 506h26l314 -486l314 486h26z" />
    <glyph glyph-name="Thorn" unicode="&#xde;" horiz-adv-x="616" 
d="M127 566h242q97 0 157 -50t60 -131t-60 -131t-157 -50h-242v-204h-22v760h22v-194zM127 224h242q87 0 141 44.5t54 116.5t-54 116.5t-141 44.5h-242v-322z" />
    <glyph glyph-name="germandbls" unicode="&#xdf;" horiz-adv-x="680" 
d="M321 186h90q51 0 95 -17t76.5 -48t50 -74t17.5 -93q0 -51 -19 -96.5t-53.5 -78.5t-82.5 -51t-103 -18q-93 0 -158.5 48.5t-87.5 131.5l21 6q10 -37 28 -64.5t42 -48.5t64 -37t92 -16q50 0 94 16.5t75.5 47t49 72t17.5 88.5q0 45 -16 84.5t-45.5 68t-70 44t-87.5 15.5
h-124l-3 10l290 290h-447v-466h-21v657q0 70 37.5 111.5t103.5 41.5q38 0 72 -16l-9 -18q-28 14 -62 14q-56 0 -88.5 -37t-32.5 -96v-171h487v-8z" />
    <glyph glyph-name="agrave" unicode="&#xe0;" horiz-adv-x="655" 
d="M306 627l-95 136h23l93 -136h-21zM550 486v-486h-21v138q-28 -69 -90 -108.5t-136 -39.5q-50 0 -95.5 18t-79.5 51t-53.5 80.5t-19.5 103.5t19.5 103.5t53.5 80.5t79.5 51t95.5 18q74 0 136 -39.5t90 -108.5v138h21zM303 10q32 0 69 11t76 42t60 80t21 100t-18.5 95
t-50.5 74.5t-73 47t-84 16.5q-45 0 -86.5 -16.5t-73 -47t-49.5 -74.5t-18 -95q0 -38 12 -78.5t44 -79t79 -57t92 -18.5z" />
    <glyph glyph-name="aacute" unicode="&#xe1;" horiz-adv-x="655" 
d="M335 627h-21l93 136h23zM550 486v-486h-21v138q-28 -69 -90 -108.5t-136 -39.5q-50 0 -95.5 18t-79.5 51t-53.5 80.5t-19.5 103.5t19.5 103.5t53.5 80.5t79.5 51t95.5 18q74 0 136 -39.5t90 -108.5v138h21zM303 10q32 0 69 11t76 42t60 80t21 100t-18.5 95t-50.5 74.5
t-73 47t-84 16.5q-45 0 -86.5 -16.5t-73 -47t-49.5 -74.5t-18 -95q0 -38 12 -78.5t44 -79t79 -57t92 -18.5z" />
    <glyph glyph-name="acircumflex" unicode="&#xe2;" horiz-adv-x="655" 
d="M213 627h-25l120 135h20l120 -135h-25l-105 117zM550 486v-486h-21v138q-28 -69 -90 -108.5t-136 -39.5q-50 0 -95.5 18t-79.5 51t-53.5 80.5t-19.5 103.5t19.5 103.5t53.5 80.5t79.5 51t95.5 18q74 0 136 -39.5t90 -108.5v138h21zM303 10q32 0 69 11t76 42t60 80t21 100
t-18.5 95t-50.5 74.5t-73 47t-84 16.5q-45 0 -86.5 -16.5t-73 -47t-49.5 -74.5t-18 -95q0 -38 12 -78.5t44 -79t79 -57t92 -18.5z" />
    <glyph glyph-name="atilde" unicode="&#xe3;" horiz-adv-x="655" 
d="M255 713q-22 0 -34.5 -14.5t-12.5 -39.5h-21q0 33 19 53t48 20q28 0 59 -24.5t43.5 -28.5t20.5 -4q21 0 33 15t12 41h21q0 -34 -18.5 -54.5t-47.5 -20.5q-27 0 -58.5 24.5t-43.5 28.5t-20 4zM550 486v-486h-21v138q-28 -69 -90 -108.5t-136 -39.5q-50 0 -95.5 18
t-79.5 51t-53.5 80.5t-19.5 103.5t19.5 103.5t53.5 80.5t79.5 51t95.5 18q74 0 136 -39.5t90 -108.5v138h21zM303 10q32 0 69 11t76 42t60 80t21 100t-18.5 95t-50.5 74.5t-73 47t-84 16.5q-45 0 -86.5 -16.5t-73 -47t-49.5 -74.5t-18 -95q0 -38 12 -78.5t44 -79t79 -57
t92 -18.5z" />
    <glyph glyph-name="adieresis" unicode="&#xe4;" horiz-adv-x="655" 
d="M218 662q-10 0 -17.5 7t-7.5 17q0 9 7.5 16.5t17.5 7.5t17.5 -7.5t7.5 -16.5q0 -10 -7.5 -17t-17.5 -7zM418 662q-10 0 -17.5 7t-7.5 17q0 9 7.5 16.5t17.5 7.5t17.5 -7.5t7.5 -16.5q0 -10 -7.5 -17t-17.5 -7zM550 486v-486h-21v138q-28 -69 -90 -108.5t-136 -39.5
q-50 0 -95.5 18t-79.5 51t-53.5 80.5t-19.5 103.5t19.5 103.5t53.5 80.5t79.5 51t95.5 18q74 0 136 -39.5t90 -108.5v138h21zM303 10q32 0 69 11t76 42t60 80t21 100t-18.5 95t-50.5 74.5t-73 47t-84 16.5q-45 0 -86.5 -16.5t-73 -47t-49.5 -74.5t-18 -95q0 -38 12 -78.5
t44 -79t79 -57t92 -18.5z" />
    <glyph glyph-name="aring" unicode="&#xe5;" horiz-adv-x="655" 
d="M318 615q-36 0 -62 25.5t-26 60.5t26 60.5t62 25.5t62 -25.5t26 -60.5t-26 -60.5t-62 -25.5zM318 769q-29 0 -49.5 -20.5t-20.5 -47.5t20.5 -47.5t49.5 -20.5t49.5 20.5t20.5 47.5t-20.5 47.5t-49.5 20.5zM550 486v-486h-21v138q-28 -69 -90 -108.5t-136 -39.5
q-50 0 -95.5 18t-79.5 51t-53.5 80.5t-19.5 103.5t19.5 103.5t53.5 80.5t79.5 51t95.5 18q74 0 136 -39.5t90 -108.5v138h21zM303 10q32 0 69 11t76 42t60 80t21 100t-18.5 95t-50.5 74.5t-73 47t-84 16.5q-45 0 -86.5 -16.5t-73 -47t-49.5 -74.5t-18 -95q0 -38 12 -78.5
t44 -79t79 -57t92 -18.5z" />
    <glyph glyph-name="ae" unicode="&#xe6;" horiz-adv-x="953" 
d="M898 240h-432q0 -51 16.5 -94.5t45.5 -73.5t66.5 -46t78.5 -16q47 0 93 22.5t70.5 56t34.5 67.5l19 -6q-17 -69 -79 -114.5t-139 -45.5t-136 47t-81 126q-12 -49 -45 -90.5t-83.5 -62t-102.5 -20.5q-77 0 -123 37.5t-46 99.5q0 63 48.5 98t131.5 35h210v63
q0 69 -45.5 111t-121.5 42q-32 0 -71.5 -12t-69 -42.5t-35.5 -72.5l-21 6q7 62 62.5 101.5t133.5 39.5q77 0 127 -39.5t60 -106.5q28 70 84 108t128 38q36 0 74 -12t74 -45.5t54 -85t20 -104.5v-9zM466 260h410q-3 46 -18 85.5t-40.5 69t-61.5 45.5t-79 16
q-40 0 -77.5 -14.5t-66.5 -42t-46.5 -68.5t-20.5 -91zM445 240h-210q-32 0 -70.5 -9t-63.5 -36.5t-25 -67.5q0 -53 40 -85t107 -32q33 0 70.5 10.5t75 40t57 76t19.5 95.5v8z" />
    <glyph glyph-name="ccedilla" unicode="&#xe7;" horiz-adv-x="585" 
d="M307 12q76 0 133.5 40.5t77.5 106.5l19 -8q-21 -69 -80.5 -112.5t-138.5 -46.5l-96 -172h-26l100 172q-37 1 -78 14.5t-81.5 48.5t-61 86.5t-20.5 102.5q0 53 19 99.5t53 80.5t81 53t99 19q83 0 145.5 -43.5t84.5 -115.5l-19 -8q-20 66 -77.5 106.5t-133.5 40.5
q-48 0 -96 -19.5t-80 -58.5t-43.5 -78.5t-11.5 -75.5t11.5 -75.5t43.5 -78.5t80 -58.5t96 -19.5z" />
    <glyph glyph-name="egrave" unicode="&#xe8;" horiz-adv-x="594" 
d="M295 627l-95 136h23l93 -136h-21zM76 248v-5v-2q0 -39 13 -79.5t46 -78t78.5 -55.5t85.5 -18q47 0 87 14.5t73 46t52 84.5l18 -6q-25 -76 -85 -117.5t-145 -41.5q-45 0 -89 17.5t-79 50t-55.5 80t-20.5 103.5q0 57 20.5 105t56.5 81.5t81.5 51t93.5 17.5q100 0 164.5 -66
t67.5 -172v-10h-463zM307 476q-40 0 -80 -14.5t-72 -41.5t-53 -66t-25 -86h440q-6 94 -65 151t-145 57z" />
    <glyph glyph-name="eacute" unicode="&#xe9;" horiz-adv-x="594" 
d="M324 627h-21l93 136h23zM76 248v-5v-2q0 -39 13 -79.5t46 -78t78.5 -55.5t85.5 -18q47 0 87 14.5t73 46t52 84.5l18 -6q-25 -76 -85 -117.5t-145 -41.5q-45 0 -89 17.5t-79 50t-55.5 80t-20.5 103.5q0 57 20.5 105t56.5 81.5t81.5 51t93.5 17.5q100 0 164.5 -66
t67.5 -172v-10h-463zM307 476q-40 0 -80 -14.5t-72 -41.5t-53 -66t-25 -86h440q-6 94 -65 151t-145 57z" />
    <glyph glyph-name="ecircumflex" unicode="&#xea;" horiz-adv-x="594" 
d="M202 627h-25l120 135h20l120 -135h-25l-105 117zM76 248v-5v-2q0 -39 13 -79.5t46 -78t78.5 -55.5t85.5 -18q47 0 87 14.5t73 46t52 84.5l18 -6q-25 -76 -85 -117.5t-145 -41.5q-45 0 -89 17.5t-79 50t-55.5 80t-20.5 103.5q0 57 20.5 105t56.5 81.5t81.5 51t93.5 17.5
q100 0 164.5 -66t67.5 -172v-10h-463zM307 476q-40 0 -80 -14.5t-72 -41.5t-53 -66t-25 -86h440q-6 94 -65 151t-145 57z" />
    <glyph glyph-name="edieresis" unicode="&#xeb;" horiz-adv-x="594" 
d="M207 662q-10 0 -17.5 7t-7.5 17q0 9 7.5 16.5t17.5 7.5t17.5 -7.5t7.5 -16.5q0 -10 -7.5 -17t-17.5 -7zM407 662q-10 0 -17.5 7t-7.5 17q0 9 7.5 16.5t17.5 7.5t17.5 -7.5t7.5 -16.5q0 -10 -7.5 -17t-17.5 -7zM76 248v-5v-2q0 -39 13 -79.5t46 -78t78.5 -55.5t85.5 -18
q47 0 87 14.5t73 46t52 84.5l18 -6q-25 -76 -85 -117.5t-145 -41.5q-45 0 -89 17.5t-79 50t-55.5 80t-20.5 103.5q0 57 20.5 105t56.5 81.5t81.5 51t93.5 17.5q100 0 164.5 -66t67.5 -172v-10h-463zM307 476q-40 0 -80 -14.5t-72 -41.5t-53 -66t-25 -86h440q-6 94 -65 151
t-145 57z" />
    <glyph glyph-name="igrave" unicode="&#xec;" horiz-adv-x="261" 
d="M47 763l93 -136h-21l-95 136h23zM141 0h-21v486h21v-486z" />
    <glyph glyph-name="iacute" unicode="&#xed;" horiz-adv-x="261" 
d="M148 627h-21l93 136h23zM141 0h-21v486h21v-486z" />
    <glyph glyph-name="icircumflex" unicode="&#xee;" horiz-adv-x="261" 
d="M261 627h-25l-105 117l-105 -117h-25l120 135h20zM120 486h21v-486h-21v486z" />
    <glyph glyph-name="idieresis" unicode="&#xef;" horiz-adv-x="261" 
d="M31 710q10 0 17.5 -7.5t7.5 -16.5q0 -10 -7.5 -17t-17.5 -7t-17.5 7t-7.5 17q0 9 7.5 16.5t17.5 7.5zM231 710q10 0 17.5 -7.5t7.5 -16.5q0 -10 -7.5 -17t-17.5 -7t-17.5 7t-7.5 17q0 9 7.5 16.5t17.5 7.5zM141 0h-21v486h21v-486z" />
    <glyph glyph-name="eth" unicode="&#xf0;" horiz-adv-x="610" 
d="M442 732l-91 -46q95 -94 149.5 -218.5t54.5 -221.5q0 -56 -19.5 -103.5t-54 -81.5t-80 -52.5t-94.5 -18.5t-95 18t-81 52t-55.5 81t-20.5 102t20 102t55.5 81t81 52t94.5 18q52 0 101.5 -21.5t83.5 -61.5h10q-26 72 -71 140.5t-100 121.5l-134 -67l-9 17l127 65
q-84 75 -169 101v9h42q80 -36 148 -99l97 49zM311 10q40 0 80.5 14.5t72 47t51 79t19.5 98.5q0 47 -18.5 89t-50.5 73t-74 48t-86 17t-85.5 -17t-74 -48t-51 -74.5t-18.5 -94.5q0 -50 18.5 -93.5t51 -74.5t75.5 -47.5t90 -16.5z" />
    <glyph glyph-name="ntilde" unicode="&#xf1;" horiz-adv-x="632" 
d="M266 713q-22 0 -34.5 -14.5t-12.5 -39.5h-21q0 33 19 53t48 20q28 0 59 -24.5t43.5 -28.5t20.5 -4q21 0 33 15t12 41h21q0 -34 -18.5 -54.5t-47.5 -20.5q-27 0 -58.5 24.5t-43.5 28.5t-20 4zM341 496q88 0 142 -58t54 -152v-286h-21v286q0 85 -47.5 137.5t-124.5 52.5
q-98 0 -158 -61.5t-60 -161.5v-253h-21v486h21v-135q24 68 81 106.5t134 38.5z" />
    <glyph glyph-name="ograve" unicode="&#xf2;" horiz-adv-x="615" 
d="M295 627l-95 136h23l93 -136h-21zM307 496q53 0 99.5 -19t81 -53t53.5 -80.5t19 -99.5t-19 -100t-53.5 -81.5t-81 -53.5t-99.5 -19q-52 0 -99 19t-81 53.5t-53 81.5t-19 100t19 99.5t53 80.5t81 53t99 19zM307 10q48 0 91 17.5t74.5 49.5t49 75t17.5 92t-17.5 92t-49 74
t-74.5 48.5t-91 17.5t-96 -19.5t-80 -58.5t-43.5 -78.5t-11.5 -75.5t11.5 -76t43.5 -79t80 -59t96 -20z" />
    <glyph glyph-name="oacute" unicode="&#xf3;" horiz-adv-x="615" 
d="M324 627h-21l93 136h23zM307 496q53 0 99.5 -19t81 -53t53.5 -80.5t19 -99.5t-19 -100t-53.5 -81.5t-81 -53.5t-99.5 -19q-52 0 -99 19t-81 53.5t-53 81.5t-19 100t19 99.5t53 80.5t81 53t99 19zM307 10q48 0 91 17.5t74.5 49.5t49 75t17.5 92t-17.5 92t-49 74
t-74.5 48.5t-91 17.5t-96 -19.5t-80 -58.5t-43.5 -78.5t-11.5 -75.5t11.5 -76t43.5 -79t80 -59t96 -20z" />
    <glyph glyph-name="ocircumflex" unicode="&#xf4;" horiz-adv-x="615" 
d="M202 627h-25l120 135h20l120 -135h-25l-105 117zM307 496q53 0 99.5 -19t81 -53t53.5 -80.5t19 -99.5t-19 -100t-53.5 -81.5t-81 -53.5t-99.5 -19q-52 0 -99 19t-81 53.5t-53 81.5t-19 100t19 99.5t53 80.5t81 53t99 19zM307 10q48 0 91 17.5t74.5 49.5t49 75t17.5 92
t-17.5 92t-49 74t-74.5 48.5t-91 17.5t-96 -19.5t-80 -58.5t-43.5 -78.5t-11.5 -75.5t11.5 -76t43.5 -79t80 -59t96 -20z" />
    <glyph glyph-name="otilde" unicode="&#xf5;" horiz-adv-x="615" 
d="M244 713q-22 0 -34.5 -14.5t-12.5 -39.5h-21q0 33 19 53t48 20q28 0 59 -24.5t43.5 -28.5t20.5 -4q21 0 33 15t12 41h21q0 -34 -18.5 -54.5t-47.5 -20.5q-27 0 -58.5 24.5t-43.5 28.5t-20 4zM307 496q53 0 99.5 -19t81 -53t53.5 -80.5t19 -99.5t-19 -100t-53.5 -81.5
t-81 -53.5t-99.5 -19q-52 0 -99 19t-81 53.5t-53 81.5t-19 100t19 99.5t53 80.5t81 53t99 19zM307 10q48 0 91 17.5t74.5 49.5t49 75t17.5 92t-17.5 92t-49 74t-74.5 48.5t-91 17.5t-96 -19.5t-80 -58.5t-43.5 -78.5t-11.5 -75.5t11.5 -76t43.5 -79t80 -59t96 -20z" />
    <glyph glyph-name="odieresis" unicode="&#xf6;" horiz-adv-x="615" 
d="M207 662q-10 0 -17.5 7t-7.5 17q0 9 7.5 16.5t17.5 7.5t17.5 -7.5t7.5 -16.5q0 -10 -7.5 -17t-17.5 -7zM407 662q-10 0 -17.5 7t-7.5 17q0 9 7.5 16.5t17.5 7.5t17.5 -7.5t7.5 -16.5q0 -10 -7.5 -17t-17.5 -7zM307 496q53 0 99.5 -19t81 -53t53.5 -80.5t19 -99.5
t-19 -100t-53.5 -81.5t-81 -53.5t-99.5 -19q-52 0 -99 19t-81 53.5t-53 81.5t-19 100t19 99.5t53 80.5t81 53t99 19zM307 10q48 0 91 17.5t74.5 49.5t49 75t17.5 92t-17.5 92t-49 74t-74.5 48.5t-91 17.5t-96 -19.5t-80 -58.5t-43.5 -78.5t-11.5 -75.5t11.5 -76t43.5 -79
t80 -59t96 -20z" />
    <glyph glyph-name="divide" unicode="&#xf7;" horiz-adv-x="580" 
d="M290 513q10 0 17.5 -7.5t7.5 -16.5q0 -10 -7.5 -17t-17.5 -7t-17.5 7t-7.5 17q0 9 7.5 16.5t17.5 7.5zM500 295h-420v20h420v-20zM290 145q10 0 17.5 -7.5t7.5 -16.5q0 -10 -7.5 -17t-17.5 -7t-17.5 7t-7.5 17q0 9 7.5 16.5t17.5 7.5z" />
    <glyph glyph-name="oslash" unicode="&#xf8;" horiz-adv-x="610" 
d="M555 478l-61 -60q31 -34 48.5 -79t17.5 -95q0 -53 -19 -100t-53.5 -81.5t-81 -53.5t-99.5 -19q-50 0 -95.5 18t-78.5 49l-64 -64l-14 14l64 64q-30 34 -47 79t-17 94q0 53 19 99.5t53 80.5t81 53t99 19q50 0 95 -17t78 -47l61 60zM76 244q0 -45 15 -86t43 -72l332 331
q-31 28 -72 43.5t-87 15.5q-48 0 -96 -19.5t-80 -58.5t-43.5 -78.5t-11.5 -75.5zM307 10q48 0 91 17.5t74.5 49.5t49 75t17.5 92q0 46 -15.5 87t-43.5 72l-332 -332q31 -29 72 -45t87 -16z" />
    <glyph glyph-name="ugrave" unicode="&#xf9;" horiz-adv-x="632" 
d="M297 627l-95 136h23l93 -136h-21zM527 486v-486h-21v135q-24 -68 -81 -106.5t-134 -38.5q-88 0 -142 58t-54 152v286h21v-286q0 -85 47.5 -137.5t124.5 -52.5q98 0 158 61.5t60 161.5v253h21z" />
    <glyph glyph-name="uacute" unicode="&#xfa;" horiz-adv-x="632" 
d="M326 627h-21l93 136h23zM527 486v-486h-21v135q-24 -68 -81 -106.5t-134 -38.5q-88 0 -142 58t-54 152v286h21v-286q0 -85 47.5 -137.5t124.5 -52.5q98 0 158 61.5t60 161.5v253h21z" />
    <glyph glyph-name="ucircumflex" unicode="&#xfb;" horiz-adv-x="632" 
d="M204 627h-25l120 135h20l120 -135h-25l-105 117zM527 486v-486h-21v135q-24 -68 -81 -106.5t-134 -38.5q-88 0 -142 58t-54 152v286h21v-286q0 -85 47.5 -137.5t124.5 -52.5q98 0 158 61.5t60 161.5v253h21z" />
    <glyph glyph-name="udieresis" unicode="&#xfc;" horiz-adv-x="632" 
d="M209 662q-10 0 -17.5 7t-7.5 17q0 9 7.5 16.5t17.5 7.5t17.5 -7.5t7.5 -16.5q0 -10 -7.5 -17t-17.5 -7zM409 662q-10 0 -17.5 7t-7.5 17q0 9 7.5 16.5t17.5 7.5t17.5 -7.5t7.5 -16.5q0 -10 -7.5 -17t-17.5 -7zM527 486v-486h-21v135q-24 -68 -81 -106.5t-134 -38.5
q-88 0 -142 58t-54 152v286h21v-286q0 -85 47.5 -137.5t124.5 -52.5q98 0 158 61.5t60 161.5v253h21z" />
    <glyph glyph-name="yacute" unicode="&#xfd;" horiz-adv-x="632" 
d="M340 647h-21l93 136h23zM527 486v-565q0 -42 -16 -81t-45 -68t-69.5 -45.5t-87.5 -16.5q-87 0 -146 38.5t-84 107.5l22 8q10 -29 34 -61.5t69 -52.5t105 -20q53 0 96 23t71.5 66.5t29.5 101.5v214q-24 -68 -81 -106.5t-134 -38.5q-88 0 -142 58t-54 152v286h21v-286
q0 -85 47.5 -137.5t124.5 -52.5q98 0 158 61.5t60 161.5v253h21z" />
    <glyph glyph-name="thorn" unicode="&#xfe;" horiz-adv-x="655" 
d="M352 496q50 0 95.5 -18t79.5 -51t53.5 -80.5t19.5 -103.5t-19.5 -103.5t-53.5 -80.5t-79.5 -51t-95.5 -18q-74 0 -136 39.5t-90 108.5v-418h-21v1080h21v-452q28 69 90 108.5t136 39.5zM352 10q45 0 86.5 16.5t73 47t49.5 74.5t18 95q0 38 -12 78.5t-44 79t-79 57
t-92 18.5q-32 0 -69 -11t-76 -42t-60 -80t-21 -100t18.5 -95t50.5 -74.5t73 -47t84 -16.5z" />
    <glyph glyph-name="ydieresis" unicode="&#xff;" horiz-adv-x="632" 
d="M223 682q-10 0 -17.5 7t-7.5 17q0 9 7.5 16.5t17.5 7.5t17.5 -7.5t7.5 -16.5q0 -10 -7.5 -17t-17.5 -7zM423 682q-10 0 -17.5 7t-7.5 17q0 9 7.5 16.5t17.5 7.5t17.5 -7.5t7.5 -16.5q0 -10 -7.5 -17t-17.5 -7zM527 486v-565q0 -42 -16 -81t-45 -68t-69.5 -45.5
t-87.5 -16.5q-87 0 -146 38.5t-84 107.5l22 8q10 -29 34 -61.5t69 -52.5t105 -20q53 0 96 23t71.5 66.5t29.5 101.5v214q-24 -68 -81 -106.5t-134 -38.5q-88 0 -142 58t-54 152v286h21v-286q0 -85 47.5 -137.5t124.5 -52.5q98 0 158 61.5t60 161.5v253h21z" />
    <glyph glyph-name="Amacron" unicode="&#x100;" horiz-adv-x="768" 
d="M509 869h-250v17h250v-17zM748 0h-23l-100 214h-482l-100 -214h-23l355 760h18zM616 234l-232 494l-231 -494h463z" />
    <glyph glyph-name="amacron" unicode="&#x101;" horiz-adv-x="655" 
d="M443 655h-250v17h250v-17zM550 486v-486h-21v138q-28 -69 -90 -108.5t-136 -39.5q-50 0 -95.5 18t-79.5 51t-53.5 80.5t-19.5 103.5t19.5 103.5t53.5 80.5t79.5 51t95.5 18q74 0 136 -39.5t90 -108.5v138h21zM303 10q32 0 69 11t76 42t60 80t21 100t-18.5 95t-50.5 74.5
t-73 47t-84 16.5q-45 0 -86.5 -16.5t-73 -47t-49.5 -74.5t-18 -95q0 -38 12 -78.5t44 -79t79 -57t92 -18.5z" />
    <glyph glyph-name="Abreve" unicode="&#x102;" horiz-adv-x="768" 
d="M384 835q-24 0 -53 11t-49.5 40.5t-20.5 67.5h19q0 -45 30 -73t74 -28t74 28t30 73h19q0 -25 -12 -53t-42.5 -47t-68.5 -19zM748 0h-23l-100 214h-482l-100 -214h-23l355 760h18zM616 234l-232 494l-231 -494h463z" />
    <glyph glyph-name="abreve" unicode="&#x103;" horiz-adv-x="655" 
d="M318 621q-24 0 -53 11t-49.5 40.5t-20.5 67.5h19q0 -45 30 -73t74 -28t74 28t30 73h19q0 -25 -12 -53t-42.5 -47t-68.5 -19zM550 486v-486h-21v138q-28 -69 -90 -108.5t-136 -39.5q-50 0 -95.5 18t-79.5 51t-53.5 80.5t-19.5 103.5t19.5 103.5t53.5 80.5t79.5 51t95.5 18
q74 0 136 -39.5t90 -108.5v138h21zM303 10q32 0 69 11t76 42t60 80t21 100t-18.5 95t-50.5 74.5t-73 47t-84 16.5q-45 0 -86.5 -16.5t-73 -47t-49.5 -74.5t-18 -95q0 -38 12 -78.5t44 -79t79 -57t92 -18.5z" />
    <glyph glyph-name="Aogonek" unicode="&#x104;" horiz-adv-x="768" 
d="M774 -161l5 -19q-30 -10 -49 -10q-34 0 -55.5 21t-21.5 55q0 21 10.5 45t60.5 72l-99 211h-482l-100 -214h-23l355 760h18l355 -760q-41 -39 -57.5 -63t-16.5 -51q0 -25 15.5 -40.5t39.5 -15.5q17 0 45 9zM616 234l-232 494l-231 -494h463z" />
    <glyph glyph-name="aogonek" unicode="&#x105;" horiz-adv-x="655" 
d="M576 -161l5 -19q-30 -10 -49 -10q-34 0 -55.5 21t-21.5 55q0 22 11 46t63 74v132q-28 -69 -90 -108.5t-136 -39.5q-50 0 -95.5 18t-79.5 51t-53.5 80.5t-19.5 103.5t19.5 103.5t53.5 80.5t79.5 51t95.5 18q74 0 136 -39.5t90 -108.5v138h21v-486q-41 -39 -57.5 -63
t-16.5 -51q0 -25 15.5 -40.5t39.5 -15.5q17 0 45 9zM303 10q32 0 69 11t76 42t60 80t21 100t-18.5 95t-50.5 74.5t-73 47t-84 16.5q-45 0 -86.5 -16.5t-73 -47t-49.5 -74.5t-18 -95q0 -38 12 -78.5t44 -79t79 -57t92 -18.5z" />
    <glyph glyph-name="Cacute" unicode="&#x106;" horiz-adv-x="894" 
d="M473 841h-21l93 136h23zM456 9q64 0 120.5 19t101.5 53.5t76.5 82.5t48.5 104l21 -6q-18 -59 -52 -109.5t-81.5 -87t-107.5 -56.5t-127 -20q-79 0 -150 30t-124 83.5t-82.5 125.5t-29.5 151q0 80 29.5 152t82.5 125.5t124 83.5t150 30q67 0 127 -20t107.5 -56.5t81.5 -87
t52 -110.5l-21 -6q-17 56 -48.5 104t-76.5 83t-101.5 54t-120.5 19q-74 0 -141.5 -28.5t-117 -79.5t-77.5 -119.5t-28 -143.5t28 -143t77.5 -119t117 -79.5t141.5 -28.5z" />
    <glyph glyph-name="cacute" unicode="&#x107;" horiz-adv-x="585" 
d="M327 627h-21l93 136h23zM307 12q76 0 133.5 40.5t77.5 106.5l19 -8q-22 -72 -84.5 -115.5t-145.5 -43.5q-52 0 -99 19t-81 53t-53 80.5t-19 99.5t19 99.5t53 80.5t81 53t99 19q83 0 145.5 -43.5t84.5 -115.5l-19 -8q-20 66 -77.5 106.5t-133.5 40.5q-48 0 -96 -19.5
t-80 -58.5t-43.5 -78.5t-11.5 -75.5t11.5 -75.5t43.5 -78.5t80 -58.5t96 -19.5z" />
    <glyph glyph-name="Cdotaccent" unicode="&#x10a;" horiz-adv-x="894" 
d="M456 876q-10 0 -17.5 7t-7.5 17q0 9 7.5 16.5t17.5 7.5t17.5 -7.5t7.5 -16.5q0 -10 -7.5 -17t-17.5 -7zM456 9q64 0 120.5 19t101.5 53.5t76.5 82.5t48.5 104l21 -6q-18 -59 -52 -109.5t-81.5 -87t-107.5 -56.5t-127 -20q-79 0 -150 30t-124 83.5t-82.5 125.5t-29.5 151
q0 80 29.5 152t82.5 125.5t124 83.5t150 30q67 0 127 -20t107.5 -56.5t81.5 -87t52 -110.5l-21 -6q-17 56 -48.5 104t-76.5 83t-101.5 54t-120.5 19q-74 0 -141.5 -28.5t-117 -79.5t-77.5 -119.5t-28 -143.5t28 -143t77.5 -119t117 -79.5t141.5 -28.5z" />
    <glyph glyph-name="cdotaccent" unicode="&#x10b;" horiz-adv-x="585" 
d="M310 662q-10 0 -17.5 7t-7.5 17q0 9 7.5 16.5t17.5 7.5t17.5 -7.5t7.5 -16.5q0 -10 -7.5 -17t-17.5 -7zM307 12q76 0 133.5 40.5t77.5 106.5l19 -8q-22 -72 -84.5 -115.5t-145.5 -43.5q-52 0 -99 19t-81 53t-53 80.5t-19 99.5t19 99.5t53 80.5t81 53t99 19
q83 0 145.5 -43.5t84.5 -115.5l-19 -8q-20 66 -77.5 106.5t-133.5 40.5q-48 0 -96 -19.5t-80 -58.5t-43.5 -78.5t-11.5 -75.5t11.5 -75.5t43.5 -78.5t80 -58.5t96 -19.5z" />
    <glyph glyph-name="Ccaron" unicode="&#x10c;" horiz-adv-x="894" 
d="M446 841l-120 135h25l105 -117l105 117h25l-120 -135h-20zM456 9q64 0 120.5 19t101.5 53.5t76.5 82.5t48.5 104l21 -6q-18 -59 -52 -109.5t-81.5 -87t-107.5 -56.5t-127 -20q-79 0 -150 30t-124 83.5t-82.5 125.5t-29.5 151q0 80 29.5 152t82.5 125.5t124 83.5t150 30
q67 0 127 -20t107.5 -56.5t81.5 -87t52 -110.5l-21 -6q-17 56 -48.5 104t-76.5 83t-101.5 54t-120.5 19q-74 0 -141.5 -28.5t-117 -79.5t-77.5 -119.5t-28 -143.5t28 -143t77.5 -119t117 -79.5t141.5 -28.5z" />
    <glyph glyph-name="ccaron" unicode="&#x10d;" horiz-adv-x="585" 
d="M300 627l-120 135h25l105 -117l105 117h25l-120 -135h-20zM307 12q76 0 133.5 40.5t77.5 106.5l19 -8q-22 -72 -84.5 -115.5t-145.5 -43.5q-52 0 -99 19t-81 53t-53 80.5t-19 99.5t19 99.5t53 80.5t81 53t99 19q83 0 145.5 -43.5t84.5 -115.5l-19 -8q-20 66 -77.5 106.5
t-133.5 40.5q-48 0 -96 -19.5t-80 -58.5t-43.5 -78.5t-11.5 -75.5t11.5 -75.5t43.5 -78.5t80 -58.5t96 -19.5z" />
    <glyph glyph-name="Dcaron" unicode="&#x10e;" horiz-adv-x="856" 
d="M380 841l-120 135h25l105 -117l105 117h25l-120 -135h-20zM105 760h254q93 0 172.5 -27t136.5 -77.5t87.5 -121.5t30.5 -154t-30.5 -154t-87.5 -121.5t-136.5 -77.5t-172.5 -27h-254v760zM127 20h230q89 0 165 26t130 73.5t83 114.5t29 146t-29 146t-83 114.5t-130 73.5
t-165 26h-230v-720z" />
    <glyph glyph-name="dcaron" unicode="&#x10f;" horiz-adv-x="655" 
d="M529 800h21v-800h-21v138q-28 -69 -90 -108.5t-136 -39.5q-50 0 -95.5 18t-79.5 51t-53.5 80.5t-19.5 103.5t19.5 103.5t53.5 80.5t79.5 51t95.5 18q74 0 136 -39.5t90 -108.5v452zM678 800l-4 -146h-18v146h22zM303 10q32 0 69 11t76 42t60 80t21 100t-18.5 95
t-50.5 74.5t-73 47t-84 16.5q-45 0 -86.5 -16.5t-73 -47t-49.5 -74.5t-18 -95q0 -38 12 -78.5t44 -79t79 -57t92 -18.5z" />
    <glyph glyph-name="Dcroat" unicode="&#x110;" horiz-adv-x="876" 
d="M125 760h254q93 0 172.5 -27t136.5 -77.5t87.5 -121.5t30.5 -154t-30.5 -154t-87.5 -121.5t-136.5 -77.5t-172.5 -27h-254v368h-95v20h95v372zM147 20h230q89 0 165 26t130 73.5t83 114.5t29 146t-29 146t-83 114.5t-130 73.5t-165 26h-230v-352h191v-20h-191v-348z" />
    <glyph glyph-name="dcroat" unicode="&#x111;" 
d="M640 632h-90v-632h-21v138q-28 -69 -90 -108.5t-136 -39.5q-50 0 -95.5 18t-79.5 51t-53.5 80.5t-19.5 103.5t19.5 103.5t53.5 80.5t79.5 51t95.5 18q74 0 136 -39.5t90 -108.5v284h-199v20h199v148h21v-148h90v-20zM303 10q32 0 69 11t76 42t60 80t21 100t-18.5 95
t-50.5 74.5t-73 47t-84 16.5q-45 0 -86.5 -16.5t-73 -47t-49.5 -74.5t-18 -95q0 -38 12 -78.5t44 -79t79 -57t92 -18.5z" />
    <glyph glyph-name="Emacron" unicode="&#x112;" horiz-adv-x="690" 
d="M503 869h-250v17h250v-17zM127 740v-350h475v-20h-475v-350h498v-20h-520v760h520v-20h-498z" />
    <glyph glyph-name="emacron" unicode="&#x113;" horiz-adv-x="594" 
d="M432 655h-250v17h250v-17zM76 248v-5v-2q0 -39 13 -79.5t46 -78t78.5 -55.5t85.5 -18q47 0 87 14.5t73 46t52 84.5l18 -6q-25 -76 -85 -117.5t-145 -41.5q-45 0 -89 17.5t-79 50t-55.5 80t-20.5 103.5q0 57 20.5 105t56.5 81.5t81.5 51t93.5 17.5q100 0 164.5 -66
t67.5 -172v-10h-463zM307 476q-40 0 -80 -14.5t-72 -41.5t-53 -66t-25 -86h440q-6 94 -65 151t-145 57z" />
    <glyph glyph-name="Edotaccent" unicode="&#x116;" horiz-adv-x="690" 
d="M378 876q-10 0 -17.5 7t-7.5 17q0 9 7.5 16.5t17.5 7.5t17.5 -7.5t7.5 -16.5q0 -10 -7.5 -17t-17.5 -7zM127 740v-350h475v-20h-475v-350h498v-20h-520v760h520v-20h-498z" />
    <glyph glyph-name="edotaccent" unicode="&#x117;" horiz-adv-x="594" 
d="M307 662q-10 0 -17.5 7t-7.5 17q0 9 7.5 16.5t17.5 7.5t17.5 -7.5t7.5 -16.5q0 -10 -7.5 -17t-17.5 -7zM76 248v-5v-2q0 -39 13 -79.5t46 -78t78.5 -55.5t85.5 -18q47 0 87 14.5t73 46t52 84.5l18 -6q-25 -76 -85 -117.5t-145 -41.5q-45 0 -89 17.5t-79 50t-55.5 80
t-20.5 103.5q0 57 20.5 105t56.5 81.5t81.5 51t93.5 17.5q100 0 164.5 -66t67.5 -172v-10h-463zM307 476q-40 0 -80 -14.5t-72 -41.5t-53 -66t-25 -86h440q-6 94 -65 151t-145 57z" />
    <glyph glyph-name="Eogonek" unicode="&#x118;" horiz-adv-x="690" 
d="M127 740v-350h475v-20h-475v-350h498v-20h-46q-41 -39 -57.5 -63t-16.5 -51q0 -25 15.5 -40.5t39.5 -15.5q17 0 45 9l5 -19q-30 -10 -49 -10q-34 0 -55.5 21t-21.5 55q0 20 10.5 44t57.5 70h-447v760h520v-20h-498z" />
    <glyph glyph-name="eogonek" unicode="&#x119;" horiz-adv-x="595" 
d="M76 248v-3v-2q0 -39 10.5 -74t29.5 -62.5t44 -48t60 -34.5t76 -14q72 0 133.5 43.5t82.5 105.5l15 -6q-11 -35 -38 -71q-72 -94 -92 -126.5t-20 -60.5q0 -29 17.5 -44t46.5 -15q22 0 46 12l6 -20q-27 -13 -52 -13q-38 0 -61.5 21.5t-23.5 57.5q0 19 10.5 44.5t56.5 89.5
q-30 -19 -58.5 -28.5t-68.5 -9.5q-46 0 -90 17.5t-78 51t-53.5 81t-19.5 103.5q0 42 12.5 80t34 68.5t50.5 52.5t69 37.5t86 15.5q36 0 75 -11.5t77.5 -43.5t59 -82t21.5 -101v-11h-464zM307 477q-39 0 -78.5 -14.5t-72 -42t-54 -67t-25.5 -85.5h441q-7 96 -66.5 152.5
t-144.5 56.5z" />
    <glyph glyph-name="Ecaron" unicode="&#x11a;" horiz-adv-x="690" 
d="M368 841l-120 135h25l105 -117l105 117h25l-120 -135h-20zM127 740v-350h475v-20h-475v-350h498v-20h-520v760h520v-20h-498z" />
    <glyph glyph-name="ecaron" unicode="&#x11b;" horiz-adv-x="594" 
d="M297 627l-120 135h25l105 -117l105 117h25l-120 -135h-20zM76 248v-5v-2q0 -39 13 -79.5t46 -78t78.5 -55.5t85.5 -18q47 0 87 14.5t73 46t52 84.5l18 -6q-25 -76 -85 -117.5t-145 -41.5q-45 0 -89 17.5t-79 50t-55.5 80t-20.5 103.5q0 57 20.5 105t56.5 81.5t81.5 51
t93.5 17.5q100 0 164.5 -66t67.5 -172v-10h-463zM307 476q-40 0 -80 -14.5t-72 -41.5t-53 -66t-25 -86h440q-6 94 -65 151t-145 57z" />
    <glyph glyph-name="Gbreve" unicode="&#x11e;" horiz-adv-x="913" 
d="M457 835q-24 0 -53 11t-49.5 40.5t-20.5 67.5h19q0 -45 30 -73t74 -28t74 28t30 73h19q0 -25 -12 -53t-42.5 -47t-68.5 -19zM805 292v-292h-22v205q-40 -108 -125.5 -162t-200.5 -54q-79 0 -150 30t-124.5 83.5t-83 125.5t-29.5 151q0 80 29.5 152t82.5 125.5t124 83.5
t149 30q64 0 123.5 -20t108 -57t83.5 -88t53 -110l-21 -6q-16 56 -49 104t-79 83.5t-102 54.5t-117 19q-74 0 -141 -28.5t-116.5 -79.5t-77.5 -119.5t-28 -143.5t28 -143.5t78 -119t117.5 -79t141.5 -28.5q89 0 154.5 32.5t108.5 90t63 140.5h-435v20h457z" />
    <glyph glyph-name="gbreve" unicode="&#x11f;" horiz-adv-x="655" 
d="M315 621q-24 0 -53 11t-49.5 40.5t-20.5 67.5h19q0 -45 30 -73t74 -28t74 28t30 73h19q0 -25 -12 -53t-42.5 -47t-68.5 -19zM550 486v-555q0 -46 -21.5 -91.5t-62.5 -76.5t-80 -42t-74 -11q-94 0 -154.5 38.5t-85.5 107.5l22 8q10 -28 33.5 -60.5t71 -53t113.5 -20.5
q53 0 105.5 26t82 74.5t29.5 100.5v207q-28 -69 -90 -108.5t-136 -39.5q-50 0 -95.5 18t-79.5 51t-53.5 80.5t-19.5 103.5t19.5 103.5t53.5 80.5t79.5 51t95.5 18q74 0 136 -39.5t90 -108.5v138h21zM303 10q32 0 69 11t76 42t60 80t21 100t-18.5 95t-50.5 74.5t-73 47
t-84 16.5q-45 0 -86.5 -16.5t-73 -47t-49.5 -74.5t-18 -95q0 -38 12 -78.5t44 -79t79 -57t92 -18.5z" />
    <glyph glyph-name="Gdotaccent" unicode="&#x120;" horiz-adv-x="913" 
d="M457 876q-10 0 -17.5 7t-7.5 17q0 9 7.5 16.5t17.5 7.5t17.5 -7.5t7.5 -16.5q0 -10 -7.5 -17t-17.5 -7zM805 292v-292h-22v205q-40 -108 -125.5 -162t-200.5 -54q-79 0 -150 30t-124.5 83.5t-83 125.5t-29.5 151q0 80 29.5 152t82.5 125.5t124 83.5t149 30
q64 0 123.5 -20t108 -57t83.5 -88t53 -110l-21 -6q-16 56 -49 104t-79 83.5t-102 54.5t-117 19q-74 0 -141 -28.5t-116.5 -79.5t-77.5 -119.5t-28 -143.5t28 -143.5t78 -119t117.5 -79t141.5 -28.5q89 0 154.5 32.5t108.5 90t63 140.5h-435v20h457z" />
    <glyph glyph-name="gdotaccent" unicode="&#x121;" horiz-adv-x="655" 
d="M315 662q-10 0 -17.5 7t-7.5 17q0 9 7.5 16.5t17.5 7.5t17.5 -7.5t7.5 -16.5q0 -10 -7.5 -17t-17.5 -7zM550 486v-555q0 -46 -21.5 -91.5t-62.5 -76.5t-80 -42t-74 -11q-94 0 -154.5 38.5t-85.5 107.5l22 8q10 -28 33.5 -60.5t71 -53t113.5 -20.5q53 0 105.5 26t82 74.5
t29.5 100.5v207q-28 -69 -90 -108.5t-136 -39.5q-50 0 -95.5 18t-79.5 51t-53.5 80.5t-19.5 103.5t19.5 103.5t53.5 80.5t79.5 51t95.5 18q74 0 136 -39.5t90 -108.5v138h21zM303 10q32 0 69 11t76 42t60 80t21 100t-18.5 95t-50.5 74.5t-73 47t-84 16.5q-45 0 -86.5 -16.5
t-73 -47t-49.5 -74.5t-18 -95q0 -38 12 -78.5t44 -79t79 -57t92 -18.5z" />
    <glyph glyph-name="Gcommaaccent" unicode="&#x122;" horiz-adv-x="913" 
d="M805 292v-292h-22v205q-40 -108 -125.5 -162t-200.5 -54q-79 0 -150 30t-124.5 83.5t-83 125.5t-29.5 151q0 80 29.5 152t82.5 125.5t124 83.5t149 30q64 0 123.5 -20t108 -57t83.5 -88t53 -110l-21 -6q-16 56 -49 104t-79 83.5t-102 54.5t-117 19q-74 0 -141 -28.5
t-116.5 -79.5t-77.5 -119.5t-28 -143.5t28 -143.5t78 -119t117.5 -79t141.5 -28.5q89 0 154.5 32.5t108.5 90t63 140.5h-435v20h457zM431 -45h23l-46 -135h-20z" />
    <glyph glyph-name="gcommaaccent" unicode="&#x123;" horiz-adv-x="655" 
d="M326 624h-23l46 135h20zM550 486v-555q0 -46 -21.5 -91.5t-62.5 -76.5t-80 -42t-74 -11q-94 0 -154.5 38.5t-85.5 107.5l22 8q10 -28 33.5 -60.5t71 -53t113.5 -20.5q53 0 105.5 26t82 74.5t29.5 100.5v207q-28 -69 -90 -108.5t-136 -39.5q-50 0 -95.5 18t-79.5 51
t-53.5 80.5t-19.5 103.5t19.5 103.5t53.5 80.5t79.5 51t95.5 18q74 0 136 -39.5t90 -108.5v138h21zM303 10q32 0 69 11t76 42t60 80t21 100t-18.5 95t-50.5 74.5t-73 47t-84 16.5q-45 0 -86.5 -16.5t-73 -47t-49.5 -74.5t-18 -95q0 -38 12 -78.5t44 -79t79 -57t92 -18.5z
" />
    <glyph glyph-name="Hbar" unicode="&#x126;" horiz-adv-x="799" 
d="M769 562h-75v-562h-22v370h-545v-370h-22v562h-75v20h75v178h22v-178h545v178h22v-178h75v-20zM672 562h-545v-172h545v172z" />
    <glyph glyph-name="hbar" unicode="&#x127;" horiz-adv-x="647" 
d="M356 496q88 0 142 -58t54 -152v-286h-21v286q0 85 -47.5 137.5t-124.5 52.5q-98 0 -158 -61.5t-60 -161.5v-253h-21v635h-90v17h90v148h21v-148h199v-17h-199v-284q24 68 81 106.5t134 38.5z" />
    <glyph glyph-name="Imacron" unicode="&#x12a;" horiz-adv-x="542" 
d="M397 869h-250v17h250v-17zM282 740v-720h210v-20h-442v20h210v720h-210v20h442v-20h-210z" />
    <glyph glyph-name="imacron" unicode="&#x12b;" horiz-adv-x="261" 
d="M256 655h-250v17h250v-17zM141 0h-21v486h21v-486z" />
    <glyph glyph-name="Iogonek" unicode="&#x12e;" horiz-adv-x="542" 
d="M282 740v-720h210v-20h-210q-41 -39 -57.5 -63t-16.5 -51q0 -25 15.5 -40.5t39.5 -15.5q17 0 45 9l5 -19q-30 -10 -49 -10q-34 0 -55.5 21t-21.5 55q0 20 10.5 44t57.5 70h-205v20h210v720h-210v20h442v-20h-210z" />
    <glyph glyph-name="iogonek" unicode="&#x12f;" horiz-adv-x="261" 
d="M131 662q-10 0 -17.5 7t-7.5 17q0 9 7.5 16.5t17.5 7.5t17.5 -7.5t7.5 -16.5q0 -10 -7.5 -17t-17.5 -7zM167 -161l5 -19q-30 -10 -49 -10q-34 0 -55.5 21t-21.5 55q0 22 11 46t63 74v480h21v-486q-41 -39 -57.5 -63t-16.5 -51q0 -25 15.5 -40.5t39.5 -15.5q17 0 45 9z
" />
    <glyph glyph-name="Idotaccent" unicode="&#x130;" horiz-adv-x="542" 
d="M272 876q-10 0 -17.5 7t-7.5 17q0 9 7.5 16.5t17.5 7.5t17.5 -7.5t7.5 -16.5q0 -10 -7.5 -17t-17.5 -7zM282 740v-720h210v-20h-442v20h210v720h-210v20h442v-20h-210z" />
    <glyph glyph-name="dotlessi" unicode="&#x131;" horiz-adv-x="261" 
d="M141 0h-21v486h21v-486z" />
    <glyph glyph-name="IJ" unicode="&#x132;" horiz-adv-x="1256" 
d="M492 760v-20h-210v-720h210v-20h-442v20h210v720h-210v20h442zM1161 760v-437q0 -73 -21.5 -135.5t-61 -106.5t-95.5 -68t-121 -24q-41 0 -85 11.5t-84.5 39.5t-72.5 76t-46 117l21 7q21 -106 92 -168t175 -62q45 0 92.5 15t88 51.5t61.5 83.5t27.5 88.5t6.5 74.5v417
h-399v20h422z" />
    <glyph glyph-name="ij" unicode="&#x133;" horiz-adv-x="502" 
d="M125 709q10 0 17.5 -7.5t7.5 -16.5q0 -10 -7.5 -17t-17.5 -7t-17.5 7t-7.5 17q0 9 7.5 16.5t17.5 7.5zM376 709q10 0 17.5 -7.5t7.5 -16.5q0 -10 -7.5 -17t-17.5 -7t-17.5 7t-7.5 17q0 9 7.5 16.5t17.5 7.5zM136 0h-21v486h21v-486zM387 -280h-21v766h21v-766z" />
    <glyph glyph-name="Kcommaaccent" unicode="&#x136;" horiz-adv-x="828" 
d="M778 0h-28l-334 370l-289 -370h-22v760h22v-725l564 725h29l-291 -373zM409 -45h23l-46 -135h-20z" />
    <glyph glyph-name="kcommaaccent" unicode="&#x137;" horiz-adv-x="611" 
d="M126 800v-800h-21v800h21zM591 0h-33l-239 239l-193 -239l1 34l364 452h29l-186 -229zM304 -45h23l-46 -135h-20z" />
    <glyph glyph-name="Lacute" unicode="&#x139;" horiz-adv-x="610" 
d="M133 841h-21l93 136h23zM580 20v-20h-475v760h22v-740h453z" />
    <glyph glyph-name="lacute" unicode="&#x13a;" horiz-adv-x="294" 
d="M123 881h-21l93 136h23zM116 800v-707q0 -37 23 -60t60 -23q31 0 56 18l9 -17q-30 -21 -67 -21q-21 0 -45.5 9.5t-40.5 34.5t-16 59v707h21z" />
    <glyph glyph-name="Lcommaaccent" unicode="&#x13b;" horiz-adv-x="610" 
d="M580 20v-20h-475v760h22v-740h453zM333 -45h23l-46 -135h-20z" />
    <glyph glyph-name="lcommaaccent" unicode="&#x13c;" horiz-adv-x="294" 
d="M116 800v-707q0 -37 23 -60t60 -23q31 0 56 18l9 -17q-30 -21 -67 -21q-21 0 -45.5 9.5t-40.5 34.5t-16 59v707h21zM118 -180l43 135h23l-46 -135h-20z" />
    <glyph glyph-name="Lcaron" unicode="&#x13d;" horiz-adv-x="610" 
d="M580 20v-20h-475v760h22v-740h453zM349 614h-18v146h22z" />
    <glyph glyph-name="lcaron" unicode="&#x13e;" horiz-adv-x="294" 
d="M116 800v-707q0 -37 23 -60t60 -23q31 0 56 18l9 -17q-30 -21 -67 -21q-21 0 -45.5 9.5t-40.5 34.5t-16 59v707h21zM232 654h-18v146h22z" />
    <glyph glyph-name="Ldot" unicode="&#x13f;" horiz-adv-x="630" 
d="M580 20v-20h-475v760h22v-740h453zM368 316q-10 0 -17.5 7t-7.5 17q0 9 7.5 16.5t17.5 7.5t17.5 -7.5t7.5 -16.5q0 -10 -7.5 -17t-17.5 -7z" />
    <glyph glyph-name="ldot" unicode="&#x140;" horiz-adv-x="304" 
d="M126 800v-707q0 -37 23 -60t60 -23q31 0 56 18l9 -17q-30 -21 -67 -21q-21 0 -45.5 9.5t-40.5 34.5t-16 59v707h21zM268 354q10 0 17.5 -7.5t7.5 -16.5q0 -10 -7.5 -17t-17.5 -7t-17.5 7t-7.5 17q0 9 7.5 16.5t17.5 7.5z" />
    <glyph glyph-name="Lslash" unicode="&#x141;" horiz-adv-x="620" 
d="M590 20v-20h-475v322l-85 -43v24l85 43v414h22v-403l193 96v-24l-193 -96v-313h453z" />
    <glyph glyph-name="lslash" unicode="&#x142;" horiz-adv-x="319" 
d="M280 28l9 -17q-30 -21 -67 -21q-21 0 -45.5 9.5t-40.5 34.5t-16 59v238l-90 -61v23l90 61v446h21v-431l109 74v-23l-109 -74v-253q0 -37 23 -60t60 -23q31 0 56 18z" />
    <glyph glyph-name="Nacute" unicode="&#x143;" horiz-adv-x="859" 
d="M449 841h-21l93 136h23zM754 760v-760h-22v269l-604 463l-1 -732h-22v760h23l604 -464v464h22z" />
    <glyph glyph-name="nacute" unicode="&#x144;" horiz-adv-x="632" 
d="M346 627h-21l93 136h23zM341 496q88 0 142 -58t54 -152v-286h-21v286q0 85 -47.5 137.5t-124.5 52.5q-98 0 -158 -61.5t-60 -161.5v-253h-21v486h21v-135q24 68 81 106.5t134 38.5z" />
    <glyph glyph-name="Ncommaaccent" unicode="&#x145;" horiz-adv-x="859" 
d="M754 760v-760h-22v269l-604 463l-1 -732h-22v760h23l604 -464v464h22zM411 -45h23l-46 -135h-20z" />
    <glyph glyph-name="ncommaaccent" unicode="&#x146;" horiz-adv-x="632" 
d="M341 496q88 0 142 -58t54 -152v-286h-21v286q0 85 -47.5 137.5t-124.5 52.5q-98 0 -158 -61.5t-60 -161.5v-253h-21v486h21v-135q24 68 81 106.5t134 38.5zM320 -45h23l-46 -135h-20z" />
    <glyph glyph-name="Ncaron" unicode="&#x147;" horiz-adv-x="859" 
d="M422 841l-120 135h25l105 -117l105 117h25l-120 -135h-20zM754 760v-760h-22v269l-604 463l-1 -732h-22v760h23l604 -464v464h22z" />
    <glyph glyph-name="ncaron" unicode="&#x148;" horiz-adv-x="632" 
d="M319 627l-120 135h25l105 -117l105 117h25l-120 -135h-20zM341 496q88 0 142 -58t54 -152v-286h-21v286q0 85 -47.5 137.5t-124.5 52.5q-98 0 -158 -61.5t-60 -161.5v-253h-21v486h21v-135q24 68 81 106.5t134 38.5z" />
    <glyph glyph-name="Eng" unicode="&#x14a;" horiz-adv-x="859" 
d="M754 760v-947q0 -22 -9.5 -46t-34.5 -40.5t-58 -16.5q-37 0 -67 21l9 19q26 -18 56 -18q37 0 59.5 22t22.5 59v456l-604 463l-1 -732h-22v760h23l604 -464v464h22z" />
    <glyph glyph-name="eng" unicode="&#x14b;" horiz-adv-x="632" 
d="M341 496q88 0 142 -58t54 -152v-363q0 -22 -9.5 -46t-34.5 -40.5t-58 -16.5q-37 0 -67 21l9 17q26 -18 56 -18q37 0 60 23t23 60v363q0 85 -47.5 137.5t-124.5 52.5q-98 0 -158 -61.5t-60 -161.5v-253h-21v486h21v-135q24 68 81 106.5t134 38.5z" />
    <glyph glyph-name="Omacron" unicode="&#x14c;" horiz-adv-x="909" 
d="M580 869h-250v17h250v-17zM455 770q78 0 149 -30t123.5 -83.5t82 -125.5t29.5 -152q0 -79 -29.5 -151t-82 -125.5t-123.5 -83t-149 -29.5t-149 29.5t-124 83t-82.5 125t-29.5 151.5t29.5 152t82.5 125.5t124 83.5t149 30zM455 10q74 0 140.5 28.5t116.5 79t77.5 118.5
t27.5 143t-28 143.5t-77.5 119.5t-116 79.5t-140.5 28.5t-141 -28.5t-116.5 -79.5t-77.5 -119.5t-28 -143.5t28 -143t77.5 -118.5t116.5 -79t141 -28.5z" />
    <glyph glyph-name="omacron" unicode="&#x14d;" horiz-adv-x="615" 
d="M432 655h-250v17h250v-17zM307 496q53 0 99.5 -19t81 -53t53.5 -80.5t19 -99.5t-19 -100t-53.5 -81.5t-81 -53.5t-99.5 -19q-52 0 -99 19t-81 53.5t-53 81.5t-19 100t19 99.5t53 80.5t81 53t99 19zM307 10q48 0 91 17.5t74.5 49.5t49 75t17.5 92t-17.5 92t-49 74
t-74.5 48.5t-91 17.5t-96 -19.5t-80 -58.5t-43.5 -78.5t-11.5 -75.5t11.5 -76t43.5 -79t80 -59t96 -20z" />
    <glyph glyph-name="Ohungarumlaut" unicode="&#x150;" horiz-adv-x="909" 
d="M401 841h-21l92 135h27zM523 841h-21l91 135h27zM455 770q78 0 149 -30t123.5 -83.5t82 -125.5t29.5 -152q0 -79 -29.5 -151t-82 -125.5t-123.5 -83t-149 -29.5t-149 29.5t-124 83t-82.5 125t-29.5 151.5t29.5 152t82.5 125.5t124 83.5t149 30zM455 10q74 0 140.5 28.5
t116.5 79t77.5 118.5t27.5 143t-28 143.5t-77.5 119.5t-116 79.5t-140.5 28.5t-141 -28.5t-116.5 -79.5t-77.5 -119.5t-28 -143.5t28 -143t77.5 -118.5t116.5 -79t141 -28.5z" />
    <glyph glyph-name="ohungarumlaut" unicode="&#x151;" horiz-adv-x="615" 
d="M253 627h-21l92 135h27zM375 627h-21l91 135h27zM307 496q53 0 99.5 -19t81 -53t53.5 -80.5t19 -99.5t-19 -100t-53.5 -81.5t-81 -53.5t-99.5 -19q-52 0 -99 19t-81 53.5t-53 81.5t-19 100t19 99.5t53 80.5t81 53t99 19zM307 10q48 0 91 17.5t74.5 49.5t49 75t17.5 92
t-17.5 92t-49 74t-74.5 48.5t-91 17.5t-96 -19.5t-80 -58.5t-43.5 -78.5t-11.5 -75.5t11.5 -76t43.5 -79t80 -59t96 -20z" />
    <glyph glyph-name="OE" unicode="&#x152;" horiz-adv-x="1122" 
d="M599 740v-310h437v-20h-437v-390h458v-20h-546q-97 0 -179 27t-140.5 77.5t-90 121.5t-31.5 154t31.5 154t90 121.5t140.5 77.5t179 27h546v-20h-458zM577 20v720h-66q-92 0 -170 -26t-133.5 -73.5t-85.5 -114.5t-30 -146t30 -146t85.5 -114.5t133.5 -73.5t170 -26h66z
" />
    <glyph glyph-name="oe" unicode="&#x153;" horiz-adv-x="1079" 
d="M561 248v-5v-2q0 -39 13 -79.5t46 -78t78.5 -55.5t85.5 -18q47 0 87 14.5t73 46t52 84.5l18 -6q-25 -76 -85 -117.5t-145 -41.5q-47 0 -97.5 21t-86.5 63.5t-50 93.5q-23 -79 -89.5 -128.5t-153.5 -49.5q-52 0 -99 19t-81 53.5t-53 81.5t-19 100t19 99.5t53 80.5t81 53
t99 19q88 0 154.5 -49.5t88.5 -129.5q14 51 47.5 90t83.5 64t111 25q100 0 164.5 -66t67.5 -172v-10h-463zM307 10q48 0 91 17.5t74.5 49.5t49 75t17.5 92t-17.5 92t-49 74t-74.5 48.5t-91 17.5t-96 -19.5t-80 -58.5t-43.5 -78.5t-11.5 -75.5t11.5 -76t43.5 -79t80 -59
t96 -20zM792 476q-40 0 -80 -14.5t-72 -41.5t-53 -66t-25 -86h440q-6 94 -65 151t-145 57z" />
    <glyph glyph-name="Racute" unicode="&#x154;" horiz-adv-x="776" 
d="M373 841h-21l93 136h23zM726 0h-35l-254 214l-42 -2h-268v-212h-22v760h290q70 0 127.5 -19.5t97.5 -55.5t61.5 -87t21.5 -112q0 -107 -63 -178.5t-173 -89.5zM127 232h268q65 0 118.5 18t91 51.5t57 81t19.5 103.5t-19.5 103.5t-57 81t-91 51.5t-118.5 18h-268v-508z
" />
    <glyph glyph-name="racute" unicode="&#x155;" horiz-adv-x="393" 
d="M226 627h-21l93 136h23zM344 489q19 0 34 -3l-5 -19q-10 2 -29 2q-37 0 -75.5 -14t-70 -46.5t-52 -81.5t-20.5 -109v-218h-21v486h21v-150q20 51 58.5 88.5t80.5 51t79 13.5z" />
    <glyph glyph-name="Rcommaaccent" unicode="&#x156;" horiz-adv-x="776" 
d="M726 0h-35l-254 214l-42 -2h-268v-212h-22v760h290q70 0 127.5 -19.5t97.5 -55.5t61.5 -87t21.5 -112q0 -107 -63 -178.5t-173 -89.5zM127 232h268q65 0 118.5 18t91 51.5t57 81t19.5 103.5t-19.5 103.5t-57 81t-91 51.5t-118.5 18h-268v-508zM354 -45h23l-46 -135h-20z
" />
    <glyph glyph-name="rcommaaccent" unicode="&#x157;" horiz-adv-x="393" 
d="M344 489q19 0 34 -3l-5 -19q-10 2 -29 2q-37 0 -75.5 -14t-70 -46.5t-52 -81.5t-20.5 -109v-218h-21v486h21v-150q20 51 58.5 88.5t80.5 51t79 13.5zM104 -45h23l-46 -135h-20z" />
    <glyph glyph-name="Rcaron" unicode="&#x158;" horiz-adv-x="776" 
d="M346 841l-120 135h25l105 -117l105 117h25l-120 -135h-20zM726 0h-35l-254 214l-42 -2h-268v-212h-22v760h290q70 0 127.5 -19.5t97.5 -55.5t61.5 -87t21.5 -112q0 -107 -63 -178.5t-173 -89.5zM127 232h268q65 0 118.5 18t91 51.5t57 81t19.5 103.5t-19.5 103.5t-57 81
t-91 51.5t-118.5 18h-268v-508z" />
    <glyph glyph-name="rcaron" unicode="&#x159;" horiz-adv-x="393" 
d="M199 627l-120 135h25l105 -117l105 117h25l-120 -135h-20zM344 489q19 0 34 -3l-5 -19q-10 2 -29 2q-37 0 -75.5 -14t-70 -46.5t-52 -81.5t-20.5 -109v-218h-21v486h21v-150q20 51 58.5 88.5t80.5 51t79 13.5z" />
    <glyph glyph-name="Sacute" unicode="&#x15a;" horiz-adv-x="642" 
d="M342 841h-21l93 136h23zM318 770q103 0 170 -54t84 -144l-21 -7q-17 86 -79 135t-154 49q-34 0 -70 -8.5t-66.5 -29t-51.5 -55.5t-21 -84q0 -53 30 -90t126 -66l161 -50q158 -49 158 -179q0 -43 -17.5 -79.5t-50 -63t-78 -41t-98.5 -14.5q-115 0 -192.5 62t-89.5 163
l24 6q4 -47 25 -86.5t55.5 -67t81 -42.5t98.5 -15q98 0 158.5 49.5t60.5 128.5q0 112 -138 156l-172 55q-92 29 -128.5 71t-36.5 104q0 88 64 142.5t168 54.5z" />
    <glyph glyph-name="sacute" unicode="&#x15b;" horiz-adv-x="483" 
d="M264 627h-21l93 136h23zM63 134l20 7q5 -60 51.5 -96t119.5 -36q31 0 66.5 10t58.5 38.5t23 70.5q0 39 -23 61.5t-72 33.5l-115 27q-60 14 -86.5 40t-26.5 70q0 63 44.5 99.5t116.5 36.5q69 0 113.5 -35t59.5 -91l-19 -8q-11 52 -52 83t-103 31q-60 0 -99.5 -30
t-39.5 -86q0 -36 22.5 -58t76.5 -34l110 -26q60 -15 87 -42.5t27 -71.5q0 -64 -46.5 -101t-122.5 -37q-49 0 -89 15.5t-68 47.5t-34 81z" />
    <glyph glyph-name="Scedilla" unicode="&#x15e;" horiz-adv-x="642" 
d="M584 187q0 -42 -17 -78t-48.5 -62.5t-75.5 -41.5t-96 -16l-94 -169h-26l99 169q-54 2 -101 19t-82 46.5t-57 70.5t-28 89l24 6q4 -47 25 -86.5t55.5 -67t81 -42.5t98.5 -15q98 0 158.5 49.5t60.5 128.5q0 112 -138 156l-172 55q-92 29 -128.5 71t-36.5 104q0 88 64 142.5
t168 54.5q103 0 170 -54t84 -144l-21 -7q-17 86 -79 135t-154 49q-34 0 -70 -8.5t-66.5 -29t-51.5 -55.5t-21 -84q0 -53 30 -90t126 -66l161 -50q158 -49 158 -179z" />
    <glyph glyph-name="scedilla" unicode="&#x15f;" horiz-adv-x="483" 
d="M423 128q0 -64 -46 -101t-122 -37l-94 -170h-26l100 171q-45 3 -80.5 19t-61 47t-30.5 77l20 7q5 -60 51.5 -96t119.5 -36q31 0 66.5 10t58.5 38.5t23 70.5q0 39 -23 61.5t-72 33.5l-115 27q-60 14 -86.5 40t-26.5 70q0 63 44.5 99.5t116.5 36.5q69 0 113.5 -35t59.5 -91
l-19 -8q-11 52 -52 83t-103 31q-60 0 -99.5 -30t-39.5 -86q0 -36 22.5 -58t76.5 -34l110 -26q60 -15 87 -42.5t27 -71.5z" />
    <glyph glyph-name="Scaron" unicode="&#x160;" horiz-adv-x="642" 
d="M315 841l-120 135h25l105 -117l105 117h25l-120 -135h-20zM265 416l161 -50q158 -49 158 -179q0 -43 -17.5 -79.5t-50 -63t-78 -41t-98.5 -14.5q-115 0 -192.5 62t-89.5 163l24 6q4 -47 25 -86.5t55.5 -67t81 -42.5t98.5 -15q98 0 158.5 49.5t60.5 128.5q0 112 -138 156
l-172 55q-92 29 -128.5 71t-36.5 104q0 88 64 142.5t168 54.5q103 0 170 -54t84 -144l-21 -7q-17 86 -79 135t-154 49q-34 0 -70 -8.5t-66.5 -29t-51.5 -55.5t-21 -84q0 -53 30 -90t126 -66z" />
    <glyph glyph-name="scaron" unicode="&#x161;" horiz-adv-x="483" 
d="M237 627l-120 135h25l105 -117l105 117h25l-120 -135h-20zM199 268l110 -26q60 -15 87 -42.5t27 -71.5q0 -64 -46.5 -101t-122.5 -37q-49 0 -89 15.5t-68 47.5t-34 81l20 7q5 -60 51.5 -96t119.5 -36q31 0 66.5 10t58.5 38.5t23 70.5q0 39 -23 61.5t-72 33.5l-115 27
q-60 14 -86.5 40t-26.5 70q0 63 44.5 99.5t116.5 36.5q69 0 113.5 -35t59.5 -91l-19 -8q-11 52 -52 83t-103 31q-60 0 -99.5 -30t-39.5 -86q0 -36 22.5 -58t76.5 -34z" />
    <glyph glyph-name="tcommaaccent" unicode="&#x163;" horiz-adv-x="373" 
d="M128 466v-343q0 -24 10 -50.5t37 -44.5t62 -18q47 0 86 36l12 -16q-43 -40 -99 -40h-7l-95 -170h-26l101 172q-46 9 -74 44.5t-28 86.5v343h-107v20h107v224l21 10v-234h240v-20h-240z" />
    <glyph glyph-name="Tcaron" unicode="&#x164;" horiz-adv-x="642" 
d="M312 841l-120 135h25l105 -117l105 117h25l-120 -135h-20zM612 740h-280v-740h-22v740h-280v20h582v-20z" />
    <glyph glyph-name="tcaron" unicode="&#x165;" horiz-adv-x="373" 
d="M261 614h-18v146h22zM128 466v-343q0 -24 10 -50.5t37 -44.5t62 -18q47 0 86 36l12 -16q-43 -40 -99 -40q-57 0 -93 37t-36 96v343h-107v20h107v224l21 10v-234h240v-20h-240z" />
    <glyph glyph-name="Tbar" unicode="&#x166;" horiz-adv-x="642" 
d="M332 740v-394h144v-19h-144v-327h-22v327h-144v19h144v394h-280v20h582v-20h-280z" />
    <glyph glyph-name="tbar" unicode="&#x167;" horiz-adv-x="373" 
d="M128 466v-146h233v-20h-233v-177q0 -24 10 -50.5t37 -44.5t62 -18q47 0 86 36l12 -16q-43 -40 -99 -40q-57 0 -93 37t-36 96v177h-106v20h106v146h-107v20h107v224l21 10v-234h240v-20h-240z" />
    <glyph glyph-name="Umacron" unicode="&#x16a;" horiz-adv-x="796" 
d="M522 869h-250v17h250v-17zM701 760v-437q0 -73 -22 -135.5t-62 -106.5t-97 -68t-123 -24t-122.5 24t-96.5 68t-61.5 106.5t-21.5 135.5v437h22v-437q0 -69 20 -127.5t57 -99.5t89.5 -63.5t113.5 -22.5q46 0 94.5 15t84.5 47t57.5 69.5t33 84t11.5 97.5v437h23z" />
    <glyph glyph-name="umacron" unicode="&#x16b;" horiz-adv-x="632" 
d="M434 655h-250v17h250v-17zM527 486v-486h-21v135q-24 -68 -81 -106.5t-134 -38.5q-88 0 -142 58t-54 152v286h21v-286q0 -85 47.5 -137.5t124.5 -52.5q98 0 158 61.5t60 161.5v253h21z" />
    <glyph glyph-name="Uring" unicode="&#x16e;" horiz-adv-x="796" 
d="M397 829q-36 0 -62 25.5t-26 60.5t26 60.5t62 25.5t62 -25.5t26 -60.5t-26 -60.5t-62 -25.5zM397 983q-29 0 -49.5 -20.5t-20.5 -47.5t20.5 -47.5t49.5 -20.5t49.5 20.5t20.5 47.5t-20.5 47.5t-49.5 20.5zM701 760v-437q0 -73 -22 -135.5t-62 -106.5t-97 -68t-123 -24
t-122.5 24t-96.5 68t-61.5 106.5t-21.5 135.5v437h22v-437q0 -69 20 -127.5t57 -99.5t89.5 -63.5t113.5 -22.5q46 0 94.5 15t84.5 47t57.5 69.5t33 84t11.5 97.5v437h23z" />
    <glyph glyph-name="uring" unicode="&#x16f;" horiz-adv-x="632" 
d="M309 615q-36 0 -62 25.5t-26 60.5t26 60.5t62 25.5t62 -25.5t26 -60.5t-26 -60.5t-62 -25.5zM309 769q-29 0 -49.5 -20.5t-20.5 -47.5t20.5 -47.5t49.5 -20.5t49.5 20.5t20.5 47.5t-20.5 47.5t-49.5 20.5zM527 486v-486h-21v135q-24 -68 -81 -106.5t-134 -38.5
q-88 0 -142 58t-54 152v286h21v-286q0 -85 47.5 -137.5t124.5 -52.5q98 0 158 61.5t60 161.5v253h21z" />
    <glyph glyph-name="Uhungarumlaut" unicode="&#x170;" horiz-adv-x="796" 
d="M343 841h-21l92 135h27zM465 841h-21l91 135h27zM701 760v-437q0 -73 -22 -135.5t-62 -106.5t-97 -68t-123 -24t-122.5 24t-96.5 68t-61.5 106.5t-21.5 135.5v437h22v-437q0 -69 20 -127.5t57 -99.5t89.5 -63.5t113.5 -22.5q46 0 94.5 15t84.5 47t57.5 69.5t33 84
t11.5 97.5v437h23z" />
    <glyph glyph-name="uhungarumlaut" unicode="&#x171;" horiz-adv-x="632" 
d="M255 627h-21l92 135h27zM377 627h-21l91 135h27zM527 486v-486h-21v135q-24 -68 -81 -106.5t-134 -38.5q-88 0 -142 58t-54 152v286h21v-286q0 -85 47.5 -137.5t124.5 -52.5q98 0 158 61.5t60 161.5v253h21z" />
    <glyph glyph-name="Uogonek" unicode="&#x172;" horiz-adv-x="795" 
d="M700 760v-443q0 -61 -13 -109t-37.5 -87t-56.5 -65q-20 -16 -69.5 -55.5t-67 -58t-21 -33t-3.5 -21.5q0 -26 17.5 -42t45.5 -16q19 0 50 12l6 -19q-35 -13 -55 -13q-38 0 -62 22t-24 57q0 29 19 53.5t72 63.5q-51 -16 -107 -16q-64 0 -119.5 22.5t-95.5 65.5t-62 104.5
t-22 134.5v443h22v-443q0 -69 20.5 -126.5t57.5 -97.5t89 -61t113 -21t113.5 21t89.5 61t57.5 97.5t20.5 126.5v443h22z" />
    <glyph glyph-name="uogonek" unicode="&#x173;" horiz-adv-x="632" 
d="M553 -161l5 -19q-30 -10 -49 -10q-34 0 -55.5 21t-21.5 55q0 22 11 46t63 74v129q-24 -68 -81 -106.5t-134 -38.5q-88 0 -142 58t-54 152v286h21v-286q0 -85 47.5 -137.5t124.5 -52.5q98 0 158 61.5t60 161.5v253h21v-486q-41 -39 -57.5 -63t-16.5 -51q0 -25 15.5 -40.5
t39.5 -15.5q17 0 45 9z" />
    <glyph glyph-name="Wcircumflex" unicode="&#x174;" horiz-adv-x="1064" 
d="M427 841h-25l120 135h20l120 -135h-25l-105 117zM1044 760l-249 -760h-19l-244 726l-244 -726h-19l-249 760h23l235 -726l243 726h22l243 -726l235 726h23z" />
    <glyph glyph-name="wcircumflex" unicode="&#x175;" horiz-adv-x="810" 
d="M300 627h-25l120 135h20l120 -135h-25l-105 117zM790 486l-188 -489h-25l-172 453l-172 -453h-25l-188 489h23l179 -456l174 456h18l174 -456l179 456h23z" />
    <glyph glyph-name="Ycircumflex" unicode="&#x176;" horiz-adv-x="720" 
d="M255 841h-25l120 135h20l120 -135h-25l-105 117zM371 254v-254h-22v254l-329 506h26l314 -486l314 486h26z" />
    <glyph glyph-name="ycircumflex" unicode="&#x177;" horiz-adv-x="632" 
d="M218 647h-25l120 135h20l120 -135h-25l-105 117zM527 486v-565q0 -42 -16 -81t-45 -68t-69.5 -45.5t-87.5 -16.5q-87 0 -146 38.5t-84 107.5l22 8q10 -29 34 -61.5t69 -52.5t105 -20q53 0 96 23t71.5 66.5t29.5 101.5v214q-24 -68 -81 -106.5t-134 -38.5q-88 0 -142 58
t-54 152v286h21v-286q0 -85 47.5 -137.5t124.5 -52.5q98 0 158 61.5t60 161.5v253h21z" />
    <glyph glyph-name="Ydieresis" unicode="&#x178;" horiz-adv-x="720" 
d="M260 876q-10 0 -17.5 7t-7.5 17q0 9 7.5 16.5t17.5 7.5t17.5 -7.5t7.5 -16.5q0 -10 -7.5 -17t-17.5 -7zM460 876q-10 0 -17.5 7t-7.5 17q0 9 7.5 16.5t17.5 7.5t17.5 -7.5t7.5 -16.5q0 -10 -7.5 -17t-17.5 -7zM371 254v-254h-22v254l-329 506h26l314 -486l314 486h26z
" />
    <glyph glyph-name="Zacute" unicode="&#x179;" horiz-adv-x="746" 
d="M400 841h-21l93 136h23zM686 747l-584 -727h584v-20h-616v13l583 727h-566v20h599v-13z" />
    <glyph glyph-name="zacute" unicode="&#x17a;" horiz-adv-x="469" 
d="M267 627h-21l93 136h23zM439 20v-20h-399v17l361 449h-350v20h379v-17l-361 -449h370z" />
    <glyph glyph-name="Zdotaccent" unicode="&#x17b;" horiz-adv-x="746" 
d="M383 876q-10 0 -17.5 7t-7.5 17q0 9 7.5 16.5t17.5 7.5t17.5 -7.5t7.5 -16.5q0 -10 -7.5 -17t-17.5 -7zM686 747l-584 -727h584v-20h-616v13l583 727h-566v20h599v-13z" />
    <glyph glyph-name="zdotaccent" unicode="&#x17c;" horiz-adv-x="469" 
d="M250 662q-10 0 -17.5 7t-7.5 17q0 9 7.5 16.5t17.5 7.5t17.5 -7.5t7.5 -16.5q0 -10 -7.5 -17t-17.5 -7zM439 20v-20h-399v17l361 449h-350v20h379v-17l-361 -449h370z" />
    <glyph glyph-name="Zcaron" unicode="&#x17d;" horiz-adv-x="746" 
d="M373 841l-120 135h25l105 -117l105 117h25l-120 -135h-20zM686 747l-584 -727h584v-20h-616v13l583 727h-566v20h599v-13z" />
    <glyph glyph-name="zcaron" unicode="&#x17e;" horiz-adv-x="469" 
d="M240 627l-120 135h25l105 -117l105 117h25l-120 -135h-20zM439 20v-20h-399v17l361 449h-350v20h379v-17l-361 -449h370z" />
    <glyph glyph-name="florin" unicode="&#x192;" horiz-adv-x="517" 
d="M406 750q-60 0 -100 -37.5t-51 -99.5l-49 -268h222v-20h-225l-70 -384q-9 -47 -42 -76.5t-78 -29.5q-38 0 -63 22l12 17q20 -19 52 -19q37 0 64 24t34 62l70 384h-137v20h140l49 268q13 71 59.5 114t115.5 43q65 0 105 -42l-14 -15q-37 37 -94 37z" />
    <glyph glyph-name="AEacute" unicode="&#x1fc;" horiz-adv-x="1139" 
d="M781 841h-21l93 136h23zM616 740v-310h437v-20h-437v-390h458v-20h-480v214h-388l-160 -214h-26l570 760h484v-20h-458zM594 234v498l-373 -498h373z" />
    <glyph glyph-name="aeacute" unicode="&#x1fd;" horiz-adv-x="953" 
d="M479 647h-21l93 136h23zM898 240h-432q0 -51 16.5 -94.5t45.5 -73.5t66.5 -46t78.5 -16q47 0 93 22.5t70.5 56t34.5 67.5l19 -6q-17 -69 -79 -114.5t-139 -45.5t-136 47t-81 126q-12 -49 -45 -90.5t-83.5 -62t-102.5 -20.5q-77 0 -123 37.5t-46 99.5q0 63 48.5 98
t131.5 35h210v63q0 69 -45.5 111t-121.5 42q-32 0 -71.5 -12t-69 -42.5t-35.5 -72.5l-21 6q7 62 62.5 101.5t133.5 39.5q77 0 127 -39.5t60 -106.5q28 70 84 108t128 38q36 0 74 -12t74 -45.5t54 -85t20 -104.5v-9zM466 260h410q-3 46 -18 85.5t-40.5 69t-61.5 45.5t-79 16
q-40 0 -77.5 -14.5t-66.5 -42t-46.5 -68.5t-20.5 -91zM445 240h-210q-32 0 -70.5 -9t-63.5 -36.5t-25 -67.5q0 -53 40 -85t107 -32q33 0 70.5 10.5t75 40t57 76t19.5 95.5v8z" />
    <glyph glyph-name="Scommaaccent" unicode="&#x218;" horiz-adv-x="642" 
d="M318 770q103 0 170 -54t84 -144l-21 -7q-17 86 -79 135t-154 49q-34 0 -70 -8.5t-66.5 -29t-51.5 -55.5t-21 -84q0 -53 30 -90t126 -66l161 -50q158 -49 158 -179q0 -43 -17.5 -79.5t-50 -63t-78 -41t-98.5 -14.5q-115 0 -192.5 62t-89.5 163l24 6q4 -47 25 -86.5
t55.5 -67t81 -42.5t98.5 -15q98 0 158.5 49.5t60.5 128.5q0 112 -138 156l-172 55q-92 29 -128.5 71t-36.5 104q0 88 64 142.5t168 54.5zM272 -180l43 135h23l-46 -135h-20z" />
    <glyph glyph-name="scommaaccent" unicode="&#x219;" horiz-adv-x="483" 
d="M63 134l20 7q5 -60 51.5 -96t119.5 -36q31 0 66.5 10t58.5 38.5t23 70.5q0 39 -23 61.5t-72 33.5l-115 27q-60 14 -86.5 40t-26.5 70q0 63 44.5 99.5t116.5 36.5q69 0 113.5 -35t59.5 -91l-19 -8q-11 52 -52 83t-103 31q-60 0 -99.5 -30t-39.5 -86q0 -36 22.5 -58
t76.5 -34l110 -26q60 -15 87 -42.5t27 -71.5q0 -64 -46.5 -101t-122.5 -37q-49 0 -89 15.5t-68 47.5t-34 81zM180 -180l43 135h23l-46 -135h-20z" />
    <glyph glyph-name="uni021A" unicode="&#x21a;" horiz-adv-x="642" 
d="M612 740h-280v-740h-22v740h-280v20h582v-20zM306 -45h23l-46 -135h-20z" />
    <glyph glyph-name="uni021B" unicode="&#x21b;" horiz-adv-x="373" 
d="M128 466v-343q0 -24 10 -50.5t37 -44.5t62 -18q47 0 86 36l12 -16q-43 -40 -99 -40q-57 0 -93 37t-36 96v343h-107v20h107v224l21 10v-234h240v-20h-240zM196 -45h23l-46 -135h-20z" />
    <glyph glyph-name="circumflex" unicode="&#x2c6;" horiz-adv-x="600" 
d="M405 567l-105 117l-105 -117h-25l120 135h20l120 -135h-25z" />
    <glyph glyph-name="caron" unicode="&#x2c7;" horiz-adv-x="600" 
d="M430 702l-120 -135h-20l-120 135h25l105 -117l105 117h25z" />
    <glyph glyph-name="breve" unicode="&#x2d8;" horiz-adv-x="600" 
d="M300 561q-24 0 -53 11t-49.5 40.5t-20.5 67.5h19q0 -45 30 -73t74 -28t74 28t30 73h19q0 -25 -12 -53t-42.5 -47t-68.5 -19z" />
    <glyph glyph-name="dotaccent" unicode="&#x2d9;" horiz-adv-x="600" 
d="M300 650q10 0 17.5 -7.5t7.5 -16.5q0 -10 -7.5 -17t-17.5 -7t-17.5 7t-7.5 17q0 9 7.5 16.5t17.5 7.5z" />
    <glyph glyph-name="ring" unicode="&#x2da;" horiz-adv-x="600" 
d="M388 640q0 -35 -26 -60.5t-62 -25.5t-62 25.5t-26 60.5t26 60.5t62 25.5t62 -25.5t26 -60.5zM370 640q0 27 -20.5 47.5t-49.5 20.5t-49.5 -20.5t-20.5 -47.5t20.5 -47.5t49.5 -20.5t49.5 20.5t20.5 47.5z" />
    <glyph glyph-name="ogonek" unicode="&#x2db;" horiz-adv-x="600" 
d="M297 12l15 -12q-41 -39 -57.5 -63t-16.5 -51q0 -25 15.5 -40.5t39.5 -15.5q17 0 45 9l5 -19q-30 -10 -49 -10q-34 0 -55.5 21t-21.5 55q0 29 17 55.5t63 70.5z" />
    <glyph glyph-name="tilde" unicode="&#x2dc;" horiz-adv-x="600" 
d="M190 600h-21q0 33 19 53t48 20q28 0 59 -24.5t43.5 -28.5t20.5 -4q21 0 33 15t12 41h21q0 -34 -18.5 -54.5t-47.5 -20.5q-27 0 -58.5 24.5t-43.5 28.5t-20 4q-22 0 -34.5 -14.5t-12.5 -39.5z" />
    <glyph glyph-name="hungarumlaut" unicode="&#x2dd;" horiz-adv-x="600" 
d="M214 567h-21l92 135h27zM336 567h-21l91 135h27z" />
    <glyph glyph-name="uni0326" unicode="&#x326;" horiz-adv-x="0" 
d="M235 -180l43 135h23l-46 -135h-20z" />
    <glyph glyph-name="Wgrave" unicode="&#x1e80;" horiz-adv-x="1064" 
d="M520 841l-95 136h23l93 -136h-21zM1044 760l-249 -760h-19l-244 726l-244 -726h-19l-249 760h23l235 -726l243 726h22l243 -726l235 726h23z" />
    <glyph glyph-name="wgrave" unicode="&#x1e81;" horiz-adv-x="810" 
d="M393 627l-95 136h23l93 -136h-21zM790 486l-188 -489h-25l-172 453l-172 -453h-25l-188 489h23l179 -456l174 456h18l174 -456l179 456h23z" />
    <glyph glyph-name="Wacute" unicode="&#x1e82;" horiz-adv-x="1064" 
d="M549 841h-21l93 136h23zM1044 760l-249 -760h-19l-244 726l-244 -726h-19l-249 760h23l235 -726l243 726h22l243 -726l235 726h23z" />
    <glyph glyph-name="wacute" unicode="&#x1e83;" horiz-adv-x="810" 
d="M422 627h-21l93 136h23zM790 486l-188 -489h-25l-172 453l-172 -453h-25l-188 489h23l179 -456l174 456h18l174 -456l179 456h23z" />
    <glyph glyph-name="Wdieresis" unicode="&#x1e84;" horiz-adv-x="1064" 
d="M432 876q-10 0 -17.5 7t-7.5 17q0 9 7.5 16.5t17.5 7.5t17.5 -7.5t7.5 -16.5q0 -10 -7.5 -17t-17.5 -7zM632 876q-10 0 -17.5 7t-7.5 17q0 9 7.5 16.5t17.5 7.5t17.5 -7.5t7.5 -16.5q0 -10 -7.5 -17t-17.5 -7zM1044 760l-249 -760h-19l-244 726l-244 -726h-19l-249 760
h23l235 -726l243 726h22l243 -726l235 726h23z" />
    <glyph glyph-name="wdieresis" unicode="&#x1e85;" horiz-adv-x="810" 
d="M305 662q-10 0 -17.5 7t-7.5 17q0 9 7.5 16.5t17.5 7.5t17.5 -7.5t7.5 -16.5q0 -10 -7.5 -17t-17.5 -7zM505 662q-10 0 -17.5 7t-7.5 17q0 9 7.5 16.5t17.5 7.5t17.5 -7.5t7.5 -16.5q0 -10 -7.5 -17t-17.5 -7zM790 486l-188 -489h-25l-172 453l-172 -453h-25l-188 489h23
l179 -456l174 456h18l174 -456l179 456h23z" />
    <glyph glyph-name="Ygrave" unicode="&#x1ef2;" horiz-adv-x="720" 
d="M348 841l-95 136h23l93 -136h-21zM371 254v-254h-22v254l-329 506h26l314 -486l314 486h26z" />
    <glyph glyph-name="ygrave" unicode="&#x1ef3;" horiz-adv-x="632" 
d="M311 647l-95 136h23l93 -136h-21zM527 486v-565q0 -42 -16 -81t-45 -68t-69.5 -45.5t-87.5 -16.5q-87 0 -146 38.5t-84 107.5l22 8q10 -29 34 -61.5t69 -52.5t105 -20q53 0 96 23t71.5 66.5t29.5 101.5v214q-24 -68 -81 -106.5t-134 -38.5q-88 0 -142 58t-54 152v286h21
v-286q0 -85 47.5 -137.5t124.5 -52.5q98 0 158 61.5t60 161.5v253h21z" />
    <glyph glyph-name="endash" unicode="&#x2013;" horiz-adv-x="620" 
d="M560 245h-500v20h500v-20z" />
    <glyph glyph-name="emdash" unicode="&#x2014;" horiz-adv-x="1250" 
d="M1190 245h-1130v20h1130v-20z" />
    <glyph glyph-name="quoteleft" unicode="&#x2018;" horiz-adv-x="218" 
d="M140 760h20l-72 -258h-28v2z" />
    <glyph glyph-name="quoteright" unicode="&#x2019;" horiz-adv-x="218" 
d="M80 502h-20l72 258h28v-2z" />
    <glyph glyph-name="quotesinglbase" unicode="&#x201a;" horiz-adv-x="218" 
d="M80 -132h-20l72 258h28v-2z" />
    <glyph glyph-name="quotedblleft" unicode="&#x201c;" horiz-adv-x="358" 
d="M140 760h20l-72 -258h-28v2zM280 760h20l-72 -258h-28v2z" />
    <glyph glyph-name="quotedblright" unicode="&#x201d;" horiz-adv-x="358" 
d="M80 502h-20l72 258h28v-2zM220 502h-20l72 258h28v-2z" />
    <glyph glyph-name="quotedblbase" unicode="&#x201e;" horiz-adv-x="358" 
d="M80 -132h-20l72 258h28v-2zM220 -132h-20l72 258h28v-2z" />
    <glyph glyph-name="dagger" unicode="&#x2020;" horiz-adv-x="310" 
d="M275 670v-21h-110v-235h-20v235h-110v21h110v90h20v-90h110z" />
    <glyph glyph-name="daggerdbl" unicode="&#x2021;" horiz-adv-x="310" 
d="M165 649v-124h110v-21h-110v-90h-20v90h-110v21h110v124h-110v21h110v90h20v-90h110v-21h-110z" />
    <glyph glyph-name="bullet" unicode="&#x2022;" horiz-adv-x="373" 
d="M186 390q38 0 70 -21t44.5 -49.5t12.5 -51.5q0 -38 -21.5 -68t-51 -41.5t-54.5 -11.5t-54.5 11.5t-50.5 41.5t-21 68q0 23 12.5 51.5t44 49.5t69.5 21z" />
    <glyph glyph-name="ellipsis" unicode="&#x2026;" horiz-adv-x="510" 
d="M85 46q10 0 17.5 -7.5t7.5 -16.5q0 -10 -7.5 -17t-17.5 -7t-17.5 7t-7.5 17q0 9 7.5 16.5t17.5 7.5zM255 46q10 0 17.5 -7.5t7.5 -16.5q0 -10 -7.5 -17t-17.5 -7t-17.5 7t-7.5 17q0 9 7.5 16.5t17.5 7.5zM425 46q10 0 17.5 -7.5t7.5 -16.5q0 -10 -7.5 -17t-17.5 -7
t-17.5 7t-7.5 17q0 9 7.5 16.5t17.5 7.5z" />
    <glyph glyph-name="perthousand" unicode="&#x2030;" horiz-adv-x="1240" 
d="M221 770q48 0 85 -22t56.5 -56.5t19.5 -78.5q0 -41 -19.5 -75t-56.5 -57t-85 -23q-47 0 -84 23t-57 57t-20 75q0 35 16.5 71.5t57 61t87.5 24.5zM156 0l511 760h23l-511 -760h-23zM221 753q-20 0 -43 -6.5t-45 -23t-38.5 -44.5t-16.5 -66q0 -22 8 -45.5t28.5 -45.5
t51 -33.5t55.5 -11.5q40 0 76.5 22t51 53.5t14.5 60.5q0 38 -17.5 69t-50.5 51t-74 20zM639 302q48 0 85 -22t56.5 -56.5t19.5 -78.5q0 -41 -19.5 -75t-56.5 -57t-85 -23q-47 0 -84 23t-57 57t-20 75q0 35 16.5 71.5t57 61t87.5 24.5zM1019 302q48 0 85 -22t56.5 -56.5
t19.5 -78.5q0 -41 -21.5 -78.5t-61 -57t-78.5 -19.5q-47 0 -84 23t-57 57t-20 75q0 35 16.5 71.5t57 61t87.5 24.5zM639 285q-20 0 -43 -6.5t-45 -23t-38.5 -44.5t-16.5 -66q0 -22 8 -45.5t28.5 -45.5t51 -33.5t55.5 -11.5q40 0 76.5 22t51 53.5t14.5 60.5q0 38 -17.5 69
t-50.5 51t-74 20zM1019 285q-20 0 -43 -6.5t-45 -23t-38.5 -44.5t-16.5 -66q0 -22 8 -45.5t28.5 -45.5t51 -33.5t55.5 -11.5q40 0 76.5 22t51 53.5t14.5 60.5q0 38 -17.5 69t-50.5 51t-74 20z" />
    <glyph glyph-name="guilsinglleft" unicode="&#x2039;" horiz-adv-x="207" 
d="M25 262l132 178h25l-132 -178l132 -178h-25z" />
    <glyph glyph-name="guilsinglright" unicode="&#x203a;" horiz-adv-x="207" 
d="M25 84l132 178l-132 178h25l132 -178l-132 -178h-25z" />
    <glyph glyph-name="fraction" unicode="&#x2044;" horiz-adv-x="194" 
d="M-170 0l511 760h23l-511 -760h-23z" />
    <glyph glyph-name="uni2070" unicode="&#x2070;" horiz-adv-x="447" 
d="M224 870q37 0 70.5 -13.5t58.5 -38t39.5 -58.5t14.5 -74q0 -50 -24 -94.5t-68.5 -67.5t-90.5 -23q-37 0 -66.5 11.5t-53.5 31t-44 56t-20 86.5q0 80 54 132t130 52zM224 520q32 0 61.5 12t52 34t35.5 53t13 67t-13 67t-35.5 53t-52 34t-61.5 12q-24 0 -51 -8t-54.5 -30.5
t-42 -57t-14.5 -70.5q0 -27 8.5 -55.5t29 -53t52.5 -41t72 -16.5z" />
    <glyph glyph-name="uni2074" unicode="&#x2074;" horiz-adv-x="349" 
d="M329 588h-67v-86h-20v86h-212v11l221 261h11v-254h67v-18zM242 606v213l-180 -213h180z" />
    <glyph glyph-name="uni2075" unicode="&#x2075;" horiz-adv-x="317" 
d="M89 716h80q53 0 85.5 -29t32.5 -77q0 -37 -20 -65t-49.5 -38.5t-55.5 -10.5q-48 0 -84 29.5t-42 74.5l20 2q4 -29 22.5 -50.5t42 -29.5t41.5 -8q47 0 76.5 26.5t29.5 69.5q0 39 -27.5 63.5t-71.5 24.5h-101l25 162h183v-19h-167z" />
    <glyph glyph-name="uni2076" unicode="&#x2076;" horiz-adv-x="317" 
d="M159 747q55 0 91.5 -35t36.5 -89q0 -39 -21 -70t-51.5 -43t-55.5 -12q-26 0 -56 12t-51.5 43t-21.5 70q0 24 9 46.5t24 38.5l121 152h23l-95 -121q8 3 23 5.5t24 2.5zM159 517q21 0 46.5 10t44 36.5t18.5 59.5q0 22 -10.5 47t-38 42.5t-60.5 17.5q-22 0 -47.5 -10
t-44 -36.5t-18.5 -60.5q0 -21 10.5 -46t38 -42.5t61.5 -17.5z" />
    <glyph glyph-name="uni2077" unicode="&#x2077;" horiz-adv-x="262" 
d="M252 860v-6l-178 -352h-24l175 339h-218v19h245z" />
    <glyph glyph-name="uni2078" unicode="&#x2078;" horiz-adv-x="298" 
d="M182 695q21 -4 41.5 -16t32.5 -33.5t12 -46.5q0 -20 -11 -43.5t-40 -39t-68 -15.5q-38 0 -67.5 16t-40.5 39t-11 44q0 35 23.5 61.5t64.5 33.5q-35 7 -56 29t-21 55q0 29 18 51.5t43.5 31t47.5 8.5q46 0 76.5 -25.5t30.5 -64.5q0 -32 -20 -55t-55 -30zM61 779
q0 -31 25.5 -51t63.5 -20q28 0 49 11t29 27.5t9 31.5q1 34 -24 54t-63 20q-37 0 -63 -21t-26 -52zM149 520q32 0 56 12.5t33 32t9 36.5q0 34 -26 56.5t-71 22.5t-72 -22.5t-27 -57.5t27 -57.5t71 -22.5z" />
    <glyph glyph-name="uni2079" unicode="&#x2079;" horiz-adv-x="317" 
d="M287 745q0 -23 -8.5 -45t-22.5 -38l-123 -154h-23l95 120q-24 -7 -46 -7q-40 0 -72 20.5t-44.5 49.5t-12.5 54t12.5 54.5t44.5 50t72 20.5q25 0 55.5 -12t51.5 -43t21 -70zM49 745q0 -22 10.5 -47t38 -42.5t61.5 -17.5q21 0 46.5 10t44 36.5t18.5 60.5q0 21 -10.5 46
t-38 42.5t-60.5 17.5q-22 0 -47.5 -10t-44 -36.5t-18.5 -59.5z" />
    <glyph glyph-name="uni2080" unicode="&#x2080;" horiz-adv-x="447" 
d="M224 270q37 0 70.5 -13.5t58.5 -38t39.5 -58.5t14.5 -74q0 -50 -24 -94.5t-68.5 -67.5t-90.5 -23q-37 0 -66.5 11.5t-53.5 31t-44 56t-20 86.5q0 80 54 132t130 52zM224 -80q32 0 61.5 12t52 34t35.5 53t13 67t-13 67t-35.5 53t-52 34t-61.5 12q-24 0 -51 -8t-54.5 -30.5
t-42 -57t-14.5 -70.5q0 -27 8.5 -55.5t29 -53t52.5 -41t72 -16.5z" />
    <glyph glyph-name="uni2081" unicode="&#x2081;" horiz-adv-x="200" 
d="M130 -99h-21v333l-94 -38v19l109 45h6v-359z" />
    <glyph glyph-name="uni2082" unicode="&#x2082;" horiz-adv-x="334" 
d="M284 -75v-18h-239v7l117 109q43 40 62.5 62t26.5 41t7 36q0 40 -25.5 65t-64.5 25q-43 0 -71.5 -28t-28.5 -72l-20 3q0 24 11.5 51t41.5 45.5t67 18.5q23 0 48.5 -10t43 -36t17.5 -61q0 -20 -8 -42t-29 -45.5t-65 -64.5l-92 -86h201z" />
    <glyph glyph-name="uni2083" unicode="&#x2083;" horiz-adv-x="327" 
d="M156 116h16q39 0 68.5 -16.5t40.5 -42t11 -47.5q0 -37 -20.5 -65t-50.5 -38.5t-57 -10.5q-35 0 -66 16.5t-45 41.5t-17 46l19 5q2 -19 14.5 -40.5t39 -36t55.5 -14.5q35 0 62 15t37 38t10 43q0 39 -28 63.5t-73 24.5h-49l-2 7l127 136h-198v19h236v-4z" />
    <glyph glyph-name="uni2084" unicode="&#x2084;" horiz-adv-x="349" 
d="M329 -12h-67v-86h-20v86h-212v11l221 261h11v-254h67v-18zM242 6v213l-180 -213h180z" />
    <glyph glyph-name="uni2085" unicode="&#x2085;" horiz-adv-x="317" 
d="M89 116h80q53 0 85.5 -29t32.5 -77q0 -37 -20 -65t-49.5 -38.5t-55.5 -10.5q-48 0 -84 29.5t-42 74.5l20 2q4 -29 22.5 -50.5t42 -29.5t41.5 -8q47 0 76.5 26.5t29.5 69.5q0 39 -27.5 63.5t-71.5 24.5h-101l25 162h183v-19h-167z" />
    <glyph glyph-name="uni2086" unicode="&#x2086;" horiz-adv-x="317" 
d="M159 147q55 0 91.5 -35t36.5 -89q0 -39 -21 -70t-51.5 -43t-55.5 -12q-26 0 -56 12t-51.5 43t-21.5 70q0 24 9 46.5t24 38.5l121 152h23l-95 -121q8 3 23 5.5t24 2.5zM159 -83q21 0 46.5 10t44 36.5t18.5 59.5q0 22 -10.5 47t-38 42.5t-60.5 17.5q-22 0 -47.5 -10
t-44 -36.5t-18.5 -60.5q0 -21 10.5 -46t38 -42.5t61.5 -17.5z" />
    <glyph glyph-name="uni2087" unicode="&#x2087;" horiz-adv-x="262" 
d="M252 260v-6l-178 -352h-24l175 339h-218v19h245z" />
    <glyph glyph-name="uni2088" unicode="&#x2088;" horiz-adv-x="298" 
d="M182 95q21 -4 41.5 -16t32.5 -33.5t12 -46.5q0 -20 -11 -43.5t-40 -39t-68 -15.5q-38 0 -67.5 16t-40.5 39t-11 44q0 35 23.5 61.5t64.5 33.5q-35 7 -56 29t-21 55q0 29 18 51.5t43.5 31t47.5 8.5q46 0 76.5 -25.5t30.5 -64.5q0 -32 -20 -55t-55 -30zM61 179
q0 -31 25.5 -51t63.5 -20q28 0 49 11t29 27.5t9 31.5q1 34 -24 54t-63 20q-37 0 -63 -21t-26 -52zM149 -80q32 0 56 12.5t33 32t9 36.5q0 34 -26 56.5t-71 22.5t-72 -22.5t-27 -57.5t27 -57.5t71 -22.5z" />
    <glyph glyph-name="uni2089" unicode="&#x2089;" horiz-adv-x="317" 
d="M287 145q0 -23 -8.5 -45t-22.5 -38l-123 -154h-23l95 120q-24 -7 -46 -7q-40 0 -72 20.5t-44.5 49.5t-12.5 54t12.5 54.5t44.5 50t72 20.5q25 0 55.5 -12t51.5 -43t21 -70zM49 145q0 -22 10.5 -47t38 -42.5t61.5 -17.5q21 0 46.5 10t44 36.5t18.5 60.5q0 21 -10.5 46
t-38 42.5t-60.5 17.5q-22 0 -47.5 -10t-44 -36.5t-18.5 -59.5z" />
    <glyph glyph-name="Euro" unicode="&#x20ac;" horiz-adv-x="1054" 
d="M616 9q64 0 120.5 19t101.5 53.5t76.5 82.5t48.5 104l21 -6q-18 -59 -52 -109.5t-81.5 -87t-107.5 -56.5t-127 -20q-66 0 -127 21t-110.5 59.5t-84.5 91.5t-51 114h-138v20h134q-3 15 -6 41.5t-3 42.5q0 38 6 72h-131v20h135q15 63 49.5 118.5t84.5 96t112 62.5t130 22
q67 0 127 -20t107.5 -56.5t81.5 -87t52 -110.5l-21 -6q-17 56 -48.5 104t-76.5 83t-101.5 54t-120.5 19q-63 0 -121 -20.5t-105 -58t-80 -89.5t-47 -111h417l-7 -20h-414q-7 -32 -7 -72q0 -16 3 -42.5t6 -41.5h363l-6 -20h-352q16 -57 49 -106t79 -85t103.5 -55.5
t118.5 -19.5z" />
    <glyph glyph-name="afii61352" unicode="&#x2116;" horiz-adv-x="1519" 
d="M732 760h22v-760h-23l-603 725l-1 -725h-22v760h23l604 -725v725zM1169 760q48 0 93 -18t79 -51t53.5 -79t19.5 -99t-19.5 -99t-54 -79t-79 -51t-92.5 -18t-93.5 18t-80.5 51t-55 79t-20 99q0 26 6.5 58t24.5 64t48.5 60.5t75.5 46.5t94 18zM1169 286q20 0 47.5 5.5
t56 20t56.5 41t46.5 69t18.5 91.5t-18.5 91.5t-50 72.5t-72.5 46.5t-84 16.5t-84.5 -16.5t-73.5 -46.5t-50.5 -72.5t-18.5 -91.5q0 -37 12.5 -76t42 -72.5t74 -56t98.5 -22.5z" />
    <glyph glyph-name="uni2117" unicode="&#x2117;" horiz-adv-x="884" 
d="M442 770q78 0 149.5 -29t125 -82t84 -126t30.5 -156q0 -82 -30.5 -153.5t-84 -124t-125 -81t-149.5 -28.5t-149.5 28.5t-125 81t-84 124t-30.5 153.5q0 83 30.5 156t84 126t125 82t149.5 29zM442 12q73 0 140.5 27t118 76.5t79 117.5t28.5 145q0 78 -28.5 147t-79 119
t-118 77.5t-140.5 27.5t-140.5 -27.5t-118 -77.5t-79 -119t-28.5 -147q0 -77 28.5 -145t79 -117.5t118 -76.5t140.5 -27zM307 575h191q28 0 60 -10.5t53.5 -39t21.5 -65.5q0 -27 -13 -53.5t-45.5 -44.5t-76.5 -18h-170v-187h-21v418zM328 362h170q50 0 82 27.5t32 70.5
t-32 70.5t-82 27.5h-170v-196z" />
    <glyph glyph-name="trademark" unicode="&#x2122;" horiz-adv-x="633" 
d="M258 743h-99v-243h-20v243h-99v17h218v-17zM583 500h-19v228l-111 -156h-15l-111 156v-228h-19v260h19l119 -169l119 169h18v-260z" />
    <glyph glyph-name="oneeighth" unicode="&#x215b;" horiz-adv-x="653" 
d="M109 734l-94 -38v19l109 45h6v-359h-21v333zM555 760l-511 -760h-23l511 760h23zM537 184q21 -4 41.5 -16t32.5 -33.5t12 -46.5q0 -20 -11 -43.5t-40 -39t-68 -15.5q-38 0 -67.5 16t-40.5 39t-11 44q0 35 23.5 61.5t64.5 33.5q-35 7 -56 29t-21 55q0 29 18 51.5t43.5 31
t47.5 8.5q46 0 76.5 -25.5t30.5 -64.5q0 -32 -20 -55t-55 -30zM416 268q0 -31 25.5 -51t63.5 -20q28 0 49 11t29 27.5t9 31.5q1 34 -24 54t-63 20q-37 0 -63 -21t-26 -52zM504 9q32 0 56 12.5t33 32t9 36.5q0 34 -26 56.5t-71 22.5t-72 -22.5t-27 -57.5t27 -57.5t71 -22.5z
" />
    <glyph glyph-name="threeeighths" unicode="&#x215c;" horiz-adv-x="722" 
d="M292 510q0 -37 -20.5 -65t-50.5 -38.5t-57 -10.5q-35 0 -66 16.5t-45 41.5t-17 46l19 5q2 -19 14.5 -40.5t39 -36t55.5 -14.5q35 0 62 15t37 38t10 43q0 39 -28 63.5t-73 24.5h-49l-2 7l127 136h-198v19h236v-4l-130 -140h16q39 0 68.5 -16.5t40.5 -42t11 -47.5zM636 760
l-511 -760h-23l511 760h23zM606 184q21 -4 41.5 -16t32.5 -33.5t12 -46.5q0 -20 -11 -43.5t-40 -39t-68 -15.5q-38 0 -67.5 16t-40.5 39t-11 44q0 35 23.5 61.5t64.5 33.5q-35 7 -56 29t-21 55q0 29 18 51.5t43.5 31t47.5 8.5q46 0 76.5 -25.5t30.5 -64.5q0 -32 -20 -55
t-55 -30zM485 268q0 -31 25.5 -51t63.5 -20q28 0 49 11t29 27.5t9 31.5q1 34 -24 54t-63 20q-37 0 -63 -21t-26 -52zM573 9q32 0 56 12.5t33 32t9 36.5q0 34 -26 56.5t-71 22.5t-72 -22.5t-27 -57.5t27 -57.5t71 -22.5z" />
    <glyph glyph-name="fiveeighths" unicode="&#x215d;" horiz-adv-x="724" 
d="M287 510q0 -37 -20 -65t-49.5 -38.5t-55.5 -10.5q-48 0 -84 29.5t-42 74.5l20 2q4 -29 22.5 -50.5t42 -29.5t41.5 -8q47 0 76.5 26.5t29.5 69.5q0 39 -27.5 63.5t-71.5 24.5h-101l25 162h183v-19h-167l-20 -125h80q53 0 85.5 -29t32.5 -77zM634 760l-511 -760h-23
l511 760h23zM608 184q21 -4 41.5 -16t32.5 -33.5t12 -46.5q0 -20 -11 -43.5t-40 -39t-68 -15.5q-38 0 -67.5 16t-40.5 39t-11 44q0 35 23.5 61.5t64.5 33.5q-35 7 -56 29t-21 55q0 29 18 51.5t43.5 31t47.5 8.5q46 0 76.5 -25.5t30.5 -64.5q0 -32 -20 -55t-55 -30zM487 268
q0 -31 25.5 -51t63.5 -20q28 0 49 11t29 27.5t9 31.5q1 34 -24 54t-63 20q-37 0 -63 -21t-26 -52zM575 9q32 0 56 12.5t33 32t9 36.5q0 34 -26 56.5t-71 22.5t-72 -22.5t-27 -57.5t27 -57.5t71 -22.5z" />
    <glyph glyph-name="seveneighths" unicode="&#x215e;" horiz-adv-x="657" 
d="M541 760l-511 -760h-23l511 760h23zM250 741h-218v19h245v-6l-178 -352h-24zM541 184q21 -4 41.5 -16t32.5 -33.5t12 -46.5q0 -20 -11 -43.5t-40 -39t-68 -15.5q-38 0 -67.5 16t-40.5 39t-11 44q0 35 23.5 61.5t64.5 33.5q-35 7 -56 29t-21 55q0 29 18 51.5t43.5 31
t47.5 8.5q46 0 76.5 -25.5t30.5 -64.5q0 -32 -20 -55t-55 -30zM420 268q0 -31 25.5 -51t63.5 -20q28 0 49 11t29 27.5t9 31.5q1 34 -24 54t-63 20q-37 0 -63 -21t-26 -52zM508 9q32 0 56 12.5t33 32t9 36.5q0 34 -26 56.5t-71 22.5t-72 -22.5t-27 -57.5t27 -57.5t71 -22.5z
" />
    <glyph glyph-name="arrowleft" unicode="&#x2190;" horiz-adv-x="837" 
d="M797 373h-725l308 -307l-16 -16l-334 334l334 334l16 -16l-308 -307h725v-22z" />
    <glyph glyph-name="arrowup" unicode="&#x2191;" horiz-adv-x="748" 
d="M692 417l-307 308v-725h-22v725l-307 -308l-16 16l334 334l334 -334z" />
    <glyph glyph-name="arrowright" unicode="&#x2192;" horiz-adv-x="837" 
d="M807 384l-334 -334l-16 16l308 307h-725v22h725l-308 307l16 16z" />
    <glyph glyph-name="arrowdown" unicode="&#x2193;" horiz-adv-x="748" 
d="M708 327l-334 -334l-334 334l16 16l307 -308v725h22v-725l307 308z" />
    <glyph glyph-name="uni2196" unicode="&#x2196;" horiz-adv-x="833" 
d="M777 0l-722 722v-455h-22v493h492v-23l-455 1l723 -723z" />
    <glyph glyph-name="uni2197" unicode="&#x2197;" horiz-adv-x="830" 
d="M800 760v-493h-22v455l-722 -722l-16 15l723 723l-455 -1v23h492z" />
    <glyph glyph-name="uni2198" unicode="&#x2198;" horiz-adv-x="830" 
d="M800 493v-493h-492v23l455 -1l-723 723l16 15l722 -722v455h22z" />
    <glyph glyph-name="uni2199" unicode="&#x2199;" horiz-adv-x="830" 
d="M67 22l455 1v-23h-492v493h22v-455l722 722l16 -15z" />
    <glyph glyph-name="minus" unicode="&#x2212;" horiz-adv-x="580" 
d="M500 295h-420v20h420v-20z" />
    <glyph glyph-name="approxequal" unicode="&#x2248;" horiz-adv-x="580" 
d="M500 409v-26q-17 -10 -44 -17t-51 -7q-48 0 -104 28.5t-77.5 32.5t-36.5 4q-25 0 -57 -10t-50 -28v24q18 16 49 25t58 9q46 0 103 -28.5t79 -32.5t36 -4q23 0 51 8.5t44 21.5zM500 239v-26q-17 -10 -44 -17t-51 -7q-48 0 -104 28.5t-77.5 32.5t-36.5 4q-25 0 -57 -10
t-50 -28v24q18 16 49 25t58 9q46 0 103 -28.5t79 -32.5t36 -4q23 0 51 8.5t44 21.5z" />
    <glyph glyph-name="notequal" unicode="&#x2260;" horiz-adv-x="580" 
d="M357 395l-107 -160h250v-20h-263l-74 -110h-26l74 110h-131v20h144l107 160h-251v20h264l74 110h26l-74 -110h130v-20h-143z" />
    <glyph glyph-name="lessequal" unicode="&#x2264;" horiz-adv-x="414" 
d="M374 172l-344 147v12l344 147v-23l-307 -130l307 -130v-23zM374 115v-20h-340v20h340z" />
    <glyph glyph-name="greaterequal" unicode="&#x2265;" horiz-adv-x="414" 
d="M347 325l-307 130v23l344 -147v-12l-344 -147v23zM380 95h-340v20h340v-20z" />
    <glyph glyph-name="K.aalt" horiz-adv-x="708" 
d="M155 380l503 -380h-36l-495 374v-374h-22v760h22v-374l495 374h36z" />
    <glyph glyph-name="Kcommaaccent.aalt" horiz-adv-x="708" 
d="M155 380l503 -380h-36l-495 374v-374h-22v760h22v-374l495 374h36zM336 -45h23l-46 -135h-20z" />
    <glyph glyph-name="Q.aalt" horiz-adv-x="909" 
d="M844 -214l-215 245q-36 -18 -81 -29.5t-93 -11.5q-78 0 -149 29.5t-124 83t-82.5 125t-29.5 151.5t29.5 152t82.5 125.5t124 83.5t149 30t149 -30t123.5 -83.5t82 -125.5t29.5 -152q0 -107 -51.5 -197t-138.5 -140l226 -256h-31zM92 379q0 -75 28 -143t77.5 -118.5
t116.5 -79t141 -28.5t140.5 28.5t116.5 79t77.5 118.5t27.5 143t-28 143.5t-77.5 119.5t-116 79.5t-140.5 28.5t-141 -28.5t-116.5 -79.5t-77.5 -119.5t-28 -143.5z" />
    <glyph glyph-name="I.aalt" horiz-adv-x="232" 
d="M127 0h-22v760h22v-760z" />
    <glyph glyph-name="IJ.aalt" horiz-adv-x="916" 
d="M105 760h22v-760h-22v760zM821 760v-476q0 -64 -20 -119t-57 -94t-89.5 -60.5t-113.5 -21.5q-70 0 -132.5 29.5t-99.5 87t-45 123.5l21 8q14 -104 82.5 -165.5t173.5 -61.5q42 0 86.5 13t87 50t63.5 94t21 117v476h22z" />
    <glyph glyph-name="Iacute.aalt" horiz-adv-x="232" 
d="M133 841h-21l93 136h23zM127 0h-22v760h22v-760z" />
    <glyph glyph-name="Icircumflex.aalt" horiz-adv-x="232" 
d="M246 841h-25l-105 117l-105 -117h-25l120 135h20zM105 760h22v-760h-22v760z" />
    <glyph glyph-name="Idieresis.aalt" horiz-adv-x="232" 
d="M16 924q10 0 17.5 -7.5t7.5 -16.5q0 -10 -7.5 -17t-17.5 -7t-17.5 7t-7.5 17q0 9 7.5 16.5t17.5 7.5zM216 924q10 0 17.5 -7.5t7.5 -16.5q0 -10 -7.5 -17t-17.5 -7t-17.5 7t-7.5 17q0 9 7.5 16.5t17.5 7.5zM127 0h-22v760h22v-760z" />
    <glyph glyph-name="Idotaccent.aalt" horiz-adv-x="232" 
d="M116 924q10 0 17.5 -7.5t7.5 -16.5q0 -10 -7.5 -17t-17.5 -7t-17.5 7t-7.5 17q0 9 7.5 16.5t17.5 7.5zM127 0h-22v760h22v-760z" />
    <glyph glyph-name="Igrave.aalt" horiz-adv-x="232" 
d="M32 977l93 -136h-21l-95 136h23zM127 0h-22v760h22v-760z" />
    <glyph glyph-name="Imacron.aalt" horiz-adv-x="232" 
d="M241 869h-250v17h250v-17zM127 0h-22v760h22v-760z" />
    <glyph glyph-name="Iogonek.aalt" horiz-adv-x="232" 
d="M153 -161l5 -19q-30 -10 -49 -10q-34 0 -55.5 21t-21.5 55q0 21 11 45.5t62 73.5v755h22v-760q-41 -39 -57.5 -63t-16.5 -51q0 -25 15.5 -40.5t39.5 -15.5q17 0 45 9z" />
    <glyph glyph-name="J.aalt" horiz-adv-x="684" 
d="M589 760v-476q0 -64 -20 -119t-57 -94t-89.5 -60.5t-113.5 -21.5q-70 0 -132.5 29.5t-99.5 87t-45 123.5l21 8q14 -104 82.5 -165.5t173.5 -61.5q42 0 86.5 13t87 50t63.5 94t21 117v476h22z" />
    <glyph glyph-name="P.aalt" horiz-adv-x="607" 
d="M105 760h245q69 0 120 -23t79 -63.5t28 -97.5q0 -35 -12.5 -69t-41 -60t-72.5 -41.5t-101 -15.5h-223v-390h-22v760zM127 410h223q40 0 77 9.5t66 30t45.5 52t16.5 73.5q0 31 -11.5 61.5t-37.5 53.5t-65.5 36.5t-90.5 13.5h-223v-330z" />
    <glyph glyph-name="R.aalt" horiz-adv-x="786" 
d="M766 0h-29l-409 410h-201v-410h-22v760h265q32 0 67 -8t70 -31t52.5 -59.5t17.5 -75.5q0 -80 -58.5 -128t-148.5 -48h-13zM127 430h243q49 0 93.5 18.5t68 55.5t23.5 81t-21.5 78t-63 55.5t-100.5 21.5h-243v-310z" />
    <glyph glyph-name="Racute.aalt" horiz-adv-x="786" 
d="M333 841h-21l93 136h23zM766 0h-29l-409 410h-201v-410h-22v760h265q32 0 67 -8t70 -31t52.5 -59.5t17.5 -75.5q0 -80 -58.5 -128t-148.5 -48h-13zM127 430h243q49 0 93.5 18.5t68 55.5t23.5 81t-21.5 78t-63 55.5t-100.5 21.5h-243v-310z" />
    <glyph glyph-name="Rcaron.aalt" horiz-adv-x="786" 
d="M306 841l-120 135h25l105 -117l105 117h25l-120 -135h-20zM766 0h-29l-409 410h-201v-410h-22v760h265q32 0 67 -8t70 -31t52.5 -59.5t17.5 -75.5q0 -80 -58.5 -128t-148.5 -48h-13zM127 430h243q49 0 93.5 18.5t68 55.5t23.5 81t-21.5 78t-63 55.5t-100.5 21.5h-243
v-310z" />
    <glyph glyph-name="Rcommaaccent.aalt" horiz-adv-x="786" 
d="M766 0h-29l-409 410h-201v-410h-22v760h265q32 0 67 -8t70 -31t52.5 -59.5t17.5 -75.5q0 -80 -58.5 -128t-148.5 -48h-13zM127 430h243q49 0 93.5 18.5t68 55.5t23.5 81t-21.5 78t-63 55.5t-100.5 21.5h-243v-310zM364 -45h23l-46 -135h-20z" />
    <glyph glyph-name="E.aalt" horiz-adv-x="650" 
d="M127 740v-310h437v-20h-437v-390h458v-20h-480v760h480v-20h-458z" />
    <glyph glyph-name="Eacute.aalt" horiz-adv-x="650" 
d="M374 841h-21l93 136h23zM127 740v-310h437v-20h-437v-390h458v-20h-480v760h480v-20h-458z" />
    <glyph glyph-name="Ecaron.aalt" horiz-adv-x="650" 
d="M347 841l-120 135h25l105 -117l105 117h25l-120 -135h-20zM127 740v-310h437v-20h-437v-390h458v-20h-480v760h480v-20h-458z" />
    <glyph glyph-name="Ecircumflex.aalt" horiz-adv-x="650" 
d="M252 841h-25l120 135h20l120 -135h-25l-105 117zM127 740v-310h437v-20h-437v-390h458v-20h-480v760h480v-20h-458z" />
    <glyph glyph-name="Edieresis.aalt" horiz-adv-x="650" 
d="M257 876q-10 0 -17.5 7t-7.5 17q0 9 7.5 16.5t17.5 7.5t17.5 -7.5t7.5 -16.5q0 -10 -7.5 -17t-17.5 -7zM457 876q-10 0 -17.5 7t-7.5 17q0 9 7.5 16.5t17.5 7.5t17.5 -7.5t7.5 -16.5q0 -10 -7.5 -17t-17.5 -7zM127 740v-310h437v-20h-437v-390h458v-20h-480v760h480v-20
h-458z" />
    <glyph glyph-name="Edotaccent.aalt" horiz-adv-x="650" 
d="M357 876q-10 0 -17.5 7t-7.5 17q0 9 7.5 16.5t17.5 7.5t17.5 -7.5t7.5 -16.5q0 -10 -7.5 -17t-17.5 -7zM127 740v-310h437v-20h-437v-390h458v-20h-480v760h480v-20h-458z" />
    <glyph glyph-name="Egrave.aalt" horiz-adv-x="650" 
d="M345 841l-95 136h23l93 -136h-21zM127 740v-310h437v-20h-437v-390h458v-20h-480v760h480v-20h-458z" />
    <glyph glyph-name="Emacron.aalt" horiz-adv-x="650" 
d="M482 869h-250v17h250v-17zM127 740v-310h437v-20h-437v-390h458v-20h-480v760h480v-20h-458z" />
    <glyph glyph-name="Eogonek.aalt" horiz-adv-x="650" 
d="M127 740v-310h437v-20h-437v-390h458v-20h-42q-41 -39 -57.5 -63t-16.5 -51q0 -25 15.5 -40.5t39.5 -15.5q17 0 45 9l5 -19q-30 -10 -49 -10q-34 0 -55.5 21t-21.5 55q0 20 10.5 44t57.5 70h-411v760h480v-20h-458z" />
    <glyph glyph-name="F.aalt" horiz-adv-x="605" 
d="M127 740v-310h438v-20h-438v-410h-22v760h470v-20h-448z" />
    <glyph glyph-name="M.aalt" horiz-adv-x="949" 
d="M844 760v-760h-21v724l-341 -409h-14l-342 409v-724h-21v760h20l350 -420l349 420h20z" />
    <glyph glyph-name="N.aalt" horiz-adv-x="859" 
d="M754 760v-760h-23l-603 725l-1 -725h-22v760h23l604 -725v725h22z" />
    <glyph glyph-name="Nacute.aalt" horiz-adv-x="859" 
d="M449 841h-21l93 136h23zM754 760v-760h-23l-603 725l-1 -725h-22v760h23l604 -725v725h22z" />
    <glyph glyph-name="Ncaron.aalt" horiz-adv-x="859" 
d="M422 841l-120 135h25l105 -117l105 117h25l-120 -135h-20zM754 760v-760h-23l-603 725l-1 -725h-22v760h23l604 -725v725h22z" />
    <glyph glyph-name="Ncommaaccent.aalt" horiz-adv-x="859" 
d="M754 760v-760h-23l-603 725l-1 -725h-22v760h23l604 -725v725h22zM411 -45h23l-46 -135h-20z" />
    <glyph glyph-name="Eng.aalt" horiz-adv-x="859" 
d="M754 760v-947q0 -22 -9.5 -46t-34.5 -40.5t-58 -16.5q-37 0 -67 21l9 19q26 -18 56 -18q37 0 59.5 22t22.5 59v187h-1l-603 725l-1 -725h-22v760h23l604 -725v725h22z" />
    <glyph glyph-name="Ntilde.aalt" horiz-adv-x="859" 
d="M369 927q-22 0 -34.5 -14.5t-12.5 -39.5h-21q0 33 19 53t48 20q28 0 59 -24.5t43.5 -28.5t20.5 -4q21 0 33 15t12 41h21q0 -34 -18.5 -54.5t-47.5 -20.5q-27 0 -58.5 24.5t-43.5 28.5t-20 4zM754 760v-760h-23l-603 725l-1 -725h-22v760h23l604 -725v725h22z" />
    <glyph glyph-name="G.aalt" horiz-adv-x="904" 
d="M834 390v-11q0 -78 -27 -149.5t-77 -125.5t-120.5 -84.5t-152.5 -30.5q-79 0 -150 30t-124.5 83.5t-83 125.5t-29.5 151q0 80 29.5 152t82.5 125.5t124 83.5t149 30q64 0 123.5 -20t108 -57t83.5 -88t53 -110l-21 -6q-16 56 -49 104t-79 83.5t-102 54.5t-117 19
q-74 0 -141 -28.5t-116.5 -79.5t-77.5 -119.5t-28 -143.5t28 -143.5t78 -119t117.5 -79t141.5 -28.5q76 0 141.5 28t112.5 78t69.5 107.5t27 95.5t4.5 52h-464v20h486z" />
    <glyph glyph-name="Gbreve.aalt" horiz-adv-x="904" 
d="M457 835q-24 0 -53 11t-49.5 40.5t-20.5 67.5h19q0 -45 30 -73t74 -28t74 28t30 73h19q0 -25 -12 -53t-42.5 -47t-68.5 -19zM834 390v-11q0 -78 -27 -149.5t-77 -125.5t-120.5 -84.5t-152.5 -30.5q-79 0 -150 30t-124.5 83.5t-83 125.5t-29.5 151q0 80 29.5 152
t82.5 125.5t124 83.5t149 30q64 0 123.5 -20t108 -57t83.5 -88t53 -110l-21 -6q-16 56 -49 104t-79 83.5t-102 54.5t-117 19q-74 0 -141 -28.5t-116.5 -79.5t-77.5 -119.5t-28 -143.5t28 -143.5t78 -119t117.5 -79t141.5 -28.5q76 0 141.5 28t112.5 78t69.5 107.5t27 95.5
t4.5 52h-464v20h486z" />
    <glyph glyph-name="Gcommaaccent.aalt" horiz-adv-x="904" 
d="M834 390v-11q0 -78 -27 -149.5t-77 -125.5t-120.5 -84.5t-152.5 -30.5q-79 0 -150 30t-124.5 83.5t-83 125.5t-29.5 151q0 80 29.5 152t82.5 125.5t124 83.5t149 30q64 0 123.5 -20t108 -57t83.5 -88t53 -110l-21 -6q-16 56 -49 104t-79 83.5t-102 54.5t-117 19
q-74 0 -141 -28.5t-116.5 -79.5t-77.5 -119.5t-28 -143.5t28 -143.5t78 -119t117.5 -79t141.5 -28.5q76 0 141.5 28t112.5 78t69.5 107.5t27 95.5t4.5 52h-464v20h486zM431 -45h23l-46 -135h-20z" />
    <glyph glyph-name="Gdotaccent.aalt" horiz-adv-x="904" 
d="M457 876q-10 0 -17.5 7t-7.5 17q0 9 7.5 16.5t17.5 7.5t17.5 -7.5t7.5 -16.5q0 -10 -7.5 -17t-17.5 -7zM834 390v-11q0 -78 -27 -149.5t-77 -125.5t-120.5 -84.5t-152.5 -30.5q-79 0 -150 30t-124.5 83.5t-83 125.5t-29.5 151q0 80 29.5 152t82.5 125.5t124 83.5t149 30
q64 0 123.5 -20t108 -57t83.5 -88t53 -110l-21 -6q-16 56 -49 104t-79 83.5t-102 54.5t-117 19q-74 0 -141 -28.5t-116.5 -79.5t-77.5 -119.5t-28 -143.5t28 -143.5t78 -119t117.5 -79t141.5 -28.5q76 0 141.5 28t112.5 78t69.5 107.5t27 95.5t4.5 52h-464v20h486z" />
    <glyph glyph-name="i.aalt" horiz-adv-x="261" 
d="M131 710q10 0 17.5 -7.5t7.5 -16.5q0 -10 -7.5 -17t-17.5 -7t-17.5 7t-7.5 17q0 9 7.5 16.5t17.5 7.5zM141 0h-21v486h21v-486z" />
    <glyph glyph-name="germandbls.case" horiz-adv-x="1284" 
d="M318 770q103 0 170 -54t84 -144l-21 -7q-17 86 -79 135t-154 49q-34 0 -70 -8.5t-66.5 -29t-51.5 -55.5t-21 -84q0 -53 30 -90t126 -66l161 -50q158 -49 158 -179q0 -43 -17.5 -79.5t-50 -63t-78 -41t-98.5 -14.5q-115 0 -192.5 62t-89.5 163l24 6q4 -47 25 -86.5
t55.5 -67t81 -42.5t98.5 -15q98 0 158.5 49.5t60.5 128.5q0 112 -138 156l-172 55q-92 29 -128.5 71t-36.5 104q0 88 64 142.5t168 54.5zM960 770q103 0 170 -54t84 -144l-21 -7q-17 86 -79 135t-154 49q-34 0 -70 -8.5t-66.5 -29t-51.5 -55.5t-21 -84q0 -53 30 -90t126 -66
l161 -50q158 -49 158 -179q0 -43 -17.5 -79.5t-50 -63t-78 -41t-98.5 -14.5q-115 0 -192.5 62t-89.5 163l24 6q4 -47 25 -86.5t55.5 -67t81 -42.5t98.5 -15q98 0 158.5 49.5t60.5 128.5q0 112 -138 156l-172 55q-92 29 -128.5 71t-36.5 104q0 88 64 142.5t168 54.5z" />
    <glyph glyph-name="a.salt" horiz-adv-x="560" 
d="M548 21l2 -19q-25 -5 -49 -5q-30 0 -49.5 23.5t-19.5 56.5v44q-27 -59 -86 -95t-129 -36q-71 0 -116.5 37t-45.5 100q0 65 55 104.5t164 47.5l158 12v22q0 77 -44 120t-118 43q-31 0 -67.5 -11.5t-65 -42.5t-35.5 -71l-20 7q10 61 62 99.5t126 38.5q83 0 133 -48.5
t50 -134.5v-236q0 -25 13.5 -42.5t34.5 -17.5q11 0 47 4zM216 10q52 0 104.5 26t82 74t29.5 99v63l-157 -12q-198 -15 -198 -133q0 -35 16 -60t48 -41t75 -16z" />
    <glyph glyph-name="aacute.aalt" horiz-adv-x="560" 
d="M287 627h-21l93 136h23zM548 21l2 -19q-25 -5 -49 -5q-30 0 -49.5 23.5t-19.5 56.5v44q-27 -59 -86 -95t-129 -36q-71 0 -116.5 37t-45.5 100q0 65 55 104.5t164 47.5l158 12v22q0 77 -44 120t-118 43q-31 0 -67.5 -11.5t-65 -42.5t-35.5 -71l-20 7q10 61 62 99.5
t126 38.5q83 0 133 -48.5t50 -134.5v-236q0 -25 13.5 -42.5t34.5 -17.5q11 0 47 4zM216 10q52 0 104.5 26t82 74t29.5 99v63l-157 -12q-198 -15 -198 -133q0 -35 16 -60t48 -41t75 -16z" />
    <glyph glyph-name="abreve.aalt" horiz-adv-x="560" 
d="M270 621q-24 0 -53 11t-49.5 40.5t-20.5 67.5h19q0 -45 30 -73t74 -28t74 28t30 73h19q0 -25 -12 -53t-42.5 -47t-68.5 -19zM548 21l2 -19q-25 -5 -49 -5q-30 0 -49.5 23.5t-19.5 56.5v44q-27 -59 -86 -95t-129 -36q-71 0 -116.5 37t-45.5 100q0 65 55 104.5t164 47.5
l158 12v22q0 77 -44 120t-118 43q-31 0 -67.5 -11.5t-65 -42.5t-35.5 -71l-20 7q10 61 62 99.5t126 38.5q83 0 133 -48.5t50 -134.5v-236q0 -25 13.5 -42.5t34.5 -17.5q11 0 47 4zM216 10q52 0 104.5 26t82 74t29.5 99v63l-157 -12q-198 -15 -198 -133q0 -35 16 -60t48 -41
t75 -16z" />
    <glyph glyph-name="acircumflex.aalt" horiz-adv-x="560" 
d="M165 627h-25l120 135h20l120 -135h-25l-105 117zM548 21l2 -19q-25 -5 -49 -5q-30 0 -49.5 23.5t-19.5 56.5v44q-27 -59 -86 -95t-129 -36q-71 0 -116.5 37t-45.5 100q0 65 55 104.5t164 47.5l158 12v22q0 77 -44 120t-118 43q-31 0 -67.5 -11.5t-65 -42.5t-35.5 -71
l-20 7q10 61 62 99.5t126 38.5q83 0 133 -48.5t50 -134.5v-236q0 -25 13.5 -42.5t34.5 -17.5q11 0 47 4zM216 10q52 0 104.5 26t82 74t29.5 99v63l-157 -12q-198 -15 -198 -133q0 -35 16 -60t48 -41t75 -16z" />
    <glyph glyph-name="adieresis.aalt" horiz-adv-x="560" 
d="M170 662q-10 0 -17.5 7t-7.5 17q0 9 7.5 16.5t17.5 7.5t17.5 -7.5t7.5 -16.5q0 -10 -7.5 -17t-17.5 -7zM370 662q-10 0 -17.5 7t-7.5 17q0 9 7.5 16.5t17.5 7.5t17.5 -7.5t7.5 -16.5q0 -10 -7.5 -17t-17.5 -7zM548 21l2 -19q-25 -5 -49 -5q-30 0 -49.5 23.5t-19.5 56.5
v44q-27 -59 -86 -95t-129 -36q-71 0 -116.5 37t-45.5 100q0 65 55 104.5t164 47.5l158 12v22q0 77 -44 120t-118 43q-31 0 -67.5 -11.5t-65 -42.5t-35.5 -71l-20 7q10 61 62 99.5t126 38.5q83 0 133 -48.5t50 -134.5v-236q0 -25 13.5 -42.5t34.5 -17.5q11 0 47 4zM216 10
q52 0 104.5 26t82 74t29.5 99v63l-157 -12q-198 -15 -198 -133q0 -35 16 -60t48 -41t75 -16z" />
    <glyph glyph-name="agrave.aalt" horiz-adv-x="560" 
d="M258 627l-95 136h23l93 -136h-21zM548 21l2 -19q-25 -5 -49 -5q-30 0 -49.5 23.5t-19.5 56.5v44q-27 -59 -86 -95t-129 -36q-71 0 -116.5 37t-45.5 100q0 65 55 104.5t164 47.5l158 12v22q0 77 -44 120t-118 43q-31 0 -67.5 -11.5t-65 -42.5t-35.5 -71l-20 7
q10 61 62 99.5t126 38.5q83 0 133 -48.5t50 -134.5v-236q0 -25 13.5 -42.5t34.5 -17.5q11 0 47 4zM216 10q52 0 104.5 26t82 74t29.5 99v63l-157 -12q-198 -15 -198 -133q0 -35 16 -60t48 -41t75 -16z" />
    <glyph glyph-name="amacron.aalt" horiz-adv-x="560" 
d="M395 655h-250v17h250v-17zM548 21l2 -19q-25 -5 -49 -5q-30 0 -49.5 23.5t-19.5 56.5v44q-27 -59 -86 -95t-129 -36q-71 0 -116.5 37t-45.5 100q0 65 55 104.5t164 47.5l158 12v22q0 77 -44 120t-118 43q-31 0 -67.5 -11.5t-65 -42.5t-35.5 -71l-20 7q10 61 62 99.5
t126 38.5q83 0 133 -48.5t50 -134.5v-236q0 -25 13.5 -42.5t34.5 -17.5q11 0 47 4zM216 10q52 0 104.5 26t82 74t29.5 99v63l-157 -12q-198 -15 -198 -133q0 -35 16 -60t48 -41t75 -16z" />
    <glyph glyph-name="aogonek.aalt" horiz-adv-x="560" 
d="M576 -159l5 -19q-30 -10 -49 -10q-34 0 -55.5 21t-21.5 55q0 20 9.5 43t53.5 67l-17 -1q-30 0 -49.5 23.5t-19.5 56.5v44q-27 -59 -86 -95t-129 -36q-71 0 -116.5 37t-45.5 100q0 65 55 104.5t164 47.5l158 12v22q0 77 -44 120t-118 43q-31 0 -67.5 -11.5t-65 -42.5
t-35.5 -71l-20 7q10 61 62 99.5t126 38.5q83 0 133 -48.5t50 -134.5v-236q0 -25 13.5 -42.5t34.5 -17.5q11 0 47 4l2 -19q-41 -39 -57.5 -63t-16.5 -51q0 -25 15.5 -40.5t39.5 -15.5q17 0 45 9zM216 10q52 0 104.5 26t82 74t29.5 99v63l-157 -12q-198 -15 -198 -133
q0 -35 16 -60t48 -41t75 -16z" />
    <glyph glyph-name="aring.aalt" horiz-adv-x="560" 
d="M270 615q-36 0 -62 25.5t-26 60.5t26 60.5t62 25.5t62 -25.5t26 -60.5t-26 -60.5t-62 -25.5zM270 769q-29 0 -49.5 -20.5t-20.5 -47.5t20.5 -47.5t49.5 -20.5t49.5 20.5t20.5 47.5t-20.5 47.5t-49.5 20.5zM548 21l2 -19q-25 -5 -49 -5q-30 0 -49.5 23.5t-19.5 56.5v44
q-27 -59 -86 -95t-129 -36q-71 0 -116.5 37t-45.5 100q0 65 55 104.5t164 47.5l158 12v22q0 77 -44 120t-118 43q-31 0 -67.5 -11.5t-65 -42.5t-35.5 -71l-20 7q10 61 62 99.5t126 38.5q83 0 133 -48.5t50 -134.5v-236q0 -25 13.5 -42.5t34.5 -17.5q11 0 47 4zM216 10
q52 0 104.5 26t82 74t29.5 99v63l-157 -12q-198 -15 -198 -133q0 -35 16 -60t48 -41t75 -16z" />
    <glyph glyph-name="atilde.aalt" horiz-adv-x="560" 
d="M207 713q-22 0 -34.5 -14.5t-12.5 -39.5h-21q0 33 19 53t48 20q28 0 59 -24.5t43.5 -28.5t20.5 -4q21 0 33 15t12 41h21q0 -34 -18.5 -54.5t-47.5 -20.5q-27 0 -58.5 24.5t-43.5 28.5t-20 4zM548 21l2 -19q-25 -5 -49 -5q-30 0 -49.5 23.5t-19.5 56.5v44q-27 -59 -86 -95
t-129 -36q-71 0 -116.5 37t-45.5 100q0 65 55 104.5t164 47.5l158 12v22q0 77 -44 120t-118 43q-31 0 -67.5 -11.5t-65 -42.5t-35.5 -71l-20 7q10 61 62 99.5t126 38.5q83 0 133 -48.5t50 -134.5v-236q0 -25 13.5 -42.5t34.5 -17.5q11 0 47 4zM216 10q52 0 104.5 26t82 74
t29.5 99v63l-157 -12q-198 -15 -198 -133q0 -35 16 -60t48 -41t75 -16z" />
    <glyph glyph-name="l.aalt" horiz-adv-x="231" 
d="M126 0h-21v800h21v-800z" />
    <glyph glyph-name="lacute.aalt" horiz-adv-x="231" 
d="M133 881h-21l93 136h23zM126 0h-21v800h21v-800z" />
    <glyph glyph-name="lcaron.aalt" horiz-adv-x="231" 
d="M126 0h-21v800h21v-800zM237 654h-18v146h22z" />
    <glyph glyph-name="lcommaaccent.aalt" horiz-adv-x="231" 
d="M126 0h-21v800h21v-800zM60 -180l43 135h23l-46 -135h-20z" />
    <glyph glyph-name="ldot.aalt" horiz-adv-x="264" 
d="M126 0h-21v800h21v-800zM228 354q10 0 17.5 -7.5t7.5 -16.5q0 -10 -7.5 -17t-17.5 -7t-17.5 7t-7.5 17q0 9 7.5 16.5t17.5 7.5z" />
    <glyph glyph-name="lslash.aalt" horiz-adv-x="280" 
d="M250 420l-99 -67v-353h-21v338l-100 -68v23l100 68v439h21v-424l99 67v-23z" />
    <glyph glyph-name="k.aalt" horiz-adv-x="551" 
d="M495 0l-369 238v-238h-21v800h21v-552l351 238h34l-355 -243l375 -243h-36z" />
    <glyph glyph-name="kcommaaccent.aalt" horiz-adv-x="551" 
d="M531 0h-36l-369 238v-238h-21v800h21v-552l351 238h34l-355 -243zM277 -45h23l-46 -135h-20z" />
    <glyph glyph-name="g.aalt" horiz-adv-x="592" 
d="M582 466l-181 -1q38 -24 60 -63.5t22 -85.5q0 -76 -55.5 -127.5t-137.5 -51.5q-44 0 -83 16t-65 45q-56 -29 -56 -78q0 -38 30.5 -62t78.5 -24h181q79 0 127 -42.5t48 -112.5q0 -40 -15 -71t-40 -55t-73 -43.5t-115 -19.5h-30q-54 0 -100 13.5t-79 39t-51 60.5t-18 76
q0 51 28.5 90.5t75.5 55.5q-31 12 -49.5 37t-18.5 58q0 22 11.5 45t52.5 48q-15 21 -24 48.5t-9 54.5q0 37 14.5 70.5t41 58t62 38t75.5 13.5q37 0 66 -10h226v-20zM462 316q0 25 -9 52t-30 51t-55 40.5t-78 16.5q-35 0 -67 -12t-55.5 -34t-36.5 -51.5t-13 -62.5
q0 -24 9 -51t30 -51t55 -40.5t78 -16.5q26 0 55 8t55 27.5t44 51t18 72.5zM376 14h-181q-64 0 -104 -37t-40 -97q0 -76 63.5 -123t163.5 -47h30q99 0 160.5 47.5t61.5 121.5q0 61 -42.5 98t-111.5 37z" />
    <glyph glyph-name="gbreve.aalt" horiz-adv-x="592" 
d="M293 621q-24 0 -53 11t-49.5 40.5t-20.5 67.5h19q0 -45 30 -73t74 -28t74 28t30 73h19q0 -25 -12 -53t-42.5 -47t-68.5 -19zM582 466l-181 -1q38 -24 60 -63.5t22 -85.5q0 -76 -55.5 -127.5t-137.5 -51.5q-44 0 -83 16t-65 45q-56 -29 -56 -78q0 -38 30.5 -62t78.5 -24
h181q79 0 127 -42.5t48 -112.5q0 -40 -15 -71t-40 -55t-73 -43.5t-115 -19.5h-30q-54 0 -100 13.5t-79 39t-51 60.5t-18 76q0 51 28.5 90.5t75.5 55.5q-31 12 -49.5 37t-18.5 58q0 22 11.5 45t52.5 48q-15 21 -24 48.5t-9 54.5q0 37 14.5 70.5t41 58t62 38t75.5 13.5
q37 0 66 -10h226v-20zM462 316q0 25 -9 52t-30 51t-55 40.5t-78 16.5q-35 0 -67 -12t-55.5 -34t-36.5 -51.5t-13 -62.5q0 -24 9 -51t30 -51t55 -40.5t78 -16.5q26 0 55 8t55 27.5t44 51t18 72.5zM376 14h-181q-64 0 -104 -37t-40 -97q0 -76 63.5 -123t163.5 -47h30
q99 0 160.5 47.5t61.5 121.5q0 61 -42.5 98t-111.5 37z" />
    <glyph glyph-name="gcommaaccent.aalt" horiz-adv-x="592" 
d="M319 624h-23l46 135h20zM582 466l-181 -1q38 -24 60 -63.5t22 -85.5q0 -76 -55.5 -127.5t-137.5 -51.5q-44 0 -83 16t-65 45q-56 -29 -56 -78q0 -38 30.5 -62t78.5 -24h181q79 0 127 -42.5t48 -112.5q0 -40 -15 -71t-40 -55t-73 -43.5t-115 -19.5h-30q-54 0 -100 13.5
t-79 39t-51 60.5t-18 76q0 51 28.5 90.5t75.5 55.5q-31 12 -49.5 37t-18.5 58q0 22 11.5 45t52.5 48q-15 21 -24 48.5t-9 54.5q0 37 14.5 70.5t41 58t62 38t75.5 13.5q37 0 66 -10h226v-20zM462 316q0 25 -9 52t-30 51t-55 40.5t-78 16.5q-35 0 -67 -12t-55.5 -34
t-36.5 -51.5t-13 -62.5q0 -24 9 -51t30 -51t55 -40.5t78 -16.5q26 0 55 8t55 27.5t44 51t18 72.5zM376 14h-181q-64 0 -104 -37t-40 -97q0 -76 63.5 -123t163.5 -47h30q99 0 160.5 47.5t61.5 121.5q0 61 -42.5 98t-111.5 37z" />
    <glyph glyph-name="gdotaccent.aalt" horiz-adv-x="592" 
d="M293 662q-10 0 -17.5 7t-7.5 17q0 9 7.5 16.5t17.5 7.5t17.5 -7.5t7.5 -16.5q0 -10 -7.5 -17t-17.5 -7zM582 466l-181 -1q38 -24 60 -63.5t22 -85.5q0 -76 -55.5 -127.5t-137.5 -51.5q-44 0 -83 16t-65 45q-56 -29 -56 -78q0 -38 30.5 -62t78.5 -24h181q79 0 127 -42.5
t48 -112.5q0 -40 -15 -71t-40 -55t-73 -43.5t-115 -19.5h-30q-54 0 -100 13.5t-79 39t-51 60.5t-18 76q0 51 28.5 90.5t75.5 55.5q-31 12 -49.5 37t-18.5 58q0 22 11.5 45t52.5 48q-15 21 -24 48.5t-9 54.5q0 37 14.5 70.5t41 58t62 38t75.5 13.5q37 0 66 -10h226v-20z
M462 316q0 25 -9 52t-30 51t-55 40.5t-78 16.5q-35 0 -67 -12t-55.5 -34t-36.5 -51.5t-13 -62.5q0 -24 9 -51t30 -51t55 -40.5t78 -16.5q26 0 55 8t55 27.5t44 51t18 72.5zM376 14h-181q-64 0 -104 -37t-40 -97q0 -76 63.5 -123t163.5 -47h30q99 0 160.5 47.5t61.5 121.5
q0 61 -42.5 98t-111.5 37z" />
    <glyph glyph-name="y.aalt" horiz-adv-x="571" 
d="M551 486l-399 -766h-23l146 280l-255 486h25l242 -463l241 463h23z" />
    <glyph glyph-name="yacute.aalt" horiz-adv-x="571" 
d="M305 627h-21l93 136h23zM551 486l-399 -766h-23l146 280l-255 486h25l242 -463l241 463h23z" />
    <glyph glyph-name="ycircumflex.aalt" horiz-adv-x="571" 
d="M183 627h-25l120 135h20l120 -135h-25l-105 117zM551 486l-399 -766h-23l146 280l-255 486h25l242 -463l241 463h23z" />
    <glyph glyph-name="ydieresis.aalt" horiz-adv-x="571" 
d="M188 662q-10 0 -17.5 7t-7.5 17q0 9 7.5 16.5t17.5 7.5t17.5 -7.5t7.5 -16.5q0 -10 -7.5 -17t-17.5 -7zM388 662q-10 0 -17.5 7t-7.5 17q0 9 7.5 16.5t17.5 7.5t17.5 -7.5t7.5 -16.5q0 -10 -7.5 -17t-17.5 -7zM551 486l-399 -766h-23l146 280l-255 486h25l242 -463
l241 463h23z" />
    <glyph glyph-name="ygrave.aalt" horiz-adv-x="571" 
d="M276 627l-95 136h23l93 -136h-21zM551 486l-399 -766h-23l146 280l-255 486h25l242 -463l241 463h23z" />
    <glyph glyph-name="germandbls.salt" horiz-adv-x="672" 
d="M422 402q65 -9 108.5 -38t65.5 -70t22 -94q0 -42 -14.5 -80t-42.5 -67t-70.5 -46t-95.5 -17q-47 0 -99 13t-94 38l13 18q37 -22 87 -35.5t95 -13.5q35 0 70.5 10t64 34t47 61t18.5 85q0 56 -27.5 97.5t-81.5 67.5t-132 26h-55v21h55q86 0 141 47t55 121q0 27 -9.5 56.5
t-33.5 54.5t-64 42t-96 17q-100 0 -161.5 -66t-61.5 -175v-509h-21v509q0 58 17.5 106.5t50 83t78 53t98.5 18.5q49 0 91 -13.5t71.5 -38.5t45.5 -59.5t16 -74.5q0 -30 -13 -68.5t-49.5 -70.5t-88.5 -43z" />
    <glyph glyph-name="j.aalt" horiz-adv-x="273" 
d="M147 709q10 0 17.5 -7.5t7.5 -16.5q0 -10 -7.5 -17t-17.5 -7t-17.5 7t-7.5 17q0 9 7.5 16.5t17.5 7.5zM-5 -274l9 17q22 -13 49 -13q37 0 60 23t23 60v673h21v-673q0 -22 -9.5 -46t-34.5 -40.5t-58 -16.5q-34 0 -60 16z" />
    <glyph glyph-name="ij.aalt" horiz-adv-x="524" 
d="M125 709q10 0 17.5 -7.5t7.5 -16.5q0 -10 -7.5 -17t-17.5 -7t-17.5 7t-7.5 17q0 9 7.5 16.5t17.5 7.5zM398 709q10 0 17.5 -7.5t7.5 -16.5q0 -10 -7.5 -17t-17.5 -7t-17.5 7t-7.5 17q0 9 7.5 16.5t17.5 7.5zM136 0h-21v486h21v-486zM246 -274l9 17q22 -13 49 -13
q37 0 60 23t23 60v673h21v-673q0 -22 -9.5 -46t-34.5 -40.5t-58 -16.5q-34 0 -60 16z" />
    <glyph glyph-name="f_j.dlig" horiz-adv-x="571" 
d="M470 486v-766h-21v746h-313v-466h-21v466h-115v20h115v131q0 90 49.5 141.5t132.5 51.5q46 0 85.5 -17t77.5 -51l-12 -16q-69 64 -151 64q-73 0 -117 -46t-44 -127v-131h334z" />
    <glyph glyph-name="f_f_f.dlig" horiz-adv-x="988" 
d="M998 466h-237v-466h-21v466h-298v-466h-21v466h-285v-466h-21v466h-115v20h115v131q0 90 49.5 141.5t132.5 51.5q87 0 161 -66q24 32 61.5 49t83.5 17q85 0 156 -62q17 32 49 49.5t73 17.5q38 0 72 -16l-9 -18q-28 14 -62 14q-56 0 -88.5 -37t-32.5 -96v-176h237v-20z
M421 486v131q0 64 26 110q-33 30 -69.5 46.5t-80.5 16.5q-73 0 -117 -46t-44 -127v-131h285zM740 486v176q0 36 11 67q-68 61 -148 61q-73 0 -117 -46t-44 -127v-131h298z" />
    <glyph glyph-name="f_k.dlig" horiz-adv-x="954" 
d="M469 800v-800h-21v466h-312v-466h-21v466h-115v20h115v131q0 90 49.5 141.5t132.5 51.5q82 0 151 -58v48h21zM448 486v240q-69 64 -151 64q-73 0 -117 -46t-44 -127v-131h312zM934 0h-33l-239 239l-193 -239l1 34l364 452h29l-186 -229z" />
    <glyph glyph-name="f_f_k.dlig" horiz-adv-x="1254" 
d="M769 800v-800h-21v466h-312v-466h-21v466h-279v-466h-21v466h-115v20h115v131q0 90 49.5 141.5t132.5 51.5q85 0 157 -63q24 30 61 46.5t82 16.5q82 0 151 -58v48h21zM415 486v131q0 66 28 113q-67 60 -146 60q-73 0 -117 -46t-44 -127v-131h279zM748 486v240
q-69 64 -151 64q-73 0 -117 -46t-44 -127v-131h312zM1234 0h-33l-239 239l-193 -239l1 34l364 452h29l-186 -229z" />
    <glyph glyph-name="r_t.dlig" horiz-adv-x="737" 
d="M492 466v-343q0 -24 10 -50.5t37 -44.5t62 -18q47 0 86 36l12 -16q-43 -40 -99 -40q-57 0 -93 37t-36 96v343h-127q-50 0 -91 -20.5t-69.5 -55.5t-43 -80t-14.5 -92v-218h-21v486h21v-151q20 50 55 84.5t75.5 50.5t87.5 16h127v224l21 10v-234h240v-20h-240z" />
    <glyph glyph-name="f_k.dlig.ss03" horiz-adv-x="894" 
d="M838 0l-369 238v-238h-21v466h-312v-466h-21v466h-115v20h115v131q0 90 49.5 141.5t132.5 51.5q82 0 151 -58v48h21v-552l351 238h34l-355 -243l375 -243h-36zM448 486v240q-69 64 -151 64q-73 0 -117 -46t-44 -127v-131h312z" />
    <glyph glyph-name="f_f_k.dlig.ss03" horiz-adv-x="1194" 
d="M1138 0l-369 238v-238h-21v466h-312v-466h-21v466h-279v-466h-21v466h-115v20h115v131q0 90 49.5 141.5t132.5 51.5q85 0 157 -63q24 30 61 46.5t82 16.5q82 0 151 -58v48h21v-552l351 238h34l-355 -243l375 -243h-36zM415 486v131q0 66 28 113q-67 60 -146 60
q-73 0 -117 -46t-44 -127v-131h279zM748 486v240q-69 64 -151 64q-73 0 -117 -46t-44 -127v-131h312z" />
    <glyph glyph-name="uniFB02.aalt" horiz-adv-x="574" 
d="M469 800v-800h-21v466h-312v-466h-21v466h-115v20h115v131q0 90 49.5 141.5t132.5 51.5q82 0 151 -58v48h21zM448 486v240q-69 64 -151 64q-73 0 -117 -46t-44 -127v-131h312z" />
    <glyph glyph-name="f_h.dlig" horiz-adv-x="975" 
d="M684 496q88 0 142 -58t54 -152v-286h-21v286q0 85 -47.5 137.5t-124.5 52.5q-98 0 -158 -61.5t-60 -161.5v-253h-21v466h-312v-466h-21v466h-115v20h115v131q0 90 49.5 141.5t132.5 51.5q82 0 151 -58v48h21v-449q24 68 81 106.5t134 38.5zM448 486v240q-69 64 -151 64
q-73 0 -117 -46t-44 -127v-131h312z" />
    <glyph glyph-name="t_z.dlig" horiz-adv-x="860" 
d="M494 186h97q51 0 95 -17t76.5 -48t50 -74t17.5 -93q0 -51 -19 -96.5t-53.5 -78.5t-82.5 -51t-103 -18q-93 0 -158.5 48.5t-87.5 131.5l21 6q10 -37 28 -64.5t42 -48.5t64 -37t92 -16q50 0 94 16.5t75.5 47t49 72t17.5 88.5q0 45 -16 84.5t-45.5 68t-70 44t-87.5 15.5
h-127l-5 10l268 290h-598v-343q0 -24 10 -50.5t37 -44.5t62 -18q47 0 86 36l12 -16q-43 -40 -99 -40q-57 0 -93 37t-36 96v343h-107v20h107v224l21 10v-234h635v-6z" />
    <glyph glyph-name="y_t.dlig" horiz-adv-x="944" 
d="M699 466v-343q0 -24 10 -50.5t37 -44.5t62 -18q47 0 86 36l12 -16q-43 -40 -99 -40q-57 0 -93 37t-36 96v343h-137l-389 -746h-23l146 280l-255 486h25l242 -463l241 463h150v224l21 10v-234h240v-20h-240z" />
    <glyph glyph-name="L_A.dlig" horiz-adv-x="1308" 
d="M1288 0h-23l-100 214h-482l-100 -214h-478v760h22v-740h442l346 740h18zM1156 234l-232 494l-231 -494h463z" />
    <glyph glyph-name="R_A.dlig" horiz-adv-x="1491" 
d="M1471 0h-23l-100 214h-482l-100 -214h-29l-409 410h-201v-410h-22v760h265q32 0 67 -8t70 -31t52.5 -59.5t17.5 -75.5q0 -80 -58.5 -128t-148.5 -48h-13l393 -394l348 744h18zM127 430h243q49 0 93.5 18.5t68 55.5t23.5 81t-21.5 78t-63 55.5t-100.5 21.5h-243v-310z
M1339 234l-232 494l-231 -494h463z" />
    <glyph glyph-name="t_i.dlig" horiz-adv-x="624" 
d="M509 486v-486h-21v466h-360v-343q0 -24 10 -50.5t37 -44.5t62 -18q47 0 86 36l12 -16q-43 -40 -99 -40q-57 0 -93 37t-36 96v343h-107v20h107v224l21 10v-234h381zM498 709q10 0 17.5 -7.5t7.5 -16.5q0 -10 -7.5 -17t-17.5 -7t-17.5 7t-7.5 17q0 9 7.5 16.5t17.5 7.5z
" />
    <glyph glyph-name="t_h.dlig" horiz-adv-x="1005" 
d="M714 496q88 0 142 -58t54 -152v-286h-21v286q0 85 -47.5 137.5t-124.5 52.5q-98 0 -158 -61.5t-60 -161.5v-253h-21v466h-350v-343q0 -24 10 -50.5t37 -44.5t62 -18q47 0 86 36l12 -16q-43 -40 -99 -40q-57 0 -93 37t-36 96v343h-107v20h107v224l21 10v-234h350v314h21
v-449q24 68 81 106.5t134 38.5z" />
    <glyph glyph-name="t_u.dlig" horiz-adv-x="995" 
d="M890 486v-486h-21v135q-24 -68 -81 -106.5t-134 -38.5q-88 0 -142 58t-54 152v266h-330v-343q0 -24 10 -50.5t37 -44.5t62 -18q47 0 86 36l12 -16q-43 -40 -99 -40q-57 0 -93 37t-36 96v343h-107v20h107v224l21 10v-234h351v-286q0 -85 47.5 -137.5t124.5 -52.5
q98 0 158 61.5t60 161.5v253h21z" />
    <glyph glyph-name="t_y.dlig" horiz-adv-x="944" 
d="M924 486l-399 -766h-23l146 280l-245 466h-275v-343q0 -24 10 -50.5t37 -44.5t62 -18q47 0 86 36l12 -16q-43 -40 -99 -40q-57 0 -93 37t-36 96v343h-107v20h107v224l21 10v-234h290l242 -463l241 463h23z" />
    <glyph glyph-name="w_w_w.dlig" horiz-adv-x="2304" 
d="M2284 486l-188 -489h-25l-172 453l-172 -453h-25l-176 459l-177 -459h-25l-172 453l-172 -453h-25l-176 459l-177 -459h-25l-172 453l-172 -453h-25l-188 489h23l179 -456l174 456h18l174 -456l179 456h23l179 -456l174 456h18l174 -456l179 456h23l179 -456l174 456h18
l174 -456l179 456h23z" />
    <glyph glyph-name="W_W_W.dlig" horiz-adv-x="3192" 
d="M3046 760l-249 -760h-19l-244 726l-244 -726h-19l-237 725l-238 -725h-19l-244 726l-244 -726h-19l-237 725l-238 -725h-19l-244 726l-244 -726h-19l-249 760h23l235 -726l243 726h22l243 -726l235 726h23l235 -726l243 726h22l243 -726l235 726h23l235 -726l243 726h22
l243 -726l235 726h23z" />
    <glyph glyph-name="r_f.dlig" horiz-adv-x="766" 
d="M776 466h-237v-466h-21v466h-174q-50 0 -91 -20.5t-69.5 -55.5t-43 -80t-14.5 -92v-218h-21v486h21v-151q20 50 55 84.5t75.5 50.5t87.5 16h174v176q0 70 37.5 111.5t103.5 41.5q38 0 72 -16l-9 -18q-28 14 -62 14q-56 0 -88.5 -37t-32.5 -96v-176h237v-20z" />
    <glyph glyph-name="E_R.dlig" horiz-adv-x="1466" 
d="M1446 0h-32l-409 410h-198v-410h-22v410h-658v-390h458v-20h-480v760h480v-20h-458v-310h658v330h265q32 0 67 -8t70 -31t52.5 -59.5t17.5 -75.5q0 -80 -58.5 -128t-148.5 -48h-13zM807 430h243q49 0 93.5 18.5t68 55.5t23.5 81t-21.5 78t-63 55.5t-100.5 21.5h-243v-310
z" />
    <glyph glyph-name="f_f_j.dlig" horiz-adv-x="877" 
d="M776 486v-766h-21v746h-313v-466h-21v466h-285v-466h-21v466h-115v20h115v131q0 90 49.5 141.5t132.5 51.5q87 0 161 -66q24 32 61.5 49t83.5 17t85.5 -17t77.5 -51l-12 -16q-69 64 -151 64q-73 0 -117 -46t-44 -127v-131h334zM421 486v131q0 64 26 110
q-33 30 -69.5 46.5t-80.5 16.5q-73 0 -117 -46t-44 -127v-131h285z" />
    <glyph glyph-name="f_f_l.liga.ss02" horiz-adv-x="880" 
d="M775 800v-800h-21v466h-312v-466h-21v466h-285v-466h-21v466h-115v20h115v131q0 90 49.5 141.5t132.5 51.5q87 0 161 -66q24 32 61.5 49t83.5 17q82 0 151 -58v48h21zM421 486v131q0 64 26 110q-33 30 -69.5 46.5t-80.5 16.5q-73 0 -117 -46t-44 -127v-131h285zM754 486
v240q-69 64 -151 64q-73 0 -117 -46t-44 -127v-131h312z" />
    <glyph glyph-name="f_f_j.dlig.ss13" horiz-adv-x="907" 
d="M806 486v-673q0 -22 -9.5 -46t-34.5 -40.5t-58 -16.5q-34 0 -60 16l9 17q22 -13 49 -13q37 0 60 23t23 60v653h-343v-466h-21v466h-285v-466h-21v466h-115v20h115v131q0 90 49.5 141.5t132.5 51.5q87 0 161 -66q24 32 61.5 49t83.5 17t85.5 -17t77.5 -51l-12 -16
q-69 64 -151 64q-73 0 -117 -46t-44 -127v-131h364zM421 486v131q0 64 26 110q-33 30 -69.5 46.5t-80.5 16.5q-73 0 -117 -46t-44 -127v-131h285z" />
    <glyph glyph-name="f_j.dlig.ss13" horiz-adv-x="601" 
d="M500 486v-673q0 -22 -9.5 -46t-34.5 -40.5t-58 -16.5q-34 0 -60 16l9 17q22 -13 49 -13q37 0 60 23t23 60v653h-343v-466h-21v466h-115v20h115v131q0 90 49.5 141.5t132.5 51.5q46 0 85.5 -17t77.5 -51l-12 -16q-69 64 -151 64q-73 0 -117 -46t-44 -127v-131h364z" />
    <glyph glyph-name="zero.oldstyle" horiz-adv-x="729" 
d="M365 602q63 0 120 -23.5t99.5 -65.5t66 -99t23.5 -119q0 -46 -16 -97.5t-54 -97.5t-84.5 -70.5t-85.5 -32t-69 -7.5q-64 0 -121 23.5t-99.5 65t-66 98t-23.5 118.5q0 63 23.5 119.5t66 98.5t99.5 65.5t121 23.5zM365 10q59 0 112 22t92 61t61 91.5t22 110.5t-22 111
t-61 92.5t-92 61.5t-112 22t-112 -22t-92.5 -61.5t-61.5 -92.5t-22 -111q0 -43 14.5 -91t50 -91t79 -66t80 -30t64.5 -7z" />
    <glyph glyph-name="one.oldstyle" horiz-adv-x="599" 
d="M569 20v-20h-464v20h228v542l-193 -76v22l209 84h6v-572h214z" />
    <glyph glyph-name="two.oldstyle" horiz-adv-x="566" 
d="M516 20v-20h-467v11l222 153q79 54 107.5 78.5t46 48t28 50t10.5 62.5q0 79 -52.5 129.5t-136.5 50.5q-93 0 -149.5 -52.5t-56.5 -137.5l-23 2q1 22 7 49t21 53.5t41.5 50.5t68 39t89.5 15q59 0 110 -24.5t77 -72t26 -102.5q0 -20 -5 -44.5t-18 -49t-43 -57.5t-134 -104
l-189 -128h420z" />
    <glyph glyph-name="three.oldstyle" horiz-adv-x="654" 
d="M287 297h63q38 0 80 -11.5t82.5 -43t61 -79.5t20.5 -98q0 -51 -19 -96.5t-54.5 -78.5t-84.5 -51t-105 -18t-104.5 18.5t-83 52t-53.5 81.5t-20 104l22 4q0 -53 17.5 -97.5t49.5 -76.5t76.5 -49t96.5 -17q51 0 96 16.5t77.5 47t50 72t17.5 88.5q0 45 -16.5 84.5t-46.5 68
t-71.5 44t-89.5 15.5h-99l-3 8l306 287h-450v20h486v-11z" />
    <glyph glyph-name="four.oldstyle" horiz-adv-x="753" 
d="M738 0h-180v-158h-22v158h-496v14l504 578h14v-572h180v-20zM536 20v527l-460 -527h460z" />
    <glyph glyph-name="five.oldstyle" horiz-adv-x="644" 
d="M138 297h207q38 0 80 -11.5t82.5 -43t61 -79.5t20.5 -98q0 -51 -19 -96.5t-54.5 -78.5t-84.5 -51t-105 -18t-104.5 18.5t-83 52t-53.5 81.5t-20 104l22 4q0 -53 17.5 -97.5t49.5 -76.5t76.5 -49t96.5 -17q51 0 96 16.5t77.5 47t50 72t17.5 88.5q0 45 -16.5 84.5t-46.5 68
t-71.5 44t-89.5 15.5h-230l53 315h402v-20h-382z" />
    <glyph glyph-name="six.oldstyle" horiz-adv-x="685" 
d="M342 516q57 0 107.5 -19.5t87.5 -55t57.5 -84t20.5 -103.5t-20.5 -104t-57.5 -84.5t-87.5 -55.5t-107.5 -20t-107 20t-87 55.5t-57.5 84.5t-20.5 104q0 50 17 95t48 80l269 331h28l-223 -275q27 14 63 22.5t70 8.5zM342 11q25 0 57 6t64.5 22.5t62 45.5t48.5 73.5
t19 95.5q0 38 -12.5 79t-47 81.5t-87 61t-104.5 20.5t-98 -18t-80 -50.5t-53 -77.5t-19 -96q0 -24 6 -55t23 -62.5t47 -60t76 -47t98 -18.5z" />
    <glyph glyph-name="seven.oldstyle" horiz-adv-x="566" 
d="M551 592v-11l-359 -749h-28l359 740h-493v20h521z" />
    <glyph glyph-name="eight.oldstyle" horiz-adv-x="609" 
d="M360 393q89 -16 139 -67.5t50 -131.5q0 -33 -11.5 -68.5t-44 -69t-83.5 -50t-105 -16.5q-110 0 -177.5 56.5t-67.5 148.5q0 51 21.5 91t62.5 67t104 39q-42 7 -80.5 30.5t-59.5 66t-21 88.5q0 31 11.5 64.5t38.5 62t69.5 47.5t97.5 19q44 0 84 -14t70 -39.5t47 -61.5
t17 -77q0 -26 -8 -56t-27 -56.5t-51 -46t-76 -26.5zM109 578q-1 -44 21 -85t69.5 -63.5t105.5 -22.5q59 0 101.5 20.5t68 58.5t25.5 90q0 29 -10.5 59t-35 55t-62.5 41.5t-87 16.5q-37 0 -68 -10t-57 -27.5t-48 -51t-23 -81.5zM305 12q98 0 159 50.5t61 130.5q0 38 -15 72
t-43 59.5t-69.5 39.5t-91.5 14q-100 0 -161 -52.5t-61 -132.5t61 -130.5t160 -50.5z" />
    <glyph glyph-name="nine.oldstyle" horiz-adv-x="665" 
d="M615 338q0 -50 -17 -95t-48 -80l-269 -331h-28l223 275q-27 -14 -63 -22.5t-70 -8.5q-57 0 -107.5 19.5t-87.5 55t-57.5 84t-20.5 103.5t20.5 104t57.5 84.5t87.5 55.5t107.5 20t107 -20t87 -55.5t57.5 -84.5t20.5 -104zM92 338q0 -38 12.5 -79t47 -81.5t87 -61
t104.5 -20.5t98 18t80 50.5t53 77.5t19 96q0 24 -6 55t-23 62.5t-47 60t-76 47t-98 18.5q-25 0 -57 -6t-64.5 -22.5t-62 -45.5t-48.5 -73.5t-19 -95.5z" />
    <glyph glyph-name="zero.tnum" 
d="M335 770q67 0 124 -28t98 -80t63 -125t22 -158t-22 -157.5t-63 -124t-98 -79.5t-124 -28t-124 28t-98 79.5t-63 124t-22 157.5t22 158t63 125t98 80t124 28zM335 11q62 0 115.5 26.5t91 75.5t58 117.5t20.5 148.5q0 81 -20.5 150t-58 118t-91 76t-115.5 27t-115.5 -27
t-91 -76t-58 -118t-20.5 -150q0 -80 20.5 -148.5t58 -117.5t91 -75.5t115.5 -26.5z" />
    <glyph glyph-name="one.tnum" 
d="M585 20v-20h-500v20h249v710l-224 -90v22l240 98h6v-740h229z" />
    <glyph glyph-name="two.tnum" 
d="M587 20v-20h-486v13l265 252q95 90 125 131t42 76.5t12 74.5q0 33 -10.5 68.5t-35.5 65t-66 49.5t-97 20q-97 0 -156.5 -63t-60.5 -162l-23 3q1 53 19 98t49.5 77t75.5 49.5t96 17.5q49 0 91.5 -15.5t73.5 -45t48 -71.5t17 -91q0 -21 -4.5 -48t-17 -55.5t-40.5 -66.5
t-123 -128l-242 -229h448z" />
    <glyph glyph-name="three.tnum" 
d="M314 465h63q38 0 80 -11.5t82.5 -43t61 -79.5t20.5 -98q0 -51 -19 -96.5t-54.5 -78.5t-84.5 -51t-105 -18t-104.5 18.5t-83 52t-53.5 81.5t-20 104l22 4q0 -53 17.5 -97.5t49.5 -76.5t76.5 -49t96.5 -17q51 0 96 16.5t77.5 47t50 72t17.5 88.5q0 45 -16.5 84.5t-46.5 68
t-71.5 44t-89.5 15.5h-99l-3 8l306 287h-450v20h486v-11z" />
    <glyph glyph-name="four.tnum" 
d="M648 163h-136v-163h-22v163h-460v14l470 583h12v-576h136v-21zM490 184v526l-426 -526h426z" />
    <glyph glyph-name="five.tnum" 
d="M144 465h207q38 0 80 -11.5t82.5 -43t61 -79.5t20.5 -98q0 -51 -19 -96.5t-54.5 -78.5t-84.5 -51t-105 -18t-104.5 18.5t-83 52t-53.5 81.5t-20 104l22 4q0 -53 17.5 -97.5t49.5 -76.5t76.5 -49t96.5 -17q51 0 96 16.5t77.5 47t50 72t17.5 88.5q0 45 -16.5 84.5t-46.5 68
t-71.5 44t-89.5 15.5h-230l53 315h402v-20h-382z" />
    <glyph glyph-name="six.tnum" 
d="M334 516q57 0 107.5 -19.5t87.5 -55t57.5 -84t20.5 -103.5t-20.5 -104t-57.5 -84.5t-87.5 -55.5t-107.5 -20t-107 20t-87 55.5t-57.5 84.5t-20.5 104q0 50 17 95t48 80l269 331h28l-223 -275q27 14 63 22.5t70 8.5zM334 11q25 0 57 6t64.5 22.5t62 45.5t48.5 73.5
t19 95.5q0 38 -12.5 79t-47 81.5t-87 61t-104.5 20.5t-98 -18t-80 -50.5t-53 -77.5t-19 -96q0 -24 6 -55t23 -62.5t47 -60t76 -47t98 -18.5z" />
    <glyph glyph-name="seven.tnum" 
d="M615 760v-13l-428 -747h-26l426 740h-503v20h531z" />
    <glyph glyph-name="eight.tnum" 
d="M391 393q89 -16 139 -67.5t50 -131.5q0 -33 -11.5 -68.5t-44 -69t-83.5 -50t-105 -16.5q-110 0 -177.5 56.5t-67.5 148.5q0 51 21.5 91t62.5 67t104 39q-42 7 -80.5 30.5t-59.5 66t-21 88.5q0 31 11.5 64.5t38.5 62t69.5 47.5t97.5 19q44 0 84 -14t70 -39.5t47 -61.5
t17 -77q0 -26 -8 -56t-27 -56.5t-51 -46t-76 -26.5zM140 578q-1 -44 21 -85t69.5 -63.5t105.5 -22.5q59 0 101.5 20.5t68 58.5t25.5 90q0 29 -10.5 59t-35 55t-62.5 41.5t-87 16.5q-37 0 -68 -10t-57 -27.5t-48 -51t-23 -81.5zM336 12q98 0 159 50.5t61 130.5q0 38 -15 72
t-43 59.5t-69.5 39.5t-91.5 14q-100 0 -161 -52.5t-61 -132.5t61 -130.5t160 -50.5z" />
    <glyph glyph-name="nine.tnum" 
d="M608 506q0 -50 -17 -95t-48 -80l-269 -331h-28l223 275q-27 -14 -63 -22.5t-70 -8.5q-57 0 -107.5 19.5t-87.5 55t-57.5 84t-20.5 103.5t20.5 104t57.5 84.5t87.5 55.5t107.5 20t107 -20t87 -55.5t57.5 -84.5t20.5 -104zM85 506q0 -38 12.5 -79t47 -81.5t87 -61
t104.5 -20.5t98 18t80 50.5t53 77.5t19 96q0 24 -6 55t-23 62.5t-47 60t-76 47t-98 18.5q-25 0 -57 -6t-64.5 -22.5t-62 -45.5t-48.5 -73.5t-19 -95.5z" />
    <glyph glyph-name="glyph364" 
d="M331 770q67 0 124 -28t98 -80t63 -125t22 -158t-22 -157.5t-63 -124t-98 -79.5t-124 -28t-124 28t-98 79.5t-63 124t-22 157.5t22 158t63 125t98 80t124 28zM331 750q-62 0 -115.5 -27t-91 -76t-58 -118t-20.5 -150q0 -73 17 -137t48 -111l402 544q-35 36 -82 55.5
t-100 19.5zM331 11q62 0 115.5 26.5t91 75.5t58 117.5t20.5 148.5q0 86 -23 159t-65 122l-404 -547q28 -36 65 -60.5t74.5 -33t67.5 -8.5z" />
    <glyph glyph-name="zero.zero" horiz-adv-x="889" 
d="M445 770q76 0 145 -30t120 -83.5t80 -126t29 -151.5t-29 -151t-80 -125.5t-120 -83t-145 -29.5t-145 29.5t-120.5 83t-80.5 125.5t-29 151q0 80 29 152t80.5 125.5t120.5 83.5t145 30zM92 379q0 -76 28 -145.5t77 -119.5l451 570q-90 66 -203 66q-72 0 -137 -28.5
t-113.5 -79.5t-75.5 -119.5t-27 -143.5zM445 10q72 0 136.5 28.5t113 79t75.5 118.5t27 143q0 41 -12 94.5t-44 106.5t-77 91l-452 -571q47 -42 107.5 -66t125.5 -24z" />
    <glyph glyph-name="glyph366" horiz-adv-x="729" 
d="M365 602q63 0 120 -23.5t99.5 -65.5t66 -99t23.5 -119q0 -46 -16 -97.5t-54 -97.5t-84.5 -70.5t-85.5 -32t-69 -7.5q-64 0 -121 23.5t-99.5 65t-66 98t-23.5 118.5q0 63 23.5 119.5t66 98.5t99.5 65.5t121 23.5zM77 295q0 -62 24.5 -117.5t67.5 -94.5l357 451
q-74 48 -161 48q-59 0 -112 -22t-92.5 -61.5t-61.5 -92.5t-22 -111zM365 10q59 0 112 22t92 61t61 91.5t22 110.5q0 68 -29.5 127.5t-79.5 99.5l-357 -452q37 -28 83 -44t96 -16z" />
    <glyph glyph-name="zero.dnom" horiz-adv-x="447" 
d="M224 359q37 0 70.5 -13.5t58.5 -38t39.5 -58.5t14.5 -74q0 -50 -24 -94.5t-68.5 -67.5t-90.5 -23q-37 0 -66.5 11.5t-53.5 31t-44 56t-20 86.5q0 80 54 132t130 52zM224 9q32 0 61.5 12t52 34t35.5 53t13 67t-13 67t-35.5 53t-52 34t-61.5 12q-24 0 -51 -8t-54.5 -30.5
t-42 -57t-14.5 -70.5q0 -27 8.5 -55.5t29 -53t52.5 -41t72 -16.5z" />
    <glyph glyph-name="one.dnom" horiz-adv-x="200" 
d="M130 0h-21v333l-94 -38v19l109 45h6v-359z" />
    <glyph glyph-name="two.dnom" horiz-adv-x="334" 
d="M284 18v-18h-239v7l117 109q43 40 62.5 62t26.5 41t7 36q0 40 -25.5 65t-64.5 25q-43 0 -71.5 -28t-28.5 -72l-20 3q0 24 11.5 51t41.5 45.5t67 18.5q23 0 48.5 -10t43 -36t17.5 -61q0 -20 -8 -42t-29 -45.5t-65 -64.5l-92 -86h201z" />
    <glyph glyph-name="three.dnom" horiz-adv-x="327" 
d="M156 210h16q39 0 68.5 -16.5t40.5 -42t11 -47.5q0 -37 -20.5 -65t-50.5 -38.5t-57 -10.5q-35 0 -66 16.5t-45 41.5t-17 46l19 5q2 -19 14.5 -40.5t39 -36t55.5 -14.5q35 0 62 15t37 38t10 43q0 39 -28 63.5t-73 24.5h-49l-2 7l127 136h-198v19h236v-4z" />
    <glyph glyph-name="four.dnom" horiz-adv-x="349" 
d="M329 86h-67v-86h-20v86h-212v11l221 261h11v-254h67v-18zM242 104v213l-180 -213h180z" />
    <glyph glyph-name="five.dnom" horiz-adv-x="317" 
d="M89 210h80q53 0 85.5 -29t32.5 -77q0 -37 -20 -65t-49.5 -38.5t-55.5 -10.5q-48 0 -84 29.5t-42 74.5l20 2q4 -29 22.5 -50.5t42 -29.5t41.5 -8q47 0 76.5 26.5t29.5 69.5q0 39 -27.5 63.5t-71.5 24.5h-101l25 162h183v-19h-167z" />
    <glyph glyph-name="six.dnom" horiz-adv-x="317" 
d="M159 239q55 0 91.5 -35t36.5 -89q0 -39 -21 -70t-51.5 -43t-55.5 -12q-26 0 -56 12t-51.5 43t-21.5 70q0 24 9 46.5t24 38.5l121 152h23l-95 -121q8 3 23 5.5t24 2.5zM159 9q21 0 46.5 10t44 36.5t18.5 59.5q0 22 -10.5 47t-38 42.5t-60.5 17.5q-22 0 -47.5 -10
t-44 -36.5t-18.5 -60.5q0 -21 10.5 -46t38 -42.5t61.5 -17.5z" />
    <glyph glyph-name="seven.dnom" horiz-adv-x="262" 
d="M252 358v-6l-178 -352h-24l175 339h-218v19h245z" />
    <glyph glyph-name="eight.dnom" horiz-adv-x="298" 
d="M182 184q21 -4 41.5 -16t32.5 -33.5t12 -46.5q0 -20 -11 -43.5t-40 -39t-68 -15.5q-38 0 -67.5 16t-40.5 39t-11 44q0 35 23.5 61.5t64.5 33.5q-35 7 -56 29t-21 55q0 29 18 51.5t43.5 31t47.5 8.5q46 0 76.5 -25.5t30.5 -64.5q0 -32 -20 -55t-55 -30zM61 268
q0 -31 25.5 -51t63.5 -20q28 0 49 11t29 27.5t9 31.5q1 34 -24 54t-63 20q-37 0 -63 -21t-26 -52zM149 9q32 0 56 12.5t33 32t9 36.5q0 34 -26 56.5t-71 22.5t-72 -22.5t-27 -57.5t27 -57.5t71 -22.5z" />
    <glyph glyph-name="nine.dnom" horiz-adv-x="317" 
d="M287 237q0 -23 -8.5 -45t-22.5 -38l-123 -154h-23l95 120q-24 -7 -46 -7q-40 0 -72 20.5t-44.5 49.5t-12.5 54t12.5 54.5t44.5 50t72 20.5q25 0 55.5 -12t51.5 -43t21 -70zM49 237q0 -22 10.5 -47t38 -42.5t61.5 -17.5q21 0 46.5 10t44 36.5t18.5 60.5q0 21 -10.5 46
t-38 42.5t-60.5 17.5q-22 0 -47.5 -10t-44 -36.5t-18.5 -59.5z" />
    <glyph glyph-name="zero.numr" horiz-adv-x="447" 
d="M224 770q37 0 70.5 -13.5t58.5 -38t39.5 -58.5t14.5 -74q0 -50 -24 -94.5t-68.5 -67.5t-90.5 -23q-37 0 -66.5 11.5t-53.5 31t-44 56t-20 86.5q0 80 54 132t130 52zM224 420q32 0 61.5 12t52 34t35.5 53t13 67t-13 67t-35.5 53t-52 34t-61.5 12q-24 0 -51 -8t-54.5 -30.5
t-42 -57t-14.5 -70.5q0 -27 8.5 -55.5t29 -53t52.5 -41t72 -16.5z" />
    <glyph glyph-name="one.numr" horiz-adv-x="200" 
d="M130 401h-21v333l-94 -38v19l109 45h6v-359z" />
    <glyph glyph-name="two.numr" horiz-adv-x="334" 
d="M284 425v-18h-239v7l117 109q43 40 62.5 62t26.5 41t7 36q0 40 -25.5 65t-64.5 25q-43 0 -71.5 -28t-28.5 -72l-20 3q0 24 11.5 51t41.5 45.5t67 18.5q23 0 48.5 -10t43 -36t17.5 -61q0 -20 -8 -42t-29 -45.5t-65 -64.5l-92 -86h201z" />
    <glyph glyph-name="three.numr" horiz-adv-x="327" 
d="M156 616h16q39 0 68.5 -16.5t40.5 -42t11 -47.5q0 -37 -20.5 -65t-50.5 -38.5t-57 -10.5q-35 0 -66 16.5t-45 41.5t-17 46l19 5q2 -19 14.5 -40.5t39 -36t55.5 -14.5q35 0 62 15t37 38t10 43q0 39 -28 63.5t-73 24.5h-49l-2 7l127 136h-198v19h236v-4z" />
    <glyph glyph-name="four.numr" horiz-adv-x="349" 
d="M329 488h-67v-86h-20v86h-212v11l221 261h11v-254h67v-18zM242 506v213l-180 -213h180z" />
    <glyph glyph-name="five.numr" horiz-adv-x="317" 
d="M89 616h80q53 0 85.5 -29t32.5 -77q0 -37 -20 -65t-49.5 -38.5t-55.5 -10.5q-48 0 -84 29.5t-42 74.5l20 2q4 -29 22.5 -50.5t42 -29.5t41.5 -8q47 0 76.5 26.5t29.5 69.5q0 39 -27.5 63.5t-71.5 24.5h-101l25 162h183v-19h-167z" />
    <glyph glyph-name="six.numr" horiz-adv-x="317" 
d="M159 647q55 0 91.5 -35t36.5 -89q0 -39 -21 -70t-51.5 -43t-55.5 -12q-26 0 -56 12t-51.5 43t-21.5 70q0 24 9 46.5t24 38.5l121 152h23l-95 -121q8 3 23 5.5t24 2.5zM159 417q21 0 46.5 10t44 36.5t18.5 59.5q0 22 -10.5 47t-38 42.5t-60.5 17.5q-22 0 -47.5 -10
t-44 -36.5t-18.5 -60.5q0 -21 10.5 -46t38 -42.5t61.5 -17.5z" />
    <glyph glyph-name="seven.numr" horiz-adv-x="262" 
d="M252 760v-6l-178 -352h-24l175 339h-218v19h245z" />
    <glyph glyph-name="eight.numr" horiz-adv-x="298" 
d="M182 595q21 -4 41.5 -16t32.5 -33.5t12 -46.5q0 -20 -11 -43.5t-40 -39t-68 -15.5q-38 0 -67.5 16t-40.5 39t-11 44q0 35 23.5 61.5t64.5 33.5q-35 7 -56 29t-21 55q0 29 18 51.5t43.5 31t47.5 8.5q46 0 76.5 -25.5t30.5 -64.5q0 -32 -20 -55t-55 -30zM61 679
q0 -31 25.5 -51t63.5 -20q28 0 49 11t29 27.5t9 31.5q1 34 -24 54t-63 20q-37 0 -63 -21t-26 -52zM149 420q32 0 56 12.5t33 32t9 36.5q0 34 -26 56.5t-71 22.5t-72 -22.5t-27 -57.5t27 -57.5t71 -22.5z" />
    <glyph glyph-name="nine.numr" horiz-adv-x="317" 
d="M287 645q0 -23 -8.5 -45t-22.5 -38l-123 -154h-23l95 120q-24 -7 -46 -7q-40 0 -72 20.5t-44.5 49.5t-12.5 54t12.5 54.5t44.5 50t72 20.5q25 0 55.5 -12t51.5 -43t21 -70zM49 645q0 -22 10.5 -47t38 -42.5t61.5 -17.5q21 0 46.5 10t44 36.5t18.5 60.5q0 21 -10.5 46
t-38 42.5t-60.5 17.5q-22 0 -47.5 -10t-44 -36.5t-18.5 -59.5z" />
    <glyph glyph-name="backslash.aalt" horiz-adv-x="318" 
d="M287 0h-20l-236 760h20z" />
    <glyph glyph-name="periodcentered.aalt" horiz-adv-x="170" 
d="M85 397q10 0 17.5 -7.5t7.5 -16.5q0 -10 -7.5 -17t-17.5 -7t-17.5 7t-7.5 17q0 9 7.5 16.5t17.5 7.5z" />
    <glyph glyph-name="bullet.aalt" horiz-adv-x="373" 
d="M186 505q38 0 70 -21t44.5 -49.5t12.5 -51.5q0 -38 -21.5 -68t-51 -41.5t-54.5 -11.5t-54.5 11.5t-50.5 41.5t-21 68q0 23 12.5 51.5t44 49.5t69.5 21z" />
    <glyph glyph-name="colon.aalt" horiz-adv-x="170" 
d="M85 578q10 0 17.5 -7.5t7.5 -16.5q0 -10 -7.5 -17t-17.5 -7t-17.5 7t-7.5 17q0 9 7.5 16.5t17.5 7.5zM85 216q10 0 17.5 -7.5t7.5 -16.5q0 -10 -7.5 -17t-17.5 -7t-17.5 7t-7.5 17q0 9 7.5 16.5t17.5 7.5z" />
    <glyph glyph-name="exclamdown.aalt" horiz-adv-x="250" 
d="M125 714q-10 0 -17.5 7.5t-7.5 16.5q0 10 7.5 17t17.5 7t17.5 -7t7.5 -17q0 -9 -7.5 -16.5t-17.5 -7.5zM115 560h21v-560h-21v560z" />
    <glyph glyph-name="questiondown.aalt" horiz-adv-x="510" 
d="M263 716q-10 0 -17.5 7.5t-7.5 16.5q0 10 7.5 17t17.5 7t17.5 -7t7.5 -17q0 -9 -7.5 -16.5t-17.5 -7.5zM448 212l22 -3q0 -97 -60 -157t-157 -60q-59 0 -110 24.5t-77 72.5t-26 103q0 53 25 96.5t73 73t114 32.5v168h22v-188h-11q-40 0 -77 -13t-65 -37.5t-44 -58.5
t-16 -73q0 -81 53 -130.5t139 -49.5q87 0 141 55.5t54 144.5z" />
    <glyph glyph-name="semicolon.aalt" horiz-adv-x="192" 
d="M107 578q10 0 17.5 -7.5t7.5 -16.5q0 -10 -7.5 -17t-17.5 -7t-17.5 7t-7.5 17q0 9 7.5 16.5t17.5 7.5zM40 -132h-20l72 258h28v-2z" />
    <glyph glyph-name="slash.case" horiz-adv-x="338" 
d="M48 0h-24l265 760h24z" />
    <glyph glyph-name="braceleft.aalt" horiz-adv-x="435" 
d="M205 620v-117q0 -46 -18.5 -80t-51.5 -49q33 -14 51.5 -48.5t18.5 -80.5v-104q0 -40 16 -69.5t39 -40.5t44 -11h61v-20h-61q-27 0 -54.5 12.5t-47 47.5t-19.5 81v104q0 38 -16 67.5t-39 40.5t-44 11h-14v21h14q21 0 44 10.5t39 39.5t16 67v118q0 29 11 61.5t39.5 55.5
t70.5 23h61v-20h-61q-21 0 -44 -11t-39 -40.5t-16 -68.5z" />
    <glyph glyph-name="braceright.aalt" horiz-adv-x="435" 
d="M365 385v-21h-14q-21 0 -44 -11t-39 -40.5t-16 -67.5v-104q0 -30 -11 -62.5t-39.5 -55.5t-70.5 -23h-61v20h61q21 0 44 11t39 40.5t16 69.5v104q0 46 18.5 80.5t51.5 48.5q-33 15 -51.5 49t-18.5 80v117q0 39 -16 68.5t-39 40.5t-44 11h-61v20h61q27 0 54.5 -12.5t47 -47
t19.5 -80.5v-118q0 -25 9 -52.5t33.5 -46t56.5 -18.5h14z" />
    <glyph glyph-name="bracketleft.aalt" horiz-adv-x="377" 
d="M127 740v-720h180v-20h-202v760h202v-20h-180z" />
    <glyph glyph-name="bracketright.aalt" horiz-adv-x="377" 
d="M272 760v-760h-202v20h180v720h-180v20h202z" />
    <glyph glyph-name="parenleft.aalt" horiz-adv-x="316" 
d="M235 769l11 -12q-52 -53 -86 -111.5t-51 -125t-17 -141.5q0 -49 8.5 -100.5t23.5 -91t42.5 -86t79.5 -99.5l-11 -12q-88 85 -126.5 181.5t-38.5 207.5t38.5 208t126.5 182z" />
    <glyph glyph-name="parenright.aalt" horiz-adv-x="316" 
d="M70 757l11 12q88 -85 126.5 -182t38.5 -208t-38.5 -207.5t-126.5 -181.5l-11 12q42 42 68.5 82.5t46.5 85.5t29.5 102.5t9.5 106.5q0 75 -17 141.5t-51 125t-86 111.5z" />
    <glyph glyph-name="emdash.aalt" horiz-adv-x="1250" 
d="M1190 365h-1130v20h1130v-20z" />
    <glyph glyph-name="endash.aalt" horiz-adv-x="620" 
d="M560 365h-500v20h500v-20z" />
    <glyph glyph-name="hyphen.aalt" horiz-adv-x="438" 
d="M378 365h-318v20h318v-20z" />
    <glyph glyph-name="guillemotleft.aalt" horiz-adv-x="357" 
d="M25 382l132 178h25l-132 -178l132 -178h-25zM175 382l132 178h25l-132 -178l132 -178h-25z" />
    <glyph glyph-name="guillemotright.aalt" horiz-adv-x="357" 
d="M25 204l132 178l-132 178h25l132 -178l-132 -178h-25zM175 204l132 178l-132 178h25l132 -178l-132 -178h-25z" />
    <glyph glyph-name="guilsinglleft.aalt" horiz-adv-x="207" 
d="M25 382l132 178h25l-132 -178l132 -178h-25z" />
    <glyph glyph-name="guilsinglright.aalt" horiz-adv-x="207" 
d="M25 204l132 178l-132 178h25l132 -178l-132 -178h-25z" />
    <glyph glyph-name="cent.aalt" 
d="M337 12q76 0 133.5 40.5t77.5 106.5l19 -8q-21 -69 -80 -112t-138 -47v-122h-21v122q-24 1 -55 7.5t-62.5 24t-60 47.5t-47 75.5t-18.5 97.5q0 38 10.5 74.5t30 66.5t51 56.5t72.5 40t79 14.5v134h21v-134q79 -4 138 -47t80 -112l-19 -8q-20 66 -77.5 106.5t-133.5 40.5
q-48 0 -96 -19.5t-80 -58.5t-43.5 -78.5t-11.5 -75.5t11.5 -75.5t43.5 -78.5t80 -58.5t96 -19.5z" />
    <glyph glyph-name="dollar.aalt" 
d="M589 187q0 -52 -25.5 -94.5t-77 -71.5t-127.5 -32v-145h-26v145q-110 4 -184 65.5t-86 159.5l24 6q4 -47 25 -86.5t55.5 -67t81 -42.5t98.5 -15q98 0 158.5 49.5t60.5 128.5q0 112 -138 156l-172 55q-92 29 -128.5 71t-36.5 104q0 31 10.5 64.5t37 62t70 48.5t104.5 22
v124h24v-124q97 -4 160.5 -58t79.5 -140l-21 -7q-17 86 -79 135t-154 49q-34 0 -70 -8.5t-66.5 -29t-51.5 -55.5t-21 -84q0 -53 30 -90t126 -66l161 -50q158 -49 158 -179z" />
    <glyph glyph-name="Euro.aalt" 
d="M365 10q92 0 158 64t92 175l20 -6q-6 -27 -18 -60.5t-32 -66t-51 -61.5t-75 -47t-94 -18q-108 0 -182.5 77t-96.5 208h-70v21h67q-5 43 -5 83t4 71h-66v21h68q10 67 34.5 122.5t61 95t84 60.5t101.5 21q100 0 172.5 -70t97.5 -185l-20 -7q-26 111 -92 176.5t-158 65.5
q-101 0 -170 -75.5t-88 -203.5h328l-7 -21h-324q-4 -31 -4 -71t5 -83h283l-5 -21h-274q8 -44 25 -90t52 -89.5t82.5 -64.5t96.5 -21z" />
    <glyph glyph-name="florin.aalt" 
d="M506 750q-60 0 -100 -37.5t-51 -99.5l-49 -268h222v-20h-225l-70 -384q-9 -47 -42 -76.5t-78 -29.5q-38 0 -63 22l12 17q20 -19 52 -19q37 0 64 24t34 62l70 384h-137v20h140l49 268q13 71 59.5 114t115.5 43q65 0 105 -42l-14 -15q-37 37 -94 37z" />
    <glyph glyph-name="sterling.aalt" 
d="M629 20v-20h-598v14l98 5v307h-98v20h98v188q0 51 18 95t50.5 75.5t78 48.5t98.5 17t99 -17t78.5 -48t50 -74t17.5 -92l-22 -5q0 47 -16 87t-46 68.5t-71 44t-90 15.5q-99 0 -161 -60t-62 -155v-188h348v-20h-348v-306h478z" />
    <glyph glyph-name="yen.aalt" 
d="M359 326h219v-21h-232v-115h232v-21h-232v-169h-22v169h-232v21h232v115h-232v21h219l-286 434h26l283 -434h2l283 434h26z" />
    <glyph glyph-name="approxequal.aalt" 
d="M545 409v-26q-17 -10 -44 -17t-51 -7q-48 0 -103 28.5t-77.5 32.5t-37.5 4q-25 0 -57 -10t-50 -28v24q18 16 49 25t58 9q15 0 38.5 -4t67.5 -26.5t66.5 -28.5t45.5 -6t51 8.5t44 21.5zM545 239v-26q-17 -10 -44 -17t-51 -7q-48 0 -103 28.5t-77.5 32.5t-37.5 4
q-25 0 -57 -10t-50 -28v24q18 16 49 25t58 9q15 0 38.5 -4t67.5 -26.5t66.5 -28.5t45.5 -6t51 8.5t44 21.5z" />
    <glyph glyph-name="divide.aalt" 
d="M335 513q10 0 17.5 -7.5t7.5 -16.5q0 -10 -7.5 -17t-17.5 -7t-17.5 7t-7.5 17q0 9 7.5 16.5t17.5 7.5zM545 295h-420v20h420v-20zM335 145q10 0 17.5 -7.5t7.5 -16.5q0 -10 -7.5 -17t-17.5 -7t-17.5 7t-7.5 17q0 9 7.5 16.5t17.5 7.5z" />
    <glyph glyph-name="equal.aalt" 
d="M545 395h-420v20h420v-20zM545 215h-420v20h420v-20z" />
    <glyph glyph-name="greater.aalt" 
d="M492 305l-322 160v23l354 -177v-12l-354 -177v23z" />
    <glyph glyph-name="greaterequal.aalt" 
d="M477 325l-307 130v23l344 -147v-12l-344 -147v23zM510 95h-340v20h340v-20z" />
    <glyph glyph-name="less.aalt" 
d="M480 122l-354 177v12l354 177v-23l-322 -160l322 -160v-23z" />
    <glyph glyph-name="lessequal.aalt" 
d="M490 172l-344 147v12l344 147v-23l-307 -130l307 -130v-23zM490 115v-20h-340v20h340z" />
    <glyph glyph-name="minus.aalt" 
d="M545 295h-420v20h420v-20z" />
    <glyph glyph-name="multiply.aalt" 
d="M350 305l148 -148l-15 -15l-148 148l-148 -148l-15 15l148 148l-148 148l15 15l148 -148l148 148l15 -15z" />
    <glyph glyph-name="notequal.aalt" 
d="M402 395l-107 -160h250v-20h-263l-74 -110h-26l74 110h-131v20h144l107 160h-251v20h264l74 110h26l-74 -110h130v-20h-143z" />
    <glyph glyph-name="plus.aalt" 
d="M545 295h-200v-200h-20v200h-200v20h200v200h20v-200h200v-20z" />
    <glyph glyph-name="plusminus.aalt" 
d="M545 340v-20h-200v-190h-20v190h-200v20h200v190h20v-190h200zM125 20h420v-20h-420v20z" />
    <glyph glyph-name="bar.aalt" horiz-adv-x="232" 
d="M127 0h-22v760h22v-760z" />
    <glyph glyph-name="at.aalt" horiz-adv-x="1065" 
d="M534 830q118 0 221.5 -52.5t166.5 -155.5t63 -233q0 -75 -19.5 -131.5t-55 -87.5t-86.5 -31q-25 0 -53.5 10t-47.5 36.5t-19 62.5v29q-12 -28 -37 -58.5t-67 -50.5t-89 -20q-44 0 -83.5 16.5t-69.5 46.5t-47 73t-17 92q0 37 11 76.5t41.5 77.5t75.5 57t89 19
q65 0 116.5 -35t76.5 -95v118h21v-348q0 -39 27 -64t70 -25q35 0 62 19t45 53t26 77t8 84q0 67 -22 139t-74.5 134t-117 95t-119 43t-96.5 10q-90 0 -170 -32t-138.5 -90t-91 -137.5t-32.5 -168.5q0 -90 32.5 -169.5t89.5 -138t133 -90.5t159 -32q64 0 138.5 18.5
t121.5 48.5l12 -19q-24 -15 -66.5 -31.5t-99.5 -27t-105 -10.5q-112 0 -212.5 54t-162.5 159t-62 237q0 120 55 222.5t161 164t238 61.5zM512 166q39 0 74 15t61.5 43t41.5 67.5t15 85.5q0 34 -10 70t-33.5 66.5t-61.5 51t-87 20.5q-40 0 -76 -14.5t-63 -42t-42.5 -66.5
t-15.5 -85q0 -57 26 -108t73.5 -77t97.5 -26z" />
    <glyph glyph-name="glyph550" horiz-adv-x="600" 
d="M298 504h-18v146h22z" />
    </font>
</defs>
</svg>
